<?xml version="1.0" encoding="utf-8"?>
<!-- Generator: Adobe Illustrator 18.0.0, SVG Export Plug-In . SVG Version: 6.00 Build 0)  -->
<!DOCTYPE svg PUBLIC "-//W3C//DTD SVG 1.1//EN" "http://www.w3.org/Graphics/SVG/1.1/DTD/svg11.dtd">
<svg version="1.1" id="Livello_1" xmlns="http://www.w3.org/2000/svg" xmlns:xlink="http://www.w3.org/1999/xlink" x="0px" y="0px"
	 viewBox="0 0 40 40" enable-background="new 0 0 40 40" xml:space="preserve">
<g>
	<path d="M9.812,20.909H8.941c-2.94,0-5.332-2.403-5.332-5.356c0-3.044,2.56-5.506,5.601-5.35c0.63-2.002,2.482-3.412,4.66-3.412
		c2.091,0,3.917,1.34,4.602,3.249c1.562-0.111,3.081,0.562,4.049,1.809c0.339,0.436,0.26,1.064-0.176,1.403
		c-0.435,0.339-1.065,0.261-1.403-0.176c-0.684-0.878-1.867-1.251-2.923-0.929c-0.282,0.086-0.587,0.043-0.834-0.115
		c-0.248-0.16-0.412-0.42-0.45-0.712c-0.188-1.441-1.419-2.528-2.865-2.528c-1.498,0-2.734,1.131-2.876,2.63
		c-0.027,0.291-0.181,0.554-0.418,0.723c-0.238,0.167-0.539,0.225-0.821,0.153c-0.266-0.067-0.539-0.101-0.812-0.101
		c-1.837,0-3.332,1.506-3.332,3.357c0,1.851,1.495,3.356,3.332,3.356h0.871c0.552,0,1,0.448,1,1S10.364,20.909,9.812,20.909z"/>
</g>
<g>
	<g>
		<path d="M30.342,33.886H10.317c-2.605,0-4.725-2.128-4.725-4.745c0-2.455,1.865-4.48,4.247-4.722
			c0.492-3.027,3.119-5.348,6.264-5.348c0.268,0,0.534,0.017,0.798,0.05c0.829-2.754,3.385-4.721,6.33-4.721
			c3.064,0,5.65,2.064,6.397,4.949c0.237-0.023,0.475-0.035,0.714-0.035c3.998,0,7.25,3.269,7.25,7.286
			C37.593,30.617,34.34,33.886,30.342,33.886z M10.317,26.395c-1.502,0-2.725,1.231-2.725,2.746c0,1.514,1.222,2.745,2.725,2.745
			h20.025c2.895,0,5.25-2.371,5.25-5.286s-2.355-5.286-5.25-5.286c-0.432,0-0.862,0.053-1.279,0.159
			c-0.282,0.07-0.583,0.015-0.821-0.153s-0.391-0.432-0.419-0.723c-0.227-2.393-2.201-4.197-4.591-4.197
			c-2.308,0-4.273,1.734-4.572,4.034c-0.038,0.292-0.203,0.553-0.451,0.712c-0.248,0.159-0.552,0.202-0.835,0.114
			c-0.41-0.126-0.838-0.19-1.271-0.19c-2.385,0-4.335,1.954-4.346,4.355c-0.001,0.285-0.124,0.556-0.337,0.745
			c-0.214,0.189-0.501,0.277-0.78,0.244C10.534,26.402,10.426,26.395,10.317,26.395z"/>
	</g>
</g>
</svg>
