<?xml version="1.0" encoding="utf-8"?>
<!-- Generator: Adobe Illustrator 18.0.0, SVG Export Plug-In . SVG Version: 6.00 Build 0)  -->
<!DOCTYPE svg PUBLIC "-//W3C//DTD SVG 1.1//EN" "http://www.w3.org/Graphics/SVG/1.1/DTD/svg11.dtd">
<svg version="1.1" id="Livello_1" xmlns="http://www.w3.org/2000/svg" xmlns:xlink="http://www.w3.org/1999/xlink" x="0px" y="0px"
	 viewBox="0 0 40 40" enable-background="new 0 0 40 40" xml:space="preserve">
<g>
	<path d="M31.603,26.244h-2.494c-0.552,0-1-0.447-1-1s0.448-1,1-1h2.494c1.507,0,2.733-1.235,2.733-2.754
		c0-1.52-1.226-2.755-2.733-2.755c-0.108,0-0.215,0.007-0.32,0.021c-0.283,0.037-0.568-0.055-0.782-0.243
		c-0.214-0.188-0.337-0.46-0.339-0.745c-0.012-2.409-1.967-4.369-4.359-4.369c-0.434,0-0.863,0.064-1.275,0.19
		c-0.281,0.086-0.586,0.045-0.835-0.115c-0.248-0.159-0.412-0.42-0.45-0.712c-0.299-2.306-2.271-4.045-4.585-4.045
		c-2.398,0-4.377,1.81-4.605,4.209c-0.028,0.29-0.181,0.554-0.418,0.722c-0.239,0.17-0.539,0.226-0.821,0.153
		c-0.417-0.104-0.849-0.158-1.284-0.158c-2.903,0-5.266,2.378-5.266,5.301s2.362,5.301,5.266,5.301c0.552,0,1,0.447,1,1
		s-0.448,1-1,1c-4.006,0-7.266-3.275-7.266-7.301s3.259-7.301,7.266-7.301c0.24,0,0.479,0.012,0.718,0.035
		c0.747-2.892,3.339-4.961,6.411-4.961c2.952,0,5.514,1.972,6.344,4.732c0.265-0.034,0.533-0.051,0.802-0.051
		c3.152,0,5.784,2.327,6.277,5.361c2.387,0.24,4.256,2.271,4.256,4.73C36.336,24.111,34.213,26.244,31.603,26.244z"/>
</g>
<g>
	<path d="M14.791,33.583c-0.151,0-0.304-0.034-0.448-0.106c-0.494-0.248-0.692-0.85-0.444-1.343l2.963-5.89h-2.315
		c-0.344,0-0.664-0.177-0.846-0.468c-0.183-0.291-0.204-0.655-0.055-0.965l3.079-6.411c0.24-0.498,0.838-0.708,1.334-0.469
		c0.498,0.239,0.708,0.836,0.468,1.334l-2.391,4.979h2.348c0.347,0,0.669,0.18,0.851,0.476c0.182,0.295,0.198,0.664,0.042,0.974
		l-3.692,7.339C15.509,33.382,15.157,33.583,14.791,33.583z"/>
</g>
<g>
	<path d="M20.838,29.087c-0.151,0-0.304-0.034-0.448-0.106c-0.494-0.248-0.692-0.85-0.444-1.343l1.43-2.843
		c0.248-0.494,0.849-0.692,1.343-0.444c0.494,0.248,0.692,0.85,0.444,1.343l-1.43,2.843C21.557,28.886,21.204,29.087,20.838,29.087z
		"/>
</g>
<g>
	<path d="M23.083,32.146c-0.151,0-0.304-0.034-0.448-0.106c-0.494-0.248-0.692-0.85-0.444-1.343l2.969-5.902
		c0.248-0.494,0.849-0.692,1.343-0.444c0.494,0.248,0.692,0.85,0.444,1.343l-2.969,5.902C23.802,31.945,23.45,32.146,23.083,32.146z
		"/>
</g>
</svg>
