<?xml version="1.0" encoding="utf-8"?>
<!-- Generator: Adobe Illustrator 18.0.0, SVG Export Plug-In . SVG Version: 6.00 Build 0)  -->
<!DOCTYPE svg PUBLIC "-//W3C//DTD SVG 1.1//EN" "http://www.w3.org/Graphics/SVG/1.1/DTD/svg11.dtd">
<svg version="1.1" id="Livello_1" xmlns="http://www.w3.org/2000/svg" xmlns:xlink="http://www.w3.org/1999/xlink" x="0px" y="0px"
	 viewBox="0 0 40 40" enable-background="new 0 0 40 40" xml:space="preserve">
<g>
	<path d="M33.181,20.003l1.473-2.427c0.287-0.472,0.137-1.087-0.336-1.373c-0.473-0.287-1.088-0.137-1.373,0.336l-1.487,2.45h-4.173
		l-2.771-4.8l2.08-3.602l2.882-0.064c0.552-0.013,0.989-0.47,0.978-1.022c-0.013-0.544-0.458-0.978-1-0.978
		c-0.007,0-0.015,0-0.022,0l-2.836,0.063l-1.364-2.488c-0.265-0.484-0.873-0.664-1.357-0.396c-0.484,0.266-0.662,0.873-0.396,1.357
		l1.385,2.527l-2.078,3.598h-5.56l-2.079-3.601l1.386-2.527c0.266-0.484,0.088-1.092-0.396-1.357
		c-0.485-0.268-1.093-0.087-1.357,0.396l-1.364,2.488l-2.836-0.063c-0.008,0-0.016,0-0.022,0c-0.542,0-0.987,0.434-1,0.978
		c-0.012,0.553,0.426,1.01,0.978,1.022l2.881,0.064l2.075,3.594l-2.778,4.811H8.547l-1.492-2.456
		c-0.285-0.471-0.898-0.622-1.374-0.335C5.21,16.484,5.06,17.1,5.347,17.572l1.473,2.425l-1.473,2.427
		c-0.287,0.472-0.137,1.087,0.336,1.373c0.162,0.099,0.341,0.146,0.518,0.146c0.338,0,0.668-0.171,0.855-0.481l1.501-2.472h4.137
		l2.792,4.835l-2.072,3.589l-2.887,0.064c-0.552,0.013-0.989,0.47-0.978,1.022c0.013,0.544,0.458,0.978,1,0.978
		c0.007,0,0.015,0,0.022,0l2.836-0.063l1.364,2.488c0.182,0.332,0.524,0.52,0.878,0.52c0.162,0,0.327-0.039,0.479-0.123
		c0.484-0.266,0.662-0.873,0.396-1.357l-1.383-2.522l2.077-3.598h5.566l2.074,3.592l-1.388,2.531
		c-0.266,0.484-0.088,1.092,0.396,1.357c0.152,0.084,0.317,0.123,0.479,0.123c0.354,0,0.696-0.188,0.878-0.52l1.364-2.488
		l2.836,0.063c0.008,0,0.016,0,0.022,0c0.542,0,0.987-0.434,1-0.978c0.012-0.553-0.426-1.01-0.978-1.022l-2.876-0.064l-2.08-3.603
		l2.786-4.824h4.141l1.505,2.478c0.188,0.31,0.518,0.48,0.855,0.48c0.177,0,0.355-0.047,0.519-0.146
		c0.472-0.286,0.622-0.901,0.335-1.374L33.181,20.003z M22.777,24.82h-5.562l-2.782-4.817l2.782-4.818h5.562l2.782,4.818
		L22.777,24.82z"/>
	<path d="M22.084,19h-1.081v-1.081c0-0.553-0.447-1-1-1s-1,0.447-1,1V19h-1.082c-0.553,0-1,0.447-1,1s0.447,1,1,1h1.082v1.081
		c0,0.553,0.447,1,1,1s1-0.447,1-1V21h1.081c0.553,0,1-0.447,1-1S22.637,19,22.084,19z"/>
</g>
</svg>
