<?xml version="1.0" encoding="utf-8"?>
<!-- Generator: Adobe Illustrator 18.0.0, SVG Export Plug-In . SVG Version: 6.00 Build 0)  -->
<!DOCTYPE svg PUBLIC "-//W3C//DTD SVG 1.1//EN" "http://www.w3.org/Graphics/SVG/1.1/DTD/svg11.dtd">
<svg version="1.1" id="Livello_1" xmlns="http://www.w3.org/2000/svg" xmlns:xlink="http://www.w3.org/1999/xlink" x="0px" y="0px"
	 viewBox="0 0 40 40" enable-background="new 0 0 40 40" xml:space="preserve">
<g>
	<g>
		<path d="M25.919,22.889c-2.337,0-4.583-0.717-6.498-2.072c-3.147-2.229-7.533-2.23-10.682,0c-0.451,0.318-1.075,0.212-1.394-0.238
			c-0.319-0.45-0.213-1.075,0.238-1.395c1.914-1.355,4.161-2.072,6.497-2.072c2.337,0,4.583,0.717,6.498,2.072
			c3.148,2.231,7.534,2.231,10.682,0c0.451-0.318,1.076-0.213,1.394,0.238c0.319,0.45,0.213,1.075-0.238,1.395
			C30.502,22.172,28.256,22.889,25.919,22.889z"/>
	</g>
	<g>
		<path d="M25.919,28.765c-2.337,0-4.583-0.717-6.498-2.072c-3.148-2.23-7.533-2.23-10.683,0c-0.45,0.318-1.075,0.213-1.394-0.238
			c-0.319-0.451-0.212-1.075,0.239-1.395c1.914-1.354,4.161-2.071,6.497-2.071s4.583,0.717,6.497,2.071
			c3.149,2.23,7.534,2.231,10.683,0c0.451-0.318,1.076-0.213,1.394,0.238c0.319,0.45,0.213,1.075-0.238,1.395
			C30.502,28.048,28.256,28.765,25.919,28.765z"/>
	</g>
	<g>
		<path d="M25.919,17.012c-2.336,0-4.583-0.717-6.497-2.071c-3.148-2.229-7.533-2.229-10.683,0
			c-0.451,0.318-1.075,0.213-1.394-0.238c-0.319-0.45-0.213-1.075,0.238-1.395c1.914-1.355,4.161-2.072,6.497-2.072
			c2.337,0,4.583,0.717,6.498,2.072c3.148,2.229,7.533,2.231,10.683,0c0.45-0.318,1.074-0.213,1.394,0.238
			c0.319,0.451,0.212,1.075-0.239,1.395C30.502,16.295,28.255,17.012,25.919,17.012z"/>
	</g>
</g>
</svg>
