<?xml version="1.0" encoding="utf-8"?>
<!-- Generator: Adobe Illustrator 18.1.1, SVG Export Plug-In . SVG Version: 6.00 Build 0)  -->
<!DOCTYPE svg PUBLIC "-//W3C//DTD SVG 1.1//EN" "http://www.w3.org/Graphics/SVG/1.1/DTD/svg11.dtd">
<svg version="1.1" id="Livello_1" xmlns="http://www.w3.org/2000/svg" xmlns:xlink="http://www.w3.org/1999/xlink" x="0px" y="0px"
	 viewBox="0 0 338 70" enable-background="new 0 0 338 70" xml:space="preserve">
<g>
	<path fill="#FFFFFF" d="M167.9,30.2h1.6v9.3h-1.6V30.2z"/>
	<path fill="#FFFFFF" d="M178.9,34.9c0-2.5,1.8-4.9,4.8-4.9c3,0,4.8,2.4,4.8,4.9c0,2.5-1.8,4.9-4.8,4.9
		C180.7,39.8,178.9,37.4,178.9,34.9z M187,34.9c0-1.8-1.2-3.5-3.2-3.5c-2,0-3.2,1.7-3.2,3.5c0,1.8,1.2,3.5,3.2,3.5
		C185.7,38.4,187,36.7,187,34.9z"/>
	<path fill="#FFFFFF" d="M152.9,31.6h-2.3v-1.4h6.2v1.4h-2.3v8h-1.5V31.6z"/>
	<path fill="#FFFFFF" d="M2.3,31.6H0v-1.4h6.2v1.4H3.8v8H2.3V31.6z"/>
	<path fill="#FFFFFF" d="M140.7,39.5l-0.4-1.2h-3.5l-0.4,1.2h-1.6l3.2-9.3h1.1l3.2,9.3H140.7z M138.6,32.8l-1.3,4.2h2.6L138.6,32.8z
		"/>
	<path fill="#FFFFFF" d="M35.3,39.5l-0.4-1.2h-3.5L31,39.5h-1.6l3.2-9.3h1.1l3.2,9.3H35.3z M33.2,32.8L31.9,37h2.6L33.2,32.8z"/>
	<path fill="#FFFFFF" d="M105.2,30.2h3.3c2,0,3.3,1.5,3.3,3.3c0,1.3-0.7,2.5-2,3l1.9,3h-1.7l-1.7-2.8h-1.5v2.8h-1.5V30.2z
		 M110.3,33.5c0-1-0.7-1.9-1.8-1.9h-1.8v3.8h1.8C109.6,35.4,110.3,34.5,110.3,33.5z"/>
	<path fill="#FFFFFF" d="M14.8,30.2h3.3c2,0,3.3,1.5,3.3,3.3c0,1.3-0.7,2.5-2,3l1.9,3h-1.7l-1.7-2.8h-1.5v2.8h-1.5V30.2z M19.9,33.5
		c0-1-0.7-1.9-1.8-1.9h-1.8v3.8h1.8C19.2,35.4,19.9,34.5,19.9,33.5z"/>
	<path fill="#FFFFFF" d="M50.2,36.9v-6.6h1.5v9.3H50l-3.7-6.6v6.6h-1.5v-9.3h1.7L50.2,36.9z"/>
	<path fill="#FFFFFF" d="M200.7,36.9v-6.6h1.5v9.3h-1.7l-3.7-6.6v6.6h-1.5v-9.3h1.7L200.7,36.9z"/>
	<path fill="#FFFFFF" d="M61.6,36.5c0,1.2,0.8,1.9,1.8,1.9c0.9,0,1.5-0.5,1.5-1.4c0-0.9-0.8-1.3-1.5-1.5c-1.7-0.6-3.1-1.1-3.1-3
		c0-1.5,1.3-2.6,2.9-2.6c1.7,0,3,1.2,3,2.9h-1.5c0-0.9-0.5-1.5-1.4-1.5c-0.8,0-1.4,0.4-1.4,1.2c0,0.8,0.7,1.1,1.4,1.4
		c1.5,0.5,3.2,1.1,3.2,2.9c0,1.9-1.5,2.9-3.2,2.9c-1.7,0-3.2-1.2-3.2-3.3H61.6z"/>
	<path fill="#FFFFFF" d="M77.2,31.6v3H81v1.4h-3.8v3.6h-1.5v-9.3H81v1.4H77.2z"/>
	<path fill="#FFFFFF" d="M88.6,34.9c0-2.5,1.8-4.9,4.8-4.9c3,0,4.8,2.4,4.8,4.9c0,2.5-1.8,4.9-4.8,4.9
		C90.4,39.8,88.6,37.4,88.6,34.9z M96.6,34.9c0-1.8-1.2-3.5-3.2-3.5s-3.2,1.7-3.2,3.5c0,1.8,1.2,3.5,3.2,3.5S96.6,36.7,96.6,34.9z"
		/>
	<path fill="#FFFFFF" d="M128,39.5h-1.5v-5.8l-2.3,5.8h-1.2l-2.3-5.8v5.8h-1.5v-9.3h1.5l3,6.9l3-6.9h1.5V39.5z"/>
	<path fill="#FFFFFF" d="M77.6,1.4h-2.3V0h6.2v1.4h-2.3v8h-1.5V1.4z"/>
	<path fill="#FFFFFF" d="M61.5,4.1l-0.4,1.1l4.5,1.5c-7.9,3.6-14,10.3-16.7,18.6l1.3,0.4c2.6-8,8.4-14.4,16.1-17.8l-2,4.6l1.1,0.5
		l2.8-6.6L61.5,4.1z"/>
	<path fill="#FFFFFF" d="M51.4,47.3l4.6,1.9l0.5-1.1l-6.6-2.8l-2.3,6.8l1.1,0.4l1.5-4.5c3.5,7.5,9.8,13.4,17.6,16.2l0.5-1.3
		C60.8,60.2,54.7,54.5,51.4,47.3z"/>
	<path fill="#FFFFFF" d="M107.6,45.6l-1.3-0.5c-2.8,7.6-8.5,13.8-15.9,17l2-4.5l-1.1-0.5l-2.9,6.6l6.7,2.4l0.4-1.1L91,63.4
		C98.7,59.9,104.7,53.5,107.6,45.6z"/>
	<path fill="#FFFFFF" d="M108.5,18.2l-1.6,4.4c-3.4-8-10-14.1-18.3-17L88.1,7c7.9,2.8,14.2,8.7,17.5,16.4l-4.5-2l-0.5,1.1l6.5,2.9
		l2.5-6.7L108.5,18.2z"/>
	<path fill="#FFFFFF" d="M80.5,70l-0.4-1.2h-3.5L76.2,70h-1.6l3.2-9.3h1.1l3.2,9.3H80.5z M78.4,63.2l-1.3,4.2h2.6L78.4,63.2z"/>
	<g>
		<path fill="#FFFFFF" d="M233.6,39.6h-1.6v-5.9l-2.4,5.9h-1.2l-2.4-5.9v5.9h-1.6v-9.5h1.5l3,7.1l3-7.1h1.5V39.6z"/>
		<path fill="#FFFFFF" d="M246.3,39.6l-0.4-1.2h-3.6l-0.4,1.2h-1.6l3.3-9.5h1.1l3.3,9.5H246.3z M244.2,32.7l-1.3,4.3h2.6L244.2,32.7
			z"/>
		<path fill="#FFFFFF" d="M255.8,30.1h3.4c2,0,3.3,1.5,3.3,3.3c0,1.4-0.8,2.6-2,3.1l1.9,3.1h-1.8l-1.7-2.8h-1.6v2.8h-1.6V30.1z
			 M261,33.5c0-1-0.7-1.9-1.8-1.9h-1.8v3.8h1.8C260.3,35.4,261,34.5,261,33.5z"/>
		<path fill="#FFFFFF" d="M276.5,39.6l-0.4-1.2h-3.6l-0.4,1.2h-1.6l3.3-9.5h1.1l3.3,9.5H276.5z M274.3,32.7L273,37h2.6L274.3,32.7z"
			/>
		<path fill="#FFFFFF" d="M288.5,31.5h-2.3v-1.4h6.3v1.4h-2.4v8.1h-1.6V31.5z"/>
		<path fill="#FFFFFF" d="M306.3,35.6h-3.9v4h-1.6v-9.5h1.6v4.1h3.9v-4.1h1.6v9.5h-1.6V35.6z"/>
		<path fill="#FFFFFF" d="M314.5,34.9c0-2.6,1.9-5,4.9-5c3,0,4.9,2.4,4.9,5c0,2.6-1.9,5-4.9,5C316.4,39.9,314.5,37.5,314.5,34.9z
			 M322.7,34.9c0-1.8-1.2-3.6-3.3-3.6c-2,0-3.3,1.7-3.3,3.6c0,1.8,1.2,3.6,3.3,3.6C321.5,38.5,322.7,36.7,322.7,34.9z"/>
		<path fill="#FFFFFF" d="M336.4,36.9v-6.8h1.6v9.5h-1.7l-3.8-6.7v6.7H331v-9.5h1.7L336.4,36.9z"/>
	</g>
</g>
</svg>
