<?xml version="1.0" encoding="UTF-8" standalone="no"?>
<!-- Created with Inkscape (http://www.inkscape.org/) -->

<svg
   xmlns:dc="http://purl.org/dc/elements/1.1/"
   xmlns:cc="http://creativecommons.org/ns#"
   xmlns:rdf="http://www.w3.org/1999/02/22-rdf-syntax-ns#"
   xmlns:svg="http://www.w3.org/2000/svg"
   xmlns="http://www.w3.org/2000/svg"
   xmlns:sodipodi="http://sodipodi.sourceforge.net/DTD/sodipodi-0.dtd"
   xmlns:inkscape="http://www.inkscape.org/namespaces/inkscape"
   id="svg2"
   version="1.1"
   inkscape:version="0.48.4 r9939"
   width="199.99995"
   height="41.433426"
   xml:space="preserve"
   sodipodi:docname="serpentine_marathon.svg"><metadata
     id="metadata8"><rdf:RDF><cc:Work
         rdf:about=""><dc:format>image/svg+xml</dc:format><dc:type
           rdf:resource="http://purl.org/dc/dcmitype/StillImage" /><dc:title></dc:title></cc:Work></rdf:RDF></metadata><defs
     id="defs6" /><sodipodi:namedview
     pagecolor="#000000"
     bordercolor="#666666"
     borderopacity="1"
     objecttolerance="10"
     gridtolerance="10"
     guidetolerance="10"
     inkscape:pageopacity="1"
     inkscape:pageshadow="2"
     inkscape:window-width="1331"
     inkscape:window-height="744"
     id="namedview4"
     showgrid="false"
     inkscape:zoom="0.39143918"
     inkscape:cx="491.77499"
     inkscape:cy="101.88125"
     inkscape:window-x="35"
     inkscape:window-y="24"
     inkscape:window-maximized="1"
     inkscape:current-layer="g10"
     fit-margin-top="0"
     fit-margin-left="0"
     fit-margin-right="0"
     fit-margin-bottom="0" /><g
     id="g10"
     inkscape:groupmode="layer"
     inkscape:label="ink_ext_XXXXXX"
     transform="matrix(1.25,0,0,-1.25,0,41.433425)"><g
       id="g12"
       transform="scale(0.02033455,0.02033455)"><path
         d="m 5170.88,1486.31 0,136.74 -338.37,0 c -61.36,0 -98.19,-29.8 -98.19,-99.92 l 0,-750.388 436.56,0 0,136.762 -285.78,0 0,227.906 255.97,0 0,136.76 -255.97,0 0,212.14 285.78,0"
         style="fill:#ffffff;fill-opacity:1;fill-rule:nonzero;stroke:none"
         id="path14"
         inkscape:connector-curvature="0" /><path
         d="m 5947.56,1623.05 c -49.1,0 -70.14,-35.06 -70.14,-71.88 0,-36.81 22.79,-68.37 70.14,-68.37 l 110.45,0 0,-710.058 149.02,0 0,710.058 175.32,0 0,140.25 -434.79,0"
         style="fill:#ffffff;fill-opacity:1;fill-rule:nonzero;stroke:none"
         id="path16"
         inkscape:connector-curvature="0" /><path
         d="m 6621.84,1554.68 c 0,52.6 -33.31,73.64 -75.39,73.64 -42.07,0 -75.39,-21.04 -75.39,-73.64 l 0,-781.938 150.78,0 0,781.938"
         style="fill:#ffffff;fill-opacity:1;fill-rule:nonzero;stroke:none"
         id="path18"
         inkscape:connector-curvature="0" /><path
         d="m 1295.62,1489.81 73.64,0 c 73.65,0 133.24,-29.81 133.24,-113.96 0,-91.16 -52.59,-131.49 -133.24,-131.49 l -73.64,0 0,245.45 z m -150.77,-717.068 150.77,0 0,347.148 66.63,0 157.79,-310.327 c 15.78,-31.547 38.57,-45.59 70.13,-45.59 42.08,0 75.39,24.55 75.39,68.382 0,14.024 -5.27,31.563 -14.03,47.344 l -145.52,264.741 c 106.95,40.31 149.03,131.49 149.03,231.41 0,171.82 -124.49,247.2 -282.27,247.2 l -131.49,0 c -59.61,0 -96.43,-29.8 -96.43,-99.92 l 0,-750.388"
         style="fill:#ffffff;fill-opacity:1;fill-rule:nonzero;stroke:none"
         id="path20"
         inkscape:connector-curvature="0" /><path
         d="m 2114.38,1374.1 c 0,-91.17 -59.6,-126.24 -131.49,-126.24 l -71.88,0 0,241.95 77.14,0 c 71.88,0 126.23,-35.06 126.23,-115.71 m -354.16,-601.358 150.79,0 0,341.888 73.64,0 c 182.32,0 278.75,106.94 278.75,262.98 0,154.28 -108.69,245.44 -261.22,245.44 l -145.53,0 c -59.6,0 -96.43,-29.8 -96.43,-99.92 l 0,-750.388"
         style="fill:#ffffff;fill-opacity:1;fill-rule:nonzero;stroke:none"
         id="path22"
         inkscape:connector-curvature="0" /><path
         d="m 7153.07,1623.05 0,-525.95 -7.02,0 -215.64,461.09 c -22.79,49.09 -49.09,70.13 -91.17,70.13 l -7.01,0 c -35.06,0 -70.13,-19.29 -70.13,-89.42 l 0,-766.158 138.5,0 0,529.478 7.02,0 208.63,-468.107 c 19.28,-43.832 47.33,-68.383 92.92,-68.383 l 7,0 c 40.33,0 75.39,26.309 75.39,85.922 l 0,771.398 -138.49,0"
         style="fill:#ffffff;fill-opacity:1;fill-rule:nonzero;stroke:none"
         id="path24"
         inkscape:connector-curvature="0" /><path
         d="m 7868.38,1486.31 0,136.74 -338.38,0 c -61.36,0 -98.17,-29.8 -98.17,-99.92 l 0,-750.388 436.55,0 0,136.762 -285.78,0 0,227.906 255.96,0 0,136.76 -255.96,0 0,212.14 285.78,0"
         style="fill:#ffffff;fill-opacity:1;fill-rule:nonzero;stroke:none"
         id="path26"
         inkscape:connector-curvature="0" /><path
         d="m 5667.04,1623.05 0,-525.95 -7.02,0 -215.64,461.09 c -22.8,49.09 -49.09,70.13 -91.17,70.13 l -7.02,0 c -35.05,0 -70.13,-19.29 -70.13,-89.42 l 0,-766.158 138.51,0 0,529.478 7.01,0 208.64,-468.107 c 19.28,-43.832 47.34,-68.383 92.91,-68.383 l 7.03,0 c 40.31,0 75.38,26.309 75.38,85.922 l 0,771.398 -138.5,0"
         style="fill:#ffffff;fill-opacity:1;fill-rule:nonzero;stroke:none"
         id="path28"
         inkscape:connector-curvature="0" /><path
         d="m 1039.66,1486.31 0,136.74 -338.371,0 c -61.363,0 -98.18,-29.8 -98.18,-99.92 l 0,-750.388 436.551,0 0,136.762 -285.781,0 0,227.906 255.971,0 0,136.76 -255.971,0 0,212.14 285.781,0"
         style="fill:#ffffff;fill-opacity:1;fill-rule:nonzero;stroke:none"
         id="path30"
         inkscape:connector-curvature="0" /><path
         d="m 268.254,1630.07 c -150.793,0 -247.2188,-91.17 -247.2188,-226.16 0,-122.73 77.1484,-184.1 154.2968,-229.68 l 117.461,-68.37 c 36.809,-21.03 70.133,-50.84 70.133,-105.2 0,-63.109 -35.074,-106.937 -101.703,-106.937 l -8.758,0 c -59.61,0 -103.442,28.047 -103.442,103.437 l 0,12.27 -147.273,0 C 0,997.16 0,984.895 0,974.367 0,830.598 101.688,758.719 245.461,758.719 l 7.004,0 c 145.515,0 261.226,87.66 261.226,247.211 0,131.48 -68.378,194.61 -161.296,247.2 l -110.454,63.11 c -47.332,26.3 -70.125,50.84 -70.125,96.43 0,47.33 38.567,82.4 94.672,82.4 l 7.02,0 c 43.832,0 71.879,-15.78 84.148,-49.09 10.524,-28.05 35.071,-45.59 70.133,-45.59 45.578,0 73.629,26.31 73.629,70.13 0,17.54 -3.504,35.07 -8.766,47.34 -21.043,63.12 -94.672,112.21 -217.398,112.21 l -7,0"
         style="fill:#ffffff;fill-opacity:1;fill-rule:nonzero;stroke:none"
         id="path32"
         inkscape:connector-curvature="0" /><path
         d="m 2353.38,772.742 2270,0 0,850.313 -2270,0 0,-850.313 z"
         style="fill:#ffffff;fill-opacity:1;fill-rule:nonzero;stroke:none"
         id="path34"
         inkscape:connector-curvature="0" /><path
         d="m 5096.86,233.359 135.69,0 0,-64.961 C 5232.55,60.2695 5177.6,0 5079.51,0 c -106.36,0 -158.93,69.7188 -158.93,220.41 0,142.399 60.25,219.801 166.62,219.801 69.71,0 125.84,-30.141 135.3,-100.449 l -59.09,0 c -9.45,37.207 -39.58,46.078 -76.21,46.078 -68.55,0 -102.82,-50.801 -102.82,-165.43 0,-123.4998 36.64,-165.4491 98.08,-165.4491 60.27,0 94.55,36.6211 94.55,108.7111 l 0,17.726 -80.15,0 0,51.961"
         style="fill:#ffffff;fill-opacity:1;fill-rule:nonzero;stroke:none"
         id="path36"
         inkscape:connector-curvature="0" /><path
         d="m 5507.9,179.629 -20.67,72.672 c -10.65,36.058 -25.41,91.597 -31.92,118.769 l -2.95,0 c -8.28,-28.941 -24.23,-82.711 -35.46,-118.179 l -23.04,-73.262 114.04,0 z m -86.86,253.492 67.95,0 135.9,-425.42959 -66.18,0 -36.03,121.11759 -144.18,0 -38.4,-121.11759 -61.46,0 142.4,425.42959"
         style="fill:#ffffff;fill-opacity:1;fill-rule:nonzero;stroke:none"
         id="path38"
         inkscape:connector-curvature="0" /><path
         d="m 5696.97,433.121 62.63,0 0,-370.4921 176.08,0 0,-54.93749 -238.71,0 0,425.42959"
         style="fill:#ffffff;fill-opacity:1;fill-rule:nonzero;stroke:none"
         id="path40"
         inkscape:connector-curvature="0" /><path
         d="m 6024.32,433.121 62.61,0 0,-370.4921 176.08,0 0,-54.93749 -238.69,0 0,425.42959"
         style="fill:#ffffff;fill-opacity:1;fill-rule:nonzero;stroke:none"
         id="path42"
         inkscape:connector-curvature="0" /><path
         d="m 6351.64,433.121 251.11,0 0,-54.961 -188.47,0 0,-124.672 137.66,0 0,-54.367 -137.66,0 0,-136.4921 194.98,0 0,-54.93749 -257.62,0 0,425.42959"
         style="fill:#ffffff;fill-opacity:1;fill-rule:nonzero;stroke:none"
         id="path44"
         inkscape:connector-curvature="0" /><path
         d="m 6826.11,236.359 c 66.16,0 95.71,22.45 95.71,76.801 0,49.039 -33.67,66.172 -95.12,66.172 l -54.37,0 0,-142.973 53.78,0 z m -115.22,196.762 115.81,0 c 83.9,0 156.57,-30.133 156.57,-119.961 0,-54.941 -23.64,-105.762 -96.91,-119.941 l 108.13,-185.52759 -71.47,0 -97.51,176.66059 -53.18,0 0,-176.66059 -61.44,0 0,425.42959"
         style="fill:#ffffff;fill-opacity:1;fill-rule:nonzero;stroke:none"
         id="path46"
         inkscape:connector-curvature="0" /><path
         d="m 7086.09,7.69141 62.6211,0 0,425.43 -62.6211,0 0,-425.43 z"
         style="fill:#ffffff;fill-opacity:1;fill-rule:nonzero;stroke:none"
         id="path48"
         inkscape:connector-curvature="0" /><path
         d="m 7276.93,433.121 251.12,0 0,-54.961 -188.48,0 0,-124.672 137.68,0 0,-54.367 -137.68,0 0,-136.4921 194.98,0 0,-54.93749 -257.62,0 0,425.42959"
         style="fill:#ffffff;fill-opacity:1;fill-rule:nonzero;stroke:none"
         id="path50"
         inkscape:connector-curvature="0" /><path
         d="m 7652.71,100.449 c 6.51,-31.3084 30.75,-47.2693 76.24,-47.2693 49.04,0 79.76,24.8203 79.76,62.6403 0,36.641 -19.49,53.18 -81.54,79.762 l -14.18,5.918 c -64.42,27.77 -104.58,54.359 -104.58,125.25 0,65 49.03,113.461 129.99,113.461 69.73,0 122.31,-30.141 127.03,-94.551 l -56.12,0 c -7.69,32.5 -33.68,41.371 -70.91,41.371 -41.37,0 -72.68,-19.492 -72.68,-57.91 0,-37.812 22.44,-51.992 72.68,-73.871 l 13,-5.309 c 68.54,-29.531 116.98,-56.722 116.98,-131.761 0,-73.848 -59.07,-117.578437 -141.21,-117.578437 -75.04,0 -130,33.089837 -131.16,99.847437 l 56.7,0"
         style="fill:#ffffff;fill-opacity:1;fill-rule:nonzero;stroke:none"
         id="path52"
         inkscape:connector-curvature="0" /></g></g></svg>