<?xml version="1.0" encoding="utf-8"?>
<!-- Generator: Adobe Illustrator 18.1.1, SVG Export Plug-In . SVG Version: 6.00 Build 0)  -->
<!DOCTYPE svg PUBLIC "-//W3C//DTD SVG 1.1//EN" "http://www.w3.org/Graphics/SVG/1.1/DTD/svg11.dtd">
<svg version="1.1" id="Livello_1" xmlns="http://www.w3.org/2000/svg" xmlns:xlink="http://www.w3.org/1999/xlink" x="0px" y="0px"
	 viewBox="0 0 40 40" enable-background="new 0 0 40 40" xml:space="preserve">
<g opacity="0.5">
	<g>
		<path fill="#FFFFFF" d="M20,28.5c-4.7,0-8.5-3.8-8.5-8.5s3.8-8.5,8.5-8.5s8.5,3.8,8.5,8.5S24.7,28.5,20,28.5z M20,13.5
			c-3.6,0-6.5,2.9-6.5,6.5s2.9,6.5,6.5,6.5s6.5-2.9,6.5-6.5S23.6,13.5,20,13.5z"/>
	</g>
	<g>
		<path fill="#FFFFFF" d="M8,16c-0.1,0-0.3,0-0.4-0.1C7.2,15.8,7,15.4,7,15V8c0-0.6,0.4-1,1-1h7c0.4,0,0.8,0.2,0.9,0.6
			C16.1,8,16,8.4,15.7,8.7l-7,7C8.5,15.9,8.3,16,8,16z M9,9v3.6L12.6,9H9z"/>
	</g>
</g>
</svg>
