<?xml version="1.0" encoding="utf-8"?>
<!-- Generator: Adobe Illustrator 18.0.0, SVG Export Plug-In . SVG Version: 6.00 Build 0)  -->
<!DOCTYPE svg PUBLIC "-//W3C//DTD SVG 1.1//EN" "http://www.w3.org/Graphics/SVG/1.1/DTD/svg11.dtd">
<svg version="1.1" id="Livello_1" xmlns="http://www.w3.org/2000/svg" xmlns:xlink="http://www.w3.org/1999/xlink" x="0px" y="0px"
	 viewBox="0 0 40 40" enable-background="new 0 0 40 40" xml:space="preserve">
<g>
	<path d="M31.603,29.743H11.529c-4.006,0-7.266-3.275-7.266-7.301s3.26-7.301,7.266-7.301c0.24,0,0.479,0.012,0.718,0.036
		c0.747-2.892,3.339-4.961,6.41-4.961c2.952,0,5.515,1.972,6.345,4.732c0.265-0.033,0.532-0.05,0.801-0.05
		c3.152,0,5.784,2.327,6.277,5.361c2.387,0.241,4.256,2.271,4.256,4.73C36.336,27.61,34.213,29.743,31.603,29.743z M11.529,17.141
		c-2.903,0-5.266,2.378-5.266,5.301c0,2.923,2.362,5.301,5.266,5.301h20.073c1.507,0,2.733-1.236,2.733-2.754
		s-1.227-2.754-2.733-2.754c-0.108,0-0.217,0.007-0.323,0.02c-0.28,0.031-0.566-0.056-0.779-0.244
		c-0.214-0.189-0.337-0.459-0.338-0.745c-0.011-2.409-1.967-4.368-4.359-4.368c-0.434,0-0.862,0.064-1.273,0.19
		c-0.282,0.086-0.587,0.044-0.835-0.115c-0.248-0.159-0.412-0.419-0.45-0.712c-0.301-2.306-2.272-4.045-4.587-4.045
		c-2.397,0-4.377,1.81-4.605,4.21c-0.027,0.291-0.181,0.554-0.419,0.723c-0.237,0.168-0.539,0.223-0.821,0.152
		C12.395,17.194,11.963,17.141,11.529,17.141z"/>
</g>
</svg>
