<?xml version="1.0" encoding="utf-8"?>
<!-- Generator: Adobe Illustrator 18.0.0, SVG Export Plug-In . SVG Version: 6.00 Build 0)  -->
<!DOCTYPE svg PUBLIC "-//W3C//DTD SVG 1.1//EN" "http://www.w3.org/Graphics/SVG/1.1/DTD/svg11.dtd">
<svg version="1.1" id="Livello_1" xmlns="http://www.w3.org/2000/svg" xmlns:xlink="http://www.w3.org/1999/xlink" x="0px" y="0px"
	 viewBox="0 0 40 40" enable-background="new 0 0 40 40" xml:space="preserve">
<g>
	<path d="M9.812,20.909H8.94c-2.939,0-5.331-2.403-5.331-5.356c0-3.044,2.566-5.499,5.601-5.35c0.631-2.003,2.481-3.412,4.659-3.412
		c2.091,0,3.917,1.34,4.602,3.249c1.561-0.113,3.082,0.562,4.05,1.809c0.339,0.437,0.26,1.064-0.177,1.403
		c-0.438,0.339-1.064,0.258-1.403-0.177c-0.683-0.878-1.866-1.25-2.922-0.929c-0.278,0.086-0.586,0.044-0.834-0.115
		c-0.248-0.159-0.412-0.419-0.45-0.711c-0.188-1.441-1.42-2.528-2.865-2.528c-1.497,0-2.734,1.131-2.877,2.631
		c-0.027,0.29-0.18,0.554-0.418,0.722c-0.239,0.168-0.535,0.225-0.821,0.153c-0.266-0.067-0.539-0.101-0.812-0.101
		c-1.837,0-3.331,1.506-3.331,3.357c0,1.851,1.494,3.356,3.331,3.356h0.871c0.553,0,1,0.448,1,1S10.364,20.909,9.812,20.909z"/>
</g>
<g>
	<g>
		<path d="M30.343,33.886H10.317c-2.605,0-4.725-2.128-4.725-4.745c0-2.455,1.865-4.48,4.247-4.722
			c0.492-3.027,3.118-5.348,6.264-5.348c0.268,0,0.534,0.017,0.798,0.05c0.829-2.754,3.385-4.721,6.33-4.721
			c3.064,0,5.65,2.064,6.396,4.949c0.237-0.023,0.477-0.035,0.715-0.035c3.998,0,7.25,3.269,7.25,7.286
			C37.593,30.617,34.341,33.886,30.343,33.886z M10.317,26.395c-1.502,0-2.725,1.231-2.725,2.746c0,1.514,1.223,2.745,2.725,2.745
			h20.025c2.895,0,5.25-2.371,5.25-5.286s-2.355-5.286-5.25-5.286c-0.432,0-0.862,0.053-1.28,0.159
			c-0.28,0.07-0.582,0.015-0.821-0.153c-0.238-0.168-0.391-0.432-0.418-0.723c-0.228-2.393-2.201-4.197-4.592-4.197
			c-2.308,0-4.273,1.734-4.573,4.034c-0.038,0.292-0.202,0.553-0.45,0.712c-0.248,0.159-0.556,0.201-0.835,0.114
			c-0.41-0.126-0.837-0.19-1.27-0.19c-2.386,0-4.336,1.954-4.347,4.355c-0.001,0.285-0.124,0.556-0.338,0.745
			c-0.213,0.189-0.496,0.275-0.779,0.244C10.533,26.402,10.426,26.395,10.317,26.395z"/>
	</g>
</g>
</svg>
