<?xml version="1.0" encoding="utf-8"?>
<!-- Generator: Adobe Illustrator 18.0.0, SVG Export Plug-In . SVG Version: 6.00 Build 0)  -->
<!DOCTYPE svg PUBLIC "-//W3C//DTD SVG 1.1//EN" "http://www.w3.org/Graphics/SVG/1.1/DTD/svg11.dtd">
<svg version="1.1" id="Livello_1" xmlns="http://www.w3.org/2000/svg" xmlns:xlink="http://www.w3.org/1999/xlink" x="0px" y="0px"
	 viewBox="0 0 40 40" enable-background="new 0 0 40 40" xml:space="preserve">
<g>
	<path d="M30.89,30.468h-2.702c-0.553,0-1-0.447-1-1s0.447-1,1-1h2.702c0.872,0,1.581-0.716,1.581-1.596
		c0-0.943-0.858-1.684-1.769-1.584c-0.282,0.035-0.566-0.056-0.78-0.244c-0.213-0.188-0.336-0.46-0.337-0.744
		c-0.007-1.496-1.221-2.714-2.706-2.714c-0.27,0-0.535,0.04-0.791,0.118c-0.278,0.086-0.586,0.046-0.834-0.115
		c-0.248-0.159-0.413-0.42-0.45-0.712c-0.188-1.441-1.419-2.528-2.864-2.528c-1.498,0-2.734,1.131-2.877,2.631
		c-0.027,0.291-0.181,0.556-0.419,0.724c-0.237,0.169-0.539,0.225-0.822,0.152c-0.262-0.066-0.534-0.101-0.811-0.101
		c-1.837,0-3.332,1.506-3.332,3.356s1.495,3.356,3.332,3.356h2.528c0.553,0,1,0.447,1,1s-0.447,1-1,1h-2.528
		c-2.94,0-5.332-2.403-5.332-5.356s2.392-5.356,5.332-5.356c0.09,0,0.18,0.002,0.269,0.007c0.631-2.003,2.481-3.413,4.66-3.413
		c2.091,0,3.917,1.341,4.602,3.249c2.344-0.163,4.463,1.487,4.94,3.728c1.694,0.284,2.989,1.767,2.989,3.547
		C34.471,28.854,32.864,30.468,30.89,30.468z"/>
</g>
<g>
	<path d="M23.017,31.562c-0.256,0-0.512-0.098-0.707-0.293c-0.391-0.391-0.391-1.024,0-1.414l1.644-1.643
		c0.391-0.391,1.023-0.391,1.414,0s0.391,1.024,0,1.414l-1.644,1.643C23.528,31.465,23.272,31.562,23.017,31.562z"/>
</g>
<g>
	<path d="M24.66,35.367c-0.256,0-0.512-0.098-0.707-0.293c-0.391-0.391-0.391-1.023,0-1.414l1.853-1.853
		c0.391-0.391,1.023-0.391,1.414,0s0.391,1.023,0,1.414l-1.853,1.853C25.172,35.27,24.916,35.367,24.66,35.367z"/>
</g>
<g>
	<path d="M18.348,35.263c-0.256,0-0.512-0.098-0.707-0.293c-0.391-0.39-0.391-1.023,0-1.414l1.643-1.644
		c0.391-0.391,1.023-0.391,1.414,0c0.391,0.39,0.391,1.023,0,1.414l-1.643,1.644C18.859,35.165,18.604,35.263,18.348,35.263z"/>
</g>
<g>
	<path d="M9.979,26.086c-0.201,0-0.403-0.061-0.58-0.186c-2.519-1.797-4.022-4.715-4.022-7.806c0-5.227,4.096-9.431,9.325-9.571
		c0.38-0.007,0.749,0.207,0.922,0.555c0.173,0.35,0.128,0.767-0.115,1.07c-0.904,1.129-1.383,2.488-1.383,3.931
		c0,1.262,0.372,2.479,1.075,3.52c0.309,0.458,0.188,1.079-0.27,1.389c-0.459,0.308-1.079,0.188-1.389-0.27
		c-0.927-1.373-1.417-2.977-1.417-4.639c0-1.136,0.225-2.232,0.659-3.248c-3.151,0.926-5.408,3.812-5.408,7.264
		c0,2.446,1.19,4.755,3.185,6.177c0.449,0.321,0.554,0.945,0.233,1.396C10.6,25.94,10.292,26.086,9.979,26.086z"/>
</g>
</svg>
