<?xml version="1.0" encoding="utf-8"?>
<!-- Generator: Adobe Illustrator 18.0.0, SVG Export Plug-In . SVG Version: 6.00 Build 0)  -->
<!DOCTYPE svg PUBLIC "-//W3C//DTD SVG 1.1//EN" "http://www.w3.org/Graphics/SVG/1.1/DTD/svg11.dtd">
<svg version="1.1" id="Livello_1" xmlns="http://www.w3.org/2000/svg" xmlns:xlink="http://www.w3.org/1999/xlink" x="0px" y="0px"
	 viewBox="0 0 40 40" enable-background="new 0 0 40 40" xml:space="preserve">
<g>
	<g>
		<path d="M25.919,22.889c-2.336,0-4.583-0.717-6.497-2.072c-3.148-2.23-7.535-2.229-10.682-0.001
			c-0.451,0.321-1.074,0.214-1.394-0.237c-0.319-0.45-0.214-1.074,0.237-1.394c1.913-1.356,4.16-2.073,6.497-2.073
			c2.336,0,4.583,0.717,6.497,2.072c3.149,2.231,7.535,2.229,10.682,0.001c0.45-0.32,1.075-0.215,1.394,0.237
			c0.319,0.45,0.214,1.074-0.237,1.394C30.503,22.172,28.256,22.889,25.919,22.889z"/>
	</g>
	<g>
		<path d="M25.919,28.765c-2.336,0-4.583-0.717-6.497-2.072c-3.148-2.231-7.533-2.229-10.682,0
			c-0.452,0.319-1.075,0.212-1.395-0.238c-0.319-0.451-0.212-1.075,0.238-1.395c1.914-1.354,4.161-2.071,6.497-2.071
			c2.335,0,4.582,0.716,6.497,2.071c3.149,2.23,7.535,2.229,10.682,0.001c0.45-0.32,1.075-0.215,1.394,0.237
			c0.319,0.45,0.214,1.074-0.237,1.394C30.503,28.048,28.256,28.765,25.919,28.765z"/>
	</g>
	<g>
		<path d="M25.919,17.012c-2.335,0-4.582-0.716-6.497-2.071c-3.148-2.231-7.535-2.229-10.682-0.001
			c-0.451,0.321-1.074,0.214-1.394-0.237c-0.319-0.45-0.214-1.074,0.237-1.394c1.913-1.356,4.16-2.073,6.497-2.073
			c2.336,0,4.583,0.717,6.497,2.072c3.149,2.23,7.533,2.23,10.682,0c0.452-0.319,1.074-0.212,1.395,0.238
			c0.319,0.451,0.212,1.075-0.238,1.395C30.502,16.295,28.255,17.012,25.919,17.012z"/>
	</g>
</g>
</svg>
