<?xml version="1.0" encoding="utf-8"?>
<!-- Generator: Adobe Illustrator 18.0.0, SVG Export Plug-In . SVG Version: 6.00 Build 0)  -->
<!DOCTYPE svg PUBLIC "-//W3C//DTD SVG 1.1//EN" "http://www.w3.org/Graphics/SVG/1.1/DTD/svg11.dtd">
<svg version="1.1" id="Livello_1" xmlns="http://www.w3.org/2000/svg" xmlns:xlink="http://www.w3.org/1999/xlink" x="0px" y="0px"
	 viewBox="0 0 40 40" enable-background="new 0 0 40 40" xml:space="preserve">
<g>
	<g>
		<g>
			<g>
				<path fill="#FFFFFF" d="M20,8.817c-0.552,0-1-0.448-1-1V5.22c0-0.552,0.448-1,1-1s1,0.448,1,1v2.598
					C21,8.37,20.552,8.817,20,8.817z"/>
			</g>
			<g>
				<path fill="#FFFFFF" d="M20,35.78c-0.552,0-1-0.448-1-1v-2.874c0-0.552,0.448-1,1-1s1,0.448,1,1v2.874
					C21,35.333,20.552,35.78,20,35.78z"/>
			</g>
		</g>
		<g>
			<g>
				<path fill="#FFFFFF" d="M12.84,11.144c-0.31,0-0.614-0.143-0.81-0.412L10.503,8.63c-0.325-0.447-0.226-1.072,0.221-1.397
					c0.448-0.325,1.073-0.225,1.397,0.221l1.527,2.102c0.325,0.447,0.226,1.072-0.221,1.397
					C13.25,11.082,13.044,11.144,12.84,11.144z"/>
			</g>
			<g>
				<path fill="#FFFFFF" d="M28.688,32.958c-0.31,0-0.614-0.143-0.81-0.412l-1.689-2.325c-0.325-0.447-0.226-1.072,0.221-1.397
					c0.448-0.325,1.072-0.225,1.397,0.221l1.689,2.325c0.325,0.447,0.226,1.072-0.221,1.397
					C29.098,32.896,28.892,32.958,28.688,32.958z"/>
			</g>
		</g>
		<g>
			<g>
				<path fill="#FFFFFF" d="M8.414,17.236c-0.102,0-0.207-0.016-0.309-0.049l-2.47-0.803c-0.525-0.171-0.812-0.735-0.642-1.26
					c0.17-0.524,0.735-0.812,1.26-0.642l2.47,0.803c0.525,0.171,0.812,0.735,0.642,1.26C9.228,16.967,8.835,17.236,8.414,17.236z"/>
			</g>
			<g>
				<path fill="#FFFFFF" d="M34.057,25.568c-0.102,0-0.207-0.016-0.309-0.049l-2.732-0.888c-0.525-0.171-0.812-0.735-0.642-1.26
					c0.171-0.524,0.733-0.811,1.26-0.642l2.732,0.888c0.525,0.171,0.812,0.735,0.642,1.26C34.87,25.299,34.479,25.568,34.057,25.568
					z"/>
			</g>
		</g>
		<g>
			<g>
				<path fill="#FFFFFF" d="M5.943,25.568c-0.422,0-0.813-0.269-0.951-0.691c-0.17-0.525,0.117-1.089,0.642-1.26l2.47-0.803
					c0.526-0.169,1.089,0.118,1.26,0.642c0.17,0.525-0.117,1.089-0.642,1.26l-2.47,0.803C6.15,25.552,6.045,25.568,5.943,25.568z"/>
			</g>
			<g>
				<path fill="#FFFFFF" d="M31.324,17.321c-0.422,0-0.813-0.269-0.951-0.691c-0.17-0.525,0.117-1.089,0.642-1.26l2.732-0.888
					c0.527-0.169,1.089,0.118,1.26,0.642c0.17,0.525-0.117,1.089-0.642,1.26l-2.732,0.888
					C31.531,17.305,31.426,17.321,31.324,17.321z"/>
			</g>
		</g>
		<g>
			<g>
				<path fill="#FFFFFF" d="M11.312,32.958c-0.204,0-0.409-0.062-0.587-0.191c-0.447-0.325-0.546-0.95-0.221-1.397l1.527-2.102
					c0.326-0.446,0.949-0.545,1.397-0.221c0.447,0.325,0.546,0.95,0.221,1.397l-1.527,2.102
					C11.926,32.814,11.621,32.958,11.312,32.958z"/>
			</g>
			<g>
				<path fill="#FFFFFF" d="M26.998,11.367c-0.204,0-0.409-0.062-0.587-0.191c-0.447-0.325-0.546-0.95-0.221-1.397l1.689-2.325
					c0.325-0.446,0.95-0.545,1.397-0.221c0.447,0.325,0.546,0.95,0.221,1.397l-1.689,2.325
					C27.612,11.224,27.307,11.367,26.998,11.367z"/>
			</g>
		</g>
	</g>
	<g>
		<path fill="#FFFFFF" d="M20.006,28.917c-4.917,0-8.916-4-8.916-8.917s4-8.916,8.916-8.916s8.917,4,8.917,8.916
			S24.922,28.917,20.006,28.917z M20.006,13.084c-3.813,0-6.916,3.103-6.916,6.916c0,3.814,3.103,6.917,6.916,6.917
			c3.814,0,6.917-3.103,6.917-6.917C26.922,16.187,23.82,13.084,20.006,13.084z"/>
	</g>
</g>
</svg>
