<?xml version="1.0" encoding="utf-8"?>
<!-- Generator: Adobe Illustrator 18.0.0, SVG Export Plug-In . SVG Version: 6.00 Build 0)  -->
<!DOCTYPE svg PUBLIC "-//W3C//DTD SVG 1.1//EN" "http://www.w3.org/Graphics/SVG/1.1/DTD/svg11.dtd">
<svg version="1.1" id="Livello_1" xmlns="http://www.w3.org/2000/svg" xmlns:xlink="http://www.w3.org/1999/xlink" x="0px" y="0px"
	 viewBox="0 0 40 40" enable-background="new 0 0 40 40" xml:space="preserve">
<g>
	<path fill="#FFFFFF" d="M19.013,32.973c-6.512,0-11.81-5.298-11.81-11.81c0-6.442,5.048-11.623,11.492-11.795
		c0.394-0.023,0.749,0.206,0.922,0.555s0.128,0.766-0.115,1.07c-1.176,1.469-1.798,3.237-1.798,5.113
		c0,4.516,3.673,8.189,8.188,8.189c1.013,0,2.015-0.191,2.978-0.567c0.362-0.141,0.774-0.06,1.056,0.209s0.381,0.678,0.255,1.046
		C28.545,29.761,24.057,32.973,19.013,32.973z M16.741,11.623c-4.357,1.015-7.538,4.88-7.538,9.54c0,5.409,4.4,9.81,9.81,9.81
		c3.503,0,6.684-1.865,8.426-4.798c-0.511,0.08-1.027,0.12-1.546,0.12c-5.618,0-10.188-4.571-10.188-10.189
		C15.704,14.524,16.059,13.006,16.741,11.623z"/>
</g>
<circle fill="#FFFFFF" cx="23.713" cy="10.719" r="1"/>
<circle fill="#FFFFFF" cx="27.047" cy="16.719" r="1"/>
<circle fill="#FFFFFF" cx="30.234" cy="11.367" r="1"/>
</svg>
