<?xml version="1.0" encoding="utf-8"?>
<!-- Generator: Adobe Illustrator 18.0.0, SVG Export Plug-In . SVG Version: 6.00 Build 0)  -->
<!DOCTYPE svg PUBLIC "-//W3C//DTD SVG 1.1//EN" "http://www.w3.org/Graphics/SVG/1.1/DTD/svg11.dtd">
<svg version="1.1" id="Livello_1" xmlns="http://www.w3.org/2000/svg" xmlns:xlink="http://www.w3.org/1999/xlink" x="0px" y="0px"
	 viewBox="0 0 40 40" enable-background="new 0 0 40 40" xml:space="preserve">
<g>
	<g>
		<path fill="#FFFFFF" d="M16.249,10.434c-0.552,0-1-0.448-1-1V7.355c0-0.552,0.448-1,1-1s1,0.448,1,1v2.078
			C17.249,9.986,16.801,10.434,16.249,10.434z"/>
	</g>
	<g>
		<path fill="#FFFFFF" d="M10.521,12.295c-0.31,0-0.614-0.143-0.81-0.412l-1.222-1.681C8.165,9.755,8.264,9.129,8.71,8.805
			c0.448-0.325,1.073-0.224,1.397,0.221l1.222,1.681c0.325,0.447,0.226,1.072-0.221,1.397C10.93,12.233,10.725,12.295,10.521,12.295
			z"/>
	</g>
	<g>
		<path fill="#FFFFFF" d="M6.979,17.168c-0.102,0-0.207-0.016-0.309-0.049l-1.977-0.642c-0.525-0.171-0.812-0.735-0.642-1.26
			c0.17-0.524,0.736-0.812,1.26-0.642l1.977,0.642c0.525,0.171,0.812,0.735,0.642,1.26C7.793,16.899,7.401,17.168,6.979,17.168z"/>
	</g>
	<g>
		<g>
			<path fill="#FFFFFF" d="M5.003,23.834c-0.422,0-0.813-0.269-0.951-0.691c-0.17-0.525,0.117-1.089,0.642-1.26L6.67,21.24
				c0.526-0.169,1.089,0.117,1.26,0.642c0.17,0.525-0.117,1.089-0.642,1.26l-1.977,0.643C5.209,23.818,5.105,23.834,5.003,23.834z"
				/>
		</g>
		<g>
			<path fill="#FFFFFF" d="M25.308,17.237c-0.422,0-0.813-0.269-0.951-0.691c-0.17-0.525,0.117-1.089,0.642-1.26l2.186-0.71
				c0.527-0.169,1.089,0.118,1.26,0.642c0.17,0.525-0.117,1.089-0.642,1.26l-2.186,0.71C25.515,17.221,25.41,17.237,25.308,17.237z"
				/>
		</g>
	</g>
	<g>
		<g>
			<path fill="#FFFFFF" d="M9.297,29.746c-0.204,0-0.409-0.062-0.587-0.191c-0.447-0.325-0.546-0.95-0.221-1.397l1.222-1.682
				c0.325-0.445,0.95-0.545,1.397-0.221c0.447,0.325,0.546,0.95,0.221,1.397l-1.222,1.682C9.912,29.603,9.607,29.746,9.297,29.746z"
				/>
		</g>
		<g>
			<path fill="#FFFFFF" d="M21.847,12.474c-0.204,0-0.409-0.062-0.587-0.191c-0.447-0.325-0.546-0.95-0.221-1.397l1.351-1.86
				c0.325-0.445,0.95-0.545,1.397-0.221c0.447,0.325,0.546,0.95,0.221,1.397l-1.351,1.86C22.461,12.331,22.156,12.474,21.847,12.474
				z"/>
		</g>
	</g>
	<g>
		<path fill="#FFFFFF" d="M12.384,25.194c-0.214,0-0.429-0.068-0.611-0.208C9.96,23.585,8.92,21.469,8.92,19.18
			c0-4.043,3.29-7.333,7.333-7.333c3.186,0,5.989,2.034,6.974,5.061c0.171,0.525-0.116,1.089-0.641,1.26
			c-0.526,0.172-1.089-0.116-1.26-0.641c-0.717-2.201-2.755-3.68-5.073-3.68c-2.94,0-5.333,2.392-5.333,5.333
			c0,1.665,0.756,3.204,2.076,4.223c0.437,0.338,0.518,0.966,0.18,1.403C12.979,25.061,12.683,25.194,12.384,25.194z"/>
	</g>
</g>
<g>
	<path fill="#FFFFFF" d="M32.889,33.467H19.011c-2.94,0-5.332-2.403-5.332-5.356c0-3.044,2.588-5.512,5.601-5.35
		c0.63-2.003,2.482-3.412,4.66-3.412c2.091,0,3.917,1.34,4.602,3.249c2.345-0.169,4.463,1.487,4.94,3.727
		c1.694,0.284,2.99,1.766,2.99,3.546C36.471,31.854,34.864,33.467,32.889,33.467z M19.011,24.754c-1.837,0-3.332,1.506-3.332,3.356
		s1.495,3.356,3.332,3.356h13.878c0.872,0,1.582-0.716,1.582-1.596c0-0.943-0.855-1.686-1.77-1.584
		c-0.28,0.033-0.566-0.055-0.779-0.245c-0.213-0.188-0.335-0.459-0.337-0.744c-0.007-1.496-1.22-2.713-2.705-2.713
		c-0.27,0-0.536,0.04-0.79,0.118c-0.28,0.088-0.587,0.045-0.835-0.114c-0.248-0.16-0.413-0.42-0.451-0.712
		c-0.188-1.441-1.419-2.528-2.865-2.528c-1.498,0-2.734,1.131-2.876,2.63c-0.027,0.291-0.181,0.555-0.419,0.723
		c-0.238,0.169-0.538,0.224-0.821,0.152C19.559,24.788,19.286,24.754,19.011,24.754z"/>
</g>
</svg>
