<?xml version="1.0" encoding="utf-8"?>
<!-- Generator: Adobe Illustrator 18.0.0, SVG Export Plug-In . SVG Version: 6.00 Build 0)  -->
<!DOCTYPE svg PUBLIC "-//W3C//DTD SVG 1.1//EN" "http://www.w3.org/Graphics/SVG/1.1/DTD/svg11.dtd">
<svg version="1.1" id="Livello_1" xmlns="http://www.w3.org/2000/svg" xmlns:xlink="http://www.w3.org/1999/xlink" x="0px" y="0px"
	 viewBox="0 0 40 40" enable-background="new 0 0 40 40" xml:space="preserve">
<g>
	<path fill="#FFFFFF" d="M10.509,27.106c-0.201,0-0.403-0.061-0.58-0.186c-2.519-1.797-4.022-4.715-4.022-7.806
		c0-5.227,4.096-9.431,9.325-9.57c0.39-0.021,0.749,0.206,0.922,0.555s0.128,0.766-0.115,1.07c-0.904,1.13-1.383,2.489-1.383,3.93
		c0,1.261,0.372,2.478,1.075,3.52c0.309,0.458,0.188,1.079-0.27,1.388c-0.459,0.31-1.079,0.188-1.389-0.269
		c-0.927-1.373-1.417-2.977-1.417-4.639c0-1.135,0.225-2.231,0.66-3.248c-3.152,0.925-5.409,3.812-5.409,7.263
		c0,2.445,1.19,4.755,3.185,6.178c0.449,0.321,0.554,0.945,0.233,1.395C11.129,26.961,10.821,27.106,10.509,27.106z"/>
</g>
<g>
	<path fill="#FFFFFF" d="M31.419,31.487H17.54c-2.94,0-5.332-2.403-5.332-5.356c0-2.954,2.392-5.357,5.332-5.357
		c0.09,0,0.18,0.002,0.269,0.007c0.631-2.003,2.481-3.412,4.66-3.412c2.091,0,3.917,1.34,4.602,3.249
		c2.346-0.179,4.464,1.487,4.94,3.727C33.705,24.629,35,26.111,35,27.892C35,29.875,33.394,31.487,31.419,31.487z M17.54,22.774
		c-1.837,0-3.332,1.506-3.332,3.357c0,1.851,1.495,3.356,3.332,3.356h13.879c0.872,0,1.581-0.716,1.581-1.596
		c0-0.944-0.862-1.692-1.769-1.584c-0.282,0.033-0.566-0.056-0.78-0.244c-0.213-0.189-0.336-0.459-0.337-0.744
		c-0.007-1.496-1.221-2.713-2.705-2.713c-0.269,0-0.535,0.04-0.791,0.118c-0.278,0.087-0.586,0.044-0.834-0.115
		c-0.248-0.159-0.412-0.419-0.45-0.711c-0.188-1.441-1.42-2.528-2.865-2.528c-1.498,0-2.734,1.131-2.877,2.63
		c-0.027,0.29-0.18,0.554-0.418,0.723c-0.238,0.167-0.533,0.227-0.821,0.153C18.087,22.808,17.813,22.774,17.54,22.774z"/>
</g>
<circle fill="#FFFFFF" cx="23.713" cy="10.719" r="1"/>
<circle fill="#FFFFFF" cx="30.234" cy="11.367" r="1"/>
<circle fill="#FFFFFF" cx="27.047" cy="15.526" r="1"/>
</svg>
