<?xml version="1.0" encoding="utf-8"?>
<!-- Generator: Adobe Illustrator 18.0.0, SVG Export Plug-In . SVG Version: 6.00 Build 0)  -->
<!DOCTYPE svg PUBLIC "-//W3C//DTD SVG 1.1//EN" "http://www.w3.org/Graphics/SVG/1.1/DTD/svg11.dtd">
<svg version="1.1" id="Livello_1" xmlns="http://www.w3.org/2000/svg" xmlns:xlink="http://www.w3.org/1999/xlink" x="0px" y="0px"
	 viewBox="0 0 40 40" enable-background="new 0 0 40 40" xml:space="preserve">
<g>
	<path fill="#FFFFFF" d="M9.812,18.969H8.941c-2.94,0-5.332-2.403-5.332-5.356c0-3.043,2.56-5.496,5.601-5.35
		c0.63-2.003,2.482-3.412,4.66-3.412c2.091,0,3.917,1.34,4.602,3.249c1.562-0.115,3.081,0.562,4.049,1.809
		c0.339,0.436,0.26,1.064-0.176,1.403c-0.435,0.34-1.065,0.26-1.403-0.176c-0.684-0.879-1.867-1.25-2.923-0.929
		c-0.282,0.086-0.587,0.044-0.834-0.115c-0.248-0.16-0.412-0.42-0.45-0.712c-0.188-1.441-1.419-2.528-2.865-2.528
		c-1.498,0-2.734,1.131-2.876,2.63c-0.027,0.291-0.181,0.554-0.418,0.723c-0.238,0.168-0.539,0.225-0.821,0.153
		c-0.266-0.067-0.539-0.101-0.812-0.101c-1.837,0-3.332,1.506-3.332,3.357c0,1.851,1.495,3.356,3.332,3.356h0.871
		c0.552,0,1,0.448,1,1S10.364,18.969,9.812,18.969z"/>
</g>
<g>
	<g>
		<path fill="#FFFFFF" d="M30.342,31.945h-1.801c-0.552,0-1-0.447-1-1s0.448-1,1-1h1.801c2.895,0,5.25-2.371,5.25-5.286
			c0-2.914-2.355-5.286-5.25-5.286c-0.432,0-0.862,0.053-1.279,0.159c-0.282,0.071-0.583,0.015-0.821-0.153
			s-0.391-0.432-0.419-0.723c-0.227-2.393-2.201-4.197-4.591-4.197c-2.308,0-4.273,1.734-4.572,4.033
			c-0.038,0.292-0.203,0.553-0.45,0.712c-0.248,0.16-0.553,0.201-0.835,0.115c-0.411-0.126-0.838-0.19-1.271-0.19
			c-2.385,0-4.335,1.954-4.346,4.356c-0.001,0.284-0.124,0.555-0.336,0.743c-0.212,0.189-0.493,0.284-0.778,0.245
			c-0.107-0.012-0.215-0.02-0.325-0.02c-1.502,0-2.725,1.231-2.725,2.745s1.222,2.745,2.725,2.745h5.089c0.552,0,1,0.447,1,1
			s-0.448,1-1,1h-5.089c-2.605,0-4.725-2.129-4.725-4.745c0-2.454,1.865-4.479,4.247-4.721c0.492-3.027,3.118-5.349,6.264-5.349
			c0.268,0,0.534,0.017,0.798,0.05c0.829-2.754,3.385-4.721,6.33-4.721c3.064,0,5.651,2.064,6.397,4.949
			c0.237-0.023,0.475-0.035,0.714-0.035c3.998,0,7.25,3.269,7.25,7.286C37.593,28.677,34.34,31.945,30.342,31.945z"/>
	</g>
</g>
<g>
	<path fill="#FFFFFF" d="M21.562,32.346c-0.256,0-0.512-0.098-0.707-0.293c-0.391-0.391-0.391-1.023,0-1.414l1.643-1.644
		c0.391-0.391,1.023-0.391,1.414,0s0.391,1.023,0,1.414l-1.643,1.644C22.073,32.248,21.817,32.346,21.562,32.346z"/>
</g>
<g>
	<path fill="#FFFFFF" d="M23.205,36.149c-0.256,0-0.512-0.098-0.707-0.293c-0.391-0.391-0.391-1.023,0-1.414l1.852-1.852
		c0.391-0.391,1.023-0.391,1.414,0s0.391,1.023,0,1.414l-1.852,1.852C23.716,36.052,23.46,36.149,23.205,36.149z"/>
</g>
<g>
	<path fill="#FFFFFF" d="M16.892,36.045c-0.256,0-0.512-0.098-0.707-0.293c-0.391-0.391-0.391-1.023,0-1.414l1.643-1.643
		c0.391-0.391,1.023-0.391,1.414,0s0.391,1.023,0,1.414l-1.643,1.643C17.403,35.947,17.147,36.045,16.892,36.045z"/>
</g>
</svg>
