<?xml version="1.0" encoding="utf-8"?>
<!-- Generator: Adobe Illustrator 18.0.0, SVG Export Plug-In . SVG Version: 6.00 Build 0)  -->
<!DOCTYPE svg PUBLIC "-//W3C//DTD SVG 1.1//EN" "http://www.w3.org/Graphics/SVG/1.1/DTD/svg11.dtd">
<svg version="1.1" id="Livello_1" xmlns="http://www.w3.org/2000/svg" xmlns:xlink="http://www.w3.org/1999/xlink" x="0px" y="0px"
	 viewBox="0 0 40 40" enable-background="new 0 0 40 40" xml:space="preserve">
<g>
	<g>
		<path fill="#FFFFFF" d="M16.249,7.434c-0.552,0-1-0.447-1-1V4.355c0-0.553,0.448-1,1-1s1,0.447,1,1v2.078
			C17.249,6.986,16.801,7.434,16.249,7.434z"/>
	</g>
	<g>
		<path fill="#FFFFFF" d="M10.521,9.295c-0.31,0-0.614-0.143-0.81-0.412L8.489,7.202C8.165,6.756,8.264,6.13,8.71,5.806
			c0.447-0.325,1.073-0.227,1.397,0.221l1.222,1.681c0.325,0.446,0.226,1.072-0.221,1.396C10.931,9.232,10.725,9.295,10.521,9.295z"
			/>
	</g>
	<g>
		<path fill="#FFFFFF" d="M6.979,14.168c-0.102,0-0.206-0.016-0.309-0.049l-1.977-0.642c-0.525-0.171-0.813-0.734-0.643-1.26
			s0.733-0.812,1.26-0.643l1.977,0.642c0.525,0.171,0.813,0.734,0.643,1.26C7.793,13.899,7.401,14.168,6.979,14.168z"/>
	</g>
	<g>
		<g>
			<path fill="#FFFFFF" d="M5.003,20.834c-0.422,0-0.813-0.269-0.951-0.69c-0.17-0.525,0.117-1.09,0.642-1.261L6.67,18.24
				c0.526-0.169,1.089,0.118,1.26,0.642c0.17,0.525-0.117,1.09-0.642,1.261l-1.977,0.643C5.209,20.818,5.105,20.834,5.003,20.834z"
				/>
		</g>
		<g>
			<path fill="#FFFFFF" d="M25.308,14.236c-0.422,0-0.814-0.269-0.951-0.691c-0.17-0.525,0.117-1.089,0.642-1.26l2.186-0.71
				c0.527-0.17,1.09,0.117,1.26,0.643c0.17,0.525-0.117,1.089-0.642,1.26l-2.186,0.71C25.514,14.221,25.41,14.236,25.308,14.236z"/>
		</g>
	</g>
	<g>
		<g>
			<path fill="#FFFFFF" d="M9.297,26.746c-0.204,0-0.409-0.062-0.587-0.191c-0.447-0.324-0.546-0.949-0.221-1.396l1.222-1.682
				c0.325-0.446,0.95-0.544,1.397-0.221c0.447,0.324,0.546,0.949,0.221,1.396l-1.222,1.682C9.912,26.604,9.607,26.746,9.297,26.746z
				"/>
		</g>
		<g>
			<path fill="#FFFFFF" d="M21.847,9.474c-0.204,0-0.409-0.062-0.587-0.191c-0.447-0.324-0.546-0.949-0.221-1.396l1.351-1.859
				c0.325-0.446,0.95-0.545,1.397-0.221c0.447,0.324,0.546,0.949,0.221,1.396l-1.351,1.859C22.461,9.331,22.156,9.474,21.847,9.474z
				"/>
		</g>
	</g>
	<g>
		<path fill="#FFFFFF" d="M12.384,22.194c-0.214,0-0.429-0.068-0.611-0.209c-1.813-1.4-2.853-3.517-2.853-5.806
			c0-4.043,3.29-7.333,7.333-7.333c3.186,0,5.988,2.034,6.974,5.062c0.171,0.525-0.116,1.09-0.641,1.261
			c-0.526,0.171-1.089-0.116-1.26-0.642c-0.717-2.201-2.755-3.681-5.073-3.681c-2.94,0-5.333,2.393-5.333,5.333
			c0,1.665,0.756,3.204,2.076,4.224c0.437,0.337,0.518,0.966,0.18,1.402C12.979,22.061,12.683,22.194,12.384,22.194z"/>
	</g>
</g>
<g>
	<path fill="#FFFFFF" d="M32.889,30.468h-2.702c-0.552,0-1-0.447-1-1s0.448-1,1-1h2.702c0.872,0,1.582-0.716,1.582-1.596
		c0-0.943-0.855-1.684-1.77-1.584c-0.28,0.038-0.566-0.057-0.779-0.244c-0.213-0.189-0.335-0.46-0.337-0.744
		c-0.007-1.497-1.22-2.714-2.705-2.714c-0.27,0-0.536,0.04-0.79,0.118c-0.28,0.086-0.587,0.046-0.835-0.115
		c-0.248-0.159-0.413-0.42-0.451-0.712c-0.188-1.441-1.419-2.528-2.865-2.528c-1.498,0-2.734,1.131-2.876,2.632
		c-0.028,0.29-0.181,0.555-0.42,0.723c-0.238,0.169-0.538,0.227-0.822,0.151c-0.261-0.066-0.533-0.1-0.81-0.1
		c-1.837,0-3.332,1.506-3.332,3.356s1.495,3.356,3.332,3.356h2.528c0.552,0,1,0.447,1,1s-0.448,1-1,1h-2.528
		c-2.94,0-5.332-2.403-5.332-5.356c0-3.044,2.588-5.515,5.601-5.35c0.63-2.004,2.482-3.413,4.66-3.413
		c2.091,0,3.917,1.341,4.602,3.249c2.345-0.162,4.463,1.487,4.94,3.728c1.694,0.284,2.99,1.767,2.99,3.547
		C36.471,28.854,34.864,30.468,32.889,30.468z"/>
</g>
<g>
	<path fill="#FFFFFF" d="M25.017,31.562c-0.256,0-0.512-0.098-0.707-0.293c-0.391-0.391-0.391-1.023,0-1.414l1.643-1.643
		c0.391-0.391,1.023-0.391,1.414,0s0.391,1.023,0,1.414l-1.643,1.643C25.529,31.465,25.273,31.562,25.017,31.562z"/>
</g>
<g>
	<path fill="#FFFFFF" d="M26.66,35.367c-0.256,0-0.512-0.098-0.707-0.293c-0.391-0.391-0.391-1.023,0-1.414l1.852-1.853
		c0.391-0.391,1.023-0.391,1.414,0s0.391,1.023,0,1.414l-1.852,1.853C27.172,35.27,26.916,35.367,26.66,35.367z"/>
</g>
<g>
	<path fill="#FFFFFF" d="M20.347,35.263c-0.256,0-0.512-0.098-0.707-0.293c-0.391-0.391-0.391-1.023,0-1.414l1.644-1.644
		c0.391-0.391,1.023-0.391,1.414,0s0.391,1.023,0,1.414l-1.644,1.644C20.859,35.165,20.603,35.263,20.347,35.263z"/>
</g>
</svg>
