<?xml version="1.0" encoding="utf-8"?>
<!-- Generator: Adobe Illustrator 18.0.0, SVG Export Plug-In . SVG Version: 6.00 Build 0)  -->
<!DOCTYPE svg PUBLIC "-//W3C//DTD SVG 1.1//EN" "http://www.w3.org/Graphics/SVG/1.1/DTD/svg11.dtd">
<svg version="1.1" id="Livello_1" xmlns="http://www.w3.org/2000/svg" xmlns:xlink="http://www.w3.org/1999/xlink" x="0px" y="0px"
	 viewBox="0 0 40 40" enable-background="new 0 0 40 40" xml:space="preserve">
<g>
	<path fill="#FFFFFF" d="M31.603,26.244h-2.493c-0.553,0-1-0.447-1-1s0.447-1,1-1h2.493c1.507,0,2.733-1.235,2.733-2.754
		c0-1.52-1.227-2.755-2.733-2.755c-0.107,0-0.215,0.007-0.319,0.021c-0.289,0.037-0.568-0.055-0.782-0.243s-0.338-0.46-0.339-0.745
		c-0.011-2.409-1.967-4.369-4.359-4.369c-0.434,0-0.862,0.064-1.273,0.19c-0.282,0.086-0.587,0.045-0.835-0.115
		c-0.248-0.159-0.412-0.42-0.45-0.712c-0.301-2.306-2.272-4.045-4.587-4.045c-2.397,0-4.377,1.81-4.605,4.209
		c-0.027,0.29-0.18,0.554-0.419,0.723c-0.237,0.169-0.541,0.225-0.82,0.152c-0.417-0.105-0.849-0.158-1.283-0.158
		c-2.903,0-5.266,2.378-5.266,5.301s2.362,5.301,5.266,5.301c0.553,0,1,0.447,1,1s-0.447,1-1,1c-4.006,0-7.266-3.275-7.266-7.301
		s3.26-7.301,7.266-7.301c0.24,0,0.479,0.012,0.717,0.035c0.747-2.892,3.34-4.961,6.411-4.961c2.952,0,5.515,1.972,6.345,4.732
		c0.265-0.034,0.532-0.051,0.801-0.051c3.152,0,5.784,2.327,6.276,5.361c2.387,0.24,4.257,2.271,4.257,4.73
		C36.336,24.111,34.213,26.244,31.603,26.244z"/>
</g>
<g>
	<path fill="#FFFFFF" d="M14.791,33.583c-0.151,0-0.304-0.034-0.448-0.106c-0.493-0.248-0.692-0.85-0.444-1.343l2.963-5.89h-2.315
		c-0.344,0-0.663-0.177-0.847-0.468c-0.183-0.291-0.203-0.655-0.055-0.965l3.079-6.411c0.238-0.497,0.834-0.709,1.334-0.469
		c0.498,0.239,0.708,0.837,0.469,1.334l-2.391,4.979h2.348c0.347,0,0.669,0.18,0.852,0.476c0.182,0.295,0.197,0.664,0.042,0.974
		l-3.691,7.339C15.51,33.382,15.157,33.583,14.791,33.583z"/>
</g>
<g>
	<path fill="#FFFFFF" d="M20.838,29.087c-0.15,0-0.304-0.034-0.448-0.106c-0.493-0.248-0.692-0.85-0.444-1.343l1.43-2.843
		c0.248-0.493,0.846-0.692,1.343-0.444c0.493,0.248,0.692,0.85,0.444,1.343l-1.43,2.843C21.557,28.886,21.204,29.087,20.838,29.087z
		"/>
</g>
<g>
	<path fill="#FFFFFF" d="M23.084,32.146c-0.15,0-0.305-0.034-0.448-0.106c-0.493-0.248-0.692-0.85-0.444-1.343l2.969-5.902
		c0.248-0.493,0.85-0.692,1.343-0.444s0.692,0.85,0.444,1.343l-2.969,5.902C23.803,31.945,23.45,32.146,23.084,32.146z"/>
</g>
</svg>
