<?xml version="1.0" encoding="utf-8"?>
<!-- Generator: Adobe Illustrator 18.0.0, SVG Export Plug-In . SVG Version: 6.00 Build 0)  -->
<!DOCTYPE svg PUBLIC "-//W3C//DTD SVG 1.1//EN" "http://www.w3.org/Graphics/SVG/1.1/DTD/svg11.dtd">
<svg version="1.1" id="Livello_1" xmlns="http://www.w3.org/2000/svg" xmlns:xlink="http://www.w3.org/1999/xlink" x="0px" y="0px"
	 viewBox="0 0 40 40" enable-background="new 0 0 40 40" xml:space="preserve">
<g>
	<g>
		<path d="M29.474,21.412H10.526c-0.552,0-1-0.448-1-1s0.448-1,1-1h18.948c0.552,0,1,0.448,1,1S30.026,21.412,29.474,21.412z"/>
	</g>
	<g>
		<path d="M29.474,21.412c-0.256,0-0.512-0.098-0.707-0.293l-4-4c-0.391-0.391-0.391-1.023,0-1.414s1.023-0.391,1.414,0l4,4
			c0.391,0.391,0.391,1.023,0,1.414C29.986,21.314,29.73,21.412,29.474,21.412z"/>
	</g>
	<g>
		<path d="M25.474,25.412c-0.256,0-0.512-0.098-0.707-0.293c-0.391-0.391-0.391-1.023,0-1.414l4-4c0.391-0.391,1.023-0.391,1.414,0
			s0.391,1.023,0,1.414l-4,4C25.986,25.314,25.73,25.412,25.474,25.412z"/>
	</g>
</g>
</svg>
