<?xml version="1.0" encoding="utf-8"?>
<!-- Generator: Adobe Illustrator 18.0.0, SVG Export Plug-In . SVG Version: 6.00 Build 0)  -->
<!DOCTYPE svg PUBLIC "-//W3C//DTD SVG 1.1//EN" "http://www.w3.org/Graphics/SVG/1.1/DTD/svg11.dtd">
<svg version="1.1" id="Livello_1" xmlns="http://www.w3.org/2000/svg" xmlns:xlink="http://www.w3.org/1999/xlink" x="0px" y="0px"
	 viewBox="0 0 40 40" enable-background="new 0 0 40 40" xml:space="preserve">
<g>
	<g>
		<path d="M26.699,28.111c-0.256,0-0.512-0.098-0.707-0.293L12.594,14.419c-0.391-0.391-0.391-1.023,0-1.414s1.023-0.391,1.414,0
			l13.398,13.398c0.391,0.391,0.391,1.023,0,1.414C27.211,28.013,26.955,28.111,26.699,28.111z"/>
	</g>
	<g>
		<path d="M26.699,28.111c-0.553,0-1-0.448-1-1v-5.657c0-0.552,0.447-1,1-1s1,0.448,1,1v5.657
			C27.699,27.663,27.252,28.111,26.699,28.111z"/>
	</g>
	<g>
		<path d="M26.699,28.111h-5.657c-0.553,0-1-0.448-1-1s0.447-1,1-1h5.657c0.553,0,1,0.448,1,1S27.252,28.111,26.699,28.111z"/>
	</g>
</g>
</svg>
