<?xml version="1.0" standalone="no"?>
<!DOCTYPE svg PUBLIC "-//W3C//DTD SVG 1.1//EN" "http://www.w3.org/Graphics/SVG/1.1/DTD/svg11.dtd" >
<svg xmlns="http://www.w3.org/2000/svg" xmlns:xlink="http://www.w3.org/1999/xlink" version="1.1">
<metadata></metadata>
<defs>
<font id="surveyor_textlight_italic" horiz-adv-x="1060" >
<font-face units-per-em="2048" ascent="1638" descent="-410" />
<missing-glyph horiz-adv-x="430" />
<glyph unicode="&#xfb01;" horiz-adv-x="1142" d="M45 23q43 100 285 663q12 29 6 35t-193 6q-6 0 -6.5 17.5t3.5 35t10 17.5h223q3 3 10 19t20.5 47.5t28.5 60.5q40 80 75 133.5t91 109.5q136 136 317 136q106 0 176 -58.5t70 -136.5q0 -57 -32.5 -92t-81.5 -35q-41 0 -71 27t-30 63q0 41 29 70q15 15 31.5 24.5 t17.5 10.5q4 4 -6.5 18.5t-43.5 29.5t-81 15q-85 0 -156.5 -61t-115.5 -150q-65 -131 -103 -233h193q292 0 331 -2q8 -2 4.5 -23.5t-12.5 -38.5q-22 -47 -127.5 -288.5t-120.5 -280.5q-10 -29 -10 -53q0 -20 14 -36t37 -16q38 0 87.5 38.5t146.5 144.5q3 3 26 -15.5 t21 -21.5q-105 -128 -170.5 -175.5t-130.5 -47.5q-64 0 -117 53q-45 45 -45 102q0 55 41 148q86 189 178 405q10 25 6 29q-8 8 -161 8q-36 0 -114 -2t-97 -2q-11 0 -13 -4q-122 -272 -297 -705q-8 -16 -14 -16q-8 0 -119 6q-6 0 -9.5 7.5t-0.5 13.5z" />
<glyph unicode="&#xfb02;" horiz-adv-x="1153" d="M45 23q43 100 285 663q12 29 6 35q-1 1 -193 6q-6 0 -6.5 17.5t3.5 35t10 17.5q43 -1 132.5 -1t90.5 1q3 3 10 19t20.5 47.5t28.5 60.5q39 78 76 134t94 113q61 61 140.5 98.5t164.5 37.5q87 0 152 -43q148 30 178 30q12 0 14 -5t-2 -13q-95 -211 -409 -969 q-19 -46 -28 -69.5t-16.5 -54t-7.5 -56.5q0 -25 16 -42t42 -17q36 0 80 34t139 144q2 2 14.5 -6.5t24 -18.5t10.5 -12q-97 -124 -160.5 -173.5t-115.5 -49.5q-93 0 -146 53q-41 41 -41 100q0 68 51 189q202 468 281 659q-23 11 -38 32t-15 46q0 49 33 82q15 15 31.5 24 t27 12t12.5 5q4 4 -11.5 16.5t-49.5 24.5t-74 12q-90 0 -160.5 -59.5t-115.5 -149.5q-67 -135 -105 -237q163 -5 242 -2q5 0 6 -18t-1.5 -36t-8.5 -18h-258q-11 0 -13 -4q-122 -272 -297 -705q-8 -16 -14 -16q-8 0 -119 6q-6 0 -9.5 7.5t-0.5 13.5z" />
<glyph unicode="&#xfb03;" horiz-adv-x="1695" d="M45 23q43 100 285 663q12 29 6 35q-1 1 -193 6q-6 0 -6.5 17.5t3.5 35t10 17.5q43 -1 132.5 -1t90.5 1q3 3 10 19.5t20.5 48.5t28.5 61q37 78 70.5 128.5t91.5 108.5q140 140 321 140q84 0 150 -38.5t92 -95.5q70 69 143 101.5t168 32.5q106 0 176 -58.5t70 -136.5 q0 -57 -33 -92t-82 -35q-41 0 -70.5 27t-29.5 63q0 41 29 70q15 15 31.5 24.5t17.5 10.5q4 4 -6.5 18.5t-43.5 29.5t-81 15q-87 0 -157.5 -60t-119.5 -161q-60 -120 -98 -223q27 -1 124.5 0.5t113.5 1.5q210 0 286 -4q8 -2 4.5 -23.5t-12.5 -38.5q-22 -47 -127.5 -288.5 t-120.5 -280.5q-10 -29 -10 -53q0 -20 14 -36t37 -16q38 0 87.5 38.5t146.5 144.5q3 3 26 -15.5t21 -21.5q-105 -128 -170.5 -175.5t-130.5 -47.5q-64 0 -117 53q-45 45 -45 102q0 55 41 148q86 189 178 405q10 25 6 29q-8 8 -133 8q-36 0 -128 -2t-111 -2q-11 0 -13 -4 q-122 -272 -297 -705q-8 -16 -14 -16q-8 0 -119 6q-6 0 -9.5 7.5t-0.5 13.5q43 100 285 663q12 29 6 35q-2 2 -164 2q-34 0 -120.5 -1t-106.5 -1q-11 0 -13 -4q-122 -272 -297 -705q-8 -16 -14 -16q-8 0 -119 6q-6 0 -9.5 7.5t-0.5 13.5zM518 795q51 -2 213 -2q195 0 195 4 q10 27 45 98q29 55 51 94q-29 9 -47.5 32.5t-18.5 51.5q0 21 11 43q7 14 18.5 26t21 18t18 10.5t9.5 5.5q4 4 -9 18.5t-48 29.5t-82 15q-88 0 -160 -61t-119 -156q-55 -110 -98 -227z" />
<glyph unicode="&#xfb04;" horiz-adv-x="1705" d="M47 6q-8 8 0 23q55 128 103 240.5t99 229.5t81 187q12 29 6 35q-1 1 -193 6q-6 0 -6.5 17.5t3.5 35t10 17.5q43 -1 132.5 -1t90.5 1q3 3 10 19t20.5 47.5t28.5 60.5q41 82 73.5 132.5t88.5 106.5q140 140 321 140q84 0 150 -38.5t92 -95.5q146 138 303 138q87 0 152 -43 q148 30 178 30q12 0 14 -5t-2 -13q-95 -211 -409 -969q-19 -46 -28 -69.5t-16.5 -54t-7.5 -56.5q0 -25 16 -42t42 -17q36 0 80 34t139 144q2 2 14.5 -6.5t24 -18.5t10.5 -12q-97 -124 -160.5 -173.5t-115.5 -49.5q-93 0 -146 53q-41 41 -41 100q0 68 51 189q202 468 281 659 q-24 12 -38.5 34t-14.5 46q0 45 37 82q17 17 43 27l26 10q4 4 -8.5 16.5t-47.5 25.5t-83 13q-168 0 -274 -211q-64 -132 -103 -235q162 -5 240 -2q5 0 6 -18t-1.5 -36t-8.5 -18h-256q-11 0 -13 -4q-130 -290 -297 -703q-8 -16 -14 -16q-125 0 -127 2q-9 9 -2 23 q43 100 285 663q12 29 6 35q-2 2 -193 2q-36 0 -109.5 -1t-90.5 -1q-11 0 -13 -4q-122 -272 -297 -705q-8 -16 -14 -16q-117 0 -127 10zM518 795q45 -2 187 -2q219 0 223 4q3 3 10 19t20.5 47.5t28.5 60.5q6 12 17.5 34t17.5 33q-29 7 -47.5 30.5t-18.5 51.5q0 41 33 74 q8 8 18.5 14.5t18.5 10.5l8 4q4 4 -9 18.5t-48 29.5t-82 15q-88 0 -156.5 -58t-115.5 -153q-73 -146 -105 -233z" />
<glyph horiz-adv-x="0" />
<glyph horiz-adv-x="682" />
<glyph unicode=" "  horiz-adv-x="430" />
<glyph unicode="&#x09;" horiz-adv-x="430" />
<glyph unicode="&#xa0;" horiz-adv-x="430" />
<glyph unicode="!" horiz-adv-x="595" d="M47 84q0 58 44.5 105t103.5 47q46 0 77 -28.5t31 -72.5q0 -55 -45 -103t-102 -48q-44 0 -76.5 27.5t-32.5 72.5zM256 385q114 304 119 317q35 98 58 201t37 172.5t32 106.5q44 88 135 88q84 0 84 -76q0 -27 -23 -74q-10 -21 -80 -143.5t-114 -212.5q-81 -161 -191 -402 q-5 -4 -19 -1.5t-27.5 10t-10.5 14.5z" />
<glyph unicode="&#x22;" horiz-adv-x="794" d="M213 772q165 218 250 377q58 106 129 106q27 0 42 -15t15 -42q0 -32 -19.5 -65.5t-74.5 -88.5l-301 -301q-4 -3 -15.5 2.5t-20 14t-5.5 12.5zM555 774q165 222 250 377q56 106 125 106q57 0 57 -65q0 -30 -17 -59.5t-65 -77.5q-278 -278 -311 -312q-6 -5 -24.5 10 t-14.5 21z" />
<glyph unicode="#" horiz-adv-x="1200" d="M154 420q28 54 51 117q3 8 14 4q27 -4 59.5 -9t59.5 -9.5t61 -10.5q7 0 9 4q55 136 131 309q2 3 0.5 6t-4.5 3q-92 13 -199 32q-2 0 -2 6q11 33 41 113q2 4 8 4q46 -5 107 -14t100 -14q7 0 8 2q21 49 60 143t61 145q2 3 7.5 3.5t13 -0.5t8.5 -1l10.5 -3t12.5 -3.5 t12.5 -5.5t2.5 -6q-62 -134 -120 -279q-1 -3 -0.5 -6.5t2.5 -3.5q143 -22 276 -39q7 0 8 2q90 222 140 340q2 6 28 2q5 0 14.5 -3t17 -7t5.5 -8q-61 -142 -139 -336q0 -4 4 -4q42 -6 100.5 -13t89.5 -12q4 0 7 -3.5t2 -8.5q-7 -20 -23.5 -63t-19.5 -54q-2 -4 -11 -4 q-17 3 -194 31q-7 0 -10 -6q-19 -41 -69.5 -163.5t-64.5 -154.5q-3 -6 9 -10q92 -17 188 -33q6 0 2 -8q-20 -59 -51 -119q-2 -4 -10 -4q-53 7 -187 33q-8 0 -10 -4q-7 -19 -31.5 -78t-48.5 -118.5t-41 -106.5q-2 -9 -37 0q-13 2 -22 6t-8 10q24 58 65 156.5t60 142.5 q2 5 -7 8q-150 29 -276 48q-6 0 -10 -7q-18 -42 -72 -169.5t-80 -192.5q-2 -5 -37 0q-18 3 -24.5 8.5t-3.5 11.5q29 66 85 200.5t66 156.5q4 8 -4 8q-175 30 -182 31q-3 0 -6 2t-2 6zM473 504q-4 -8 4 -8q127 -22 277 -47q8 0 10 4q90 217 131 319q2 3 0.5 6.5t-4.5 3.5 q-99 15 -279 39q-6 0 -6 -2q-58 -141 -133 -315z" />
<glyph unicode="$" horiz-adv-x="1183" d="M63 270q0 69 42 114.5t100 45.5q38 0 66 -24t28 -58q0 -36 -19.5 -63t-43 -39.5t-43 -25.5t-19.5 -25q0 -27 57.5 -68t141.5 -61q49 107 143.5 311.5t104.5 226.5q-163 100 -214 156.5t-51 144.5q0 105 88 193q71 71 188 122.5t253 51.5q25 0 37 -2q57 129 59 133 q4 8 38 -3q16 -7 15 -11q-19 -44 -57 -125q145 -23 233 -111q60 -60 60 -131q0 -57 -42.5 -102.5t-97.5 -45.5q-42 0 -68 22t-26 60q0 32 17.5 57t38 36.5t38 23t17.5 19.5q0 24 -59.5 61t-137.5 51q-145 -319 -223 -489q117 -77 174.5 -125.5t87 -102t29.5 -122.5 q0 -117 -94 -211q-77 -77 -193 -121.5t-252 -44.5q-26 0 -80 4q-18 -40 -51 -114.5t-49 -108.5q-1 -2 -15 0.5t-27.5 6.5t-12.5 7q86 189 100 219q-128 31 -204.5 110t-76.5 158zM428 55q36 -4 59 -4q92 0 176 28.5t138 82.5q76 76 76 172q0 71 -45.5 118.5t-167.5 122.5 q-110 -245 -236 -520zM494 946q0 -52 37.5 -90t150.5 -113q18 38 95.5 209.5t117.5 257.5h-16q-95 0 -180.5 -32t-137.5 -84q-67 -67 -67 -148z" />
<glyph unicode="%" horiz-adv-x="1337" d="M66 12q111 102 209.5 195t217 207.5t175.5 169.5q129 123 321 301.5t254 236.5q2 2 0.5 2.5t-4.5 -0.5q-87 -49 -197 -49q-123 0 -225 70q-4 -2 -4 -4q4 -12 4 -39q0 -81 -42 -169t-107 -153q-110 -110 -236 -110q-25 0 -51.5 9.5t-52 28.5t-42 55.5t-16.5 84.5 q0 75 40.5 159.5t109.5 153.5q53 53 121 83t133 30q69 0 129 -57q35 -34 108.5 -61.5t145.5 -27.5q49 0 92.5 9t90 31.5t72 37.5t79.5 49q3 0 20.5 -7.5t18.5 -10.5q2 -1 -5 -8q-68 -65 -317 -297.5t-383 -362.5q-357 -344 -616 -587q-10 -10 -33 8q-16 16 -10 22zM369 799 q0 -35 20.5 -57.5t54.5 -22.5q90 0 174 84q62 62 101 143.5t39 151.5q0 71 -29 100q-23 23 -63 23q-62 0 -121.5 -68t-126.5 -201q-49 -98 -49 -153zM684 158q0 152 141 293q56 56 127.5 90t130.5 34q64 0 106 -45.5t42 -119.5q0 -77 -42.5 -169t-107.5 -157 q-113 -113 -227 -113q-66 0 -118 51t-52 136zM782 92q0 -29 18.5 -49t59.5 -20q87 0 168 81q61 61 102 147t41 159q0 57 -24.5 84.5t-67.5 27.5q-59 0 -116.5 -61.5t-120.5 -186.5q-60 -120 -60 -182z" />
<glyph unicode="&#x26;" horiz-adv-x="1443" d="M59 236q0 203 258 333q87 42 244 103q-26 113 -26 209q0 168 96 264q50 50 127.5 81t146.5 31q120 0 193 -73q51 -51 51 -125q0 -105 -98 -203q-41 -41 -133 -96t-199 -101q38 -117 108 -270q85 99 169.5 176t144.5 107q65 33 125 33q58 0 92.5 -30.5t34.5 -74.5 t-30.5 -76t-70.5 -32q-49 0 -65 32q-7 15 -7.5 38t-1.5 36.5t-12 13.5q-109 0 -346 -284q19 -32 50.5 -90t51.5 -91.5t33 -46.5q32 -32 62 -32q61 0 192 194q1 2 15 -5t27 -15.5t12 -10.5q-74 -113 -114 -155q-90 -95 -185 -96q-44 0 -71 10t-54 37q-48 48 -125 186 q-220 -231 -412 -231q-72 0 -139 34q-72 36 -108 93t-36 127zM215 221q0 -94 43 -137q35 -35 100 -35q64 0 167 57t200 162q-95 192 -145 346q-60 -25 -94.5 -41t-83.5 -45.5t-80 -60.5q-107 -107 -107 -246zM670 924q0 -95 32 -207q128 67 195.5 118.5t99.5 114.5 q37 76 37 135q0 51 -35.5 80t-101.5 29q-96 0 -166 -70q-61 -61 -61 -200z" />
<glyph unicode="'" horiz-adv-x="471" d="M221 772q145 199 238 375q62 110 129 110q33 0 51 -18.5t18 -48.5q0 -49 -94 -143q-16 -16 -121.5 -116.5t-183.5 -180.5q-7 -4 -16.5 -0.5t-17 11t-3.5 11.5z" />
<glyph unicode="(" horiz-adv-x="669" d="M125 231q0 215 123 461q83 167 205 289q131 131 454 326q3 2 11.5 -9.5t15.5 -24t6 -13.5q-245 -159 -330 -244q-100 -100 -178 -256q-87 -173 -140.5 -347.5t-53.5 -281.5q0 -125 96 -307q3 -4 -9.5 -14.5t-27 -18t-16.5 -2.5q-44 79 -63.5 117.5t-46 100t-36.5 114 t-10 110.5z" />
<glyph unicode=")" horiz-adv-x="669" d="M-121 -160q118 69 183 113.5t114 93.5q93 93 178 264q76 153 134.5 329t58.5 296q0 72 -27 149t-86 189q-2 2 11 12t27 18.5t15 6.5q89 -146 132 -264t43 -240q0 -200 -113 -426q-83 -167 -205 -289q-144 -144 -438 -307q-4 -2 -12.5 10.5t-14 27t-0.5 17.5z" />
<glyph unicode="*" horiz-adv-x="759" d="M353.5 941.5q-1.5 14.5 6.5 19.5q47 14 114 33t91 26q-16 24 -58 84.5t-67 97.5q-6 8 6 21t26 17t22 -3q79 -122 108 -164q4 12 25 70.5t37 103.5q1 2 8 1.5t17 -3.5t19.5 -7t15.5 -8t5 -7q-12 -29 -37.5 -90.5t-34.5 -85.5q27 8 89.5 28.5t95.5 30.5q12 4 22.5 -10.5 t11.5 -29.5t-4 -19q-136 -35 -210 -58q30 -48 129 -178q4 -6 -9 -17.5t-29 -18.5t-20 -1q-76 120 -112 170q0 -1 -27 -76t-43 -123q-6 -11 -23 -9.5t-33.5 11t-13.5 17.5q51 121 78 194q-19 -6 -79 -27t-101 -32q-7 -2 -15.5 13t-10 29.5z" />
<glyph unicode="+" d="M240 692q0 6 10 6h358q5 5 6 7q54 138 142 352q0 1 10.5 1.5t26 -0.5t28.5 -3q13 -3 13 -6q-79 -189 -142 -349q102 -2 342 -2q6 -3 6 -8q0 -2 -2 -21t-3.5 -29.5t-4.5 -10.5q-46 0 -171.5 1t-188.5 1q-8 0 -11 -6q-31 -78 -75.5 -188.5t-67.5 -168.5q-5 -2 -26.5 -1.5 t-43.5 3.5q-3 0 -5 3t-1 6q95 236 142 350v2q-234 0 -336 -2q-11 0 -6 63z" />
<glyph unicode="," horiz-adv-x="503" d="M-89.5 -276.5q-2.5 14.5 1.5 18.5q136 58 215.5 130t79.5 114q0 12 -6 12q-3 0 -22 -11.5t-36 -11.5q-28 0 -48.5 25.5t-20.5 69.5q0 58 43 101.5t96 43.5q49 0 80 -33.5t31 -99.5q0 -131 -96.5 -224t-290.5 -175q-7 -3 -15.5 11.5t-11 29z" />
<glyph unicode="-" horiz-adv-x="698" d="M123 428q0 19 27 92q2 10 12 10q170 -2 448 2q6 0 6 -8q-3 -20 -24 -94q-3 -8 -12 -8q-78 2 -236 2q-131 0 -207 -2q-8 0 -14 6z" />
<glyph unicode="." horiz-adv-x="503" d="M74 94q0 59 42.5 101.5t98.5 42.5q51 0 86 -33.5t35 -81.5q0 -57 -44.5 -99t-98.5 -42q-47 0 -83 32t-36 80z" />
<glyph unicode="/" horiz-adv-x="815" d="M-203 -190q31 38 288 355.5t378 469.5q104 132 274.5 343.5t272.5 342.5q2 5 41 -17q20 -12 18 -16q-51 -64 -237 -295t-304 -379q-69 -87 -208.5 -260.5t-253.5 -316.5t-207 -260q-3 -4 -19.5 3t-31 16.5t-11.5 13.5z" />
<glyph unicode="0" horiz-adv-x="1107" d="M147 360q0 91 33.5 207t87.5 224q148 297 406 426q110 55 182 55q75 0 137.5 -57.5t97.5 -149.5t35 -195q0 -93 -30.5 -204.5t-81.5 -212.5q-79 -157 -176 -255t-191 -145q-138 -69 -237 -69q-111 0 -187 107t-76 269zM270 213q0 -80 42.5 -122t115.5 -42q117 0 213 96 q91 91 166 242q85 170 143 352t58 269t-44.5 144.5t-121.5 57.5q-93 0 -187 -94q-91 -91 -178 -264q-91 -181 -149 -353.5t-58 -285.5z" />
<glyph unicode="1" horiz-adv-x="778" d="M-105 16q0 15 4 32.5t9 17.5q47 0 141.5 3t126.5 3q10 0 12 6q22 50 63 146.5t98.5 235t94.5 224.5q163 378 201 481q3 6 -2 6q-55 -3 -266 -6q-2 2 -1.5 16.5t3 31t4.5 16.5q131 3 195 8q65 4 251 27q9 0 5 -13q-42 -91 -111.5 -254.5t-99.5 -232.5q-142 -325 -277 -668 q-6 -16 -7 -21.5t3 -6.5q36 0 115.5 -2.5t140.5 -2.5q2 -2 1.5 -16.5t-4 -31.5t-7.5 -17q-52 0 -145 2t-189 2q-126 0 -356 -4q-3 3 -3 18z" />
<glyph unicode="2" horiz-adv-x="1103" d="M-45 33q134 193 491 413q216 134 298.5 190t138.5 112q60 60 102.5 149.5t42.5 161.5q0 53 -33 86q-57 57 -188 57q-72 0 -140.5 -25.5t-105.5 -62.5q-39 -38 -26 -51q4 -4 28 -16q66 -32 66 -99q0 -46 -39 -88.5t-96 -42.5q-48 0 -76.5 32t-28.5 87q0 96 92 188 q65 65 152.5 103.5t187.5 38.5q178 0 287 -109q72 -72 72 -168q0 -105 -90 -207t-234 -174q-213 -105 -369 -207q-129 -84 -243 -170q-7 -7 -2 -10q127 -47 240.5 -75.5t160.5 -28.5q68 0 82 14q21 21 95.5 109.5t109.5 132.5q2 2 15 -3.5t24.5 -13t9.5 -10.5 q-44 -53 -125.5 -163.5t-108.5 -137.5q-33 -33 -62.5 -45t-72.5 -12q-135 0 -479 127q-14 5 -22 0q-53 -51 -103 -119q-2 -3 -15.5 5.5t-25.5 19t-10 12.5z" />
<glyph unicode="3" horiz-adv-x="1019" d="M45 285q0 53 41.5 99t95.5 46q45 0 73 -26t28 -68q0 -31 -13.5 -54t-32.5 -35.5t-37.5 -21.5t-32 -18t-13.5 -19q0 -21 32.5 -55t69.5 -53q69 -35 158 -35q51 0 101 18.5t83 51.5q56 56 92 127q60 120 60 260q0 55 -50 89t-125 34q-49 0 -159 -4q-4 0 -5.5 16.5t0.5 32.5 t7 16q2 0 166 4q101 3 192 49q43 22 72 53.5t59 92.5q51 102 51 188q0 52 -59 89.5t-156 37.5q-101 0 -165 -31q-29 -15 -29 -24q0 -11 24 -35q27 -27 27 -70q0 -52 -33 -83t-80 -31q-46 0 -76 32.5t-30 79.5q0 50 36.5 96.5t86.5 71.5q112 56 246 56q173 0 288 -115 q76 -76 76 -166q0 -80 -48.5 -137.5t-143.5 -104.5q-117 -59 -246 -80l-2 -4q83 -26 139 -82q39 -39 55.5 -80t16.5 -102q0 -123 -61 -209.5t-162 -136.5q-122 -61 -259 -61q-102 0 -172 36q-50 25 -93.5 69.5t-69.5 96.5q-23 47 -23 99z" />
<glyph unicode="4" horiz-adv-x="1058" d="M56.5 328q-0.5 25 2.5 28q302 249 479 412.5t220 249.5q14 33 6 41q-6 6 -34.5 20.5t-48 35.5t-19.5 52q0 39 32 67t82 28q54 0 88.5 -30.5t34.5 -76.5q0 -45 -29 -102q-94 -187 -686 -672q-3 -1 -2 -5.5t4 -4.5q188 3 416 6q7 0 14 18q62 156 113 267q9 17 19 20 q22 5 64.5 11t59.5 9q6 2 7.5 -2t-2.5 -14q-110 -241 -134 -301q-3 -10 9 -10q86 -4 122 -4q74 0 142 2q3 -2 1.5 -16t-4.5 -30t-5 -16q-187 3 -291 -2q-4 0 -10 -12q-14 -31 -28.5 -66t-30 -71.5t-21.5 -50.5q-12 -27 -4 -35q6 -6 211 -6q3 -3 2.5 -18t-5 -32.5t-8.5 -17.5 q-55 0 -135.5 1t-169.5 1q-156 0 -319 -6q-3 2 -2 17t5.5 32.5t8.5 17.5q251 11 256 13q5 3 14 18q23 43 97 209q6 12 0 12q-471 -10 -517 -12q-4 0 -4.5 25z" />
<glyph unicode="5" horiz-adv-x="1017" d="M49 254q0 51 40 100t95 49q42 0 67 -24.5t25 -63.5q0 -45 -34 -79q-16 -16 -44.5 -33.5t-31.5 -20.5q-18 -18 20 -55q32 -32 88 -55t119 -23q117 0 195 78q54 54 110 164q66 132 66 235q0 68 -56.5 116t-150.5 48q-128 0 -248 -82q-3 -2 -14 1t-20 8.5t-7 9.5 q95 172 187 397q51 122 77 219q3 10 21 10q207 -59 426 -59q78 0 102 12q22 11 86 64q2 1 14 -5.5t22.5 -14t8.5 -9.5q-180 -176 -237 -176q-215 0 -404 37q-8 0 -10 -4q-64 -159 -172 -379q-2 -3 0 -5t6 -1q84 41 172 41q129 0 238 -109q98 -98 98 -233q0 -62 -27.5 -122 t-72.5 -106.5t-91.5 -81t-93.5 -57.5q-118 -59 -237 -59q-69 0 -139.5 29t-124.5 83q-68 68 -68 156z" />
<glyph unicode="6" horiz-adv-x="1064" d="M141 352q0 187 101 391q76 153 191 283t237 191q100 51 186 51q128 0 229 -101q62 -62 62 -141q0 -62 -39.5 -108t-91.5 -46q-43 0 -65.5 25.5t-22.5 60.5q0 52 45 97q11 11 27.5 24t25 21t8.5 14t-6.5 16.5t-22 23t-36.5 24t-54 19t-71 7.5q-50 0 -103.5 -24t-95.5 -66 q-68 -68 -144 -195.5t-126 -263.5q-2 -3 0.5 -6t5.5 0q140 137 289 137q93 0 174 -81q104 -104 104 -252q0 -127 -85.5 -238.5t-205.5 -171.5q-132 -66 -225 -66q-81 0 -145.5 42.5t-100.5 115.5q-45 88 -45 217zM246 240q0 -86 54 -143.5t142 -57.5q99 0 164 65 q67 67 133 199q70 140 70 266q0 65 -44 111.5t-120 46.5q-135 0 -291 -156q-18 -18 -35 -53q-73 -146 -73 -278z" />
<glyph unicode="7" horiz-adv-x="972" d="M252 86q0 58 33 123q39 76 155 209q62 71 186.5 215t222.5 256t150 170q34 36 29 41q-1 1 -29.5 -2.5t-87.5 -8t-118 -4.5q-121 0 -283 17q-27 4 -37 -6q-3 -3 -24 -47t-56 -117t-57 -117q-4 -8 -46 1q-21 5 -20 9q119 247 187 420q6 9 16 6q160 -32 449 -32 q80 0 144.5 7t84.5 17q16 8 39 47q6 8 41 -5q17 -7 16 -11q-46 -83 -200 -254q-98 -110 -549 -647q-64 -76 -87.5 -111.5t-23.5 -54.5q0 -10 8.5 -18.5t24.5 -19.5t24 -19q29 -29 29 -70t-35.5 -73t-81.5 -32q-44 0 -74 28t-30 83z" />
<glyph unicode="8" horiz-adv-x="1067" d="M92 285q0 210 230 325q101 51 198 60q4 0 4.5 4t-2.5 6q-42 22 -73 53q-87 87 -87 197q0 84 59.5 168.5t178.5 144.5q110 55 211 55q124 0 238 -114q39 -39 61.5 -90t22.5 -101q0 -137 -112.5 -229t-291.5 -123q-11 -4 -4 -8q71 -40 123 -92q86 -86 86 -181 q0 -106 -69.5 -187t-172.5 -132q-140 -70 -254 -70q-143 0 -252 109q-41 41 -67.5 98.5t-26.5 106.5zM231 195q0 -64 59.5 -112t176.5 -48q111 0 178 67q54 54 84 113q51 102 51 221q0 86 -60.5 138.5t-154.5 52.5q-126 0 -200 -74q-33 -33 -62 -92q-72 -144 -72 -266z M496 821q0 -58 47.5 -98.5t136.5 -40.5q111 0 174 63q58 58 97.5 151t39.5 167q0 48 -14 76q-21 42 -73 69t-105 27q-95 0 -150 -55q-38 -38 -71 -103q-82 -164 -82 -256z" />
<glyph unicode="9" horiz-adv-x="1067" d="M78 242q0 60 39 107.5t92 47.5q33 0 55.5 -23.5t22.5 -60.5q0 -40 -22 -72.5t-44 -51t-22 -23.5q0 -34 64.5 -78.5t133.5 -44.5q61 0 128.5 32.5t123.5 88.5q54 54 103.5 146t73 156.5t40.5 125.5q0 2 -2 2t-4 -2q-158 -139 -311 -139q-116 0 -195 79q-84 84 -84 211 q0 132 99.5 273t238.5 211q94 47 172 47q113 0 203 -90q53 -53 81 -140t28 -178q0 -191 -101 -395q-73 -146 -183.5 -260.5t-215.5 -167.5q-122 -61 -207 -61q-121 0 -233 112q-74 74 -74 148zM416 649q0 -64 41 -101.5t114 -37.5q77 0 162.5 46t145.5 106q20 20 30 40 q28 57 51 146.5t23 148.5q0 100 -64 156.5t-155 56.5q-87 0 -148 -61q-47 -47 -92 -135q-108 -216 -108 -365z" />
<glyph unicode=":" horiz-adv-x="538" d="M35 86q0 57 43.5 107.5t101.5 50.5q40 0 69.5 -29.5t29.5 -69.5q0 -65 -40 -114t-94 -49q-44 0 -77 31.5t-33 72.5zM262 647q0 50 44 102t102 52q42 0 71 -27.5t29 -64.5q0 -62 -44 -115t-97 -53q-46 0 -75.5 27.5t-29.5 78.5z" />
<glyph unicode=";" horiz-adv-x="538" d="M-108 -249.5q-3 14.5 2 18.5q124 53 197 123t73 110q0 12 -6 12l-20 -11q-21 -11 -38 -11q-28 0 -48.5 25t-20.5 69q0 57 44.5 101t98.5 44q49 0 80 -32t31 -97q0 -126 -94 -222t-273 -171q-6 -3 -14.5 12t-11.5 29.5zM260 637q0 57 45 108.5t98 51.5q46 0 73.5 -27 t27.5 -68q0 -65 -44 -113t-106 -48q-41 0 -67.5 28t-26.5 68z" />
<glyph unicode="&#x3c;" horiz-adv-x="1024" d="M199 666q5 25 12 32q216 93 889 389q8 4 16 -8q7 -15 9 -33t-3 -22q-11 -6 -46 -21.5t-106.5 -47t-140.5 -62.5q-21 -10 -532 -231q-9 -6 -2 -9q46 -32 222.5 -155.5t305.5 -210.5q0 -5 -4 -13q-1 -1 -17 -20.5t-18 -20.5q-3 -1 -18 9q-89 62 -203 141.5t-196.5 137 t-163.5 112.5q-9 6 -4 33z" />
<glyph unicode="=" d="M172 479q0 32 10 35q31 0 107.5 -1t85.5 -1q141 0 294.5 1t286.5 1q13 0 9 -31q0 -15 -3 -28t-6 -13q-21 0 -85.5 1t-104.5 1q-112 0 -285 -1t-301 -1q-3 0 -5.5 13.5t-2.5 23.5zM309 856q0 10 3.5 19.5t9.5 9.5q77 0 202 -1t203 -1q226 0 371 2q6 -3 6 -35 q0 -12 -4 -24.5t-8 -12.5h-777q-6 0 -6 43z" />
<glyph unicode="&#x3e;" horiz-adv-x="1024" d="M100 289v12q519 226 828 365q7 3 0 8q-23 17 -150 104t-170 119q-39 27 -82 57t-66.5 46t-31.5 22q-4 3 2.5 20.5t15.5 28.5q11 11 19 6q336 -234 559 -385q5 -20 2 -35q-6 -27 -20 -32q-125 -56 -428.5 -189.5t-434.5 -191.5q-14 -8 -18 -4q-1 1 -25 49z" />
<glyph unicode="?" horiz-adv-x="954" d="M74 78q0 55 42.5 102t102.5 47q44 0 73.5 -28t29.5 -68q0 -63 -45.5 -105t-102.5 -42q-44 0 -72 25.5t-28 68.5zM270 356q5 119 19 179.5t45 91.5q34 34 218.5 94t240.5 88q66 33 101.5 85.5t35.5 135.5q0 75 -51 123.5t-152 48.5q-71 0 -139 -33q-22 -10 -36.5 -22.5 t-14.5 -20.5q0 -5 22.5 -33t22.5 -59q0 -41 -32 -74.5t-77 -33.5q-38 0 -64 25.5t-26 68.5q0 58 42 108t105 82q108 54 220 54q76 0 135 -25.5t94 -60.5q74 -74 74 -189q0 -105 -46 -173.5t-141 -115.5q-74 -37 -188 -73t-196 -63t-107 -52q-32 -32 -45 -158q0 -3 -15 -4 t-30 0.5t-15 5.5z" />
<glyph unicode="@" horiz-adv-x="1503" d="M111 340q0 132 51 260t138.5 229t196.5 178.5t231 119.5t237 42q239 0 376 -137q134 -134 134 -325q0 -94 -29 -181t-76.5 -151t-106.5 -112t-121.5 -72.5t-119.5 -24.5q-78 0 -122 47.5t-34 120.5q-5 -6 -14.5 -17t-17.5 -20t-15 -16q-117 -117 -207 -117 q-63 0 -117.5 60t-54.5 145q0 137 131 268q78 78 164 123t158 45q83 0 113 -78q41 76 43 78q3 3 42.5 -2.5t59.5 -11.5q3 -1 5.5 -13.5t0.5 -17.5q-39 -87 -156 -375q-24 -74 -24 -100q0 -27 17.5 -44.5t52.5 -17.5q62 0 127.5 36t120 97t89.5 152.5t35 191.5 q0 185 -114 299q-121 121 -342 121q-130 0 -271.5 -68t-261.5 -188q-109 -109 -178.5 -249t-69.5 -289q0 -135 57.5 -245.5t169 -177.5t255.5 -67q116 0 230.5 50t260.5 153q4 3 12 -5t13.5 -18.5t1.5 -13.5q-154 -111 -276.5 -164t-246.5 -53q-157 0 -283.5 75 t-195.5 201.5t-69 278.5zM557 317q0 -43 21 -66.5t61 -23.5q66 0 158 92q63 63 100 136q74 149 74 200q0 30 -28 58t-66 28q-81 0 -142 -60.5t-123 -184.5q-55 -110 -55 -179z" />
<glyph unicode="A" horiz-adv-x="1333" d="M-132 33q0 33 5 33q152 6 168 14q48 23 145 151q99 129 414 557q66 90 188.5 252t172.5 232q9 12 38 12q31 0 31 -12q0 -1 -3 -59.5t-3 -96.5q-1 -129 -1 -350t-1 -367t-4 -278q0 -43 4 -47t20.5 -5.5t44.5 -3t41 -2.5q4 0 4 -31.5t-4 -31.5q-86 2 -196 2t-236 -4 q-4 0 -4 32.5t4 32.5q163 10 168 15q10 10 13 45q6 95 6 233q0 17 -9 17q-130 6 -297 6q-92 0 -196 -2q-14 -20 -56.5 -78t-64.5 -90q-53 -80 -53 -113q0 -10 10.5 -15t49 -9t116.5 -6q5 0 5 -33t-5 -33h-510q-5 0 -5 33zM442 469q-13 -18 4 -18q134 -7 410 -7q27 0 27 11 q0 370 2 583q0 3 -6 6t-9 0q-236 -312 -428 -575z" />
<glyph unicode="B" horiz-adv-x="1183" d="M-105 16.5q0 16.5 2 33t5 16.5q170 0 178 8q13 13 61 127q231 544 373 903q16 44 16 58q0 5 -2 7q-9 9 -166 9q-3 0 -3 17t2 33.5t4 16.5q46 2 128.5 2t199.5 -1t177 -1q89 0 170.5 -32.5t133.5 -84.5q63 -63 63 -147q0 -96 -84 -180q-55 -55 -172.5 -98t-239.5 -52 q89 -22 149 -52t107 -77q68 -68 68 -162q0 -114 -80 -194q-83 -83 -224.5 -125.5t-285.5 -42.5q-74 0 -181 1t-153 1h-243q-3 0 -3 16.5zM252 72q9 -9 258 -9q187 0 278 91q109 109 109 260q0 82 -51 133q-32 32 -102.5 54t-153.5 22q-112 0 -119 -7q-2 -2 -20 -43 q-39 -93 -99 -239.5t-86 -210.5q-19 -46 -14 -51zM508 711q-2 -6 22 -9q30 -4 109 -4q249 0 346 97q39 39 60.5 99.5t21.5 125.5q0 39 -10 63t-33 47q-21 21 -70.5 34.5t-111.5 13.5q-131 0 -140 -9t-22 -41q-75 -176 -172 -417z" />
<glyph unicode="C" horiz-adv-x="1124" d="M129 399q0 137 73 298t206 294q131 131 277 202t284 71q151 0 231 -80q53 -53 53 -121q0 -74 -42 -122t-97 -48q-41 0 -67.5 26.5t-26.5 65.5q0 55 47 102q8 8 17.5 16t14.5 12t9 10t4 12q0 22 -42 41.5t-105 19.5q-182 0 -338 -156q-150 -150 -246 -364t-96 -371 q0 -125 55 -180q70 -70 180 -70q151 0 309 158q109 109 183 250q3 5 20.5 -2t33 -17.5t13.5 -15.5q-87 -154 -205 -272q-84 -84 -180.5 -132.5t-189.5 -48.5q-151 0 -256 105q-119 119 -119 317z" />
<glyph unicode="D" horiz-adv-x="1292" d="M-115.5 14.5q-0.5 16.5 1.5 32.5t5 16q171 7 179 15q15 15 61 115q175 377 348 831q46 123 46 146q0 3 -1 4q-4 4 -170 4q-3 0 -3.5 32.5t3.5 32.5q125 4 375 4q167 0 268 -30t174 -103q127 -127 127 -328q0 -148 -67 -287.5t-178 -250.5q-117 -117 -269.5 -183.5 t-287.5 -66.5q-32 0 -139 2q-64 1 -116 0h-63q-125 -2 -289 -2q-4 0 -4.5 16.5zM248 74q91 -6 260 -6q94 0 189 39.5t159 103.5q127 127 206 321t79 369q0 129 -70 199q-37 37 -110 56.5t-158 19.5q-59 0 -105 -5q-260 -640 -450 -1097z" />
<glyph unicode="E" horiz-adv-x="1173" d="M-106 34q0 34 14 34q22 1 69 2t72 2q23 0 29 14q115 240 268 598q137 323 184 449q12 34 5 41q-3 3 -170 8q-5 0 -6 17t1.5 33.5t8.5 16.5q138 0 474 -5t515 -7q11 -4 6 -14q-115 -252 -156 -355q-2 -5 -16.5 -6.5t-28 1t-12.5 7.5q13 72 17 120q2 20 1 41q0 27 -3 54 q-6 47 -27 68t-375 21q-36 0 -45.5 -3t-16.5 -20q-61 -125 -190 -430q-4 -8 0 -10t14 -2q213 0 258 22q40 20 107 176q4 8 47 3q25 -3 23 -9q-123 -286 -197 -481q-3 -7 -21 -8t-35 2.5t-16 7.5q39 115 39 163q0 16 -4 25q-9 18 -48.5 23.5t-146.5 5.5q-48 0 -59 -8 q-45 -109 -111.5 -264.5t-105.5 -247.5q-13 -36 -8 -41q3 -3 58 -6.5t97 -3.5q269 0 332 32q85 43 266 349q6 10 44 3q21 -5 20 -10q-23 -55 -67.5 -168t-75 -188t-33.5 -78q-8 -8 -35 -8q-81 0 -294 1t-374 1q-57 0 -147 -1t-131 -1q-14 0 -14 34z" />
<glyph unicode="F" horiz-adv-x="1093" d="M-104 18.5q0 16.5 1.5 33t4.5 16.5q155 5 168 12q25 13 82 145q29 69 89.5 211.5t82 193t61.5 147t71 175t68 174.5q13 36 4 45q-4 4 -64.5 7.5t-101.5 3.5q-4 0 -4.5 16.5t2 32.5t7.5 16q115 -2 243 -2q571 0 729 2q11 0 7 -18q-8 -20 -36.5 -90.5t-36.5 -92 t-25.5 -67.5t-26 -74t-15.5 -55q-1 -6 -16.5 -8t-31 0t-15.5 6q8 100 8 168q0 119 -25 145q-9 9 -37 12t-110 3q-195 0 -279 -11q-87 -195 -182 -432q-4 -8 6 -8q132 -8 150 -8q60 0 88 14q45 23 125 180q4 8 51 3q22 -3 20 -7q-194 -445 -215 -495q-2 -5 -19 -6t-33 2 t-15 8q30 105 38 144t1 54q-19 39 -156 39q-75 0 -80 -10q-38 -89 -89.5 -211t-90.5 -213t-39 -123q0 -11 15.5 -16t52.5 -8q109 -8 141 -9q4 0 5.5 -16.5t0.5 -32.5t-4 -16q-274 4 -459 4h-114q-2 0 -2 16.5z" />
<glyph unicode="G" horiz-adv-x="1251" d="M150 457q0 135 61 265.5t166 235.5q142 142 306 220.5t304 78.5q137 0 208 -61t71 -147q0 -67 -36 -112.5t-89 -45.5q-41 0 -67.5 26.5t-26.5 61.5q0 66 63 98q16 8 21.5 11t10.5 9t5 15q0 29 -47 55.5t-125 26.5q-181 0 -361 -180q-155 -155 -240 -336.5t-85 -321.5 q0 -149 80 -229q84 -84 196 -84q53 0 108.5 19.5t84.5 48.5q22 22 51.5 91t83.5 220q19 51 19 74q0 11 -5 16q-9 9 -186 16q-5 0 -5 33t5 33q105 -1 207 -1q170 0 332 3q3 0 4 -16.5t-1 -33t-6 -16.5q-155 -9 -172 -18q-3 -1 -4.5 -2.5t-3.5 -4t-3.5 -4.5t-3.5 -7t-3.5 -8.5 t-4.5 -11t-5 -13.5q-1 -2 -111 -279q-45 -112 -45 -159q0 -3 -18 -10t-23 -7t-26 18.5t-33 32.5q-148 -80 -254 -80q-135 0 -250 115q-68 68 -107.5 164t-39.5 201z" />
<glyph unicode="H" horiz-adv-x="1314" d="M-100 45q1 16 4 16q159 4 170 15q26 26 67 127q273 649 361 870q27 68 27 92q0 8 -3 11q-2 2 -31.5 3t-73.5 1.5t-61 1.5q-6 0 -6.5 32.5t6.5 32.5q77 0 264 -2t220 -2q6 0 6 -32.5t-6 -32.5q-124 0 -133 -9q-16 -16 -56 -104q-47 -101 -145 -352q208 0 541 -11 q84 211 166 416q18 46 8 56q-6 6 -144 6q-2 0 -3 16.5t0 32.5t5 16h48q60 -1 194 -1q222 -2 242 -3q3 0 4.5 -15.5t0 -31.5t-6.5 -16q-145 0 -154 -9q-18 -18 -35 -57q-287 -654 -401 -967q-20 -51 -20 -65q0 -3 1 -4q8 -8 164 -15q4 0 5.5 -16.5t-1 -32.5t-8.5 -16 q-110 4 -485 4q-5 0 -6 15.5t1.5 31.5t6.5 16q138 4 143 9q19 19 41 73q176 424 203 492q-308 10 -539 10q-37 -86 -198 -477q-30 -75 -30 -90q0 -3 1 -4q3 -3 26 -4t64.5 -1.5t67.5 -2.5q5 0 5.5 -33t-5.5 -33q-31 0 -262 -2.5t-244 -3.5q-4 0 -5.5 16.5t-0.5 32.5z" />
<glyph unicode="I" horiz-adv-x="628" d="M-105.5 19q-0.5 17 3 34t8.5 17q11 0 36.5 -0.5t44 -0.5t40 0.5t35.5 2t20 4.5q20 10 49 78q233 537 397 958q18 48 9 57q-3 3 -15.5 5t-32.5 3t-39 1.5t-44.5 1t-38.5 0.5q-4 0 -5 16.5t1 32.5t6 16q64 0 149 -1t127 -1q140 0 242 2q6 0 6 -33.5t-6 -33.5q-7 0 -29.5 -1 t-41.5 -2t-41 -2.5t-36.5 -3.5t-19.5 -4q-8 -4 -15 -14.5t-11 -19.5t-13 -33q-391 -929 -408 -969q-15 -36 -2 -49q3 -3 16 -5t34.5 -3t40.5 -1.5t45 -1.5t38 -1q4 0 4.5 -17t-2 -34t-6.5 -17h-391q-106 0 -149 2q-5 0 -5.5 17z" />
<glyph unicode="J" horiz-adv-x="1024" d="M25 260q0 63 42 115.5t103 52.5q45 0 77 -30t32 -72q0 -37 -27 -64q-24 -24 -74 -31t-55 -12q-13 -11 -1.5 -46t38.5 -62q62 -62 153 -62q102 0 172 70q63 63 142 241q29 65 53.5 122t50.5 119.5t41.5 99t44 108.5t38 96.5t45 115t44.5 114.5q11 27 2 36q-10 10 -166 15 q-6 0 -5.5 31.5t5.5 31.5q42 0 125 -3t150 -3h235q6 0 6 -31.5t-6 -31.5q-14 0 -36.5 -0.5t-38 -1t-32.5 -1.5t-28 -2.5t-16 -3.5q-12 -6 -23.5 -25.5t-38.5 -82.5q-39 -92 -142 -332t-159 -375q-36 -87 -73 -145.5t-93 -114.5q-53 -53 -135 -83.5t-168 -30.5 q-58 0 -112.5 26t-90.5 62q-79 79 -79 190z" />
<glyph unicode="K" horiz-adv-x="1275" d="M-99.5 12.5q-0.5 16.5 1 32.5t4.5 16q154 6 168 13q17 9 84 166q183 434 368 905q8 20 2 26q-4 4 -178 13q-3 0 -3 16t2 31.5t5 15.5q158 -3 313 -3q94 0 187 1q6 0 6 -32.5t-6 -32.5q-123 0 -145 -11q-11 -6 -29 -51q-126 -297 -246 -567q-3 -5 0 -6.5t6 0.5 q291 230 543 440q107 88 142.5 122.5t35.5 49.5q0 20 -155 23q-2 0 -2 16t1.5 31.5t4.5 15.5q194 -2 324 -2t196 2q3 0 4 -15.5t-0.5 -31.5t-5.5 -16q-151 -7 -185 -23q-73 -37 -174 -115q-110 -85 -202 -161q-55 -43 -138 -111q-4 -4 -4 -10q24 -147 99 -588q9 -53 15 -72 t15 -24q14 -7 150 -13q4 0 4 -32.5t-4 -32.5q-74 4 -143 4h-50q-54 0 -125 -1q-106 -1 -165 -1q-6 0 -5.5 33t5.5 33q136 5 145 10q11 6 12 19.5t-6 49.5q-40 278 -78 478q-7 32 -14 30q-31 -25 -130 -101.5t-144 -113.5q-28 -25 -35 -41q-42 -97 -119 -307q-7 -17 14 -20 q69 -6 135 -9q5 0 5 -31.5t-5 -31.5q-86 2 -225 2q-174 0 -272 -4q-3 0 -3.5 16.5z" />
<glyph unicode="L" horiz-adv-x="1054" d="M-97.5 14.5q-0.5 16.5 1.5 32.5t6 16q145 6 156 11q13 6 25.5 28t47.5 101q208 476 379 911q18 48 6 60q-3 3 -166 8q-4 0 -4 16.5t2.5 32.5t5.5 16q53 -1 136.5 -1t130.5 -1t99.5 -2t85.5 -1.5t69 -0.5q3 0 3.5 -16.5t-1 -33.5t-4.5 -17q-62 2 -102 2q-64 0 -74 -5 q-12 -6 -29 -49q-49 -119 -223 -536q-123 -290 -191 -465q-15 -36 -8 -43q6 -6 30 -7t126 -1q161 0 212 12.5t103 64.5q13 13 29 33t29 37t35.5 50t33 50t39 60t37.5 57q3 2 15 1.5t25.5 -3t12.5 -4.5q-18 -42 -170 -418q-5 -14 -20 -14t-66 2t-84 2q-80 0 -227.5 1 t-247.5 1q-72 0 -260 -4q-3 0 -3.5 16.5z" />
<glyph unicode="M" horiz-adv-x="1624" d="M-109.5 16.5q-0.5 16.5 1 33t4.5 16.5q155 9 180 34q9 9 157 346q98 223 101 230q44 102 91 218t73 182t30 79q-13 11 -45.5 15.5t-85.5 5.5t-63 2q-3 0 -3.5 16.5t1 32.5t4.5 16h407q12 0 9 -29q-5 -74 -35 -1011q640 804 772 964q11 13 25 31.5t22 27.5t14 13 q8 4 348 4q4 0 4.5 -16.5t-1.5 -32.5t-5 -16q-14 1 -29 1q-36 0 -74 -4q-53 -5 -62 -14q-13 -13 -220 -491q-239 -557 -239 -570q0 -11 18 -20q21 -11 158 -14q2 0 2.5 -16.5t-0.5 -33t-4 -16.5q-21 0 -280.5 -1t-270.5 -1q-3 0 -3 32.5t3 32.5q179 6 197 15q16 8 67 121 q12 26 159.5 369t248.5 571q0 1 -3.5 1t-4.5 -1q-95 -119 -336 -415t-324 -400q-209 -255 -266 -338q-3 -5 -32 -4.5t-32 6.5q17 295 19 360q8 304 22 807q-82 -195 -187.5 -451t-111.5 -270q-116 -277 -116 -334q0 -15 33.5 -22.5t146.5 -14.5q3 0 3 -32.5t-3 -32.5 q-261 3 -384 3q-74 0 -97 -1q-3 0 -3.5 16.5z" />
<glyph unicode="N" horiz-adv-x="1296" d="M-108.5 15q-0.5 17 0.5 34t4 17q151 9 165 16q27 13 113 223q55 130 157.5 373t186.5 444q0 10 -6 25.5t-12 21.5q-1 1 -164 9q-4 0 -4 32.5t4 32.5q213 0 350 4q9 0 12 -12q38 -184 215 -997q247 576 306 725q23 58 36 107t13.5 68.5t-2.5 28.5q-3 3 -54 5q-36 2 -71 2 h-27q-4 0 -4 33.5t4 33.5q74 2 207 2q162 0 238 2q3 0 4 -16.5t-1 -32.5t-6 -16q-130 -5 -137 -9q-39 -19 -121 -215q-86 -205 -218.5 -514.5t-198.5 -466.5q-2 -5 -31 -5.5t-31 5.5q-149 677 -241 1088q0 3 -3 4t-4 -2q-163 -380 -319 -768q-54 -134 -54 -187q0 -21 9 -30 q12 -12 176 -12q2 0 2.5 -16.5t-0.5 -33t-4 -16.5q-66 2 -127.5 2t-120.5 -2q-59 0 -239 -4q-2 0 -2.5 17z" />
<glyph unicode="O" horiz-adv-x="1323" d="M147 424q0 317 263 580q107 107 254 186.5t274 79.5q181 0 282 -127t101 -336q0 -327 -240 -567q-119 -119 -264 -191t-276 -72q-68 0 -139.5 31.5t-129.5 89.5q-57 57 -91 141t-34 185zM295 309q0 -117 76 -189.5t194 -72.5q160 0 279 119q140 140 245 365.5t105 414.5 q0 113 -66.5 184.5t-179.5 71.5q-170 0 -307 -137q-160 -160 -253 -371.5t-93 -384.5z" />
<glyph unicode="P" horiz-adv-x="1087" d="M-108 18.5q-1 16.5 0.5 33t5.5 16.5q165 4 174 8q17 9 43 65q182 420 395 951q16 39 19 53t-3 24q-5 5 -166 13q-3 0 -3.5 17t1 33.5t4.5 16.5q229 -4 478 -4q81 0 133.5 -12.5t111.5 -42.5q69 -34 107.5 -95t38.5 -139q0 -90 -61 -177.5t-154 -133.5q-103 -52 -196 -73 t-212 -21q-85 0 -157 10q-8 -3 -17 -26q-93 -216 -170 -412q-14 -37 -8 -43q12 -12 240 -17q4 0 4 -32.5t-4 -32.5q-434 4 -600 4q-3 0 -4 16.5zM481 637q3 -3 73 -8.5t118 -5.5q185 0 295 110q52 52 80 123.5t28 144.5q0 82 -37 119q-54 54 -176 54q-143 0 -153 -5 q-9 -5 -19 -24q-68 -149 -205 -483q-8 -21 -4 -25z" />
<glyph unicode="Q" horiz-adv-x="1323" d="M150 436q0 154 69.5 298t190.5 265q119 119 262 194t297 75q137 0 231 -94q58 -58 91.5 -145.5t33.5 -184.5q0 -207 -86 -379q-76 -151 -203.5 -267t-265.5 -175q4 -45 8 -72.5t13 -62.5t21 -54.5t33.5 -33t49.5 -13.5q82 0 186 137q2 3 13.5 -2.5t21.5 -13t8 -10.5 q-39 -63 -75 -99q-82 -82 -181 -82q-49 0 -87 15.5t-62 39t-40.5 60t-25 71t-14.5 79.5q-44 -7 -68 -7q-61 0 -138 32t-124 79q-76 76 -117.5 155t-41.5 195zM287 315q0 -64 37 -125q115 150 254 150q48 0 82.5 -19.5t54.5 -57t30 -76.5t17 -93q81 49 152.5 147t152.5 261 q133 266 133 471q0 91 -66 160t-173 69q-191 0 -330 -139q-136 -136 -240 -347t-104 -401zM356 143q0 -4 8 -14.5t25.5 -25t40.5 -28t58 -23t73 -9.5q35 0 70 6q-15 127 -31 165q-22 54 -70 54q-37 0 -80 -30.5t-68.5 -60t-25.5 -34.5z" />
<glyph unicode="R" horiz-adv-x="1292" d="M-107.5 17q-0.5 17 3 34t8.5 17q42 0 87 2t73 5t30 5t51.5 117.5t107 253t77.5 188.5q37 95 79.5 202t65.5 165t39 102q15 44 15 58q0 4 -1 5q-3 3 -43 5t-84 3.5t-49 2.5q-4 0 -4 32.5t4 32.5q16 0 133.5 -2t143.5 -2h258q119 0 196 -39q72 -36 110 -90t38 -117 q0 -95 -58 -172t-155 -125q-105 -52 -232 -73q-6 -2 -2 -6q64 -34 91.5 -78t27.5 -123q0 -42 -12 -129t-12 -135q0 -46 19 -70.5t50 -24.5q48 0 88.5 33t108.5 123q1 2 17 -8t31 -21.5t13 -13.5q-74 -106 -137.5 -150t-144.5 -44q-89 0 -146 57q-51 51 -51 156 q0 61 22.5 163t22.5 140q0 108 -94 108h-215q-5 -7 -33 -78q-20 -51 -52 -131.5t-58.5 -148.5t-51.5 -137q-8 -21 0 -29t152 -17q5 0 5.5 -16.5t-2 -33.5t-5.5 -17q-74 4 -520 4q-5 0 -5.5 17zM494 674q141 -6 204 -6q79 0 155.5 29.5t117.5 70.5q47 47 76.5 120.5 t29.5 164.5q0 54 -28 82q-41 41 -175 41q-116 0 -167 -5q-27 -53 -100 -223t-113 -274z" />
<glyph unicode="S" horiz-adv-x="1034" d="M51 258q0 69 39 115.5t94 46.5q38 0 64 -26.5t26 -63.5q0 -64 -61 -94q-9 -5 -23 -10t-18 -7.5t-8 -9.5t-4 -19q0 -47 80.5 -97t195.5 -50q140 0 230 90q34 34 58 83t24 89q0 78 -38 143.5t-141 137.5q-121 84 -169 144t-48 149q0 130 117 247q68 68 160 105t196 37 q162 0 254 -92q56 -56 56 -129q0 -55 -36.5 -95.5t-80.5 -40.5q-39 0 -67.5 26t-28.5 62q0 65 57 93q25 12 25 26q0 27 -57.5 55.5t-137.5 28.5q-154 0 -254 -100q-72 -72 -72 -148q0 -64 36 -110.5t145 -126.5q125 -92 179 -162.5t54 -167.5q0 -80 -30.5 -143t-90.5 -123 q-144 -144 -348 -144q-162 0 -269.5 87t-107.5 194z" />
<glyph unicode="T" horiz-adv-x="1226" d="M144 19q0 15 2.5 32t5.5 17q201 0 229 14q32 15 61 90q119 285 241 597.5t153 408.5q-103 -1 -139.5 -2t-76 -6.5t-61.5 -16.5q-56 -28 -107 -93.5t-149 -219.5q-4 -7 -41 -1q-17 3 -16 7q22 46 81 191t79 198q3 12 38 12q314 0 523 -2q75 -1 136 -2t102.5 -1.5 t105.5 -0.5q23 0 96 2t80 2q4 0 6.5 -1.5t1.5 -4.5q-69 -132 -174 -397q-3 -6 -17.5 -7t-27.5 2t-12 7q18 120 18 192q0 80 -21 111t-75 31q-20 0 -76 2q-42 1 -68 1q-9 -1 -17 -1q-30 0 -32 -4q-70 -165 -207.5 -515t-189.5 -479q-20 -50 -23.5 -72t5.5 -30q2 -2 100 -10 t100 -9q5 -2 6.5 -18t0 -31.5t-4.5 -15.5q-2 0 -254.5 3t-378.5 3q-3 2 -3 17z" />
<glyph unicode="U" horiz-adv-x="1306" d="M147 233q0 68 39 154q191 438 299 703q19 46 19 67q0 10 -4 14q-3 3 -144 9q-9 0 -8.5 33.5t8.5 33.5q30 -1 108.5 -3.5t141.5 -2.5q48 0 252 4q3 0 3.5 -16.5t-1 -32.5t-4.5 -16q-140 -4 -162 -15t-49 -75q-204 -463 -303 -703q-41 -94 -41 -170q0 -78 88 -123 q76 -37 186 -37q68 0 138 29.5t116 75.5q82 82 154 237q111 238 217 498q70 182 70 233q0 25 -10 35q-9 9 -158 9q-3 0 -4 17t1 33.5t7 16.5q152 4 280 4q26 0 94.5 -1t102.5 -1q4 0 5 -16.5t-1.5 -32.5t-7.5 -16q-145 0 -166 -21q-40 -40 -115 -221q-167 -396 -256 -592 q-70 -155 -159 -244q-52 -52 -143 -87.5t-173 -35.5q-164 0 -278 58q-65 33 -103.5 83t-38.5 115z" />
<glyph unicode="V" horiz-adv-x="1351" d="M326.5 1196.5q-0.5 16.5 1 32.5t4.5 16q94 -2 205 -2q30 0 282 6q3 0 4 -16.5t-1 -32.5t-7 -16q-12 -1 -62 -3.5t-77.5 -5t-34.5 -6.5q-16 -8 -16 -28q-13 -205 -23 -348q-5 -70 -20.5 -282t-22.5 -316q0 -6 4.5 -7t9.5 5q120 144 310.5 383t290.5 370q122 163 122 201 q0 14 -6 20q-5 5 -70.5 9t-101.5 4q-3 0 -3.5 16.5t1.5 32.5t6 16q125 -3 251.5 -3t254.5 3q3 0 3.5 -16.5t-1 -32.5t-4.5 -16q-14 -1 -39.5 -2t-46 -2t-41.5 -3t-34.5 -4.5t-16.5 -5.5q-24 -24 -174 -211q-214 -260 -322 -397q-78 -97 -229.5 -289.5t-249.5 -314.5 q-6 -6 -27 -6q-12 0 -23.5 2t-19 6t-6.5 10q33 313 56 746q8 203 20 393q2 35 1 50t-9 19q-3 2 -53.5 5.5t-81.5 3.5q-3 0 -3.5 16.5z" />
<glyph unicode="W" horiz-adv-x="1990" d="M322.5 1212.5q0.5 32.5 3.5 32.5q76 -2 241 -2q143 0 258 4q3 0 4.5 -16.5t1 -32.5t-3.5 -16q-159 -5 -178 -15q-24 -12 -24 -67q-2 -133 -12.5 -480.5t-10.5 -406.5q0 -3 3 -3t5 3q249 387 676 1042q3 4 18.5 5t29.5 -0.5t14 -4.5q-3 -498 -26 -1032q62 92 177.5 261 t198.5 291.5t131 197.5q67 105 78 135q8 21 8 37q0 18 -8 22q-11 6 -172 17q-2 2 -2 16.5t2 31.5t4 17q168 -6 312 -6q118 0 220 4q6 0 6 -34.5t-6 -34.5q-145 -5 -182 -23q-34 -17 -80.5 -72.5t-134.5 -181.5q-67 -97 -153 -219.5t-154.5 -221t-149.5 -220.5 q-169 -256 -188 -283q-1 -3 -30.5 -2t-29.5 4q1 17 15.5 418.5t19.5 607.5q-1 4 -6 2q-86 -130 -321.5 -494t-350.5 -534q-2 -3 -30.5 -2t-28.5 4q4 266 7.5 659t4.5 478q0 64 -14 71q-12 6 -139 11q-4 0 -3.5 32.5z" />
<glyph unicode="X" horiz-adv-x="1398" d="M-99.5 14.5q-0.5 16.5 1 32.5t4.5 16q146 4 182 21q64 33 127 88q211 186 500 455v8q-65 222 -127 422q-25 84 -37 100q-5 5 -10 8q-17 8 -146 13q-6 0 -6 33.5t6 33.5q140 -3 304 -3q82 0 169 1q4 0 4 -32.5t-4 -32.5q-132 -6 -137 -11q-8 -8 -8 -26.5t8 -46.5 q55 -213 100 -369q4 -7 11 0q151 144 291 287q98 102 98 133q0 18 -28 23.5t-140 11.5q-4 0 -5 17t1 33.5t6 16.5q208 -4 264 -4h277q6 0 6 -33.5t-6 -33.5q-167 -5 -203 -23q-30 -15 -61.5 -41.5t-120.5 -110.5q-220 -207 -361 -348q53 -184 129 -436q39 -127 62 -139 q5 -3 29.5 -5.5t69 -6t62.5 -5.5q4 0 4.5 -16.5t-1.5 -32.5t-5 -16q-123 6 -249 6q-142 0 -259 -4q-4 0 -4 32.5t4 32.5q149 10 162 23q2 2 2 9q0 28 -30 132q-39 150 -97 336q-280 -260 -356 -332q-86 -84 -86 -129q0 -18 16 -26q10 -5 160 -15q4 0 4.5 -16.5t-1.5 -32.5 t-5 -16q-93 4 -189 4q-24 0 -49 1q-76 1 -163 -1q-117 -2 -166 -2q-3 0 -3.5 16.5z" />
<glyph unicode="Y" horiz-adv-x="1236" d="M182 28.5q0 32.5 6 32.5q182 6 201 15q10 5 29 35.5t39 78.5q87 204 153 390q4 7 0 18q-29 122 -123 463q-25 92 -49 104q-17 9 -143 13q-3 0 -3.5 17t1 33.5t4.5 16.5q159 -3 285.5 -3t220.5 3q4 0 4.5 -16.5t-2 -32.5t-6.5 -16q-150 -9 -154 -13q-9 -9 -9 -36 q0 -33 13 -91q19 -78 53.5 -206.5t47.5 -176.5q196 184 344 336q102 102 102 146q0 24 -8 28q-18 9 -156 13q-2 0 -2.5 17t0.5 33.5t4 16.5q159 -6 295 -6q137 0 219 4q3 0 4.5 -15.5t1 -31.5t-3.5 -16q-17 -2 -58.5 -5t-63.5 -5.5t-29 -6.5q-38 -18 -176 -147 q-198 -183 -453 -426q-8 -9 -12 -19q-30 -73 -83 -209.5t-81 -205.5q-15 -40 -15 -61q0 -12 5 -17q7 -7 190 -17q8 0 8 -33.5t-8 -33.5q-140 6 -287 6t-299 -6q-6 0 -6 32.5z" />
<glyph unicode="Z" horiz-adv-x="1236" d="M0.5 12.5q0.5 12.5 3 27.5t4.5 17q44 36 225 205q297 283 924 903q6 6 0 6q-15 0 -112 2.5t-121 2.5q-200 0 -244 -21q-33 -17 -122 -126.5t-148 -197.5q-4 -3 -16.5 -3t-25.5 2.5t-12 5.5q102 246 156 407q3 10 16 10l21 -3q21 -2 73.5 -4.5t129.5 -2.5q536 0 620 2 q3 0 3 -13.5t-2 -28t-5 -17.5q-669 -644 -1139 -1108q-8 -8 0 -8h463q10 0 25 4t45.5 21.5t58.5 45.5q99 99 248 314q2 3 16 3t27 -2t12 -5q-74 -193 -196 -443q-5 -10 -25 -10q-7 0 -47 1t-109.5 2t-146.5 1q-40 0 -181.5 -1t-223.5 -1q-56 0 -113.5 -1t-79.5 -1 q-2 2 -1.5 14.5z" />
<glyph unicode="[" horiz-adv-x="718" d="M0 -193q329 807 369 906q40 101 227 567q8 16 18 16h154q30 0 116 1t107 1q3 0 4 -16.5t0.5 -32.5t-2.5 -16q-198 0 -276 -4q-12 -8 -43 -84q-44 -109 -131 -317.5t-144 -350.5q-145 -359 -235 -606q-3 -8 6 -8q208 0 238 2q2 0 3 -16.5t1 -33t-2 -16.5q-32 0 -182.5 -2 t-219.5 -2q-8 0 -8 12z" />
<glyph unicode="\" horiz-adv-x="901" d="M379 1303q-1 3 16 8t34 8.5t17 1.5q20 -128 57 -336.5t60 -353.5q24 -152 80.5 -475t63.5 -361q1 -4 -16.5 -10t-33 -8.5t-18.5 0.5q-22 133 -71.5 420.5t-71.5 423.5q-23 140 -61 356t-56 326z" />
<glyph unicode="]" horiz-adv-x="681" d="M-160 -184.5q0 16.5 1 33t3 16.5q33 0 122 -1t134 -1q10 0 17 10q142 322 280 664q138 340 238 598q33 82 33 90q0 6 -15 6h-217q-4 0 -3.5 33.5t3.5 33.5q52 0 201 1t182 1q10 0 6 -8q-11 -28 -54.5 -139t-72.5 -182q-89 -219 -218 -539t-173 -430q-4 -12 -80 -197 q-3 -6 -10 -8q-74 0 -211 1t-164 1q-2 0 -2 16.5z" />
<glyph unicode="^" horiz-adv-x="847" d="M276 782q0 6 9 15q311 328 434 465q9 9 35.5 9.5t27.5 -7.5q39 -241 80 -478q2 -7 -4 -10q-12 -7 -35.5 -12.5t-23.5 0.5q-3 12 -7.5 38t-10.5 64t-11 64q-30 164 -43 244q-2 4 -6 0q-52 -58 -182.5 -196.5t-214.5 -229.5q-5 0 -26.5 15t-21.5 19z" />
<glyph unicode="_" horiz-adv-x="1310" d="M-258 -221l27 65h1318l-26 -65h-1319z" />
<glyph unicode="`" horiz-adv-x="1024" d="M651 1184q0 29 24 55.5t50 26.5q24 0 39 -14.5t33 -51.5q25 -55 65 -125q34 -63 60 -102q0 -11 -16.5 -28.5t-26.5 -16.5q-69 71 -172 164q-56 50 -56 92z" />
<glyph unicode="a" d="M55 246q0 182 166 348q105 105 219.5 167t206.5 62q53 0 94 -27t60 -71q50 98 55 98q11 0 56.5 -7.5t48.5 -10.5t6.5 -19.5t1.5 -21.5q-68 -149 -211 -518q-31 -76 -31 -133q0 -22 10 -38t29 -16q41 0 85 33.5t130 140.5q2 2 14.5 -5.5t24 -16t10.5 -10.5 q-86 -121 -152.5 -170t-138.5 -49q-56 0 -99.5 36t-43.5 93q0 51 12 92q-60 -82 -152 -152.5t-177 -70.5q-83 0 -153.5 77t-70.5 189zM188 172q0 -57 31 -89t82 -32q83 0 187.5 95t152.5 192q61 122 92 204t31 105q0 42 -37 78.5t-96 36.5q-197 0 -371 -350 q-72 -145 -72 -240z" />
<glyph unicode="b" horiz-adv-x="980" d="M78 145q0 81 53 203q34 77 113.5 251.5t137.5 308.5t107 263q14 36 0 50q-17 17 -184 26q-4 0 -5 15.5t1 31t6 15.5q146 -2 363 -15q8 0 11.5 -5.5t0.5 -12.5q-135 -309 -268 -604q-3 -6 1 -8.5t9 2.5q74 83 142 122t141 39q82 0 151 -69q74 -74 74 -176 q0 -172 -191 -363q-126 -126 -258 -192q-108 -54 -209 -54q-74 0 -135 50.5t-61 121.5zM201 129q0 -45 30 -68.5t78 -23.5q69 0 129 29q150 75 269 313q32 64 55.5 142t23.5 120q0 117 -106 117q-46 0 -103.5 -33.5t-106 -80.5t-86 -93t-52.5 -76q-131 -262 -131 -346z" />
<glyph unicode="c" horiz-adv-x="890" d="M57 252q0 93 44 183.5t122 168.5q92 92 215.5 156.5t214.5 64.5q114 0 183 -69q47 -47 47 -107q0 -52 -37 -89.5t-88 -37.5q-39 0 -63.5 21.5t-24.5 56.5q0 28 13.5 51.5t29 34.5t32 20.5t17.5 10.5q6 6 -5 17t-41 20.5t-69 9.5q-108 0 -211 -99t-176 -245 q-53 -106 -53 -207q0 -54 22 -100q15 -31 47 -49.5t70 -18.5q112 0 227 115q61 61 121 139q2 3 16 -4t27 -16.5t11 -12.5q-56 -76 -123 -143q-146 -146 -287 -146q-54 0 -107.5 23t-91.5 61q-82 82 -82 191z" />
<glyph unicode="d" horiz-adv-x="1122" d="M59 248q0 95 48 194.5t137 188.5q85 85 193.5 140.5t221.5 55.5q63 0 115.5 -40t73.5 -97q0 -3 4 -2l2 2q83 202 197 496q12 35 2 45t-215 10q-3 0 -4 16.5t0.5 33t5.5 16.5q30 1 178 -1q88 -1 151 -1h74q5 0 8 -4.5t2 -8.5q-335 -790 -450 -1054q-33 -75 -33 -123 q0 -24 13 -39t34 -15q59 0 135 76q52 52 88 96q2 2 14 -6t22.5 -17t8.5 -11q-165 -217 -288 -217q-67 0 -112.5 39t-45.5 98q0 25 2 45q-154 -191 -317 -191q-103 0 -189 86q-76 76 -76 189zM213 203q0 -79 33 -120.5t96 -41.5q56 0 107.5 26.5t113.5 88.5q105 105 166 241 q74 165 82 207q-13 71 -58 115.5t-116 44.5q-103 0 -197.5 -94t-167.5 -240q-59 -118 -59 -227z" />
<glyph unicode="e" horiz-adv-x="878" d="M55 242q0 86 45.5 181.5t126.5 176.5q91 91 228.5 155t222.5 64q90 0 141 -48t51 -116q0 -74 -75 -149q-71 -71 -180 -108.5t-242 -37.5q-67 0 -131 9q-31 -78 -31 -136q0 -91 40 -140.5t111 -49.5q145 0 320 219q1 2 14 -5.5t25 -17t10 -12.5q-184 -247 -393 -247 q-125 0 -204 78.5t-79 183.5zM266 426q58 -6 115 -6q188 0 262 74q68 68 68 176q0 88 -80 88q-90 0 -186 -82.5t-160 -210.5q-3 -6 -9.5 -19.5t-9.5 -19.5z" />
<glyph unicode="f" horiz-adv-x="720" d="M45 23q43 100 285 663q12 29 6 35q-1 1 -193 6q-6 0 -6.5 17.5t3.5 35t10 17.5q43 -1 132.5 -1t90.5 1q3 3 10 19t20.5 47.5t28.5 60.5q29 59 45 88t47 72.5t70 82.5q136 136 303 136q98 0 158.5 -53t60.5 -126q0 -57 -33 -92t-82 -35q-41 0 -70.5 27t-29.5 63 q0 41 29 70q15 15 31.5 24.5t17.5 10.5q4 4 -4 14.5t-34.5 21.5t-66.5 11q-148 0 -251 -207q-67 -135 -105 -237q102 -3 171 -3q41 0 71 1q5 0 6 -18t-1.5 -36t-8.5 -18h-258q-11 0 -13 -4q-122 -272 -297 -705q-8 -16 -14 -16q-8 0 -119 6q-6 0 -9.5 7.5t-0.5 13.5z" />
<glyph unicode="g" horiz-adv-x="1015" d="M-166 -285q0 61 41 108.5t94 47.5q40 0 69.5 -26t29.5 -62t-21.5 -60t-51.5 -38.5t-32 -16.5q-8 -8 0 -21.5t39 -25.5t78 -12q70 0 145 32.5t131 88.5q51 51 85 99t79 138q58 116 105 240q1 3 -0.5 3.5t-3.5 -1.5q-109 -127 -189 -177t-156 -50q-82 0 -145 63 q-38 38 -56 81t-18 110q0 90 57.5 196.5t141.5 190.5q200 200 389 200q65 0 113.5 -39.5t60.5 -97.5q0 -2 2 -2t2 2q42 123 56 123q16 0 68.5 -8.5t56.5 -12.5q5 -5 0 -18q-16 -41 -42 -105t-40 -100q-134 -333 -246 -557q-78 -157 -189 -268q-97 -97 -209.5 -147 t-207.5 -50q-98 0 -167 49t-69 123zM199 180q0 -65 26.5 -96t71.5 -31q62 0 114.5 30t127.5 105q73 73 110.5 122t67.5 108q63 126 63 192q0 57 -44 100.5t-101 43.5q-72 0 -147 -55.5t-130.5 -131.5t-101.5 -168q-57 -114 -57 -219z" />
<glyph unicode="h" horiz-adv-x="1075" d="M-2 6q52 108 105.5 224.5t106.5 233.5t77 169q116 249 196 457q6 15 16 41t14.5 36.5t11.5 30.5t6 22t-1 11q-6 6 -211 14q-3 2 -3 16.5t2.5 31t5.5 16.5q274 -9 385 -9q4 0 7 -4.5t1 -7.5q-3 -4 -82 -185t-162 -371.5t-86 -196.5q-3 -4 1 -6.5t7 -0.5q150 172 231 234.5 t148 62.5q77 0 123.5 -50t46.5 -126q0 -33 -19.5 -88t-41 -100t-64.5 -131q-80 -161 -80 -217q0 -26 12.5 -40t30.5 -14q37 0 82 33t146 141q3 3 25 -13.5t18 -22.5q-103 -123 -165 -169t-130 -46q-59 0 -103.5 44.5t-44.5 100.5q0 60 19 111.5t78 169.5q61 122 77.5 168.5 t16.5 80.5q0 33 -20 54.5t-48 21.5q-59 0 -139.5 -70t-241.5 -257q-26 -30 -86 -141.5t-121 -258.5q-3 -6 -12 -6q-135 1 -135 6z" />
<glyph unicode="i" horiz-adv-x="620" d="M123 135q0 55 41 148q86 189 178 405q10 25 6 29q-12 12 -209 12q-3 0 -3.5 16t1 32t4.5 16q43 3 176 3t203 -3q8 -2 4.5 -23.5t-12.5 -38.5q-22 -47 -127.5 -288.5t-120.5 -280.5q-10 -29 -10 -53q0 -20 14 -36t37 -16q38 0 87.5 38.5t146.5 144.5q3 3 26 -15.5 t21 -21.5q-105 -128 -170.5 -175.5t-130.5 -47.5q-64 0 -117 53q-45 45 -45 102zM467 1133q0 43 48 92t99 49q40 0 63 -26.5t23 -59.5q0 -51 -41 -92q-37 -37 -112 -37q-33 0 -56.5 21t-23.5 53z" />
<glyph unicode="j" horiz-adv-x="561" d="M-424 -285q0 55 31 91t80 36q31 0 53 -19t22 -50q0 -36 -24 -60q-11 -11 -27.5 -20.5t-26.5 -14.5t-10 -8q0 -6 9 -17t33.5 -22.5t56.5 -11.5q77 0 139 62q67 67 123 204q53 130 171 419t140 343q17 47 17 65q0 10 -5 11q-32 2 -202 10q-3 0 -3.5 16t1 32t4.5 16 q60 0 189 2t194 2q12 0 8 -13q-16 -39 -152.5 -357.5t-212.5 -512.5q-57 -145 -145 -233q-129 -129 -279 -129q-67 0 -125.5 47.5t-58.5 111.5zM489 1145q0 54 40.5 88.5t97.5 34.5q39 0 67.5 -19t28.5 -53q0 -56 -45.5 -97.5t-104.5 -41.5q-36 0 -60 25.5t-24 62.5z" />
<glyph unicode="k" horiz-adv-x="1003" d="M2 8q347 756 528 1194q10 22 5 27q-6 6 -216 12q-3 0 -3 32t3 32h400q3 0 4.5 -3t-0.5 -6q-262 -591 -354 -811q0 -3 -0.5 -4.5t5 -2.5t8.5 -1h11q57 0 100.5 33t133.5 141q77 94 136.5 134t123.5 40q52 0 81 -29.5t29 -72.5q0 -45 -32.5 -84t-77.5 -39q-35 0 -56.5 23.5 t-21.5 54.5q0 17 5 33l5 16q0 2 -4 2q-15 0 -52 -27t-81 -81q-68 -83 -112 -120t-101 -59v-4q83 -9 121 -47q31 -31 31 -88q0 -43 -6.5 -111t-6.5 -88q0 -25 14 -39t37 -14q37 0 86.5 39t135.5 143q2 2 15 -6t25 -17t11 -11q-54 -75 -117 -138q-81 -81 -172 -81 q-76 0 -125 49t-49 139q0 22 7 87t7 95q0 41 -45 47q-79 9 -98 9q-10 0 -12 -9q-147 -321 -178 -395q-3 -6 -9 -6q-71 6 -135 6q-4 0 -4 6z" />
<glyph unicode="l" horiz-adv-x="581" d="M80 139q0 68 51 189q281 652 350 835q17 44 17 61q0 6 -2 9q-6 6 -209 6q-3 0 -3 16t2 32t5 16q35 1 110 1h87q29 0 54 -1q101 0 142 2q8 0 4 -9q-129 -285 -420 -989q-51 -122 -51 -180q0 -25 15.5 -42t41.5 -17q36 0 81 34.5t139 143.5q2 2 14.5 -6.5t24 -18.5 t10.5 -12q-97 -124 -161 -173.5t-116 -49.5q-92 0 -145 53q-41 41 -41 100z" />
<glyph unicode="m" horiz-adv-x="1554" d="M43 14q176 394 285 670q11 24 2 33q-10 10 -203 10q-7 0 -6.5 33t6.5 33q51 0 191 1t165 1q6 0 10.5 -4.5t2.5 -8.5q-5 -12 -28 -64.5t-43 -99.5t-28 -71q-1 -4 0.5 -6t4.5 -1t6 5q100 122 198.5 198t173.5 76q43 0 68 -8.5t49 -32.5q35 -35 35 -100q0 -47 -25 -111 q210 260 363 260q67 0 110 -43q26 -26 34.5 -51.5t8.5 -62.5q0 -62 -43 -160q-31 -71 -123 -266q-40 -85 -40 -135q0 -48 47 -48q39 0 89 35.5t132 122.5q2 2 14.5 -6.5t23 -19t7.5 -13.5q-85 -97 -152.5 -142.5t-144.5 -45.5q-60 0 -108 31.5t-48 91.5q0 56 39 141 q30 67 70.5 153.5t52.5 112.5q39 86 39 152q0 63 -55 63q-79 0 -222 -143q-121 -121 -149 -199q-101 -252 -152 -383q-8 -12 -30 -12q-67 0 -97 6q-17 3 -12 17q163 399 191 469q34 90 34 172q0 67 -49 67q-80 0 -223 -143q-86 -86 -127.5 -142t-71.5 -124 q-63 -139 -127 -297q-10 -29 -18 -29q-7 0 -25 1l-45 2.5t-47 2.5q-16 0 -10 12z" />
<glyph unicode="n" horiz-adv-x="1099" d="M41 12q113 247 201 457q82 205 82 244q0 6 -2 8t-46.5 2.5t-95.5 0.5t-61 1q-3 0 -3 16.5t2 33t5 16.5q332 0 362 6q3 0 6.5 -3.5t2.5 -7.5q-36 -110 -97 -266q-2 -3 2 -7t7 -1q138 179 215 246t157 67q82 0 137 -55q50 -50 50 -117q0 -47 -15.5 -88t-69.5 -154 q-10 -22 -16 -34q-98 -201 -98 -254q0 -24 14.5 -39.5t36.5 -15.5q37 0 87 36.5t124 118.5q2 2 14.5 -6.5t23.5 -18.5t9 -12q-63 -77 -144.5 -139.5t-150.5 -62.5q-61 0 -106 45q-43 43 -43 110q0 68 102 277q52 106 70 155t18 80q0 37 -22.5 60.5t-57.5 23.5 q-38 0 -71.5 -22.5t-102.5 -91.5q-94 -94 -178.5 -213.5t-109.5 -180.5q-12 -30 -45.5 -107t-49.5 -116q-1 -2 -14 -3t-33 -1t-39.5 0.5t-36 1t-18.5 0.5q-5 0 -2 10z" />
<glyph unicode="o" horiz-adv-x="1005" d="M68 283q0 162 161 323q89 89 211 153t224 64q117 0 199.5 -89t82.5 -214q0 -89 -44.5 -182t-123.5 -172q-89 -89 -201.5 -142t-222.5 -53q-52 0 -106.5 22.5t-97.5 65.5q-82 82 -82 224zM213 186q0 -69 42 -111t118 -42q65 0 119.5 20.5t109.5 75.5q85 85 145 233.5 t60 247.5q0 66 -38.5 109t-104.5 43q-133 0 -250 -117q-88 -88 -144.5 -218.5t-56.5 -240.5z" />
<glyph unicode="p" horiz-adv-x="1048" d="M-147 -446q3 11 71 172t144 341t92 220q96 238 145 366q12 36 12 54q0 10 -4 14q-3 3 -83.5 6.5t-106.5 3.5q-4 0 -5.5 16t-0.5 32t4 16q13 1 50 1t94.5 -0.5t86.5 -0.5q114 0 131 -17q1 -1 1.5 -4t-1 -8.5t-3.5 -12.5t-6.5 -18.5t-9 -24t-12 -32t-15.5 -39.5t-18.5 -49 t-21.5 -58q-3 -10 1.5 -10.5t9.5 6.5q125 163 214.5 231t163.5 68q89 0 144 -55q67 -67 67 -188q0 -122 -50.5 -229.5t-125.5 -182.5q-84 -84 -185.5 -142.5t-174.5 -58.5q-72 0 -134 43.5t-91 100.5q-33 -76 -86.5 -198t-93.5 -214.5t-70 -165.5q0 -4 -19 -4q-48 0 -112 8 q-5 0 -2 13zM266 193q0 -51 62.5 -106.5t142.5 -55.5q74 0 143 69q82 82 170 259t88 278q0 52 -25.5 83.5t-74.5 31.5q-88 0 -201 -113q-81 -81 -149.5 -167.5t-97.5 -145.5q-41 -80 -58 -133z" />
<glyph unicode="q" horiz-adv-x="1034" d="M57 242q0 98 51 202t142 195q82 82 189 136t202 54q73 0 121.5 -35t73.5 -89q9 2 22 11.5t30 25t31.5 29.5t35 35t32.5 32q2 2 14 -1t22.5 -9t8.5 -11q-71 -155 -211 -495q-208 -502 -315 -752q-14 -28 -29 -31q-45 -6 -119 -10q-11 0 -6 10q171 409 264 623q2 6 -3 6 q-2 0 -3 -2q-104 -104 -177 -145t-136 -41q-87 0 -156 69q-84 84 -84 193zM193 172q0 -62 32 -95.5t84 -33.5q104 0 262 158q104 104 156 227q70 165 70 176q0 57 -45.5 110.5t-120.5 53.5q-93 0 -186.5 -82t-180.5 -256q-71 -142 -71 -258z" />
<glyph unicode="r" horiz-adv-x="849" d="M35 16q39 79 239 519q26 59 41 102t18 59.5t1 18.5t-44.5 4.5t-99.5 5t-65 2.5q-2 0 -2.5 16t0.5 32t4 16q16 0 167 -1.5t157 -1.5q39 0 45 -6q1 -1 1 -3q0 -28 -108 -281q-1 -4 3 -4.5t7 2.5q109 134 179 204q61 61 109 88t97 27q56 0 90.5 -31t34.5 -82 q0 -58 -34.5 -99.5t-79.5 -41.5q-35 0 -57.5 21.5t-22.5 54.5q0 29 12.5 52.5t23 34t7.5 13.5q-2 2 -8.5 2.5t-20.5 -4t-33 -15.5t-48.5 -35t-63.5 -58q-67 -67 -157.5 -176t-129.5 -187q-31 -63 -115 -256q-1 -3 -139 -8q-16 0 -8 16z" />
<glyph unicode="s" horiz-adv-x="845" d="M16 156q0 48 36.5 83t90.5 35q34 0 56 -21.5t22 -51.5q0 -21 -9 -38.5t-19 -26t-22.5 -17t-14.5 -10.5q-1 -2 -1.5 -7t5 -11t13 -13t23 -13.5t34.5 -12t47.5 -8.5t62.5 -3q84 0 141.5 45.5t57.5 112.5q0 91 -125 155q-108 56 -158.5 105.5t-50.5 111.5q0 57 36.5 109 t112.5 90q102 51 217 51q120 0 189 -46.5t69 -102.5q0 -49 -26.5 -80t-69.5 -31q-40 0 -69 26t-29 56q0 35 35 70q12 12 -13 27q-35 22 -114 22q-76 0 -142.5 -43.5t-66.5 -95.5q0 -37 35.5 -70.5t124.5 -83.5q98 -54 144 -106t46 -121q0 -64 -42.5 -122t-109.5 -91 q-96 -49 -200 -49q-140 0 -228 53t-88 123z" />
<glyph unicode="t" horiz-adv-x="716" d="M104 152q0 59 64 206q30 71 88 202.5t70 160.5q0 6 -4 6q-2 0 -36.5 0.5t-75.5 1t-60 0.5q-1 0 -1.5 16t0.5 32t3 16h202q5 0 11 12q9 21 53.5 124.5t68.5 155.5q2 7 35 7q11 0 30 -2.5t38 -6t24 -4.5q7 0 4 -6q-16 -48 -114 -276q117 -6 276 -6q1 -2 1 -17t-1 -32 t-2 -17q-9 0 -75.5 0.5t-130 0.5t-99.5 -1q-105 -235 -186 -430q-47 -103 -47 -166q0 -31 19 -49.5t46 -18.5q51 0 111.5 46.5t158.5 164.5q1 2 14.5 -6.5t26 -18t11.5 -11.5q-196 -254 -357 -254q-70 0 -123 53q-43 43 -43 117z" />
<glyph unicode="u" horiz-adv-x="1099" d="M102 160q0 61 56 186q33 73 93 198.5t77 162.5q3 5 -1 9.5t-8 4.5q-67 3 -128 3q-31 0 -60 -1q-6 0 -8.5 15.5t-1 31.5t7.5 16q164 8 375 11q16 0 8 -15q-128 -263 -221 -477q-43 -93 -43 -153q0 -40 22 -63t60 -23q58 0 118.5 37t137.5 114q53 53 94 133q93 184 192 436 q4 11 17 11q127 0 131 -4q7 -7 2 -21q-127 -279 -225 -498q-43 -94 -43 -159q0 -56 41 -56q33 0 83 36.5t140 133.5q3 3 15.5 -5t22.5 -18t7 -13q-106 -115 -170.5 -162t-130.5 -47q-69 0 -108.5 35.5t-39.5 89.5q0 33 11 67q0 3 -3.5 4t-5.5 -2q-77 -90 -163.5 -141 t-165.5 -51q-82 0 -137 55q-48 48 -48 119z" />
<glyph unicode="v" horiz-adv-x="1032" d="M59 614q167 163 230 195q28 14 61 14q111 0 111 -141q0 -113 -13 -271t-34 -284q-2 -10 3 -10q2 1 3 2q127 96 244 213q88 88 140 154t52 87q0 14 -21.5 53.5t-21.5 84.5q0 46 31.5 79t75.5 33q41 0 67.5 -27.5t26.5 -76.5q0 -45 -31 -109q-49 -98 -246 -295 q-181 -181 -411 -344q-7 -5 -24.5 -5t-31.5 5.5t-12 14.5q59 365 59 606q0 119 -34 119q-35 0 -187 -140q-3 -3 -13.5 6.5t-18.5 21.5t-5 15z" />
<glyph unicode="w" horiz-adv-x="1447" d="M61 618q111 114 172.5 159.5t116.5 45.5q111 0 111 -145q0 -219 -41 -481h2q211 270 434 630q3 5 30 4.5t27 -6.5q4 -126 4 -281q0 -189 -6 -421q0 -9 7 -2q99 88 198.5 212t143.5 212q12 19 5.5 42.5t-19 40t-24.5 43.5t-12 52q0 44 28.5 76t72.5 32q37 0 65.5 -31 t28.5 -73q0 -40 -10 -73.5t-35 -84.5q-64 -127 -209 -295.5t-313 -304.5q-4 -5 -31 -2t-27 10q7 190 7 375q0 118 -3 234h-4q-231 -344 -458 -617q-3 -3 -19 -4.5t-31 1t-14 9.5q21 130 40 352t19 296q0 88 -32 88q-20 0 -58.5 -27t-128.5 -106q-3 -3 -13.5 5.5t-18.5 19.5 t-5 15z" />
<glyph unicode="x" horiz-adv-x="1157" d="M-2 113q0 51 30 87t76 36q41 0 68 -24.5t27 -55.5q0 -25 -14 -47.5t-28 -35t-14 -14.5q0 -3 8.5 -6.5t18.5 -3.5q70 0 154 80.5t151 214.5q76 152 76 315q0 41 -14.5 65t-38.5 24q-46 0 -98.5 -35t-139.5 -111q-4 -2 -25.5 19.5t-17.5 25.5q96 91 168 136.5t141 45.5 q72 0 114 -42t42 -125q0 -60 -18 -127q72 107 139 174q60 60 114.5 91t116.5 31t101 -34t39 -86t-28.5 -86.5t-68.5 -34.5q-36 0 -61 21t-25 59q0 21 7.5 38.5t15.5 27.5l8 9q0 7 -14 7q-69 0 -175.5 -112t-166.5 -232t-60 -248q0 -42 18 -67t50 -25q35 0 68 13t73 45 t65.5 56.5t75.5 75.5q1 1 12.5 -8.5t22.5 -19.5t10 -11q-106 -118 -188.5 -175.5t-165.5 -57.5q-77 0 -121.5 45t-44.5 121q0 27 8 73q2 3 -1 4t-5 -2q-158 -250 -327 -250q-67 0 -112.5 38.5t-45.5 97.5z" />
<glyph unicode="y" horiz-adv-x="1021" d="M-483 -301q0 50 35.5 90.5t82.5 40.5q37 0 61.5 -25.5t24.5 -60.5q0 -26 -10 -45t-21.5 -27t-21.5 -14.5t-10 -11.5q0 -14 25 -25.5t59 -11.5q83 0 201 59q82 41 172 109.5t151 142.5q25 147 42.5 339.5t17.5 320.5q0 72 -8.5 105.5t-32.5 33.5q-28 0 -67.5 -25 t-135.5 -102q-2 -2 -12.5 8.5t-19.5 22.5t-7 14q77 77 159 133.5t144 56.5q66 0 95.5 -49.5t29.5 -154.5q0 -112 -14.5 -281.5t-36.5 -273.5q-1 -3 0.5 -5t4 -2.5t3.5 0.5q147 156 245.5 278t132.5 179.5t34 79.5q0 18 -26 55.5t-26 77.5q0 47 27.5 73.5t65.5 26.5 q42 0 71 -30t29 -80t-31 -111q-53 -106 -207 -290t-356 -386q-235 -235 -420 -327q-128 -64 -248 -64q-63 0 -118 27q-84 43 -84 129z" />
<glyph unicode="z" horiz-adv-x="962" d="M-42.5 2.5q-21.5 14.5 1.5 32.5q119 91 420.5 329t333.5 263q6 6 -2 6q-68 0 -168.5 28.5t-143.5 28.5q-45 0 -69.5 -17t-78.5 -76q-10 -11 -15 -17q-3 -3 -16 2.5t-24 13.5t-8 12q58 81 129 152q33 33 62.5 45t71.5 12q51 0 121 -26t133.5 -52t99.5 -26q17 0 73.5 56 t69.5 56q9 0 28 -13.5t19 -20.5q0 -12 -43 -52q-83 -72 -325 -264q-176 -143 -385 -303q27 6 55 6q49 0 166.5 -33.5t167.5 -33.5q15 0 49.5 43t67.5 108q2 4 15 -0.5t25 -11t11 -8.5q-56 -134 -119 -197q-32 -32 -61 -44.5t-68 -12.5q-61 0 -201 57t-176 57q-11 0 -35 -12 q-19 -10 -52.5 -35.5t-58.5 -46t-28 -20.5q-21 0 -42.5 14.5z" />
<glyph unicode="{" horiz-adv-x="747" d="M84 27q0 40 28 87t67.5 89t79 82t67.5 78t28 65q0 26 -32 41q-61 30 -211 49q-3 0 -2 9.5t4 15.5q3 9 9 17.5t9 8.5q14 1 44.5 3t46 3.5t41.5 3.5t41.5 4.5t34.5 6t33 8t25 10.5q43 22 60.5 64t17.5 127q0 6 -1 49.5t-1 56.5q0 125 84 209q114 114 369 168q5 1 9.5 -11.5 t5.5 -24.5t-1 -17q-200 -51 -272 -123q-58 -58 -58 -150q0 -21 1 -64.5t1 -60.5q0 -100 -24.5 -156t-87.5 -87q-78 -40 -228 -51q-6 -3 -2 -5q92 -17 146 -43q33 -17 45 -36.5t12 -49.5q0 -40 -41.5 -96.5t-90.5 -105t-90.5 -106t-41.5 -97.5q0 -33 24 -57q36 -36 185 -86 q4 -1 -2 -14t-15 -25t-12 -11q-200 59 -264 123q-41 41 -41 99z" />
<glyph unicode="|" horiz-adv-x="464" d="M-59 -211q234 555 327 782q39 96 303 738q1 2 20 3.5t37 1.5t17 -3q-160 -387 -307 -744q-63 -153 -163 -393t-159 -383q-4 -9 -54 -7q-23 1 -21 5z" />
<glyph unicode="}" horiz-adv-x="747" d="M-85 -156.5q1 14.5 5 15.5q260 77 336 153q41 41 41 99q0 35 -17.5 117.5t-17.5 117.5q0 99 94 146q90 46 236 53q3 0 3 3t-3 3q-93 16 -148 43q-36 18 -52.5 37.5t-16.5 48.5q0 40 24.5 82t112.5 164q98 136 98 198q0 32 -24 56q-17 17 -58.5 38t-81.5 33q-10 3 15 29 q15 15 20 14q58 -17 122 -47t91 -57q41 -41 41 -96q0 -45 -23.5 -94.5t-88.5 -133.5q-74 -100 -96.5 -138.5t-22.5 -63.5q0 -35 43 -56q57 -28 190 -39q4 -2 0 -30q-8 -25 -14 -25q-180 -5 -266 -49q-32 -16 -44 -36.5t-12 -51.5t16.5 -116.5t16.5 -135.5q0 -84 -55 -139 q-13 -13 -29.5 -25t-39 -24t-41.5 -21t-50 -20.5t-51.5 -19t-59 -19t-59 -17.5t-64 -18.5t-63.5 -18.5q-4 -1 -6 12.5t-1 28z" />
<glyph unicode="~" horiz-adv-x="942" d="M164 543q29 49 54.5 83.5t59.5 69t74 52.5t84 18q36 0 68 -16.5t55.5 -40t45.5 -47t46.5 -40t50.5 -16.5q42 0 87 38.5t110 131.5q4 4 15 -1.5t19 -13.5t5 -11q-41 -70 -74.5 -114.5t-84.5 -78t-107 -33.5q-36 0 -68.5 16.5t-57.5 40.5t-49 48t-52.5 40.5t-57.5 16.5 q-37 0 -80.5 -41.5t-105.5 -138.5q-5 -5 -23 4q-27 14 -14 33z" />
<glyph unicode="&#xa1;" horiz-adv-x="595" d="M57 61q0 54 52 136q48 74 184 323q59 109 174 373q2 3 8 3t15.5 -3t17.5 -6t13.5 -7t4.5 -6q-2 -7 -57 -146.5t-78 -209.5q-33 -103 -63 -240l-29 -137q-44 -166 -145 -166q-37 0 -67 21.5t-30 64.5zM477 1122q0 51 42 98.5t102 47.5q47 0 75.5 -26.5t28.5 -70.5 q0 -50 -41 -99.5t-104 -49.5q-47 0 -75 31t-28 69z" />
<glyph unicode="&#xa2;" horiz-adv-x="888" d="M158 530q0 189 155 344q71 71 171.5 125t203.5 58q13 33 39 98.5t39 97.5q3 3 17 2.5t29.5 -4.5t14.5 -8q-12 -30 -36.5 -93.5t-38.5 -96.5q84 -13 141 -70q55 -55 55 -119q0 -59 -37.5 -97t-89.5 -38q-30 0 -49.5 18.5t-19.5 47.5q0 43 28 71q15 15 33.5 24t28.5 12 t10 7q0 11 -21.5 35t-44.5 35q-27 13 -57 16q-38 -97 -133 -334t-147 -370q8 -2 24 -2q59 0 121 30q108 54 217 197q1 2 15 -7t27 -19.5t11 -12.5q-126 -155 -237 -211q-80 -41 -168 -41q-23 0 -35 2q-86 -218 -94 -237q-3 -2 -17.5 -1t-30 4.5t-14.5 6.5q66 164 97 244 q-62 22 -113 73q-42 42 -68 98t-26 115zM309 469q0 -56 23 -104q20 -42 57 -58q244 607 277 692q-83 -3 -150 -57.5t-125 -169.5q-82 -164 -82 -303z" />
<glyph unicode="&#xa3;" horiz-adv-x="1146" d="M-45 121q0 71 58.5 120.5t146.5 49.5q39 0 83.5 -12.5t73.5 -25.5t80 -38q56 94 56 178q0 47 -19 148h-223q-1 4 0 11.5t4 24t4 21.5q0 6 10 6q105 0 191 -2q-37 164 -37 223q0 116 73.5 213t207.5 164q132 66 254 66q139 0 222 -74t83 -174q0 -86 -54 -136t-116 -50 q-41 0 -64.5 21.5t-23.5 57.5q0 70 75 107q15 7 38.5 14t34.5 12.5t11 14.5q0 51 -63 96t-160 45q-100 0 -184 -43q-84 -42 -128 -113.5t-44 -142.5q0 -32 5.5 -75t10.5 -69.5t17.5 -84.5t15.5 -72q270 0 350 2q6 -3 -10 -57q-3 -6 -8 -6h-322q6 -40 6 -72q0 -157 -131 -295 q130 -63 242 -63q94 0 147 53q51 51 144 252q3 4 29 2.5t26 -6.5q-48 -114 -106 -221t-95 -144q-61 -61 -159 -61q-90 0 -160.5 31.5t-143.5 86.5q-68 -53 -129 -81q-77 -39 -159 -39q-69 0 -114.5 37.5t-45.5 99.5zM23 125q0 -38 25.5 -61t70.5 -23q65 0 129 31 q55 27 100 78q-55 44 -99.5 67t-94.5 23q-59 0 -95 -33t-36 -82z" />
<glyph unicode="&#xa5;" horiz-adv-x="1183" d="M123.5 29.5q0.5 31.5 3.5 31.5q190 0 211 21q16 16 43 80q9 22 25 59t22 51q-186 0 -268 -2q-6 0 -10 49q0 15 8 15q16 0 130.5 -1t164.5 -1q13 32 33 80t26 65q-62 0 -137.5 -1t-132.5 -1q-9 0 -9 41q0 23 9 23q30 0 142.5 -1t150.5 -1q1 4 2 8.5t1.5 7t0.5 4.5 q-1 6 -2 18.5t-2 18.5q-34 262 -68 455q-15 96 -35 116q-13 13 -127 17q-3 0 -3.5 15t1.5 30.5t6 15.5q224 -3 463 4q4 0 4.5 -15.5t-1.5 -30.5t-5 -15q-128 -4 -145 -21q-9 -9 -10.5 -22t1.5 -31q17 -175 56 -467q0 -8 8 0q237 240 395 406q64 64 64 102q0 16 -13 21 q-4 2 -10.5 3.5t-17.5 3t-21 2.5t-29.5 2.5t-35.5 2.5q-3 0 -3 15t2 29.5t5 14.5q140 -4 235 -4q90 0 207 2q3 0 3 -14.5t-1.5 -29.5t-3.5 -15q-108 -6 -147 -25q-35 -18 -74 -51.5t-111 -103.5q-87 -85 -411 -416l-17 -17q-15 -15 -22 -36q205 0 291 2q8 -4 8 -47 q0 -17 -6 -17q-203 0 -320 2q-13 -29 -59 -145q54 0 150.5 1t144.5 1q8 -12 8 -41q0 -23 -8 -23q-14 0 -136.5 1t-183.5 1q-1 -4 -37 -96q-18 -50 -22 -69t4 -31q11 -11 178 -19q2 0 2 -15.5t-1 -31.5t-3 -16q-135 6 -295 6q-58 0 -133 -1t-129 -1q-4 0 -3.5 31.5z" />
<glyph unicode="&#xa7;" horiz-adv-x="1019" d="M86 211q0 53 37 92t88 39q40 0 65 -25t25 -59q0 -62 -61 -92q-6 -3 -14 -6t-13 -5t-9.5 -4.5t-6.5 -5.5t-2 -6q0 -14 22.5 -33.5t54.5 -35.5q68 -33 140 -33q142 0 211 69q39 39 39 95q0 33 -42 75t-163 121q-159 103 -205.5 152t-46.5 117q0 74 69 134.5t213 86.5 q-53 58 -53 119q0 60 44 115t116 91q44 22 104.5 36t102.5 14q141 0 228 -66.5t87 -157.5q0 -52 -34 -85t-81 -33q-44 0 -68 24.5t-24 61.5q0 30 27 57q14 14 33.5 22.5t31 13t11.5 11.5q0 12 -23.5 33t-48.5 33q-62 30 -147 30q-50 0 -101.5 -19.5t-79.5 -47.5 q-39 -39 -39 -80q0 -45 35.5 -83t141.5 -106q148 -97 195.5 -153t47.5 -119q0 -165 -250 -223q64 -58 64 -127q0 -66 -43 -122.5t-123 -96.5q-98 -49 -233 -49q-73 0 -145 25.5t-113 66.5q-64 64 -64 139zM336 717q0 -42 36 -75.5t165 -117.5q99 -63 159 -108 q160 37 160 133q0 39 -36.5 79.5t-123.5 100.5q-126 85 -166 119q-98 -19 -146 -55.5t-48 -75.5z" />
<glyph unicode="&#xa8;" horiz-adv-x="1024" d="M528 1069q0 45 30.5 79t72.5 34q39 0 68.5 -32.5t29.5 -80.5q0 -45 -30.5 -79t-73.5 -34q-45 0 -71 33.5t-26 79.5zM831 1071q0 41 30.5 78t72.5 37q43 0 70.5 -34.5t27.5 -80.5q0 -50 -28.5 -83.5t-73.5 -33.5q-43 0 -71 35t-28 82z" />
<glyph unicode="&#xa9;" horiz-adv-x="1619" d="M223 608q0 149 49.5 265.5t157.5 224.5q89 89 219.5 141.5t255.5 52.5q147 0 261.5 -49.5t217.5 -152.5q183 -183 183 -451q0 -291 -203 -494q-96 -96 -200.5 -141t-241.5 -45q-313 0 -498 188q-201 201 -201 461zM287 612q0 -253 180 -430q78 -81 198.5 -124.5 t254.5 -43.5q124 0 220 41.5t183 128.5q182 182 182 459q0 244 -164 408q-184 184 -438 184q-108 0 -228.5 -44.5t-201.5 -125.5q-186 -186 -186 -453zM543 608q0 167 106 273q129 129 271 129q45 0 87 -13t66 -26t25 -13q10 0 24 41q2 5 29 1.5t27 -9.5q-3 -135 0 -239 q0 -5 -26 -5.5t-28 3.5q-10 40 -31 86t-42 67q-43 43 -133 43q-137 0 -193 -115q-45 -86 -45 -223q0 -68 8 -108.5t29 -81.5q53 -107 182 -107q63 0 102 16.5t72 49.5q57 57 74 147q3 3 31 -2.5t28 -11.5q-3 -40 -26.5 -86t-59.5 -82q-94 -94 -225 -94q-64 0 -125.5 24 t-107.5 70q-119 119 -119 266z" />
<glyph unicode="&#xaa;" horiz-adv-x="911" d="M125 481q0 15 4.5 29t11.5 14q38 0 160.5 -1t175.5 -1q46 0 164 1t170 1q8 -3 8 -39q0 -32 -14 -32h-670q-10 0 -10 28zM274 844q0 131 119 250q68 68 151 114.5t146 46.5q37 0 66 -19.5t41 -51.5q32 66 39 71q7 3 73 -14q2 0 4.5 -13t1.5 -16q-124 -303 -147 -362 q-23 -54 -23 -92q0 -35 31 -35q25 0 53 22.5t86 94.5q1 1 6 -1.5t11 -6.5t11.5 -8t9.5 -7t3 -4q-53 -69 -82 -98q-56 -56 -120 -56q-39 0 -70 25t-31 66q0 23 4 55q-18 -24 -47 -53q-95 -95 -180 -95q-57 0 -106.5 54.5t-49.5 132.5zM371 801q0 -40 22 -62t58 -22 q65 0 153 88q38 38 56 64.5t40 72.5q70 154 70 178q0 31 -26.5 56.5t-69.5 25.5q-137 0 -258 -241q-45 -90 -45 -160z" />
<glyph unicode="&#xab;" horiz-adv-x="917" d="M100 426q0 14 17 27q176 117 491 356q4 2 14 -6.5t17.5 -18.5t5.5 -12q-175 -155 -373 -356l-2 -6q4 -112 72 -396q1 -5 -10.5 -11t-25.5 -9.5t-19 -1.5q-12 30 -105 241q-14 35 -78 170q-4 12 -4 23zM451 403q0 19 6.5 29t25.5 25q209 146 461 354q2 2 7 -0.5t11 -7.5 t11 -10.5t7.5 -11t0.5 -7.5q-173 -170 -371 -383q-4 -4 -4 -14q6 -133 37 -369q1 -4 -12 -9t-26.5 -8t-14.5 -1q-83 251 -133 383q-6 15 -6 30z" />
<glyph unicode="&#xad;" horiz-adv-x="698" d="M123 428q0 19 27 92q2 10 12 10q170 -2 448 2q6 0 6 -8q-3 -20 -24 -94q-3 -8 -12 -8q-78 2 -236 2q-131 0 -207 -2q-8 0 -14 6z" />
<glyph unicode="&#xae;" horiz-adv-x="1216" d="M342 858q0 166 117 283q116 116 276 116q105 0 198.5 -50.5t152.5 -143t59 -205.5q0 -77 -34.5 -148.5t-86.5 -123.5q-123 -123 -297 -123q-95 0 -185 56.5t-145 148.5t-55 190zM387 852q0 -129 107.5 -236.5t236.5 -107.5q156 0 264 108q101 101 101 242q0 153 -106 256 t-255 103q-140 0 -241 -101q-107 -107 -107 -264zM545 682q-2 27 6 27q43 0 45 2q4 4 4 26q0 9 2 60t2 94v110q0 33 -2 35q-9 9 -47 11q-2 0 -2.5 13.5t0.5 26.5t4 13q47 -4 98 -4h82q73 0 125 -25q29 -14 41 -32.5t12 -51.5q0 -41 -31 -68.5t-77 -41.5q-4 0 -4 -3t4 -4 q19 -5 29 -10t22 -22t21 -47q13 -48 19 -64t13 -16q13 0 41 28q2 3 11 -5.5t16 -19.5t4 -14q-50 -55 -86 -55q-32 0 -59 27q-29 29 -50 119q-12 59 -49 59h-51q-6 0 -6 -6v-111q0 -20 2 -22q6 -6 53 -6q3 0 3 -28t-3 -28q-72 6 -186 6q-4 0 -6 27zM682 903h53q38 0 58 10 q32 15 32 66q0 31 -16 47t-55 16q-45 0 -58.5 -2t-13.5 -8v-129z" />
<glyph unicode="&#xaf;" horiz-adv-x="1024" d="M520 1020q22 59 35 76q13 10 33 10q40 0 105.5 -1t105.5 -1q145 0 225 2q21 0 14 -14q-15 -40 -30 -70q-9 -18 -25 -18h-457q-10 0 -6 16z" />
<glyph unicode="&#xb0;" horiz-adv-x="813" d="M309 983q0 108 84 191t185 83q109 0 187.5 -74.5t78.5 -189.5q0 -118 -82.5 -194t-196.5 -76q-105 0 -180.5 73.5t-75.5 186.5zM373 985q0 -88 57 -147.5t135 -59.5q86 0 149.5 61t63.5 152q0 92 -60 151.5t-145 59.5q-73 0 -136.5 -67.5t-63.5 -149.5z" />
<glyph unicode="&#xb1;" d="M25 113q0 6 10 6h772q6 -3 6 -8q0 -3 -1.5 -22t-3.5 -30.5t-5 -11.5h-770q-8 0 -8 66zM293 829q0 7 10 7q28 0 96 -0.5t134 -0.5t129 1q1 1 2 1.5t2 1.5t2 3q71 181 141 352q0 1 10.5 1.5t26 -0.5t28.5 -3q13 -3 13 -6q-86 -207 -142 -348q102 -2 342 -2q7 -4 7 -9 q-8 -61 -11 -61q-46 0 -171.5 1t-188.5 1q-7 0 -10 -6q-30 -77 -75 -186.5t-69 -169.5q-5 -2 -26 -1.5t-43 3.5q-3 0 -5 2.5t-1 5.5q126 315 141 350v2q-234 0 -336 -2q-11 0 -6 63z" />
<glyph unicode="&#xb2;" horiz-adv-x="778" d="M229 834q38 58 115 128.5t182 137.5q35 23 82 52.5t66 42t46 30t39.5 27.5t27.5 22.5t28 25.5q66 66 66 142q0 38 -29 67q-33 33 -109 33q-45 0 -89 -15.5t-68 -39.5q-28 -28 -21 -35q1 -1 19 -10.5t30.5 -26t12.5 -41.5q0 -29 -23.5 -54.5t-58.5 -25.5q-36 0 -58 20.5 t-22 55.5q0 68 59 127q42 42 104.5 68t133.5 26q127 0 196 -69q46 -46 46 -103q0 -120 -209 -227q-138 -73 -232 -131q-104 -65 -135 -92q-5 -5 2 -8q174 -54 277 -54q44 0 63 19q24 24 96 121q1 1 6 -0.5t11 -3.5t11.5 -4.5t9.5 -5t3 -3.5q-24 -30 -72.5 -98t-66.5 -86 q-35 -35 -86 -35q-53 0 -150 19.5t-190 48.5q-10 3 -14 0q-39 -39 -62 -72q-1 -2 -10.5 4.5t-18.5 14t-8 8.5z" />
<glyph unicode="&#xb3;" horiz-adv-x="778" d="M319 993q0 48 31 78.5t68 30.5q28 0 44.5 -16t16.5 -42q0 -28 -12 -47t-27 -25.5t-27 -14t-12 -15.5q0 -12 19 -32.5t43 -32.5q50 -23 104 -23q67 0 111 41q22 22 53 82q31 63 31 129q0 88 -117 88q-20 0 -51 -1t-47 -1q-5 0 -5 25.5t5 25.5h88q72 0 139 31q50 26 78 86 q25 49 25 94q0 86 -134 86q-70 0 -114 -22q-13 -4 -13 -11q0 -3 15.5 -22t15.5 -41q0 -37 -24 -58.5t-54 -21.5q-29 0 -47 20t-18 48q0 41 27 72t63 50q74 35 166 35q54 0 105.5 -18.5t84.5 -48.5q56 -51 56 -105q0 -48 -29.5 -82.5t-85.5 -62.5q-63 -31 -154 -51v-2 q55 -18 97 -60q36 -36 36 -100q0 -144 -135 -213q-68 -37 -170 -37q-71 0 -139 35q-62 35 -94 94q-13 26 -13 55z" />
<glyph unicode="&#xb4;" horiz-adv-x="1024" d="M559 961q42 29 100 77q117 94 205 179q57 49 99 49q27 0 44 -17t17 -41q0 -34 -21 -57t-75 -51q-62 -32 -177 -94t-165 -88z" />
<glyph unicode="&#xb5;" horiz-adv-x="1099" d="M-104 -356q0 69 47 200.5t188 442.5q185 406 225 485q12 25 23 25h125q16 0 10 -13q-12 -24 -42.5 -86.5t-44.5 -92t-38.5 -81t-46 -101t-45.5 -106.5q-41 -100 -41 -149q0 -47 25 -74.5t71 -27.5q84 0 223 139q65 65 101 135q104 208 196 446q4 11 17 11q127 0 131 -4 q7 -7 2 -21q-145 -309 -215 -477q-45 -108 -45 -170q0 -25 14 -42t35 -17q83 0 190 157q2 4 15 -3.5t24.5 -17.5t8.5 -14q-79 -109 -145 -156.5t-136 -47.5t-108.5 36.5t-38.5 98.5q0 7 4 57q0 3 -3.5 4t-5.5 -2q-170 -192 -309 -192q-65 0 -112 38.5t-62 108.5q-3 10 -8 0 q-66 -157 -87.5 -225.5t-21.5 -120.5q0 -51 33 -94t33 -80q0 -39 -25.5 -63.5t-66.5 -24.5q-45 0 -69.5 31.5t-24.5 87.5z" />
<glyph unicode="&#xb6;" horiz-adv-x="1083" d="M254 864q0 95 57.5 183t159.5 139q63 32 138.5 45.5t197.5 13.5q44 0 120.5 -2t131.5 -2q40 0 278 4q4 0 5 -15.5t-1 -31.5t-6 -16q-165 -4 -172 -8q-5 -2 -14 -21q-127 -298 -324 -764q-32 -76 -86 -207.5t-80 -193.5q-4 -8 -44 3q-20 7 -19 11q47 111 203.5 483 t279.5 664q3 6 3.5 12.5t-1.5 7.5q-5 5 -127 5q-10 0 -14 -11q-205 -494 -209 -504q-188 -448 -282 -673q-2 -8 -45 5q-18 6 -17 9q34 84 109.5 263.5t132.5 320.5q6 12 -4 14q-128 17 -230 68q-141 70 -141 198z" />
<glyph unicode="&#xb7;" horiz-adv-x="509" d="M215 651q0 56 39 93.5t94 37.5q52 0 89.5 -37t37.5 -88q0 -60 -38.5 -101.5t-94.5 -41.5q-51 0 -89 40t-38 97z" />
<glyph unicode="&#xb8;" horiz-adv-x="1024" d="M6 -295q-2 2 10.5 15t27 24t17.5 8q56 -67 127 -67q64 0 105 41q35 35 35 71q0 37 -47 37q-24 0 -60 -8q-4 -1 -11.5 4t-13 11.5t-3.5 8.5l147 160l66 -10l-99 -111h31q50 0 80.5 -22.5t30.5 -59.5q0 -39 -35 -79.5t-84 -65.5q-77 -39 -148 -39q-56 0 -95.5 19t-80.5 63z " />
<glyph unicode="&#xb9;" horiz-adv-x="778" d="M271 831q1 12 4 25.5t6 13.5q29 0 105 1t95 1q5 0 8 5q61 138 154 360q15 36 41 93.5t39.5 89.5t21.5 57q3 9 -6 6q-83 -24 -198 -35q-1 0 -1 24.5t1 24.5q170 21 245 59q23 11 68 41q3 2 16 -2t24.5 -9t10.5 -7q-30 -65 -127 -293q-23 -56 -62 -147t-64.5 -152 t-39.5 -98q-7 -19 -2 -19q21 0 88.5 -1t104.5 -1q2 -2 1 -13.5t-3.5 -24.5t-5.5 -13q-31 0 -120 2t-149 2q-114 0 -254 -4q-2 2 -1 14z" />
<glyph unicode="&#xba;" horiz-adv-x="868" d="M135 477q5 43 10 45q38 0 123 -2t107 -2q58 0 197.5 2t187.5 2q8 0 9.5 -5.5t0.5 -22.5q-2 -42 -10 -45q-35 0 -100 1t-95 1q-75 0 -219.5 -1t-202.5 -1q-8 0 -8 28zM295 874q0 116 104 220q67 67 154.5 116.5t161.5 49.5q81 0 139.5 -65t58.5 -153q0 -129 -120 -249 q-63 -63 -142 -100.5t-155 -37.5q-82 0 -148 66q-53 53 -53 153zM399 815q0 -49 30.5 -78.5t86.5 -29.5q89 0 156 67q60 60 100.5 157.5t40.5 168.5q0 47 -28 76.5t-74 29.5q-94 0 -174 -80q-62 -62 -100 -149.5t-38 -161.5z" />
<glyph unicode="&#xbb;" horiz-adv-x="925" d="M8 20q113 127 336 402q12 12 8 29q-28 165 -78 333q-1 3 13 9t27.5 8.5t17.5 -0.5q21 -44 170 -340q14 -25 14 -39q0 -17 -33 -43q-145 -123 -432 -393q-5 -5 -26 11.5t-17 22.5zM362 12q54 60 171 201t161 199q4 11 0 26q-46 154 -129 348q-1 2 11.5 8t26 10t15.5 1 q26 -40 75 -113.5t89.5 -137t85.5 -134.5q3 -7 -2.5 -19t-13.5 -18q-57 -49 -234 -207q-25 -23 -99 -91.5t-111 -100.5q-2 -3 -14 3.5t-23 14.5t-9 10z" />
<glyph unicode="&#xbc;" horiz-adv-x="1658" d="M185 524q1 12 4 25.5t6 13.5q29 0 105 1t95 1q6 0 8 4q53 121 154 361q16 37 41 93t39 88.5t22 57.5q2 5 0 6.5t-6 0.5q-83 -24 -198 -35q-1 0 -1 24.5t1 24.5q170 21 245 59q23 11 68 41q3 2 16 -2t24.5 -9t10.5 -7q-30 -65 -127 -293q-23 -56 -62 -147t-64.5 -152 t-39.5 -98q-7 -19 -2 -19q21 0 88.5 -1t104.5 -1q2 -2 1 -13.5t-3.5 -24.5t-5.5 -13q-31 0 -120 2t-149 2q-114 0 -254 -4q-2 2 -1 14zM242 -35q109 109 333 330.5t361 359.5q132 134 335 336t328 330q2 2 14.5 -8.5t23.5 -23.5t8 -17q-126 -126 -327.5 -324t-326.5 -323 q-116 -117 -342 -342.5t-362 -364.5q-6 -5 -28.5 18t-16.5 29zM902.5 203.5q0.5 23.5 2.5 25.5q258 208 326.5 272.5t89.5 104.5q11 18 4 25q-3 3 -20.5 12.5t-29 22.5t-11.5 32q0 32 24.5 52t61.5 20q39 0 62.5 -18.5t23.5 -46.5q0 -25 -19 -62q-55 -111 -426 -405 q-1 -1 2 -7q195 5 256 5q5 0 11 12q36 74 71 155q5 11 12 13q23 8 103 14q11 0 6 -12q-78 -161 -86 -176q-3 -6 6 -6q62 -5 76 -5q45 0 86 2q2 -2 0.5 -12.5t-4.5 -22.5t-4 -12q-48 0 -109.5 -1t-66.5 -1q-8 0 -13 -12q-8 -17 -22 -48.5t-21 -47.5q-8 -15 -4 -19 q6 -6 140 -6q2 0 0 -12.5t-6 -25.5t-7 -13q-33 0 -102 1t-123 1q-71 0 -203 -4q-2 0 0.5 12.5t6 25.5t5.5 13q25 1 65.5 3t69.5 3.5t31 1.5q3 0 13 17q33 64 47 100q4 9 4 10.5t-2 3.5q-144 0 -324 -8q-3 0 -2.5 23.5z" />
<glyph unicode="&#xbd;" horiz-adv-x="1720" d="M185 524q1 12 4 25.5t6 13.5q29 0 105 1t95 1q6 0 8 4q53 121 154 361q16 37 41 93t39 88.5t22 57.5q2 5 0 6.5t-6 0.5q-83 -24 -198 -35q-1 0 -1 24.5t1 24.5q170 21 245 59q23 11 68 41q3 2 16 -2t24.5 -9t10.5 -7q-30 -65 -127 -293q-23 -56 -62 -147t-64.5 -152 t-39.5 -98q-7 -19 -2 -19q21 0 88.5 -1t104.5 -1q2 -2 1 -13.5t-3.5 -24.5t-5.5 -13q-31 0 -120 2t-149 2q-114 0 -254 -4q-2 2 -1 14zM242 -35q109 109 333 330.5t361 359.5q132 134 335 336t328 330q2 2 14.5 -8.5t23.5 -23.5t8 -17q-126 -126 -327.5 -324t-326.5 -323 q-116 -117 -342 -342.5t-362 -364.5q-6 -5 -28.5 18t-16.5 29zM872 14q38 58 115 129t182 138q35 23 82 52.5t66 42t46 30t39.5 27.5t27.5 22.5t28 25.5q66 66 66 142q0 38 -29 67q-33 33 -109 33q-45 0 -89 -15.5t-68 -39.5q-28 -28 -21 -35q1 -1 19 -10.5t30.5 -26 t12.5 -41.5q0 -29 -23.5 -54.5t-58.5 -25.5q-36 0 -58 20.5t-22 55.5q0 68 59 127q42 42 104.5 68t133.5 26q127 0 197 -70q45 -45 45 -102q0 -120 -209 -227q-138 -73 -232 -131q-104 -65 -135 -92q-5 -5 2 -9q171 -53 277 -53q45 0 63 18q24 24 96 121q1 1 6 -0.5t11 -3.5 t11.5 -4t9.5 -4.5t3 -3.5q-24 -30 -72.5 -98t-66.5 -86q-35 -35 -86 -35q-53 0 -150.5 19.5t-189.5 47.5q-11 3 -14 0q-41 -41 -62 -71q-1 -2 -10.5 4t-18.5 13.5t-8 8.5z" />
<glyph unicode="&#xbe;" horiz-adv-x="1658" d="M233 686q0 48 31 78.5t68 30.5q28 0 44.5 -16t16.5 -42q0 -28 -12 -47t-27 -25.5t-27 -14t-12 -15.5q0 -13 19 -33.5t43 -32.5q48 -22 104 -22q67 0 111 41q22 22 53 82q31 63 31 129q0 88 -117 88q-20 0 -51 -1t-47 -1q-5 0 -5 25.5t5 25.5h88q72 0 139 31q50 26 78 86 q25 49 25 94q0 86 -134 86q-29 0 -63.5 -7.5t-50.5 -15.5q-13 -4 -13 -10q0 -3 15.5 -22t15.5 -41q0 -37 -24 -58.5t-54 -21.5q-29 0 -47 19.5t-18 47.5q0 41 27 73t63 50q74 35 166 35q54 0 105.5 -19t84.5 -49q56 -51 56 -104q0 -88 -115 -145q-66 -33 -154 -52v-2 q56 -18 97 -59q36 -36 36 -100q0 -144 -135 -213q-68 -37 -170 -37q-71 0 -139 35q-62 35 -94 94q-13 26 -13 55zM242 -35q109 109 333 330.5t361 359.5q132 134 335 336t328 330q2 2 14.5 -8.5t23.5 -23.5t8 -17q-126 -126 -327.5 -324t-326.5 -323q-116 -117 -342 -342.5 t-362 -364.5q-6 -5 -28.5 18t-16.5 29zM902.5 203.5q0.5 23.5 2.5 25.5q258 208 326.5 272.5t89.5 104.5q11 18 4 25q-3 3 -20.5 12.5t-29 22.5t-11.5 32q0 32 24.5 52t61.5 20q39 0 62.5 -18.5t23.5 -46.5q0 -25 -19 -62q-55 -111 -426 -405q-1 -1 2 -7q195 5 256 5 q5 0 11 12q36 74 71 155q5 11 12 13q23 8 103 14q11 0 6 -12q-78 -161 -86 -176q-3 -6 6 -6q62 -5 76 -5q45 0 86 2q2 -2 0.5 -12.5t-4.5 -22.5t-4 -12q-48 0 -109.5 -1t-66.5 -1q-8 0 -13 -12q-8 -17 -22 -48.5t-21 -47.5q-8 -15 -4 -19q6 -6 140 -6q2 0 0 -12.5t-6 -25.5 t-7 -13q-33 0 -102 1t-123 1q-71 0 -203 -4q-2 0 0.5 12.5t6 25.5t5.5 13q25 1 65.5 3t69.5 3.5t31 1.5q3 0 13 17q33 64 47 100q4 9 4 10.5t-2 3.5q-144 0 -324 -8q-3 0 -2.5 23.5z" />
<glyph unicode="&#xbf;" horiz-adv-x="954" d="M84 270q0 186 201 287q52 26 248.5 93t222.5 93q23 23 34.5 54.5t18.5 95.5q2 9 29.5 9t27.5 -11q-6 -208 -71 -273q-26 -26 -108 -55t-187 -62t-160 -61q-133 -66 -133 -209q0 -53 18 -90q48 -94 181 -94q87 0 155 33q41 20 41 41q0 6 -22.5 36t-22.5 58q0 46 30 76.5 t79 30.5q39 0 63.5 -26t24.5 -65q0 -57 -39.5 -110t-114.5 -90q-88 -45 -207 -45q-139 0 -229 90q-80 80 -80 194zM817 1114q0 59 42 105.5t102 46.5q50 0 76 -29t26 -68q0 -55 -38.5 -103t-98.5 -48q-47 0 -78 29.5t-31 66.5z" />
<glyph unicode="&#xc0;" horiz-adv-x="1333" d="M-132 33q0 33 5 33q152 6 168 14q48 23 145 151q99 129 414 557q66 90 188.5 252t172.5 232q9 12 38 12q31 0 31 -12q0 -1 -3 -59.5t-3 -96.5q-1 -129 -1 -350t-1 -367t-4 -278q0 -43 4 -47t20.5 -5.5t44.5 -3t41 -2.5q4 0 4 -31.5t-4 -31.5q-86 2 -196 2t-236 -4 q-4 0 -4 32.5t4 32.5q163 10 168 15q10 10 13 45q6 95 6 233q0 17 -9 17q-203 9 -493 4q-14 -20 -56.5 -78t-64.5 -90q-53 -80 -53 -113q0 -10 10.5 -15t49 -9t116.5 -6q5 0 5 -33t-5 -33h-510q-5 0 -5 33zM442 469q-13 -18 4 -18q134 -7 410 -7q27 0 27 11q0 370 2 583 q0 3 -6 6t-9 0q-236 -312 -428 -575zM815 1573q0 28 26 53t54 25q25 0 41 -14t37 -48q31 -53 67 -108q34 -57 62 -92q0 -10 -18.5 -27t-28.5 -14q-24 21 -59.5 49t-72.5 56t-49 38q-59 45 -59 82z" />
<glyph unicode="&#xc1;" horiz-adv-x="1333" d="M-132 33q0 33 5 33q152 6 168 14q48 23 145 151q99 129 414 557q66 90 188.5 252t172.5 232q9 12 38 12q31 0 31 -12q0 -1 -3 -59.5t-3 -96.5q-1 -129 -1 -350t-1 -367t-4 -278q0 -43 4 -47t20.5 -5.5t44.5 -3t41 -2.5q4 0 4 -31.5t-4 -31.5q-86 2 -196 2t-236 -4 q-4 0 -4 32.5t4 32.5q163 10 168 15q10 10 13 45q6 95 6 233q0 17 -9 17q-203 9 -493 4q-14 -20 -56.5 -78t-64.5 -90q-53 -80 -53 -113q0 -10 10.5 -15t49 -9t116.5 -6q5 0 5 -33t-5 -33h-510q-5 0 -5 33zM442 469q-13 -18 4 -18q134 -7 410 -7q27 0 27 11q0 370 2 583 q0 3 -6 6t-9 0q-236 -312 -428 -575zM932 1376q17 10 106 70q45 32 211 160q59 45 105 45q27 0 47 -17t20 -39q0 -30 -23 -51.5t-81 -48.5q-65 -28 -185.5 -83t-170.5 -77z" />
<glyph unicode="&#xc2;" horiz-adv-x="1333" d="M-132 33q0 33 5 33q152 6 168 14q48 23 145 151q99 129 414 557q66 90 188.5 252t172.5 232q9 12 38 12q31 0 31 -12q0 -1 -3 -59.5t-3 -96.5q-1 -129 -1 -350t-1 -367t-4 -278q0 -43 4 -47t20.5 -5.5t44.5 -3t41 -2.5q4 0 4 -31.5t-4 -31.5q-86 2 -196 2t-236 -4 q-4 0 -4 32.5t4 32.5q163 10 168 15q10 10 13 45q6 95 6 233q0 17 -9 17q-203 9 -493 4q-14 -20 -56.5 -78t-64.5 -90q-53 -80 -53 -113q0 -10 10.5 -15t49 -9t116.5 -6q5 0 5 -33t-5 -33h-510q-5 0 -5 33zM442 469q-13 -18 4 -18q134 -7 410 -7q27 0 27 11q0 370 2 583 q0 3 -6 6t-9 0q-236 -312 -428 -575zM788 1399q85 57 207 147q36 28 95 80q37 12 81 12q15 0 31 -16q10 -60 58 -227q2 -5 -29.5 -19.5t-38.5 -11.5q-15 22 -34 52.5t-32 49.5t-26 35q-45 -22 -277 -143q-4 -3 -15.5 5.5t-18.5 19.5t-1 16z" />
<glyph unicode="&#xc3;" horiz-adv-x="1333" d="M-132 33q0 33 5 33q152 6 168 14q48 23 145 151q99 129 414 557q66 90 188.5 252t172.5 232q9 12 38 12q31 0 31 -12q0 -1 -3 -59.5t-3 -96.5q-1 -129 -1 -350t-1 -367t-4 -278q0 -43 4 -47t20.5 -5.5t44.5 -3t41 -2.5q4 0 4 -31.5t-4 -31.5q-86 2 -196 2t-236 -4 q-4 0 -4 32.5t4 32.5q163 10 168 15q10 10 13 45q6 95 6 233q0 17 -9 17q-203 9 -493 4q-14 -20 -56.5 -78t-64.5 -90q-53 -80 -53 -113q0 -10 10.5 -15t49 -9t116.5 -6q5 0 5 -33t-5 -33h-510q-5 0 -5 33zM442 469q-13 -18 4 -18q134 -7 410 -7q27 0 27 11q0 370 2 583 q0 3 -6 6t-9 0q-236 -312 -428 -575zM762 1386q38 83 101.5 136t133.5 53q52 0 115 -37q60 -31 94 -31q27 0 55 20.5t70 65.5l45 -22q-54 -89 -110 -135q-55 -45 -111 -45q-10 0 -20 1t-20.5 4t-17 4.5t-19 6.5t-16.5 7t-18 8.5t-16 7.5q-5 3 -16.5 9t-16 8t-14 6.5t-15.5 6 t-15 3t-17 1.5q-62 0 -119 -94z" />
<glyph unicode="&#xc4;" horiz-adv-x="1333" d="M-132 33q0 33 5 33q152 6 168 14q48 23 145 151q99 129 414 557q66 90 188.5 252t172.5 232q9 12 38 12q31 0 31 -12q0 -1 -3 -59.5t-3 -96.5q-1 -129 -1 -350t-1 -367t-4 -278q0 -43 4 -47t20.5 -5.5t44.5 -3t41 -2.5q4 0 4 -31.5t-4 -31.5q-86 2 -196 2t-236 -4 q-4 0 -4 32.5t4 32.5q163 10 168 15q10 10 13 45q6 95 6 233q0 17 -9 17q-203 9 -493 4q-14 -20 -56.5 -78t-64.5 -90q-53 -80 -53 -113q0 -10 10.5 -15t49 -9t116.5 -6q5 0 5 -33t-5 -33h-510q-5 0 -5 33zM442 469q-13 -18 4 -18q134 -7 410 -7q27 0 27 11q0 370 2 583 q0 3 -6 6t-9 0q-236 -312 -428 -575zM803 1483q0 43 31 75.5t75 32.5q42 0 72.5 -31t30.5 -77q0 -43 -32 -76t-77 -33t-72.5 32.5t-27.5 76.5zM1135 1485q0 39 31 74.5t75 35.5t73 -33t29 -77q0 -48 -29.5 -80.5t-76.5 -32.5q-44 0 -73 33.5t-29 79.5z" />
<glyph unicode="&#xc5;" horiz-adv-x="1333" d="M-132 33q0 33 5 33q152 6 168 14q48 23 145 151q99 129 414 557q50 68 167 222.5t167 224.5q-80 49 -80 139q0 73 50.5 124.5t123.5 51.5q78 0 128 -49.5t50 -128.5q0 -75 -51 -119.5t-129 -44.5q0 -12 -1 -41.5t-1 -50.5q0 -700 -6 -995q0 -43 6 -49q2 -2 30.5 -3.5 t68 -3t48.5 -2.5q5 0 5 -31.5t-5 -31.5q-86 2 -239 2q-110 0 -236 -4q-4 0 -4 32.5t4 32.5q163 10 168 15q10 10 13 45q6 95 6 233q0 17 -9 17q-203 9 -493 4q-14 -20 -56.5 -78t-64.5 -90q-53 -80 -53 -113q0 -10 10.5 -15t49 -9t116.5 -6q5 0 5 -33t-5 -33h-510 q-5 0 -5 33zM442 469q-13 -18 4 -18q134 -7 410 -7q27 0 27 11q0 370 2 583q0 3 -6 6t-9 0q-236 -312 -428 -575zM913 1374q0 -43 34.5 -75.5t80.5 -32.5q50 0 84.5 29.5t34.5 76.5q0 52 -33 86.5t-86 34.5q-50 0 -82.5 -35t-32.5 -84z" />
<glyph unicode="&#xc6;" horiz-adv-x="1869" d="M-145.5 16.5q-0.5 16.5 1.5 33t5 16.5q111 0 162 26q19 10 40 26.5t37 32t44.5 44t48.5 47.5q45 42 195 189.5t265 256.5q8 8 199.5 189.5t288.5 277.5q5 5 5.5 10t-2.5 7t-5 2q-40 0 -93 2t-77 2q-3 0 -3.5 17t2 33.5t7.5 16.5q13 0 296 -1t347 -1q93 0 401 -4 q47 0 47 -10q0 -8 -78.5 -183t-84.5 -186q-6 -10 -40 -4q-19 4 -18 10q27 83 27 164q0 90 -35 125q-23 23 -391 23q-31 0 -43 -27q-83 -186 -186 -420q-10 -20 2 -20q213 -8 262 16q24 11 44.5 47t63.5 135q4 8 47 3q25 -3 23 -9q-49 -113 -103 -246q-60 -149 -90 -235 q-1 -6 -34.5 -5.5t-36.5 9.5q47 149 30 184q-9 18 -55 23.5t-164 3.5q-25 0 -37 -12q-52 -131 -223 -531q-3 -6 -1 -13t9 -7q53 -4 281 -4q139 0 205 32q53 26 146.5 164.5t107.5 177.5q2 5 18.5 6t32.5 -1t16 -5q-63 -140 -164 -421q-6 -21 -41 -23h-28.5t-69 0.5t-93.5 1 t-116 0.5h-123h-147.5t-143 -0.5t-118 -1t-86 -0.5h-33.5q-7 0 -8 31t4 37q18 4 90.5 6.5t83.5 7.5t27 39q10 21 55.5 121t85.5 184q-3 10 -12 10q-94 6 -207 6q-40 0 -110.5 2.5t-92.5 1.5q-24 -7 -25 -8l-200 -200q-101 -98 -101 -138q0 -21 27 -24q89 -13 117 -13 q4 0 4.5 -16.5t-2 -32.5t-6.5 -16q-96 4 -265 4q-48 0 -119.5 -1t-84.5 -1q-4 0 -4.5 16.5zM580 512q184 -6 372 -6q17 0 21 8q22 51 80 186.5t90 212.5q54 135 88 222q2 6 -3 8t-11 -2q-33 -32 -275.5 -265t-345.5 -337q-20 -20 -16 -27z" />
<glyph unicode="&#xc7;" horiz-adv-x="1124" d="M129 399q0 137 73 298t206 294q131 131 277 202t284 71q151 0 231 -80q53 -53 53 -121q0 -74 -42 -122t-97 -48q-41 0 -67.5 26.5t-26.5 65.5q0 55 47 102q8 8 17.5 16t14.5 12t9 10t4 12q0 22 -42 41.5t-105 19.5q-182 0 -338 -156q-150 -150 -246 -364t-96 -371 q0 -125 55 -180q70 -70 180 -70q151 0 309 158q109 109 183 250q3 5 20.5 -2t33 -17.5t13.5 -15.5q-87 -154 -205 -272q-80 -80 -172 -128.5t-182 -52.5l-78 -88h31q50 0 80.5 -22.5t30.5 -59.5q0 -39 -35 -79.5t-84 -65.5q-77 -39 -148 -39q-56 0 -95.5 19t-80.5 63 q-2 2 11 15t27.5 24t17.5 8q56 -67 127 -67q63 0 104 41q35 35 35 71q0 37 -47 37q-24 0 -60 -8q-4 -1 -11.5 4t-13 11.5t-3.5 8.5l121 132q-115 14 -201 100q-119 119 -119 317z" />
<glyph unicode="&#xc8;" horiz-adv-x="1173" d="M-106 34q0 34 14 34q22 1 69 2t72 2q23 0 29 14q115 240 268 598q137 323 184 449q12 34 5 41q-3 3 -170 8q-5 0 -6 17t1.5 33.5t8.5 16.5q138 0 474 -5t515 -7q11 -4 6 -14q-115 -252 -156 -355q-2 -5 -16.5 -6.5t-28 1t-12.5 7.5q12 73 16.5 120.5t-1.5 94.5t-27 68 t-375 21q-36 0 -45.5 -3t-16.5 -20q-61 -125 -190 -430q-4 -8 0 -10t14 -2q213 0 258 22q40 20 107 176q4 8 47 3q25 -3 23 -9q-123 -286 -197 -481q-3 -7 -21 -8t-35 2.5t-16 7.5q52 152 35 188q-9 18 -48.5 23.5t-146.5 5.5q-48 0 -59 -8q-45 -109 -111.5 -264.5 t-105.5 -247.5q-13 -36 -8 -41q3 -3 58 -6.5t97 -3.5q269 0 332 32q85 43 266 349q6 10 44 3q21 -5 20 -10q-23 -55 -67.5 -168t-75 -188t-33.5 -78q-8 -8 -35 -8q-81 0 -294 1t-374 1q-57 0 -147 -1t-131 -1q-14 0 -14 34zM713 1552q0 28 26 53t54 25q25 0 41 -13.5 t36 -47.5q28 -49 68 -109q38 -62 61 -92q0 -10 -18.5 -27t-28.5 -14q-24 21 -59 48.5t-72.5 56.5t-48.5 38q-59 45 -59 82z" />
<glyph unicode="&#xc9;" horiz-adv-x="1173" d="M-106 34q0 34 14 34q22 1 69 2t72 2q23 0 29 14q115 240 268 598q137 323 184 449q12 34 5 41q-3 3 -170 8q-5 0 -6 17t1.5 33.5t8.5 16.5q138 0 474 -5t515 -7q11 -4 6 -14q-115 -252 -156 -355q-2 -5 -16.5 -6.5t-28 1t-12.5 7.5q12 73 16.5 120.5t-1.5 94.5t-27 68 t-375 21q-36 0 -45.5 -3t-16.5 -20q-61 -125 -190 -430q-4 -8 0 -10t14 -2q213 0 258 22q40 20 107 176q4 8 47 3q25 -3 23 -9q-123 -286 -197 -481q-3 -7 -21 -8t-35 2.5t-16 7.5q52 152 35 188q-9 18 -48.5 23.5t-146.5 5.5q-48 0 -59 -8q-45 -109 -111.5 -264.5 t-105.5 -247.5q-13 -36 -8 -41q3 -3 58 -6.5t97 -3.5q269 0 332 32q85 43 266 349q6 10 44 3q21 -5 20 -10q-23 -55 -67.5 -168t-75 -188t-33.5 -78q-8 -8 -35 -8q-81 0 -294 1t-374 1q-57 0 -147 -1t-131 -1q-14 0 -14 34zM829 1356q35 20 107 69q45 32 211 160 q59 45 104 45q28 0 48 -16.5t20 -38.5q0 -30 -23.5 -51.5t-81.5 -48.5q-65 -28 -185.5 -83t-170.5 -77z" />
<glyph unicode="&#xca;" horiz-adv-x="1173" d="M-106 34q0 34 14 34q22 1 69 2t72 2q23 0 29 14q115 240 268 598q137 323 184 449q12 34 5 41q-3 3 -170 8q-5 0 -6 17t1.5 33.5t8.5 16.5q138 0 474 -5t515 -7q11 -4 6 -14q-115 -252 -156 -355q-2 -5 -16.5 -6.5t-28 1t-12.5 7.5q12 73 16.5 120.5t-1.5 94.5t-27 68 t-375 21q-36 0 -45.5 -3t-16.5 -20q-61 -125 -190 -430q-4 -8 0 -10t14 -2q213 0 258 22q40 20 107 176q4 8 47 3q25 -3 23 -9q-123 -286 -197 -481q-3 -7 -21 -8t-35 2.5t-16 7.5q52 152 35 188q-9 18 -48.5 23.5t-146.5 5.5q-48 0 -59 -8q-45 -109 -111.5 -264.5 t-105.5 -247.5q-13 -36 -8 -41q3 -3 58 -6.5t97 -3.5q269 0 332 32q85 43 266 349q6 10 44 3q21 -5 20 -10q-23 -55 -67.5 -168t-75 -188t-33.5 -78q-8 -8 -35 -8q-81 0 -294 1t-374 1q-57 0 -147 -1t-131 -1q-14 0 -14 34zM686 1378q70 47 207 148q28 22 94 80q38 12 82 12 q15 0 31 -16q12 -71 57 -228q2 -5 -29 -19.5t-38 -11.5q-15 22 -34.5 52.5t-32.5 50t-26 35.5q-44 -22 -90 -45.5t-100 -52.5t-86 -46q-4 -3 -15.5 5.5t-18.5 19.5t-1 16z" />
<glyph unicode="&#xcb;" horiz-adv-x="1173" d="M-106 34q0 34 14 34q22 1 69 2t72 2q23 0 29 14q115 240 268 598q137 323 184 449q12 34 5 41q-3 3 -170 8q-5 0 -6 17t1.5 33.5t8.5 16.5q138 0 474 -5t515 -7q11 -4 6 -14q-115 -252 -156 -355q-2 -5 -16.5 -6.5t-28 1t-12.5 7.5q12 73 16.5 120.5t-1.5 94.5t-27 68 t-375 21q-36 0 -45.5 -3t-16.5 -20q-61 -125 -190 -430q-4 -8 0 -10t14 -2q213 0 258 22q40 20 107 176q4 8 47 3q25 -3 23 -9q-123 -286 -197 -481q-3 -7 -21 -8t-35 2.5t-16 7.5q52 152 35 188q-9 18 -48.5 23.5t-146.5 5.5q-48 0 -59 -8q-45 -109 -111.5 -264.5 t-105.5 -247.5q-13 -36 -8 -41q3 -3 58 -6.5t97 -3.5q269 0 332 32q85 43 266 349q6 10 44 3q21 -5 20 -10q-23 -55 -67.5 -168t-75 -188t-33.5 -78q-8 -8 -35 -8q-81 0 -294 1t-374 1q-57 0 -147 -1t-131 -1q-14 0 -14 34zM700 1462q0 43 31.5 76t75.5 33q42 0 72 -31 t30 -78q0 -43 -31.5 -75.5t-76.5 -32.5t-73 32.5t-28 75.5zM1032 1464q0 39 31.5 75t75.5 36t73 -33.5t29 -77.5q0 -48 -29.5 -80t-76.5 -32q-45 0 -74 33t-29 79z" />
<glyph unicode="&#xcc;" horiz-adv-x="628" d="M-105.5 19q-0.5 17 3 34t8.5 17q11 0 36.5 -0.5t44 -0.5t40 0.5t35.5 2t20 4.5q20 10 49 78q233 537 397 958q18 48 9 57q-3 3 -15.5 5t-32.5 3t-39 1.5t-44.5 1t-38.5 0.5q-4 0 -5 16.5t1 32.5t6 16q64 0 149 -1t127 -1q140 0 242 2q6 0 6 -33.5t-6 -33.5q-7 0 -29.5 -1 t-41.5 -2t-41 -2.5t-36.5 -3.5t-19.5 -4q-8 -4 -15 -14.5t-11 -19.5t-13 -33q-391 -929 -408 -969q-15 -36 -2 -49q3 -3 16 -5t34.5 -3t40.5 -1.5t45 -1.5t38 -1q4 0 4.5 -17t-2 -34t-6.5 -17h-391q-106 0 -149 2q-5 0 -5.5 17zM481 1552q0 28 26 53t54 25q25 0 41.5 -14 t36.5 -47q28 -49 68 -109q38 -62 61 -92q0 -10 -18.5 -27t-28.5 -14q-24 21 -59 48.5t-72.5 56.5t-48.5 38q-60 45 -60 82z" />
<glyph unicode="&#xcd;" horiz-adv-x="628" d="M-105.5 19q-0.5 17 3 34t8.5 17q11 0 36.5 -0.5t44 -0.5t40 0.5t35.5 2t20 4.5q20 10 49 78q233 537 397 958q18 48 9 57q-3 3 -15.5 5t-32.5 3t-39 1.5t-44.5 1t-38.5 0.5q-4 0 -5 16.5t1 32.5t6 16q64 0 149 -1t127 -1q140 0 242 2q6 0 6 -33.5t-6 -33.5q-7 0 -29.5 -1 t-41.5 -2t-41 -2.5t-36.5 -3.5t-19.5 -4q-8 -4 -15 -14.5t-11 -19.5t-13 -33q-391 -929 -408 -969q-15 -36 -2 -49q3 -3 16 -5t34.5 -3t40.5 -1.5t45 -1.5t38 -1q4 0 4.5 -17t-2 -34t-6.5 -17h-391q-106 0 -149 2q-5 0 -5.5 17zM598 1356q35 20 107 69q34 24 210 160 q59 45 105 45q27 0 47 -16.5t20 -38.5q0 -30 -23 -51.5t-81 -48.5q-65 -28 -185.5 -83t-170.5 -77z" />
<glyph unicode="&#xce;" horiz-adv-x="628" d="M-105.5 19q-0.5 17 3 34t8.5 17q11 0 36.5 -0.5t44 -0.5t40 0.5t35.5 2t20 4.5q20 10 49 78q233 537 397 958q18 48 9 57q-3 3 -15.5 5t-32.5 3t-39 1.5t-44.5 1t-38.5 0.5q-4 0 -5 16.5t1 32.5t6 16q64 0 149 -1t127 -1q140 0 242 2q6 0 6 -33.5t-6 -33.5q-7 0 -29.5 -1 t-41.5 -2t-41 -2.5t-36.5 -3.5t-19.5 -4q-8 -4 -15 -14.5t-11 -19.5t-13 -33q-391 -929 -408 -969q-15 -36 -2 -49q3 -3 16 -5t34.5 -3t40.5 -1.5t45 -1.5t38 -1q4 0 4.5 -17t-2 -34t-6.5 -17h-391q-106 0 -149 2q-5 0 -5.5 17zM455 1378q70 47 207 148q29 22 94 80 q38 12 82 12q14 0 30 -16q11 -62 58 -228q2 -5 -29.5 -19.5t-38.5 -11.5q-15 23 -34 53t-32 50t-26 35q-13 -6 -277 -144q-4 -3 -15 5.5t-18 19.5t-1 16z" />
<glyph unicode="&#xcf;" horiz-adv-x="628" d="M-105.5 19q-0.5 17 3 34t8.5 17q11 0 36.5 -0.5t44 -0.5t40 0.5t35.5 2t20 4.5q20 10 49 78q233 537 397 958q18 48 9 57q-3 3 -15.5 5t-32.5 3t-39 1.5t-44.5 1t-38.5 0.5q-4 0 -5 16.5t1 32.5t6 16q64 0 149 -1t127 -1q140 0 242 2q6 0 6 -33.5t-6 -33.5q-7 0 -29.5 -1 t-41.5 -2t-41 -2.5t-36.5 -3.5t-19.5 -4q-8 -4 -15 -14.5t-11 -19.5t-13 -33q-391 -929 -408 -969q-15 -36 -2 -49q3 -3 16 -5t34.5 -3t40.5 -1.5t45 -1.5t38 -1q4 0 4.5 -17t-2 -34t-6.5 -17h-391q-106 0 -149 2q-5 0 -5.5 17zM471 1462q0 43 31.5 76t75.5 33q42 0 72 -31 t30 -78q0 -43 -32 -75.5t-77 -32.5t-72.5 32t-27.5 76zM803 1464q0 39 31.5 75t74.5 36q44 0 73.5 -33.5t29.5 -77.5q0 -48 -30 -80t-77 -32q-45 0 -73.5 33t-28.5 79z" />
<glyph unicode="&#xd0;" horiz-adv-x="1312" d="M-94.5 14.5q-0.5 16.5 1.5 32.5t5 16q170 7 178 15q17 17 62 115q80 171 190 432h-180q-7 4 -7 31t5 30q41 2 207 2q55 134 133 336q53 142 45 150q-4 4 -170 4q-3 0 -3.5 32.5t3.5 32.5q125 4 375 4q167 0 268 -30t174 -103q127 -127 127 -328q0 -148 -67.5 -287.5 t-178.5 -250.5q-117 -117 -269.5 -183.5t-287.5 -66.5q-32 0 -138.5 1.5t-178.5 0.5q-125 -2 -289 -2q-4 0 -4.5 16.5zM268 74q92 -6 260 -6q94 0 189.5 39.5t159.5 103.5q127 127 205.5 321t78.5 369q0 130 -69 199q-37 37 -110 56.5t-159 19.5q-58 0 -104 -5 q-84 -204 -197 -481h320q7 0 6.5 -29.5t-6.5 -31.5q-201 0 -344 -2h-2q-124 -306 -228 -553z" />
<glyph unicode="&#xd1;" horiz-adv-x="1296" d="M-108.5 15q-0.5 17 0.5 34t4 17q151 9 165 16q27 13 113 223q55 130 157.5 373t186.5 444q0 10 -6 25.5t-12 21.5q-1 1 -164 9q-4 0 -4 32.5t4 32.5q213 0 350 4q9 0 12 -12q38 -184 215 -997q247 576 306 725q23 58 36 107t13.5 68.5t-2.5 28.5q-3 3 -54 5.5t-98 1.5 q-4 0 -4 33.5t4 33.5q74 2 207 2q162 0 238 2q3 0 4 -16.5t-1 -32.5t-6 -16q-130 -5 -137 -9q-39 -19 -121 -215q-86 -205 -218.5 -514.5t-198.5 -466.5q-2 -5 -31 -5.5t-31 5.5q-149 677 -241 1088q0 3 -3 4t-4 -2q-163 -380 -319 -768q-75 -187 -45 -217q12 -12 176 -12 q2 0 2.5 -16.5t-0.5 -33t-4 -16.5q-131 3 -248 0q-59 0 -239 -4q-2 0 -2.5 17zM729 1356q38 82 102 135t134 53q51 0 114 -37q58 -30 95 -30q27 0 54 20t70 66l45 -23q-54 -89 -110 -135q-55 -45 -111 -45q-10 0 -20 1t-20.5 4t-17 4.5t-19 6.5t-16.5 7t-18 8.5t-16 7.5 q-6 3 -19.5 10t-19.5 10t-16.5 7.5t-19.5 6t-19 1.5q-62 0 -119 -95z" />
<glyph unicode="&#xd2;" horiz-adv-x="1323" d="M147 424q0 317 263 580q107 107 254 186.5t274 79.5q181 0 282 -127t101 -336q0 -327 -240 -567q-119 -119 -264 -191t-276 -72q-68 0 -139.5 31.5t-129.5 89.5q-57 57 -91 141t-34 185zM295 309q0 -117 76 -189.5t194 -72.5q160 0 279 119q140 140 245 365.5t105 414.5 q0 113 -66.5 184.5t-179.5 71.5q-170 0 -307 -137q-160 -160 -253 -371.5t-93 -384.5zM836 1573q0 28 25.5 53t53.5 25q25 0 41 -14t37 -48q24 -40 68 -108q38 -62 61 -92q0 -10 -18.5 -27t-28.5 -14q-24 21 -59 48.5t-72.5 56.5t-48.5 38q-59 45 -59 82z" />
<glyph unicode="&#xd3;" horiz-adv-x="1323" d="M147 424q0 317 263 580q107 107 254 186.5t274 79.5q181 0 282 -127t101 -336q0 -327 -240 -567q-119 -119 -264 -191t-276 -72q-68 0 -139.5 31.5t-129.5 89.5q-57 57 -91 141t-34 185zM295 309q0 -117 76 -189.5t194 -72.5q160 0 279 119q140 140 245 365.5t105 414.5 q0 113 -66.5 184.5t-179.5 71.5q-170 0 -307 -137q-160 -160 -253 -371.5t-93 -384.5zM950 1376q24 14 107 70q45 32 211 160q59 45 104 45q27 0 47.5 -17t20.5 -39q0 -30 -23.5 -51.5t-81.5 -48.5q-65 -28 -185.5 -83t-170.5 -77z" />
<glyph unicode="&#xd4;" horiz-adv-x="1323" d="M147 424q0 317 263 580q107 107 254 186.5t274 79.5q181 0 282 -127t101 -336q0 -327 -240 -567q-119 -119 -264 -191t-276 -72q-68 0 -139.5 31.5t-129.5 89.5q-57 57 -91 141t-34 185zM295 309q0 -117 76 -189.5t194 -72.5q160 0 279 119q140 140 245 365.5t105 414.5 q0 113 -66.5 184.5t-179.5 71.5q-170 0 -307 -137q-160 -160 -253 -371.5t-93 -384.5zM809 1399q85 57 207 147q29 22 94 80q38 12 82 12q15 0 31 -16q12 -69 57 -227q2 -5 -29.5 -19.5t-38.5 -11.5q-15 22 -34 52.5t-32 49.5t-26 35q-28 -14 -276 -143q-4 -3 -15.5 5.5 t-18.5 19.5t-1 16z" />
<glyph unicode="&#xd5;" horiz-adv-x="1323" d="M147 424q0 317 263 580q107 107 254 186.5t274 79.5q181 0 282 -127t101 -336q0 -327 -240 -567q-119 -119 -264 -191t-276 -72q-68 0 -139.5 31.5t-129.5 89.5q-57 57 -91 141t-34 185zM295 309q0 -117 76 -189.5t194 -72.5q160 0 279 119q140 140 245 365.5t105 414.5 q0 113 -66.5 184.5t-179.5 71.5q-170 0 -307 -137q-160 -160 -253 -371.5t-93 -384.5zM780 1386q38 82 102 135.5t134 53.5q51 0 114 -37q60 -31 95 -31q27 0 55 20.5t70 65.5l45 -22q-53 -87 -111 -135q-55 -45 -110 -45q-10 0 -20 1t-20.5 4t-17 4.5t-19 6.5t-16.5 7 t-18 8.5t-16 7.5q-4 2 -16.5 8.5t-16.5 8.5t-14 6.5t-16 6t-15 3t-17 1.5q-61 0 -118 -94z" />
<glyph unicode="&#xd6;" horiz-adv-x="1323" d="M147 424q0 317 263 580q107 107 254 186.5t274 79.5q181 0 282 -127t101 -336q0 -327 -240 -567q-119 -119 -264 -191t-276 -72q-68 0 -139.5 31.5t-129.5 89.5q-57 57 -91 141t-34 185zM295 309q0 -117 76 -189.5t194 -72.5q160 0 279 119q140 140 245 365.5t105 414.5 q0 113 -66.5 184.5t-179.5 71.5q-170 0 -307 -137q-160 -160 -253 -371.5t-93 -384.5zM823 1483q0 43 31.5 75.5t75.5 32.5q42 0 72 -31t30 -77q0 -44 -31.5 -76.5t-76.5 -32.5t-73 32.5t-28 76.5zM1155 1485q0 39 31.5 74.5t75.5 35.5t73 -33t29 -77q0 -48 -30 -80.5 t-77 -32.5q-44 0 -73 33.5t-29 79.5z" />
<glyph unicode="&#xd7;" horiz-adv-x="1120" d="M242 342q0 6 6 12q87 67 391 314q0 1 1 3.5t1 4.5q-42 54 -124 166.5t-99 134.5q-3 6 12 18q3 2 16 10.5t22.5 15t10.5 5.5q30 -40 226 -307q145 108 405 313q7 5 12 0q1 -2 10.5 -18.5t14.5 -27.5t2 -13q-48 -38 -195 -153t-202 -158q-4 -7 -2 -9q72 -98 131.5 -177 t95.5 -128q0 -1 -55 -47q-7 -7 -11 0q-202 274 -227 307h-4q-26 -22 -188 -152.5t-201 -162.5q-4 -3 -13.5 6.5t-21 24.5t-14.5 18z" />
<glyph unicode="&#xd8;" horiz-adv-x="1323" d="M23 -14q146 140 192 184q-68 113 -68 254q0 317 263 580q107 107 254 186.5t274 79.5q188 0 293 -140q54 50 166 158q1 1 14.5 -8t25.5 -19.5t9 -13.5q-63 -63 -180 -174q55 -110 55 -266q0 -327 -240 -567q-119 -119 -264 -191t-276 -72q-68 0 -139.5 31.5t-129.5 89.5 q-11 11 -20 23q-23 -23 -182 -176q-3 -3 -16.5 6t-24 20.5t-6.5 14.5zM295 309q0 -32 6 -59q199 188 866 821q-28 61 -84.5 96t-134.5 35q-170 0 -307 -137q-160 -160 -253 -371.5t-93 -384.5zM322 186q33 -65 96.5 -102t146.5 -37q160 0 279 119q140 140 245 365.5 t105 414.5q0 19 -4 55q-834 -784 -868 -815z" />
<glyph unicode="&#xd9;" horiz-adv-x="1306" d="M147 233q0 68 39 154q191 438 299 703q28 68 15 81q-3 3 -144 9q-9 0 -8.5 33.5t8.5 33.5q30 -1 108.5 -3.5t141.5 -2.5q48 0 252 4q3 0 3.5 -16.5t-1 -32.5t-4.5 -16q-140 -4 -162 -15t-49 -75q-204 -463 -303 -703q-41 -94 -41 -170q0 -78 88 -123q76 -37 186 -37 q68 0 138 29.5t116 75.5q82 82 154 237q111 238 217 498q70 182 70 233q0 25 -10 35q-9 9 -158 9q-3 0 -4 17t1 33.5t7 16.5q152 4 280 4q26 0 94.5 -1t102.5 -1q4 0 5 -16.5t-1.5 -32.5t-7.5 -16q-145 0 -166 -21q-40 -40 -115 -221q-167 -396 -256 -592 q-70 -155 -159 -244q-52 -52 -143 -87.5t-173 -35.5q-164 0 -278 58q-65 33 -103.5 83t-38.5 115zM801 1542q0 28 26 53t54 25q25 0 41 -13.5t36 -47.5q28 -49 68 -109q38 -62 61 -92q0 -10 -18.5 -27t-28.5 -14q-24 21 -59 48.5t-72.5 56.5t-48.5 38q-59 45 -59 82z" />
<glyph unicode="&#xda;" horiz-adv-x="1306" d="M147 233q0 68 39 154q191 438 299 703q28 68 15 81q-3 3 -144 9q-9 0 -8.5 33.5t8.5 33.5q30 -1 108.5 -3.5t141.5 -2.5q48 0 252 4q3 0 3.5 -16.5t-1 -32.5t-4.5 -16q-140 -4 -162 -15t-49 -75q-204 -463 -303 -703q-41 -94 -41 -170q0 -78 88 -123q76 -37 186 -37 q68 0 138 29.5t116 75.5q82 82 154 237q111 238 217 498q70 182 70 233q0 25 -10 35q-9 9 -158 9q-3 0 -4 17t1 33.5t7 16.5q152 4 280 4q26 0 94.5 -1t102.5 -1q4 0 5 -16.5t-1.5 -32.5t-7.5 -16q-145 0 -166 -21q-40 -40 -115 -221q-167 -396 -256 -592 q-70 -155 -159 -244q-52 -52 -143 -87.5t-173 -35.5q-164 0 -278 58q-65 33 -103.5 83t-38.5 115zM918 1346q28 16 106 69q45 32 211 160q59 45 104 45q28 0 48 -16.5t20 -38.5q0 -30 -23.5 -52t-80.5 -49q-67 -29 -195.5 -86.5t-161.5 -72.5z" />
<glyph unicode="&#xdb;" horiz-adv-x="1306" d="M147 233q0 68 39 154q191 438 299 703q28 68 15 81q-3 3 -144 9q-9 0 -8.5 33.5t8.5 33.5q30 -1 108.5 -3.5t141.5 -2.5q48 0 252 4q3 0 3.5 -16.5t-1 -32.5t-4.5 -16q-140 -4 -162 -15t-49 -75q-204 -463 -303 -703q-41 -94 -41 -170q0 -78 88 -123q76 -37 186 -37 q68 0 138 29.5t116 75.5q82 82 154 237q111 238 217 498q70 182 70 233q0 25 -10 35q-9 9 -158 9q-3 0 -4 17t1 33.5t7 16.5q152 4 280 4q26 0 94.5 -1t102.5 -1q4 0 5 -16.5t-1.5 -32.5t-7.5 -16q-145 0 -166 -21q-40 -40 -115 -221q-167 -396 -256 -592 q-70 -155 -159 -244q-52 -52 -143 -87.5t-173 -35.5q-164 0 -278 58q-65 33 -103.5 83t-38.5 115zM774 1368q70 47 207 148q37 29 94 79q41 13 82 13q14 0 31 -17q12 -69 57 -227q2 -5 -29 -19.5t-38 -11.5q-14 21 -34 52t-33 50t-26 35q-28 -14 -276 -143q-4 -3 -15.5 5.5 t-18.5 19.5t-1 16z" />
<glyph unicode="&#xdc;" horiz-adv-x="1306" d="M147 233q0 68 39 154q191 438 299 703q28 68 15 81q-3 3 -144 9q-9 0 -8.5 33.5t8.5 33.5q30 -1 108.5 -3.5t141.5 -2.5q48 0 252 4q3 0 3.5 -16.5t-1 -32.5t-4.5 -16q-140 -4 -162 -15t-49 -75q-204 -463 -303 -703q-41 -94 -41 -170q0 -78 88 -123q76 -37 186 -37 q68 0 138 29.5t116 75.5q82 82 154 237q111 238 217 498q70 182 70 233q0 25 -10 35q-9 9 -158 9q-3 0 -4 17t1 33.5t7 16.5q152 4 280 4q26 0 94.5 -1t102.5 -1q4 0 5 -16.5t-1.5 -32.5t-7.5 -16q-145 0 -166 -21q-40 -40 -115 -221q-167 -396 -256 -592 q-70 -155 -159 -244q-52 -52 -143 -87.5t-173 -35.5q-164 0 -278 58q-65 33 -103.5 83t-38.5 115zM791 1452q0 43 31 76t75 33q42 0 72 -31t30 -78q0 -44 -31.5 -76.5t-76.5 -32.5t-72.5 32.5t-27.5 76.5zM1122 1454q0 39 31.5 75t75.5 36t73 -33.5t29 -77.5 q0 -48 -29.5 -80.5t-76.5 -32.5q-45 0 -74 33.5t-29 79.5z" />
<glyph unicode="&#xdd;" horiz-adv-x="1236" d="M182 28.5q0 32.5 6 32.5q182 6 201 15q10 5 29 35.5t39 78.5q87 204 153 390q4 7 0 18q-29 122 -123 463q-25 92 -49 104q-17 9 -143 13q-3 0 -3.5 17t1 33.5t4.5 16.5q318 -6 506 0q4 0 4.5 -16.5t-2 -32.5t-6.5 -16q-150 -9 -154 -13q-20 -20 4 -127 q19 -78 53.5 -206.5t47.5 -176.5q196 184 344 336q102 102 102 146q0 24 -8 28q-18 9 -156 13q-2 0 -2.5 17t0.5 33.5t4 16.5q159 -6 295 -6q137 0 219 4q3 0 4.5 -15.5t1 -31.5t-3.5 -16q-17 -2 -58.5 -5t-63.5 -5.5t-29 -6.5q-38 -18 -176 -147q-198 -183 -453 -426 q-8 -9 -12 -19q-30 -73 -83 -209.5t-81 -205.5q-24 -64 -10 -78q7 -7 190 -17q8 0 8 -33.5t-8 -33.5q-281 11 -586 0q-6 0 -6 32.5zM866 1346q35 20 107 69q45 32 211 160q59 45 104 45q28 0 48 -16.5t20 -38.5q0 -30 -23.5 -52t-81.5 -49q-66 -28 -190.5 -84.5 t-165.5 -74.5z" />
<glyph unicode="&#xde;" horiz-adv-x="1099" d="M-110 18.5q-1 16.5 0.5 33t5.5 16.5q166 4 178 10q11 6 39 63q182 420 395 951q23 57 21 67q-1 6 -5 10q-5 5 -166 13q-3 0 -3.5 17t1 33.5t4.5 16.5q94 -4 277 -4q61 0 156 -1t116 -1q4 0 5 -16.5t-1 -32.5t-6 -16q-184 0 -198 -7q-6 -3 -52 -98q-23 -48 -28 -63 q-11 -27 0 -27q9 0 40.5 2t61.5 2q138 0 240 -51q151 -76 151 -238q0 -97 -65.5 -182.5t-175.5 -140.5q-165 -82 -381 -82q-88 0 -160 10q-6 -2 -16 -27q-34 -81 -68 -170q-9 -25 4 -30q162 -11 217 -13q5 0 5 -32.5t-5 -32.5q-109 2 -307 2q-41 0 -132 1t-144 1 q-3 0 -4 16.5zM373 391q-6 -14 2 -16q97 -13 188 -13q83 0 161.5 29t123.5 74q119 119 119 278q0 78 -43 121q-51 51 -172 51q-142 0 -154 -6q-8 -4 -18 -24q-65 -143 -207 -494z" />
<glyph unicode="&#xdf;" horiz-adv-x="1069" d="M47 25q51 125 150.5 356t142.5 334q3 4 1 5.5t-3.5 2t-5.5 0.5q-22 0 -63 0.5t-71 0.5t-53 -1q-4 0 -4 18t2.5 36t6.5 18q5 0 69 -1t105.5 -0.5t44.5 3.5q14 14 32 61q93 215 185 307q144 144 299 144q104 0 190 -86q76 -76 76 -160q0 -73 -44 -126t-136 -99 q-100 -50 -260 -86q146 -97 214 -180t68 -175q0 -107 -78 -204.5t-192 -155.5q-86 -43 -164 -43q-86 0 -149 63q-45 45 -45 107q0 41 35 74.5t77 33.5q33 0 55.5 -18.5t22.5 -50.5q0 -33 -20 -53q-12 -12 -26.5 -20t-25 -11.5t-17.5 -8t-7 -10.5q0 -18 31.5 -36.5 t68.5 -18.5q88 0 143 55q51 51 98.5 168.5t47.5 188.5q0 93 -68 161q-50 50 -137 115q-4 3 7.5 33.5t17.5 32.5q104 23 154 44t85 56q105 105 105 225q0 51 -31 82q-37 37 -104 37q-89 0 -152 -63q-75 -76 -147 -238q-10 -24 -394 -934q-7 -10 -16 -10q-66 2 -100 2 q-31 0 -21 25z" />
<glyph unicode="&#xe0;" d="M55 246q0 182 166 348q105 105 219.5 167t206.5 62q53 0 94 -27t60 -71q50 98 55 98q11 0 56.5 -7.5t48.5 -10.5t6.5 -19.5t1.5 -21.5q-68 -149 -211 -518q-31 -76 -31 -133q0 -22 10 -38t29 -16q41 0 85 33.5t130 140.5q2 2 14.5 -5.5t24 -16t10.5 -10.5 q-86 -121 -152.5 -170t-138.5 -49q-56 0 -99.5 36t-43.5 93q0 51 12 92q-60 -82 -152 -152.5t-177 -70.5q-83 0 -153.5 77t-70.5 189zM188 172q0 -57 31 -89t82 -32q83 0 187.5 95t152.5 192q61 122 92 204t31 105q0 42 -37 78.5t-96 36.5q-197 0 -371 -350 q-72 -145 -72 -240zM526 1184q0 29 24 55.5t50 26.5q24 0 39 -14.5t33 -51.5q25 -55 65 -125q34 -63 60 -102q0 -11 -16.5 -28.5t-26.5 -16.5q-69 71 -172 164q-56 50 -56 92z" />
<glyph unicode="&#xe1;" d="M55 246q0 182 166 348q105 105 219.5 167t206.5 62q53 0 94 -27t60 -71q50 98 55 98q11 0 56.5 -7.5t48.5 -10.5t6.5 -19.5t1.5 -21.5q-68 -149 -211 -518q-31 -76 -31 -133q0 -22 10 -38t29 -16q41 0 85 33.5t130 140.5q2 2 14.5 -5.5t24 -16t10.5 -10.5 q-86 -121 -152.5 -170t-138.5 -49q-56 0 -99.5 36t-43.5 93q0 51 12 92q-60 -82 -152 -152.5t-177 -70.5q-83 0 -153.5 77t-70.5 189zM188 172q0 -57 31 -89t82 -32q83 0 187.5 95t152.5 192q61 122 92 204t31 105q0 42 -37 78.5t-96 36.5q-197 0 -371 -350 q-72 -145 -72 -240zM606 961q48 33 101 77q111 89 204 179q57 49 99 49q27 0 44 -17t17 -41q0 -34 -21 -57t-75 -51q-62 -32 -177 -94t-165 -88z" />
<glyph unicode="&#xe2;" d="M55 246q0 182 166 348q105 105 219.5 167t206.5 62q53 0 94 -27t60 -71q50 98 55 98q11 0 56.5 -7.5t48.5 -10.5t6.5 -19.5t1.5 -21.5q-68 -149 -211 -518q-31 -76 -31 -133q0 -22 10 -38t29 -16q41 0 85 33.5t130 140.5q2 2 14.5 -5.5t24 -16t10.5 -10.5 q-86 -121 -152.5 -170t-138.5 -49q-56 0 -99.5 36t-43.5 93q0 51 12 92q-60 -82 -152 -152.5t-177 -70.5q-83 0 -153.5 77t-70.5 189zM188 172q0 -57 31 -89t82 -32q83 0 187.5 95t152.5 192q61 122 92 204t31 105q0 42 -37 78.5t-96 36.5q-197 0 -371 -350 q-72 -145 -72 -240zM496 981q85 67 198 168q16 15 90 88q30 12 78 12q16 0 27 -14q3 -26 24 -120.5t31 -135.5q2 -6 -26 -21t-37 -12q-59 116 -88 156q-97 -57 -265 -164q-7 -3 -23.5 16.5t-8.5 26.5z" />
<glyph unicode="&#xe3;" d="M55 246q0 182 166 348q105 105 219.5 167t206.5 62q53 0 94 -27t60 -71q50 98 55 98q11 0 56.5 -7.5t48.5 -10.5t6.5 -19.5t1.5 -21.5q-68 -149 -211 -518q-31 -76 -31 -133q0 -22 10 -38t29 -16q41 0 85 33.5t130 140.5q2 2 14.5 -5.5t24 -16t10.5 -10.5 q-86 -121 -152.5 -170t-138.5 -49q-56 0 -99.5 36t-43.5 93q0 51 12 92q-60 -82 -152 -152.5t-177 -70.5q-83 0 -153.5 77t-70.5 189zM188 172q0 -57 31 -89t82 -32q83 0 187.5 95t152.5 192q61 122 92 204t31 105q0 42 -37 78.5t-96 36.5q-197 0 -371 -350 q-72 -145 -72 -240zM465 969q35 93 95 151t128 58q50 0 111 -41q49 -35 92 -35q45 0 117 96l45 -22q-55 -94 -103 -142q-57 -57 -106 -57q-60 0 -125 45q-55 39 -92 39q-60 0 -113 -109z" />
<glyph unicode="&#xe4;" d="M55 246q0 182 166 348q105 105 219.5 167t206.5 62q53 0 94 -27t60 -71q50 98 55 98q11 0 56.5 -7.5t48.5 -10.5t6.5 -19.5t1.5 -21.5q-68 -149 -211 -518q-31 -76 -31 -133q0 -22 10 -38t29 -16q41 0 85 33.5t130 140.5q2 2 14.5 -5.5t24 -16t10.5 -10.5 q-86 -121 -152.5 -170t-138.5 -49q-56 0 -99.5 36t-43.5 93q0 51 12 92q-60 -82 -152 -152.5t-177 -70.5q-83 0 -153.5 77t-70.5 189zM188 172q0 -57 31 -89t82 -32q83 0 187.5 95t152.5 192q61 122 92 204t31 105q0 42 -37 78.5t-96 36.5q-197 0 -371 -350 q-72 -145 -72 -240zM514 1069q0 45 30 79t72 34q39 0 69 -32.5t30 -80.5q0 -45 -30.5 -79t-74.5 -34q-45 0 -70.5 33.5t-25.5 79.5zM817 1071q0 41 30.5 78t72.5 37q43 0 70.5 -34.5t27.5 -80.5q0 -50 -29 -83.5t-74 -33.5q-43 0 -70.5 35t-27.5 82z" />
<glyph unicode="&#xe5;" d="M55 246q0 182 166 348q105 105 219.5 167t206.5 62q53 0 94 -27t60 -71q50 98 55 98q11 0 56.5 -7.5t48.5 -10.5t6.5 -19.5t1.5 -21.5q-68 -149 -211 -518q-31 -76 -31 -133q0 -22 10 -38t29 -16q41 0 85 33.5t130 140.5q2 2 14.5 -5.5t24 -16t10.5 -10.5 q-86 -121 -152.5 -170t-138.5 -49q-56 0 -99.5 36t-43.5 93q0 51 12 92q-60 -82 -152 -152.5t-177 -70.5q-83 0 -153.5 77t-70.5 189zM188 172q0 -57 31 -89t82 -32q83 0 187.5 95t152.5 192q61 122 92 204t31 105q0 42 -37 78.5t-96 36.5q-197 0 -371 -350 q-72 -145 -72 -240zM608 1100q0 75 48.5 127.5t121.5 52.5q76 0 125 -50.5t49 -131.5q0 -76 -51 -122t-127 -46q-65 0 -115.5 49.5t-50.5 120.5zM668 1100q0 -45 33 -79t77 -34q48 0 81.5 31t33.5 80q0 54 -31.5 89.5t-83.5 35.5q-49 0 -79.5 -36t-30.5 -87z" />
<glyph unicode="&#xe6;" horiz-adv-x="1384" d="M27 184q0 64 41 121t112 92q144 72 441 43q3 8 18.5 38t24.5 52q22 52 22 103q0 55 -41 90t-113 35q-114 0 -114 -25q0 -4 2.5 -9t7 -12.5t6.5 -11.5q10 -20 10 -38q0 -42 -33.5 -73.5t-78.5 -31.5q-35 0 -57.5 24t-22.5 60q0 39 26 75t74 60q90 45 207 45q81 0 153 -44 t91 -130q91 84 190.5 129t192.5 45q91 0 139.5 -49.5t48.5 -124.5q0 -61 -44.5 -118t-121.5 -95q-80 -40 -151 -58t-164 -18q-31 0 -150 9q-28 -76 -28 -140q0 -180 155 -180q81 0 166 60t154 151q1 2 13.5 -6.5t24 -19t9.5 -13.5q-68 -98 -172.5 -171t-198.5 -73 q-103 0 -176 45.5t-106 116.5q-165 -155 -318 -155q-113 0 -178 65q-61 61 -61 137zM174 150q0 -44 29.5 -72.5t81.5 -28.5q132 0 282 137q-6 27 -6 54q0 76 29 143q-144 12 -221 -3t-123 -61q-33 -33 -52.5 -79.5t-19.5 -89.5zM768 424q86 -4 123 -4q96 0 157.5 18.5 t106.5 63.5q66 66 66 162q0 46 -21 70t-59 24q-51 0 -112 -31t-114 -84q-85 -85 -147 -219z" />
<glyph unicode="&#xe7;" horiz-adv-x="890" d="M-29 -295q-2 2 11 15t27.5 24t17.5 8q56 -67 127 -67q63 0 104 41q35 35 35 71q0 37 -47 37q-24 0 -60 -8q-4 -1 -11.5 4t-13 11.5t-3.5 8.5l123 134q-84 19 -142 77q-82 82 -82 191q0 93 44 183.5t122 168.5q92 92 215.5 156.5t214.5 64.5q114 0 183 -69q47 -47 47 -107 q0 -52 -37 -89.5t-88 -37.5q-39 0 -63.5 21.5t-24.5 56.5q0 28 13.5 51.5t29 34.5t32 20.5t17.5 10.5q6 6 -5 17t-41 20.5t-69 9.5q-108 0 -211 -99t-176 -245q-53 -106 -53 -207q0 -54 22 -100q15 -31 47 -49.5t70 -18.5q112 0 227 115q61 61 121 139q2 3 16 -4t27 -16.5 t11 -12.5q-56 -76 -123 -143q-137 -137 -275 -146l-78 -88h31q50 0 80.5 -22.5t30.5 -59.5q0 -39 -35 -79.5t-84 -65.5q-77 -39 -148 -39q-56 0 -95.5 19t-80.5 63z" />
<glyph unicode="&#xe8;" horiz-adv-x="878" d="M55 242q0 86 45.5 181.5t126.5 176.5q91 91 228.5 155t222.5 64q90 0 141 -48t51 -116q0 -74 -75 -149q-71 -71 -180 -108.5t-242 -37.5q-67 0 -131 9q-31 -78 -31 -136q0 -91 40 -140.5t111 -49.5q145 0 320 219q1 2 14 -5.5t25 -17t10 -12.5q-184 -247 -393 -247 q-125 0 -204 78.5t-79 183.5zM266 426q58 -6 115 -6q188 0 262 74q68 68 68 176q0 88 -80 88q-90 0 -186 -82.5t-160 -210.5q-3 -6 -9.5 -19.5t-9.5 -19.5zM518 1184q0 29 24 55.5t50 26.5q24 0 39 -14.5t33 -51.5q25 -55 65 -125q39 -71 59 -102q0 -11 -16.5 -28.5 t-26.5 -16.5q-69 71 -172 164q-55 49 -55 92z" />
<glyph unicode="&#xe9;" horiz-adv-x="878" d="M55 242q0 86 45.5 181.5t126.5 176.5q91 91 228.5 155t222.5 64q90 0 141 -48t51 -116q0 -74 -75 -149q-71 -71 -180 -108.5t-242 -37.5q-67 0 -131 9q-31 -78 -31 -136q0 -91 40 -140.5t111 -49.5q145 0 320 219q1 2 14 -5.5t25 -17t10 -12.5q-184 -247 -393 -247 q-125 0 -204 78.5t-79 183.5zM266 426q58 -6 115 -6q188 0 262 74q68 68 68 176q0 88 -80 88q-90 0 -186 -82.5t-160 -210.5q-3 -6 -9.5 -19.5t-9.5 -19.5zM600 961q42 29 100 77q117 94 205 179q57 49 99 49q27 0 44 -17t17 -41q0 -34 -21 -57t-75 -51q-62 -32 -177 -94 t-165 -88z" />
<glyph unicode="&#xea;" horiz-adv-x="878" d="M55 242q0 86 45.5 181.5t126.5 176.5q91 91 228.5 155t222.5 64q90 0 141 -48t51 -116q0 -74 -75 -149q-71 -71 -180 -108.5t-242 -37.5q-67 0 -131 9q-31 -78 -31 -136q0 -91 40 -140.5t111 -49.5q145 0 320 219q1 2 14 -5.5t25 -17t10 -12.5q-184 -247 -393 -247 q-125 0 -204 78.5t-79 183.5zM266 426q58 -6 115 -6q188 0 262 74q68 68 68 176q0 88 -80 88q-90 0 -186 -82.5t-160 -210.5q-3 -6 -9.5 -19.5t-9.5 -19.5zM487 981q94 74 199 168q16 15 90 88q30 12 78 12q16 0 27 -14q3 -26 24 -120.5t31 -135.5q2 -6 -26.5 -21t-37.5 -12 q-59 116 -88 156q-81 -48 -264 -164q-7 -3 -24 16.5t-9 26.5z" />
<glyph unicode="&#xeb;" horiz-adv-x="878" d="M55 242q0 86 45.5 181.5t126.5 176.5q91 91 228.5 155t222.5 64q90 0 141 -48t51 -116q0 -74 -75 -149q-71 -71 -180 -108.5t-242 -37.5q-67 0 -131 9q-31 -78 -31 -136q0 -91 40 -140.5t111 -49.5q145 0 320 219q1 2 14 -5.5t25 -17t10 -12.5q-184 -247 -393 -247 q-125 0 -204 78.5t-79 183.5zM266 426q58 -6 115 -6q188 0 262 74q68 68 68 176q0 88 -80 88q-90 0 -186 -82.5t-160 -210.5q-3 -6 -9.5 -19.5t-9.5 -19.5zM506 1069q0 45 30 79t72 34q39 0 69 -32.5t30 -80.5q0 -45 -30.5 -79t-74.5 -34q-45 0 -70.5 33.5t-25.5 79.5z M809 1071q0 41 30 78t72 37q43 0 71 -34.5t28 -80.5q0 -50 -29 -83.5t-74 -33.5q-43 0 -70.5 35t-27.5 82z" />
<glyph unicode="&#xec;" horiz-adv-x="620" d="M123 135q0 55 41 148q86 189 178 405q10 25 6 29q-12 12 -209 12q-3 0 -3.5 16t1 32t4.5 16q43 3 176 3t203 -3q8 -2 4.5 -23.5t-12.5 -38.5q-22 -47 -127.5 -288.5t-120.5 -280.5q-10 -29 -10 -53q0 -20 14 -36t37 -16q38 0 87.5 38.5t146.5 144.5q3 3 26 -15.5 t21 -21.5q-105 -128 -170.5 -175.5t-130.5 -47.5q-64 0 -117 53q-45 45 -45 102zM203 1184q0 29 23.5 55.5t49.5 26.5q24 0 39 -14.5t33 -51.5q21 -47 66 -125q39 -71 59 -102q0 -11 -16.5 -28.5t-26.5 -16.5q-69 71 -172 164q-55 49 -55 92z" />
<glyph unicode="&#xed;" horiz-adv-x="620" d="M123 135q0 55 41 148q86 189 178 405q10 25 6 29q-12 12 -209 12q-3 0 -3.5 16t1 32t4.5 16q43 3 176 3t203 -3q8 -2 4.5 -23.5t-12.5 -38.5q-22 -47 -127.5 -288.5t-120.5 -280.5q-10 -29 -10 -53q0 -20 14 -36t37 -16q38 0 87.5 38.5t146.5 144.5q3 3 26 -15.5 t21 -21.5q-105 -128 -170.5 -175.5t-130.5 -47.5q-64 0 -117 53q-45 45 -45 102zM283 961q42 29 100 77q117 94 205 179q57 49 98 49q27 0 44.5 -17t17.5 -41q0 -33 -21 -56.5t-76 -51.5q-62 -32 -177 -94t-165 -88z" />
<glyph unicode="&#xee;" horiz-adv-x="620" d="M123 135q0 55 41 148q86 189 178 405q10 25 6 29q-12 12 -209 12q-3 0 -3.5 16t1 32t4.5 16q43 3 176 3t203 -3q8 -2 4.5 -23.5t-12.5 -38.5q-22 -47 -127.5 -288.5t-120.5 -280.5q-10 -29 -10 -53q0 -20 14 -36t37 -16q38 0 87.5 38.5t146.5 144.5q3 3 26 -15.5 t21 -21.5q-105 -128 -170.5 -175.5t-130.5 -47.5q-64 0 -117 53q-45 45 -45 102zM170 981q94 74 199 168q17 15 90 88q30 12 78 12q15 0 26 -14q3 -26 24 -120.5t31 -135.5q2 -6 -26 -21t-37 -12q-59 116 -88 156q-81 -48 -264 -164q-7 -3 -24 16.5t-9 26.5z" />
<glyph unicode="&#xef;" horiz-adv-x="620" d="M123 135q0 55 41 148q86 189 178 405q10 25 6 29q-12 12 -209 12q-3 0 -3.5 16t1 32t4.5 16q43 3 176 3t203 -3q8 -2 4.5 -23.5t-12.5 -38.5q-22 -47 -127.5 -288.5t-120.5 -280.5q-10 -29 -10 -53q0 -20 14 -36t37 -16q38 0 87.5 38.5t146.5 144.5q3 3 26 -15.5 t21 -21.5q-105 -128 -170.5 -175.5t-130.5 -47.5q-64 0 -117 53q-45 45 -45 102zM190 1069q0 45 30.5 79t72.5 34q39 0 68.5 -32.5t29.5 -80.5q0 -45 -30.5 -79t-73.5 -34q-45 0 -71 33.5t-26 79.5zM494 1071q0 41 30 78t72 37q43 0 70.5 -34.5t27.5 -80.5 q0 -50 -28.5 -83.5t-73.5 -33.5q-43 0 -70.5 35t-27.5 82z" />
<glyph unicode="&#xf0;" horiz-adv-x="980" d="M68 283q0 166 159 325q92 92 202.5 154.5t207.5 62.5q45 0 89 -22t71 -68q14 181 -78 326l-273 -131q-8 0 -16.5 27t-5.5 34q115 56 258 123q-41 55 -123 137q0 8 21 29t28 20q76 -63 152 -149q28 13 108.5 51.5t132.5 63.5q2 1 5 -5q15 -25 16 -50q0 -6 -2 -7l-219 -104 q42 -58 69 -113q39 -78 55.5 -157.5t16.5 -194.5q0 -120 -55 -252.5t-139 -216.5q-85 -85 -189.5 -140t-212.5 -55t-190 82q-88 88 -88 230zM213 186q0 -67 38.5 -110t108.5 -43q117 0 207 90q84 84 149.5 242.5t65.5 265.5q0 58 -40.5 94.5t-102.5 38.5q-114 3 -219 -102 q-90 -90 -148.5 -229t-58.5 -247z" />
<glyph unicode="&#xf1;" horiz-adv-x="1099" d="M41 12q113 247 201 457q95 237 80 252q-2 2 -46.5 2.5t-95.5 0.5t-61 1q-3 0 -3 16.5t2 33t5 16.5q332 0 362 6q3 0 6.5 -3.5t2.5 -7.5q-36 -110 -97 -266q-2 -3 2 -7t7 -1q138 179 215 246t157 67q82 0 137 -55q50 -50 50 -117q0 -47 -15.5 -88t-69.5 -154 q-10 -22 -16 -34q-98 -201 -98 -254q0 -24 14.5 -39.5t36.5 -15.5q37 0 87 36.5t124 118.5q2 2 14.5 -6.5t23.5 -18.5t9 -12q-63 -77 -144.5 -139.5t-150.5 -62.5q-61 0 -106 45q-43 43 -43 110q0 68 102 277q52 106 70 155t18 80q0 37 -22.5 60.5t-57.5 23.5 q-38 0 -71.5 -22.5t-102.5 -91.5q-94 -94 -178.5 -213.5t-109.5 -180.5q-12 -30 -45.5 -107t-49.5 -116q-1 -2 -14 -3t-33 -1t-39.5 0.5t-36 1t-18.5 0.5q-5 0 -2 10zM453 969q35 93 95 151t128 58q49 0 110 -41q49 -35 93 -35t116 96l45 -22q-57 -97 -102 -142 q-57 -57 -107 -57q-59 0 -124 45q-55 39 -93 39q-59 0 -112 -109z" />
<glyph unicode="&#xf2;" horiz-adv-x="1005" d="M68 283q0 162 161 323q89 89 211 153t224 64q117 0 199.5 -89t82.5 -214q0 -89 -44.5 -182t-123.5 -172q-89 -89 -201.5 -142t-222.5 -53q-52 0 -106.5 22.5t-97.5 65.5q-82 82 -82 224zM213 186q0 -69 42 -111t118 -42q65 0 119.5 20.5t109.5 75.5q85 85 145 233.5 t60 247.5q0 66 -38.5 109t-104.5 43q-133 0 -250 -117q-88 -88 -144.5 -218.5t-56.5 -240.5zM567 1184q0 29 24 55.5t50 26.5q24 0 39 -14.5t33 -51.5q25 -55 65 -125q34 -63 60 -102q0 -11 -16.5 -28.5t-26.5 -16.5q-69 71 -172 164q-56 50 -56 92z" />
<glyph unicode="&#xf3;" horiz-adv-x="1005" d="M68 283q0 162 161 323q89 89 211 153t224 64q117 0 199.5 -89t82.5 -214q0 -89 -44.5 -182t-123.5 -172q-89 -89 -201.5 -142t-222.5 -53q-52 0 -106.5 22.5t-97.5 65.5q-82 82 -82 224zM213 186q0 -69 42 -111t118 -42q65 0 119.5 20.5t109.5 75.5q85 85 145 233.5 t60 247.5q0 66 -38.5 109t-104.5 43q-133 0 -250 -117q-88 -88 -144.5 -218.5t-56.5 -240.5zM647 961q48 33 101 77q111 89 204 179q57 49 99 49q27 0 44 -17t17 -41q0 -34 -21 -57t-75 -51q-62 -32 -177 -94t-165 -88z" />
<glyph unicode="&#xf4;" horiz-adv-x="1005" d="M68 283q0 162 161 323q89 89 211 153t224 64q117 0 199.5 -89t82.5 -214q0 -89 -44.5 -182t-123.5 -172q-89 -89 -201.5 -142t-222.5 -53q-52 0 -106.5 22.5t-97.5 65.5q-82 82 -82 224zM213 186q0 -69 42 -111t118 -42q65 0 119.5 20.5t109.5 75.5q85 85 145 233.5 t60 247.5q0 66 -38.5 109t-104.5 43q-133 0 -250 -117q-88 -88 -144.5 -218.5t-56.5 -240.5zM535 981q85 67 198 168q17 15 90 88q30 12 78 12q17 0 27 -14q3 -26 24 -120.5t31 -135.5q2 -6 -26 -21t-37 -12q-57 110 -89 156q-81 -48 -264 -164q-7 -3 -23.5 16.5t-8.5 26.5z " />
<glyph unicode="&#xf5;" horiz-adv-x="1005" d="M68 283q0 162 161 323q89 89 211 153t224 64q117 0 199.5 -89t82.5 -214q0 -89 -44.5 -182t-123.5 -172q-89 -89 -201.5 -142t-222.5 -53q-52 0 -106.5 22.5t-97.5 65.5q-82 82 -82 224zM213 186q0 -69 42 -111t118 -42q65 0 119.5 20.5t109.5 75.5q85 85 145 233.5 t60 247.5q0 66 -38.5 109t-104.5 43q-133 0 -250 -117q-88 -88 -144.5 -218.5t-56.5 -240.5zM506 969q35 93 95 151t128 58q50 0 111 -41q49 -35 92 -35q45 0 117 96l45 -22q-55 -94 -103 -142q-57 -57 -106 -57q-60 0 -125 45q-55 39 -92 39q-60 0 -113 -109z" />
<glyph unicode="&#xf6;" horiz-adv-x="1005" d="M68 283q0 162 161 323q89 89 211 153t224 64q117 0 199.5 -89t82.5 -214q0 -89 -44.5 -182t-123.5 -172q-89 -89 -201.5 -142t-222.5 -53q-52 0 -106.5 22.5t-97.5 65.5q-82 82 -82 224zM213 186q0 -69 42 -111t118 -42q65 0 119.5 20.5t109.5 75.5q85 85 145 233.5 t60 247.5q0 66 -38.5 109t-104.5 43q-133 0 -250 -117q-88 -88 -144.5 -218.5t-56.5 -240.5zM555 1069q0 45 30 79t72 34q39 0 69 -32.5t30 -80.5q0 -45 -30.5 -79t-74.5 -34q-45 0 -70.5 33.5t-25.5 79.5zM858 1071q0 41 30.5 78t72.5 37q43 0 70.5 -34.5t27.5 -80.5 q0 -50 -29 -83.5t-74 -33.5q-43 0 -70.5 35t-27.5 82z" />
<glyph unicode="&#xf7;" d="M240 692q0 6 10 6h784q6 -3 6 -8q0 -2 -2 -21t-3.5 -29.5t-4.5 -10.5h-784q-11 0 -6 63zM451 352q0 43 30.5 81t75.5 38q38 0 63 -29t25 -71q0 -51 -30 -86t-72 -35t-67 30t-25 72zM621 956q0 43 30.5 81t75.5 38q38 0 63 -29t25 -69q0 -51 -30.5 -87t-71.5 -36 q-42 0 -67 30t-25 72z" />
<glyph unicode="&#xf8;" horiz-adv-x="1005" d="M27 -20q63 63 104 100q-63 76 -63 203q0 162 161 323q89 89 211 153t224 64q100 0 176 -67q34 34 92 88q2 2 14.5 -5.5t23 -17t7.5 -12.5q-16 -15 -48.5 -46t-49.5 -48q67 -83 67 -195q0 -89 -44.5 -182t-123.5 -172q-89 -89 -201.5 -142t-222.5 -53q-99 0 -184 70 q-17 -17 -49.5 -48t-48.5 -46q-3 -3 -16 3.5t-23 16t-6 13.5zM213 186q0 -16 2 -24q77 73 274.5 260t292.5 278q-40 62 -118 62q-133 0 -250 -117q-88 -88 -144.5 -218.5t-56.5 -240.5zM233 102q40 -69 140 -69q65 0 119.5 20.5t109.5 75.5q85 85 145 233.5t60 247.5 q0 23 -2 33q-33 -31 -250.5 -237.5t-321.5 -303.5z" />
<glyph unicode="&#xf9;" horiz-adv-x="1099" d="M102 160q0 61 56 186q33 73 93 198.5t77 162.5q3 5 -1 9.5t-8 4.5q-100 4 -188 2q-6 0 -8.5 15.5t-1 31.5t7.5 16q164 8 375 11q16 0 8 -15q-128 -263 -221 -477q-43 -93 -43 -153q0 -40 22 -63t60 -23q58 0 118.5 37t137.5 114q53 53 94 133q93 184 192 436q4 11 17 11 q127 0 131 -4q7 -7 2 -21q-127 -279 -225 -498q-43 -94 -43 -159q0 -56 41 -56q33 0 83 36.5t140 133.5q3 3 15.5 -5t22.5 -18t7 -13q-106 -115 -170.5 -162t-130.5 -47q-69 0 -108.5 35.5t-39.5 89.5q0 33 11 67q0 3 -3.5 4t-5.5 -2q-77 -90 -163.5 -141t-165.5 -51 q-82 0 -137 55q-48 48 -48 119zM512 1184q0 29 24 55.5t50 26.5q24 0 38.5 -14.5t32.5 -51.5q21 -47 66 -125q39 -71 59 -102q0 -11 -16.5 -28.5t-26.5 -16.5q-69 71 -172 164q-55 49 -55 92z" />
<glyph unicode="&#xfa;" horiz-adv-x="1099" d="M102 160q0 61 56 186q33 73 93 198.5t77 162.5q3 5 -1 9.5t-8 4.5q-100 4 -188 2q-6 0 -8.5 15.5t-1 31.5t7.5 16q164 8 375 11q16 0 8 -15q-128 -263 -221 -477q-43 -93 -43 -153q0 -40 22 -63t60 -23q58 0 118.5 37t137.5 114q53 53 94 133q93 184 192 436q4 11 17 11 q127 0 131 -4q7 -7 2 -21q-127 -279 -225 -498q-43 -94 -43 -159q0 -56 41 -56q33 0 83 36.5t140 133.5q3 3 15.5 -5t22.5 -18t7 -13q-106 -115 -170.5 -162t-130.5 -47q-69 0 -108.5 35.5t-39.5 89.5q0 33 11 67q0 3 -3.5 4t-5.5 -2q-77 -90 -163.5 -141t-165.5 -51 q-82 0 -137 55q-48 48 -48 119zM594 961q42 29 100 77q117 94 205 179q57 49 98 49q27 0 44.5 -17t17.5 -41q0 -34 -21 -57t-75 -51q-62 -32 -177 -94t-165 -88z" />
<glyph unicode="&#xfb;" horiz-adv-x="1099" d="M102 160q0 61 56 186q33 73 93 198.5t77 162.5q3 5 -1 9.5t-8 4.5q-100 4 -188 2q-6 0 -8.5 15.5t-1 31.5t7.5 16q164 8 375 11q16 0 8 -15q-128 -263 -221 -477q-43 -93 -43 -153q0 -40 22 -63t60 -23q58 0 118.5 37t137.5 114q53 53 94 133q93 184 192 436q4 11 17 11 q127 0 131 -4q7 -7 2 -21q-127 -279 -225 -498q-43 -94 -43 -159q0 -56 41 -56q33 0 83 36.5t140 133.5q3 3 15.5 -5t22.5 -18t7 -13q-106 -115 -170.5 -162t-130.5 -47q-69 0 -108.5 35.5t-39.5 89.5q0 33 11 67q0 3 -3.5 4t-5.5 -2q-77 -90 -163.5 -141t-165.5 -51 q-82 0 -137 55q-48 48 -48 119zM481 981q94 74 199 168q16 15 90 88q30 12 78 12q16 0 26 -14q3 -26 24 -119t32 -137q2 -6 -26.5 -21t-37.5 -12q-59 116 -88 156q-81 -48 -264 -164q-7 -3 -24 16.5t-9 26.5z" />
<glyph unicode="&#xfc;" horiz-adv-x="1099" d="M102 160q0 61 56 186q33 73 93 198.5t77 162.5q3 5 -1 9.5t-8 4.5q-100 4 -188 2q-6 0 -8.5 15.5t-1 31.5t7.5 16q164 8 375 11q16 0 8 -15q-128 -263 -221 -477q-43 -93 -43 -153q0 -40 22 -63t60 -23q58 0 118.5 37t137.5 114q53 53 94 133q93 184 192 436q4 11 17 11 q127 0 131 -4q7 -7 2 -21q-127 -279 -225 -498q-43 -94 -43 -159q0 -56 41 -56q33 0 83 36.5t140 133.5q3 3 15.5 -5t22.5 -18t7 -13q-106 -115 -170.5 -162t-130.5 -47q-69 0 -108.5 35.5t-39.5 89.5q0 33 11 67q0 3 -3.5 4t-5.5 -2q-77 -90 -163.5 -141t-165.5 -51 q-82 0 -137 55q-48 48 -48 119zM500 1069q0 45 30 79t72 34q39 0 68.5 -32.5t29.5 -80.5q0 -45 -30.5 -79t-73.5 -34q-45 0 -70.5 33.5t-25.5 79.5zM803 1071q0 41 30 78t72 37q43 0 71 -34.5t28 -80.5q0 -50 -29 -83.5t-74 -33.5q-43 0 -70.5 35t-27.5 82z" />
<glyph unicode="&#xfd;" horiz-adv-x="1021" d="M-483 -301q0 50 35.5 90.5t82.5 40.5q37 0 61.5 -25.5t24.5 -60.5q0 -26 -10 -45t-21.5 -27t-21.5 -14.5t-10 -11.5q0 -14 25 -25.5t59 -11.5q83 0 201 59q82 41 172 109.5t151 142.5q25 147 42.5 339.5t17.5 320.5q0 72 -8.5 105.5t-32.5 33.5q-28 0 -67.5 -25 t-135.5 -102q-2 -2 -12.5 8.5t-19.5 22.5t-7 14q77 77 159 133.5t144 56.5q66 0 95.5 -49.5t29.5 -154.5q0 -112 -14.5 -281.5t-36.5 -273.5q-1 -3 0.5 -5t4 -2.5t3.5 0.5q147 156 245.5 278t132.5 179.5t34 79.5q0 18 -26 55.5t-26 77.5q0 47 27.5 73.5t65.5 26.5 q42 0 71 -30t29 -80t-31 -111q-53 -106 -207 -290t-356 -386q-235 -235 -420 -327q-128 -64 -248 -64q-63 0 -118 27q-84 43 -84 129zM520 961q48 33 101 77q111 89 204 179q57 49 99 49q27 0 44 -17t17 -41q0 -34 -21 -57t-75 -51q-62 -32 -177 -94t-165 -88z" />
<glyph unicode="&#xfe;" horiz-adv-x="1007" d="M-174 -446q3 11 71 172t144 341t92 220q144 331 223 501q87 193 150 357q16 43 16 55q0 23 -37 32t-153 15q-4 0 -5 15.5t1 31t6 15.5q144 -2 362 -15q8 0 12 -5.5t1 -12.5q-109 -249 -269 -604q-3 -6 1.5 -8.5t9.5 2.5q76 84 144.5 122.5t152.5 38.5t139 -55 q69 -69 69 -188q0 -120 -50 -228t-132 -190q-83 -83 -179.5 -139t-168.5 -56q-70 0 -130 42.5t-87 99.5q-25 -58 -118.5 -270.5t-131.5 -305.5q0 -4 -18 -4q-49 0 -113 8q-5 0 -2 13zM238 190q2 -22 16.5 -50t36.5 -50q27 -27 68.5 -43t76.5 -16q72 0 146 77t159 246 q90 181 90 283q0 57 -27 88t-79 31q-66 0 -146 -51t-139 -115.5t-86 -118.5q-67 -134 -116 -281z" />
<glyph unicode="&#xff;" horiz-adv-x="1021" d="M-483 -301q0 50 35.5 90.5t82.5 40.5q37 0 61.5 -25.5t24.5 -60.5q0 -26 -10 -45t-21.5 -27t-21.5 -14.5t-10 -11.5q0 -14 25 -25.5t59 -11.5q83 0 201 59q82 41 172 109.5t151 142.5q25 147 42.5 339.5t17.5 320.5q0 72 -8.5 105.5t-32.5 33.5q-28 0 -67.5 -25 t-135.5 -102q-2 -2 -12.5 8.5t-19.5 22.5t-7 14q77 77 159 133.5t144 56.5q66 0 95.5 -49.5t29.5 -154.5q0 -112 -14.5 -281.5t-36.5 -273.5q-1 -3 0.5 -5t4 -2.5t3.5 0.5q147 156 245.5 278t132.5 179.5t34 79.5q0 18 -26 55.5t-26 77.5q0 47 27.5 73.5t65.5 26.5 q42 0 71 -30t29 -80t-31 -111q-53 -106 -207 -290t-356 -386q-235 -235 -420 -327q-128 -64 -248 -64q-63 0 -118 27q-84 43 -84 129zM426 1069q0 45 30 79t72 34q39 0 69 -32.5t30 -80.5q0 -45 -30.5 -79t-74.5 -34q-45 0 -70.5 33.5t-25.5 79.5zM729 1071q0 41 30 78 t72 37q43 0 71 -34.5t28 -80.5q0 -50 -29 -83.5t-74 -33.5q-43 0 -70.5 35t-27.5 82z" />
<glyph unicode="&#x152;" horiz-adv-x="1759" d="M172 487q0 129 61.5 261t172.5 243q254 254 610 254q345 0 625 -3t290 -3q14 -7 11 -18q-1 -5 -158 -349q-5 -4 -16.5 -3.5t-23.5 3.5t-11 7q16 83 12.5 166.5t-29.5 109.5q-16 16 -250 16q-96 0 -120 -4q-9 -1 -21 -18q-10 -14 -88 -192t-100 -234q-4 -12 4 -12 q35 -4 122 4.5t107 15.5q36 29 105 164q2 4 19.5 5t34 -1.5t15.5 -7.5q-98 -213 -198 -475q-2 -8 -41 -3q-27 4 -25 11q47 151 27 190q-7 13 -74 18t-119 3q-12 0 -20 -17q-39 -79 -116 -269.5t-91 -248.5q-7 -21 6 -24q39 -6 194 -6q181 4 207 18q54 31 139 136.5 t148 215.5q4 3 18.5 2.5t30.5 -3t15 -5.5q-7 -19 -73 -185t-95 -241q-8 -8 -27 -8h-246q-115 -2 -205.5 -1.5t-213 2t-150.5 1.5q-205 0 -328 123q-69 69 -102 150t-33 212zM328 367q0 -111 28 -168q31 -61 107 -93t164 -32q54 0 75 8q23 28 263 600q156 372 184 451 q6 22 4 28t-14 8q-40 7 -148 7q-241 0 -377 -136q-114 -114 -200 -311.5t-86 -361.5z" />
<glyph unicode="&#x153;" horiz-adv-x="1544" d="M66 283q0 162 161 323q102 102 222 160.5t210 58.5q100 0 169 -61t90 -160q83 89 196.5 154t222.5 65q90 0 145.5 -49.5t55.5 -114.5q0 -66 -53.5 -128.5t-136.5 -104.5q-69 -35 -146 -50.5t-188 -15.5q-33 0 -105 7q-28 -79 -28 -138q0 -91 40 -137.5t115 -46.5 q66 0 138.5 51t168.5 162q3 4 18 -2.5t27.5 -16t8.5 -14.5q-106 -128 -196.5 -190t-199.5 -62q-85 0 -155.5 55.5t-89.5 139.5q-80 -90 -185 -143.5t-213 -53.5q-122 0 -206 84q-86 86 -86 228zM211 178q0 -63 41.5 -103t118.5 -40q133 0 237 104q87 87 142 228t55 247 q0 60 -37 104t-115 44q-128 0 -241 -113q-94 -94 -147.5 -227t-53.5 -244zM934 426q56 -6 96 -6q205 0 285 80q67 67 67 168q0 43 -22 66.5t-62 23.5q-92 0 -184 -77.5t-168 -229.5q-2 -4 -6 -12.5t-6 -12.5z" />
<glyph unicode="&#x178;" horiz-adv-x="1236" d="M182 28.5q0 32.5 6 32.5q182 6 201 15q10 5 29 35.5t39 78.5q87 204 153 390q4 7 0 18q-29 122 -123 463q-25 92 -49 104q-17 9 -143 13q-3 0 -3.5 17t1 33.5t4.5 16.5q318 -6 506 0q4 0 4.5 -16.5t-2 -32.5t-6.5 -16q-150 -9 -154 -13q-20 -20 4 -127 q19 -78 53.5 -206.5t47.5 -176.5q196 184 344 336q102 102 102 146q0 24 -8 28q-18 9 -156 13q-2 0 -2.5 17t0.5 33.5t4 16.5q159 -6 295 -6q137 0 219 4q3 0 4.5 -15.5t1 -31.5t-3.5 -16q-17 -2 -58.5 -5t-63.5 -5.5t-29 -6.5q-38 -18 -176 -147q-198 -183 -453 -426 q-8 -9 -12 -19q-30 -73 -83 -209.5t-81 -205.5q-24 -64 -10 -78q7 -7 190 -17q8 0 8 -33.5t-8 -33.5q-281 11 -586 0q-6 0 -6 32.5zM737 1452q0 43 31.5 76t75.5 33q42 0 72 -31t30 -78q0 -44 -31.5 -76.5t-76.5 -32.5t-73 32.5t-28 76.5zM1069 1454q0 39 31.5 75t75.5 36 t73 -33.5t29 -77.5q0 -48 -30 -80.5t-77 -32.5q-44 0 -73 33.5t-29 79.5z" />
<glyph unicode="&#x2c6;" horiz-adv-x="1024" d="M526 981q94 74 199 168q17 15 90 88q30 12 78 12q16 0 27 -14q3 -26 24 -120.5t31 -135.5q2 -6 -26.5 -21t-37.5 -12q-59 116 -88 156q-81 -48 -264 -164q-7 -3 -24 16.5t-9 26.5z" />
<glyph unicode="&#x2dc;" horiz-adv-x="1024" d="M496 969q35 93 95 151t128 58q49 0 110 -41q49 -35 93 -35t116 96l45 -22q-57 -97 -102 -142q-57 -57 -107 -57q-59 0 -124 45q-55 39 -93 39q-59 0 -112 -109z" />
<glyph unicode="&#x2000;" horiz-adv-x="825" />
<glyph unicode="&#x2001;" horiz-adv-x="1651" />
<glyph unicode="&#x2002;" horiz-adv-x="825" />
<glyph unicode="&#x2003;" horiz-adv-x="1651" />
<glyph unicode="&#x2004;" horiz-adv-x="550" />
<glyph unicode="&#x2005;" horiz-adv-x="412" />
<glyph unicode="&#x2006;" horiz-adv-x="275" />
<glyph unicode="&#x2007;" horiz-adv-x="275" />
<glyph unicode="&#x2008;" horiz-adv-x="206" />
<glyph unicode="&#x2009;" horiz-adv-x="330" />
<glyph unicode="&#x200a;" horiz-adv-x="91" />
<glyph unicode="&#x2010;" horiz-adv-x="698" d="M123 428q0 19 27 92q2 10 12 10q170 -2 448 2q6 0 6 -8q-3 -20 -24 -94q-3 -8 -12 -8q-78 2 -236 2q-131 0 -207 -2q-8 0 -14 6z" />
<glyph unicode="&#x2011;" horiz-adv-x="698" d="M123 428q0 19 27 92q2 10 12 10q170 -2 448 2q6 0 6 -8q-3 -20 -24 -94q-3 -8 -12 -8q-78 2 -236 2q-131 0 -207 -2q-8 0 -14 6z" />
<glyph unicode="&#x2012;" horiz-adv-x="698" d="M123 428q0 19 27 92q2 10 12 10q170 -2 448 2q6 0 6 -8q-3 -20 -24 -94q-3 -8 -12 -8q-78 2 -236 2q-131 0 -207 -2q-8 0 -14 6z" />
<glyph unicode="&#x2013;" horiz-adv-x="1044" d="M147 512q0 12 9 12q78 4 514 4q63 0 145.5 -1t136.5 -1q4 0 7.5 -3.5t3.5 -6.5v-80q0 -4 -11 -8q-61 0 -376.5 -3t-401.5 -3q-17 0 -22 8q-5 12 -5 82z" />
<glyph unicode="&#x2014;" horiz-adv-x="1966" d="M147 520q0 5 9 8q100 -2 860 -2q56 0 434.5 1t429.5 1q6 0 6 -6q0 -70 -4 -90q0 -6 -8 -6q-89 0 -733.5 -1t-769.5 -1h-213q-8 0 -8 4q0 3 -1.5 42t-1.5 50z" />
<glyph unicode="&#x2018;" horiz-adv-x="446" d="M291 889q0 129 108 237q99 99 244 140q9 2 14 -26.5t-4 -31.5q-112 -32 -196 -116q-64 -64 -64 -109q0 -16 10 -16q3 0 21.5 9t32.5 9q34 0 56 -23.5t22 -52.5q0 -62 -45.5 -108.5t-94.5 -46.5t-76.5 38.5t-27.5 96.5z" />
<glyph unicode="&#x2019;" horiz-adv-x="446" d="M267.5 793q-0.5 15 8.5 22q117 57 195 135q59 59 59 86q0 8 -6 8q-3 0 -20 -5t-27 -5q-32 0 -57 27.5t-25 68.5q0 54 37.5 94t91.5 40q56 0 88.5 -36.5t32.5 -94.5q0 -107 -106 -213q-93 -93 -240 -162q-12 -6 -21.5 7t-10 28z" />
<glyph unicode="&#x201a;" horiz-adv-x="497" d="M-89.5 -256.5q-1.5 13.5 3.5 18.5q115 45 203 123.5t88 124.5q0 13 -8 13q-2 0 -17.5 -11.5t-36.5 -11.5q-27 0 -48 26.5t-21 59.5q0 58 42.5 102.5t98.5 44.5q49 0 78 -36t29 -91q0 -130 -96 -224.5t-289 -174.5q-8 -3 -16.5 10t-10 26.5z" />
<glyph unicode="&#x201c;" horiz-adv-x="829" d="M287 887q0 127 96 223q87 87 266 158q7 3 14 -10t7.5 -26.5t-6.5 -19.5q-146 -70 -215 -139q-54 -54 -54 -96q0 -12 8 -12q10 0 30.5 9t39.5 9q28 0 49 -21t21 -59q0 -54 -47.5 -101.5t-102.5 -47.5q-48 0 -77 35t-29 98zM680 913q0 120 100 220q95 95 236 139 q9 1 14.5 -13t4 -29.5t-8.5 -17.5q-111 -43 -186 -118q-58 -58 -58 -103q0 -20 15 -20q7 0 29 9t40 9q26 0 45 -24t19 -60q0 -55 -37.5 -102t-99.5 -47q-53 0 -83 44t-30 113z" />
<glyph unicode="&#x201d;" horiz-adv-x="829" d="M269 794q-2 14 3 19q124 62 201 139q53 53 53 86q0 15 -8 15q-5 0 -19.5 -5.5t-25.5 -5.5q-31 0 -55.5 23.5t-24.5 62.5q0 50 38 93t93 43q54 0 86.5 -37.5t32.5 -93.5q0 -113 -94 -207q-84 -84 -258 -170q-6 -3 -13 10.5t-9 27.5zM644.5 798q-2.5 14 2.5 19 q118 59 203 144q53 53 53 81q0 9 -6 9t-20 -2t-21 -2q-38 0 -63 25.5t-25 62.5q0 48 41 87t94 38q52 -2 85.5 -39t33.5 -97q0 -98 -96 -194q-92 -92 -258 -170q-6 -3 -13.5 10.5t-10 27.5z" />
<glyph unicode="&#x201e;" horiz-adv-x="860" d="M-76.5 -254.5q-1.5 13.5 4.5 18.5q142 71 213 142q28 28 47 58t19 44q0 17 -8 17q-3 0 -23 -5.5t-33 -5.5q-26 0 -45.5 24.5t-19.5 59.5q0 54 36 96t91 42q54 0 86.5 -38t32.5 -92q0 -124 -97 -221q-90 -90 -280 -176q-7 -3 -14.5 10t-9 26.5zM297.5 -250.5 q-2.5 13.5 5.5 19.5q148 72 223 147q27 27 43.5 53.5t16.5 40.5q0 10 -8 10q-6 0 -24 -2t-26 -2q-33 0 -55 24t-22 64q0 48 39.5 88.5t93.5 40.5q52 0 85 -37t33 -98q0 -106 -96 -202q-99 -99 -282 -185q-6 -2 -15 11.5t-11.5 27z" />
<glyph unicode="&#x2022;" horiz-adv-x="729" d="M262 662q0 83 52.5 136.5t131.5 53.5q82 0 129 -47q58 -58 58 -150q0 -74 -53 -135t-131 -61q-77 0 -130 53q-57 57 -57 150z" />
<glyph unicode="&#x2026;" horiz-adv-x="1497" d="M80 86q0 56 41 96.5t96 40.5q44 0 74.5 -30.5t30.5 -73.5q0 -55 -40 -97t-96 -42q-47 0 -76.5 30.5t-29.5 75.5zM580 86q0 53 42.5 95t92.5 42q45 0 73.5 -30.5t28.5 -73.5q0 -55 -39.5 -95t-91.5 -40q-45 0 -75.5 29.5t-30.5 72.5zM1077 88q0 54 40 94.5t93 40.5 q42 0 73.5 -32.5t31.5 -75.5q0 -53 -40.5 -94t-90.5 -41q-45 0 -76 29t-31 79z" />
<glyph unicode="&#x202f;" horiz-adv-x="330" />
<glyph unicode="&#x2039;" horiz-adv-x="589" d="M90 408q0 20 14 32q281 194 510 367q4 4 22 -15t15 -22q-176 -157 -391 -383v-8q0 -108 55 -367q1 -5 -10.5 -11t-25 -9.5t-17.5 -1.5q-22 58 -54 138l-38 95q-38 85 -76 166q-4 12 -4 19z" />
<glyph unicode="&#x203a;" horiz-adv-x="589" d="M10 23q89 103 334 409q9 13 6 25q-30 177 -78 329q-1 3 13.5 8.5t28 7.5t16.5 -1q50 -106 170 -340q12 -24 12 -39q0 -12 -29 -41q-222 -196 -432 -391q-3 -3 -15 4t-21 16.5t-5 12.5z" />
<glyph unicode="&#x205f;" horiz-adv-x="412" />
<glyph unicode="&#x20ac;" horiz-adv-x="1116" d="M96 500q0 12 4.5 25.5t8.5 13.5h151q10 74 43 170h-115q-14 0 -10 30q3 33 12 33h140q66 142 179.5 259t229.5 175t222 58q91 0 159 -35q64 -32 99.5 -83.5t35.5 -113.5q0 -49 -33 -94t-92 -45q-32 0 -56.5 26.5t-24.5 65.5q0 46 30 76q10 10 22 17.5t19 10.5t12 8t5 13 q0 12 -18 31.5t-44 32.5q-54 26 -121 26q-141 0 -235 -94q-119 -120 -205 -334h389q8 0 8 -31q0 -29 -10 -32q-31 0 -107 1t-85 1h-220q-34 -104 -53 -174l387 -2q8 0 8 -31q0 -10 -4 -21.5t-10 -11.5q-47 0 -148 1t-137 1h-112q-37 -148 -37 -223q0 -88 51.5 -138.5 t136.5 -50.5q84 0 164 41q85 44 178 131q4 4 19.5 -7.5t27 -26t5.5 -19.5q-98 -93 -185 -137q-110 -55 -223 -55q-89 0 -155.5 43t-100.5 112q-28 55 -39.5 116t-11.5 169q0 31 2 47h-148q-8 4 -8 25z" />
<glyph unicode="&#x2122;" horiz-adv-x="1402" d="M348 1049q8 78 8 194q0 6 11 6q4 0 85 -1t128 -1q159 0 198 2q10 0 10 -6q8 -123 5 -188l-41 -2q0 96 -31 127q-20 20 -82 20q-21 0 -25 -4q-2 -2 -2 -106q0 -59 -1 -128t-1 -118q0 -39 6 -45q3 -3 18.5 -4.5t36.5 -4t31 -4.5q4 0 3.5 -24.5t-3.5 -24.5q-90 7 -260 0 q-3 0 -3.5 24.5t3.5 24.5q8 3 29.5 5t39 4t19.5 4q11 9 11 69q2 115 2 250q0 70 -4 78q-3 2 -29 2q-62 0 -74 -12q-16 -16 -45 -137q-1 -1 -22 -1t-21 1zM857 767q0 26 3 26q68 0 78 10q9 9 12 49q1 13 1.5 46t1 80t1.5 79v125q-10 10 -88 10q-1 2 -1 14t1.5 26.5t3.5 14.5 q16 -2 74 -2q29 0 70 1l41 1q11 0 16 -16q25 -54 50 -116.5t59 -153.5t47 -123q68 168 147 405q6 6 80 6q18 0 58 -1t44 -1q2 0 2 -27.5t-2 -27.5q-67 0 -71 -4q-2 -25 -2 -43q0 -25 1 -144.5t1 -136.5q0 -59 6 -65q2 -2 12.5 -3.5t29 -4.5t30.5 -5q2 0 2.5 -12t-1 -24.5 t-5.5 -12.5q-1 0 -17.5 1t-43 2t-50.5 1q-7 0 -53.5 -2t-48.5 -2q-3 0 -4.5 12.5t-1.5 23.5t1 13l66 15q6 6 6 63q0 26 2 168.5t2 143.5q0 4 -1.5 5.5t-3.5 0.5t-3 -4q-16 -46 -76 -207.5t-84 -237.5q-2 -2 -37 -2l-18 2q-12 42 -94 252q-26 78 -84 203q-2 3 -4 3t-2 -3 v-330q0 -53 6 -59q3 -3 11.5 -4.5t29 -4t33.5 -4.5q8 0 8 -24.5t-8 -24.5q-86 4 -230 4q-3 0 -3 26z" />
<glyph unicode="&#x25fc;" horiz-adv-x="829" d="M0 0v829h829v-829h-829z" />
</font>
</defs>
</svg>
