<?xml version="1.0" standalone="no"?>
<!DOCTYPE svg PUBLIC "-//W3C//DTD SVG 1.1//EN" "http://www.w3.org/Graphics/SVG/1.1/DTD/svg11.dtd" >
<svg xmlns="http://www.w3.org/2000/svg">
<metadata></metadata>
<defs>
<font id="surveyor_textmedium" horiz-adv-x="1114" >
<font-face units-per-em="2048" ascent="1638" descent="-410" />
<missing-glyph horiz-adv-x="446" />
<glyph unicode="&#xfb01;" horiz-adv-x="1232" d="M31 31q0 35 12 35q133 0 143 10q11 11 11 86q0 525 -4 604q-51 2 -152 2q-6 0 -9.5 19t-0.5 38t14 19q51 -2 148 -2q0 120 27 207t93 153t159.5 102.5t197.5 36.5q85 0 159.5 -26t112.5 -64q51 -48 51 -116q0 -50 -37 -84.5t-102 -34.5q-59 0 -93 28.5t-34 71.5 q0 49 37 86q6 6 14.5 12t9.5 7q5 5 -10 15.5t-51.5 21t-81.5 10.5q-60 0 -108 -25t-70 -67q-41 -87 -41 -261v-73q33 0 125.5 -1t130.5 -1q60 0 194.5 3t147.5 3q27 0 27 -49q0 -6 -1 -190.5t-1 -266.5q0 -248 18 -262q10 -10 137 -10q6 0 9 -18t1.5 -36t-8.5 -18 q-23 0 -266.5 2t-257.5 2q-2 0 -3 17t0 34t5 17q120 7 123 10q14 19 14 80q0 8 1 75.5t1 110.5q0 8 -10 358q-3 45 -12 54q-10 10 -185 10q-155 0 -190 -2q1 -35 1 -157.5t-0.5 -273t-0.5 -173.5q0 -68 8 -76q11 -11 144 -16q4 0 6 -17t-1.5 -34t-11.5 -17q-238 0 -528 -4 q-12 0 -12 35z" />
<glyph unicode="&#xfb02;" horiz-adv-x="1261" d="M33 31q0 35 12 35q133 0 143 10q11 11 11 86q0 525 -4 604q-19 2 -152 2q-6 0 -10 19.5t0 38.5t16 18q35 -2 146 -2q0 232 118 350q139 139 312 139q80 0 159 -35q39 2 128 7t137 6q9 0 14.5 -13t5.5 -26v-598q0 -93 -6 -510q0 -67 16 -80q8 -9 30.5 -12.5t104.5 -6.5 q5 0 5.5 -33.5t-5.5 -33.5q-182 6 -522 6q-6 0 -6 34t6 34q120 3 127 10q8 8 8 41q7 161 7 414q0 273 -3 473h-10q-52 0 -87.5 32.5t-35.5 77.5q0 52 35 82q6 6 13 12t8 7q4 4 -11 12.5t-48.5 17t-73.5 8.5q-51 0 -91.5 -23t-60.5 -63q-24 -48 -32.5 -105t-8.5 -151 q0 -17 -1 -46.5t-1 -30.5q45 1 137.5 0t106.5 0q5 0 6.5 -20t-2 -39.5t-10.5 -18.5q-32 2 -118 2.5t-118 -0.5q1 -34 1 -154t-0.5 -268.5t-0.5 -171.5q0 -76 8 -84q16 -16 156 -16q7 -2 6.5 -35t-12.5 -33q-251 0 -541 -4q-12 0 -12 35z" />
<glyph unicode="&#xfb03;" horiz-adv-x="1859" d="M31 787.5q-4 19.5 0 38.5t16 18q35 -2 146 -2q0 216 124 340q61 61 148 98t186 37q85 0 163.5 -33.5t115.5 -91.5q65 68 159 108.5t207 40.5q85 0 160 -26t113 -64q51 -51 51 -116q0 -50 -37.5 -84.5t-101.5 -34.5q-59 0 -93 28.5t-34 71.5q0 49 35 84q6 6 15 13.5 t11 9.5q3 2 -2.5 7t-17.5 11.5t-29.5 12.5t-42 10t-51.5 4q-62 0 -109.5 -25.5t-68.5 -66.5q-41 -84 -41 -261q0 -18 -1 -43t-1 -32h272q42 0 177 2t151 2q26 0 26 -21q-2 -66 -2 -485q0 -235 25 -260q7 -7 27 -8.5t100 -3.5q6 0 9 -17.5t1.5 -35t-8.5 -17.5q-23 0 -265.5 2 t-256.5 2q-2 0 -3 17t0 34t5 17q116 3 125 12q11 11 14 76q2 59 2 186q0 88 -10 338q-2 60 -13 74q-16 12 -161 12q-133 0 -215 -4q1 -61 2 -287.5t2 -316.5q0 -68 6 -74q4 -4 16 -6.5t30 -4t34 -2t38.5 -1t32.5 -0.5q4 0 6 -17.5t-1 -35t-11 -17.5q-383 0 -526 -2 q-9 0 -9.5 35t9.5 35q125 0 137 12q6 4 6 70q0 533 -4 614q-33 2 -393 2q2 -113 2 -608q0 -68 6 -74q12 -12 146 -16q7 -2 5.5 -35t-12.5 -33q-242 0 -528 -4q-12 0 -12.5 35t12.5 35q131 0 143 10q11 11 11 86q0 485 -6 604q-27 2 -152 2q-6 0 -10 19.5zM424 842 q71 0 229.5 -1t165.5 -1q0 76 12 147q-47 5 -79.5 34t-32.5 69q0 50 31 81q7 7 17.5 15t12.5 10q5 4 -8.5 15t-48.5 21.5t-80 10.5q-129 0 -180 -94q-39 -79 -39 -238v-69z" />
<glyph unicode="&#xfb04;" horiz-adv-x="1888" d="M33 787.5q-4 19.5 0 38.5t16 18q35 -2 146 -2q0 105 28 186.5t96 149.5q62 62 146.5 98.5t181.5 36.5q88 0 167 -37t110 -100q60 68 145 111.5t182 43.5q80 0 162 -35q40 2 128 7t136 6q10 0 15.5 -13t5.5 -26q-2 -217 -2 -598q0 -117 -2 -283.5t-2 -226.5q0 -66 14 -80 q9 -9 31 -12.5t104 -6.5q5 0 5.5 -33.5t-5.5 -33.5q-182 6 -522 6q-4 0 -5 17t1 34t6 17q113 3 123 8l2 2q7 7 10 41q6 276 6 414q0 207 -4 473h-6q-53 0 -90 32t-37 78q0 49 33 82q5 4 12 10.5t10 8.5q4 4 -11 12.5t-48.5 17t-73.5 8.5q-51 0 -91 -23t-60 -63 q-24 -48 -32.5 -105t-8.5 -151v-77q44 1 135.5 0t105.5 0q5 0 6.5 -20t-2 -39.5t-10.5 -18.5q-32 2 -117.5 2.5t-117.5 -0.5q2 -74 2 -608q0 -62 8 -70q14 -14 156 -14q7 -2 6 -36t-13 -34q-389 0 -532 -2q-9 0 -9.5 35t9.5 35q125 0 137 12q6 4 6 70q0 533 -4 614 q-33 2 -393 2q2 -113 2 -612q0 -62 8 -70q12 -12 146 -16q7 -2 6.5 -35t-12.5 -33q-245 0 -531 -4q-12 0 -12.5 35t12.5 35q131 0 143 10q11 11 11 86q0 485 -6 604q-27 2 -152 2q-6 0 -10 19.5zM426 842q71 0 229.5 -1t165.5 -1q0 72 13 145q-54 0 -90.5 28.5t-36.5 71.5 q0 52 30 82q7 6 17.5 14t13.5 11q5 5 -7.5 16t-46 22t-77.5 11q-62 0 -106 -27t-64 -69q-41 -78 -41 -234v-69z" />
<glyph horiz-adv-x="0" />
<glyph horiz-adv-x="682" />
<glyph unicode=" "  horiz-adv-x="446" />
<glyph unicode="&#x09;" horiz-adv-x="446" />
<glyph unicode="&#xa0;" horiz-adv-x="446" />
<glyph unicode="!" horiz-adv-x="626" d="M147 123q0 71 47.5 119.5t120.5 48.5q66 0 112 -40.5t46 -107.5q0 -64 -46 -113.5t-120 -49.5q-67 0 -113.5 41.5t-46.5 101.5zM156 1110q0 76 47 118t114 42q66 0 109 -40t43 -104q0 -54 -16.5 -119.5t-38 -127t-43 -188t-29.5 -285.5q0 -7 -16 -9.5t-31.5 1.5t-15.5 12 q-2 141 -15.5 250t-31.5 170t-35 107t-29 87.5t-12 85.5z" />
<glyph unicode="&#x22;" horiz-adv-x="872" d="M98 702q50 180 88 416q25 148 125 148q44 0 72.5 -33.5t28.5 -79.5q0 -40 -15 -77t-47 -93q-68 -117 -198 -305q-2 -2 -8 -1t-14 4.5t-15.5 7t-12.5 7.5t-4 6zM453 696q67 231 98 432q25 138 125 138q43 0 69.5 -34t26.5 -77q0 -75 -51 -156q-19 -30 -215 -329 q-1 -1 -7.5 0.5t-14.5 5t-15.5 7.5t-12 7.5t-3.5 5.5z" />
<glyph unicode="#" horiz-adv-x="1241" d="M86 397q25 123 39 170q0 5 20 2q28 -4 95.5 -14.5t109.5 -17.5q6 0 8 4q10 49 28 132t26 118q2 7 -6 10q-13 2 -228 33q-10 0 -10 6q11 81 33 176q0 8 10 8q134 -20 235 -33q9 0 9 4q49 227 55 256q2 6 21.5 6t37.5 -4t17 -8q-9 -43 -28.5 -126.5t-29.5 -133.5 q-3 -8 4 -8q61 -10 304 -43q10 0 12 6q45 240 61 311q3 2 19.5 1.5t35.5 -4t19 -7.5q-64 -287 -68 -311q-2 -7 9 -10q42 -5 114 -16.5t107 -16.5q6 -1 6 -17q-3 -51 -29 -172q-2 -6 -8 -6q-59 8 -132 21t-97 16q-6 0 -6 -8q-3 -12 -54 -254q0 -6 4 -6q165 -28 234 -37 q5 0 2 -10q-3 -15 -11 -55.5t-15.5 -75t-12.5 -54.5q-3 -8 -12 -6q-34 5 -69 11.5t-78 14.5t-70 13q-9 3 -11 -4q-7 -34 -25 -122t-28 -140q-1 -4 -20.5 -4t-38 3t-17.5 7q7 38 27 128t29 140q0 6 -6 6q-113 23 -310 54q-8 0 -8 -6q-34 -155 -63 -324q-3 -12 -46 -6 q-32 5 -30 14q8 39 21 102.5t24 117t22 104.5q2 10 -4 12q-158 26 -223 37q-7 2 -4 16zM434 532q-2 -9 8 -12q57 -9 301 -45q10 -3 13 10q4 22 22.5 111.5t26.5 136.5q0 6 -6 8q-151 24 -303 47q-9 0 -9 -6q-29 -120 -53 -250z" />
<glyph unicode="$" horiz-adv-x="1191" d="M82 268q0 61 38 101.5t97 40.5q63 0 102 -36.5t39 -90.5t-41 -95q-12 -11 -25.5 -21t-15.5 -13q-9 -9 17.5 -28.5t86.5 -40t132 -28.5q5 68 16.5 223.5t16.5 239.5q-221 66 -307 152q-42 42 -62 90t-20 117q0 154 124.5 265t317.5 118q7 111 12 178q0 4 17.5 5t35 -1 t17.5 -6q-6 -78 -12 -178q97 -6 186.5 -36t153 -87.5t63.5 -130.5q0 -61 -40 -101.5t-99 -40.5q-60 0 -98.5 36t-38.5 85q0 53 36 86q12 13 24 21.5t21.5 14t12.5 7.5q8 10 -17 27.5t-82.5 34.5t-125.5 22q-10 -160 -31 -432q135 -44 221 -82t135 -88q43 -43 63.5 -90.5 t20.5 -114.5q0 -116 -67 -208t-176 -141.5t-236 -49.5h-16q-1 -13 -7 -102t-10 -132q0 -3 -34.5 -3t-34.5 3q3 41 8.5 123t7.5 115q-113 10 -208.5 45t-156.5 95t-61 132zM313 987q0 -68 52.5 -110t197.5 -89q6 73 16 211.5t15 200.5q-72 -4 -132.5 -28t-90.5 -52 q-58 -62 -58 -133zM582 53h16q166 0 250 84q57 57 57 142q0 77 -60 121.5t-231 97.5q-6 -87 -17.5 -247t-14.5 -198z" />
<glyph unicode="%" horiz-adv-x="1349" d="M104 885q0 70 32.5 140t88.5 126q103 106 217 106q60 0 115 -36q146 -93 297 -93q92 0 162 31.5t153 95.5q3 2 25.5 -10t22.5 -16t-3 -10q-52 -62 -163 -194t-208.5 -249.5t-183.5 -224.5q-60 -72 -209 -252.5t-264 -316.5q-6 -6 -21.5 2t-27 19.5t-6.5 16.5 q205 238 469 558q64 82 234 284.5t206 247.5q0 2 -2 2q-76 -43 -192 -43q-127 0 -219 55q-3 2 -4 0.5t0 -4.5q14 -31 14 -86q0 -98 -43.5 -192t-115 -153.5t-148.5 -59.5q-99 0 -162.5 72.5t-63.5 183.5zM270 803q0 -113 80 -113q79 0 147 105t68 233q0 81 -29 127.5 t-87 46.5q-60 0 -107 -88q-31 -63 -51.5 -149.5t-20.5 -161.5zM713 231q0 77 34 151t91 132q102 102 217 102q92 0 139 -65.5t47 -161.5q0 -100 -40.5 -193.5t-111 -152.5t-149.5 -59q-93 0 -160 67t-67 180zM879 156q0 -54 21 -81.5t58 -27.5q54 0 104.5 50.5t81 128.5 t30.5 157t-28 126.5t-83 47.5q-63 0 -111 -98q-35 -69 -54 -151t-19 -152z" />
<glyph unicode="&#x26;" horiz-adv-x="1533" d="M94 281q0 133 92 225q79 79 252 160v2q-80 103 -106.5 165t-26.5 128q0 110 80 190q46 48 122 77t169 29q174 0 262 -88q36 -36 52 -74.5t16 -93.5q0 -27 -5.5 -51.5t-12 -44t-23 -40t-27 -33.5t-36.5 -32t-39 -28t-47.5 -28t-48.5 -26t-54 -28v-2q63 -85 194 -237h2 q61 113 142 194q92 92 204 92q65 0 112.5 -40.5t47.5 -98.5q0 -54 -32.5 -86.5t-75.5 -32.5q-53 0 -82 29q-23 23 -36.5 61.5t-17.5 42.5q-9 10 -36 0.5t-54 -34.5q-47 -47 -123 -185v-2q98 -117 203 -223q70 -70 115 -70q70 0 117 170q2 8 45 -7q19 -8 18 -11 q-34 -137 -91 -203.5t-173 -66.5q-84 0 -152.5 33.5t-142.5 107.5q-59 59 -86 90h-2q-69 -105 -163.5 -166t-205.5 -61q-71 0 -143 27t-115 69q-88 93 -88 201zM309 395q0 -78 45 -166q29 -60 75.5 -96.5t102.5 -36.5q129 0 230 166v2q-145 152 -285 344h-2 q-89 -54 -127.5 -98t-38.5 -115zM516 1044q0 -52 28.5 -111t123.5 -183h2q86 52 120.5 94.5t34.5 116.5q0 92 -28 149q-45 82 -133 82q-70 0 -109 -42t-39 -106z" />
<glyph unicode="'" horiz-adv-x="516" d="M98 705q50 171 86 415q9 68 41.5 108t85.5 40q46 0 78.5 -34t32.5 -85q0 -27 -11 -58.5t-40.5 -80t-53.5 -84.5t-79 -114.5t-88 -127.5q-7 -5 -19 -1.5t-23.5 11t-9.5 11.5z" />
<glyph unicode="(" horiz-adv-x="700" d="M117 524q0 137 23.5 235t70.5 195q50 101 153 214t226 198q3 2 13.5 -10t19 -25t6.5 -14q-88 -90 -127.5 -136.5t-67.5 -101.5q-76 -152 -76 -518q0 -227 18.5 -343.5t63.5 -207.5q25 -50 63.5 -96t110.5 -111q4 -3 -3.5 -16.5t-18 -24.5t-14.5 -8q-83 46 -201.5 169.5 t-177.5 240.5q-82 167 -82 360z" />
<glyph unicode=")" horiz-adv-x="698" d="M70 1315q-2 1 0.5 7t7 13.5t9.5 14.5t10 12t7 4q106 -63 223 -186t179 -246q76 -155 76 -350q0 -243 -86 -416q-52 -106 -156.5 -218.5t-218.5 -197.5q-5 -3 -24 21t-13 30q132 120 180 217q78 153 78 531q0 380 -68 516q-33 68 -74.5 120t-129.5 128z" />
<glyph unicode="*" horiz-adv-x="864" d="M113 1168.5q7 27.5 32 47.5t43 5q24 -19 103.5 -86.5t101.5 -83.5q0 8 -3.5 45t-8.5 96t-8 113q-3 19 37 24q47 5 70 -11q8 -6 7 -13q-3 -28 -10 -86t-11.5 -101t-4.5 -63q0 -10 6 -4q19 15 182 172q21 20 57 -16q32 -31 30 -57q0 -11 -9 -15q-36 -22 -94 -55.5t-96 -56 t-54 -36.5q16 -11 59 -34.5t101 -54.5t92 -50q12 -10 3 -36.5t-32 -49t-36 -10.5q-23 20 -62 54t-61 53t-46 38.5t-36 28.5q-4 0 -4 -4q0 -51 22 -258q5 -28 -24.5 -39.5t-61 -3.5t-30.5 26q3 40 10 110t12 117.5t4 47.5q-57 -44 -194 -181q-15 -20 -45 17q-30 36 -27 64 q1 10 8 14q29 19 84 52.5t97 59t57 37.5q-22 16 -115 68t-135 73q-17 15 -10 42.5z" />
<glyph unicode="+" horiz-adv-x="1060" d="M115 696q0 6 8 6h358q6 0 6 7v356q0 6 27 6q55 0 55 -4v-362q159 -3 369 -3q8 0 8 -16q0 -2 -2 -21t-3.5 -29.5t-4.5 -10.5q-45 0 -164.5 1t-198.5 1q-4 0 -4 -4v-363q0 -6 -67 -6q-15 0 -15 8v363q0 2 -2 2q-256 0 -360 -2q-4 0 -5.5 14t-2.5 33.5t-2 23.5z" />
<glyph unicode="," horiz-adv-x="557" d="M80 -272q111 59 180.5 132.5t69.5 151.5q0 13 -11 13q-3 0 -26.5 -11.5t-46.5 -11.5q-59 0 -97 44.5t-38 107.5q0 69 47 115t114 46q82 0 131.5 -63.5t49.5 -157.5q0 -145 -86.5 -246t-247.5 -184q-12 -4 -30 27t-9 37z" />
<glyph unicode="-" horiz-adv-x="696" d="M100 430v123q0 10 11 10q111 -1 475 4q8 0 8 -8q1 -6 1 -33.5t-0.5 -59.5t-0.5 -34q0 -8 -10 -8q-160 4 -281 4q-40 0 -98 -2t-88 -2q-17 0 -17 6z" />
<glyph unicode="." horiz-adv-x="557" d="M111 147q0 74 50 125.5t122 51.5q73 0 119.5 -50t46.5 -122q0 -71 -52.5 -120.5t-122.5 -49.5t-116.5 47t-46.5 118z" />
<glyph unicode="/" horiz-adv-x="901" d="M-35 -195q315 581 445 830q67 127 184 344t186 350q1 2 20 -5.5t37 -17t17 -12.5q-122 -227 -362 -678q-70 -132 -226.5 -422.5t-226.5 -422.5q-2 -2 -9.5 -0.5t-19 6.5t-22 10.5t-17.5 10.5t-6 7z" />
<glyph unicode="0" horiz-adv-x="1245" d="M98 612q0 319 187 506q64 64 150.5 107t168.5 43q195 0 363 -168q87 -87 133.5 -212.5t46.5 -266.5q0 -168 -47.5 -282.5t-130.5 -199.5q-69 -67 -169 -112t-188 -45q-85 0 -171.5 36.5t-155.5 104.5q-187 190 -187 489zM395 612q0 -206 12.5 -300t43.5 -154 q51 -103 155 -103q62 0 111 30t78 89q57 114 57 404q0 217 -10 323t-45 176q-60 123 -189 123q-97 0 -151 -108q-31 -64 -46.5 -172.5t-15.5 -307.5z" />
<glyph unicode="1" horiz-adv-x="876" d="M43.5 16.5q-1.5 18.5 0.5 37t7 18.5q252 0 256 8q6 6 6 24q4 113 4 580t-2 469t-22.5 0.5t-84.5 -5.5t-140 -7q-2 0 -5 18t-4 33t2 18q243 15 517 62q3 2 7.5 -1t4.5 -7q-4 -98 -8 -500q-7 -423 0 -645q0 -33 8 -41q6 -6 246 -6q3 0 4 -18.5t-0.5 -37t-5.5 -18.5 q-62 0 -167.5 2t-213.5 2q-134 0 -404 -4q-4 0 -5.5 18.5z" />
<glyph unicode="2" horiz-adv-x="1189" d="M61 45q24 26 53.5 56.5t82 83t90.5 91.5q62 62 174 164.5t155 145.5q85 85 117.5 158t32.5 196q0 93 -31 156q-52 98 -207 98q-120 0 -204 -84q-27 -27 -39.5 -55.5t-1.5 -34.5q9 -2 21 0t37.5 -1.5t47.5 -14.5q33 -19 54.5 -53t21.5 -77q0 -67 -44 -110t-108 -43 q-69 0 -116 52.5t-47 125.5q0 59 28.5 124t75.5 114q127 127 332 127q245 0 385 -136q88 -88 88 -200q0 -127 -94 -221q-45 -45 -126 -100.5t-157.5 -102.5t-175 -125t-176.5 -166q-3 -3 -1 -5.5t5 -2.5q70 -4 280 -4q296 0 308 12q10 10 28.5 51.5t43.5 103t38 89.5 q1 1 8 0.5t17.5 -3t20 -6t15.5 -7.5t5 -7q-90 -224 -131 -426q-3 -10 -17 -10q-38 0 -226.5 1t-285.5 1q-301 0 -358 -2q-4 0 -12.5 22.5t-6.5 24.5z" />
<glyph unicode="3" horiz-adv-x="1120" d="M76 287q0 63 42 105t107 42q58 0 95.5 -35.5t37.5 -91.5q0 -65 -45 -110q-12 -12 -26 -19.5t-20.5 -12t-6.5 -13.5q0 -16 29.5 -39t88.5 -42.5t126 -19.5q154 0 203 99q34 64 34 182q0 115 -34 184q-50 100 -242 100q-27 0 -69 -2t-68 -2q-4 0 -5.5 18t0.5 36t7 18 q26 1 70 2t71 2q169 9 217 103q29 59 29 165q0 91 -31 158q-22 44 -69.5 64t-133.5 20q-59 0 -107 -17.5t-67.5 -36.5t-11.5 -28q3 -3 30 -16.5t46 -32.5q35 -30 35 -86q0 -64 -39.5 -102.5t-100.5 -38.5q-62 0 -105.5 43t-43.5 104q0 81 69 150q57 57 148.5 94t206.5 37 q255 0 379 -127q79 -79 79 -174q0 -97 -71 -168q-44 -44 -126 -83.5t-167 -58.5v-4q103 -12 189.5 -48t131.5 -81q70 -70 70 -176q0 -71 -27 -124t-77 -103q-54 -56 -160 -96.5t-227 -40.5q-241 0 -396 155q-65 65 -65 148z" />
<glyph unicode="4" horiz-adv-x="1181" d="M49 354q273 324 372.5 496t127.5 391q3 16 24 16q131 0 299 -36q4 -1 4.5 -6.5t-2.5 -8.5q-356 -390 -712 -829q-4 -8 4 -8q55 1 196.5 4t229.5 4q8 0 8 10q0 185 2 291q0 11 10 14q39 10 117.5 39.5t108.5 36.5q16 4 16 -14q-6 -173 -6 -369q0 -10 10 -10q78 -4 117 -4 q21 0 63.5 1t73.5 1q5 0 6.5 -18t0.5 -36t-3 -18q-111 2 -264 2q-4 0 -4 -6q0 -33 1 -82t1 -70q0 -57 8 -67q9 -6 209 -6q5 0 5 -36t-5 -36q-57 0 -160 1t-194 1q-185 0 -348 -6q-3 0 -4 18t0.5 36t5.5 18q219 6 225 12q4 4 4 55q4 132 4 160q0 10 -6 10q-475 -10 -531 -12 q-4 0 -10 28.5t-4 32.5z" />
<glyph unicode="5" horiz-adv-x="1099" d="M88 250q0 58 41.5 101.5t103.5 43.5q59 0 97.5 -35.5t38.5 -91.5q0 -16 -2.5 -29t-10 -25t-10.5 -17t-15 -17l-14 -14q-10 -9 -24 -16.5t-21.5 -12.5t-7.5 -12q0 -26 67 -48t150 -22q151 0 201 103q39 73 39 229q0 131 -35 195q-46 94 -188 94q-73 0 -151.5 -36 t-137.5 -93q-2 -2 -10 0t-16.5 5.5t-15 8t-5.5 6.5q28 185 28 459q0 142 -10 217q0 8 15 8q222 -45 585 -45q84 0 109 25q19 19 43 55q1 2 14.5 -2t26.5 -9t12 -7q-27 -65 -67.5 -133t-73.5 -101q-22 -22 -50 -27.5t-116 -5.5q-216 0 -404 29l-2 -2q0 -164 -18 -352 q3 -7 6 -4q124 80 285 80q110 0 208.5 -35.5t161.5 -98.5q93 -93 93 -217q0 -136 -115 -251q-74 -74 -181 -118t-218 -44q-101 0 -195 32.5t-147 85.5q-64 64 -64 144z" />
<glyph unicode="6" horiz-adv-x="1191" d="M100 575q0 158 56 301t153 240q69 69 160 111.5t193 42.5q115 0 209.5 -35.5t144.5 -85.5q59 -59 59 -133q0 -55 -40.5 -92t-102.5 -37q-69 0 -113.5 36.5t-44.5 84.5q0 33 14 61q10 19 28 35.5t31 25.5t13 13q0 9 -23 22t-71 24t-104 11q-141 0 -199 -119 q-74 -145 -74 -467q0 -3 2.5 -3t3.5 3q104 160 271 160q88 0 180 -35t153 -96q53 -53 78 -107t25 -126q0 -154 -123 -281q-70 -70 -166.5 -112t-194.5 -42q-186 0 -337 148q-181 185 -181 452zM389 408q0 -104 9 -160t34 -103q26 -51 74 -77.5t108 -26.5q112 0 158 86 q41 77 41 268q0 139 -39 219q-44 84 -141 84q-70 0 -130 -44.5t-95 -114.5q-19 -39 -19 -131z" />
<glyph unicode="7" horiz-adv-x="1101" d="M115 766q16 314 14 475q1 9 3.5 10.5t10.5 1.5q283 -34 699 -34q84 0 92 8q16 12 31 65q5 7 51 -4q22 -6 20 -10q-16 -49 -44 -105t-72.5 -136.5t-71.5 -135.5q-140 -289 -175 -430t-44 -451q0 -26 -13 -26q-132 4 -264 4q-6 0 -6 12q14 106 58.5 216.5t98.5 201 t147.5 256t170.5 324.5l-2 2q-455 13 -575 22q-30 2 -33 -6q-12 -167 -21 -262q0 -4 -19 -5t-37.5 1t-18.5 6z" />
<glyph unicode="8" horiz-adv-x="1181" d="M90 311q0 122 88.5 205t239.5 129q8 4 0 8q-131 28 -214 100t-83 193q0 47 24 99t66 94q139 139 371 139q117 0 226.5 -37.5t172.5 -99.5q82 -86 82 -172q0 -124 -80.5 -196.5t-243.5 -123.5q-3 0 -3 -3.5t3 -4.5q79 -17 139 -40.5t109.5 -58t76 -85t26.5 -115.5 q0 -115 -93 -211q-73 -72 -187.5 -113t-240.5 -41q-110 0 -220.5 38.5t-168.5 97.5q-90 90 -90 198zM369 326q0 -127 30 -185q52 -98 176 -98q82 0 128.5 26.5t72.5 75.5q31 60 31 164q0 125 -41 205q-24 47 -77 72.5t-114 25.5q-62 0 -103.5 -24.5t-57.5 -61.5 q-45 -88 -45 -200zM399 952q0 -78 6.5 -118.5t24.5 -75.5q38 -78 143 -78q65 0 112 24t69 66q18 34 23 75.5t5 119.5q0 104 -28 159q-45 88 -174 88q-102 0 -142 -75q-39 -73 -39 -185z" />
<glyph unicode="9" horiz-adv-x="1196" d="M90 838q0 80 36 155.5t93 132.5q141 144 334 144q104 0 197 -42t163 -112q181 -181 181 -454q0 -303 -220 -527q-158 -155 -380 -155q-88 0 -184 34t-146 84q-60 60 -60 129q0 55 39 97.5t101 42.5q69 0 115.5 -37.5t46.5 -91.5q0 -33 -15 -60q-7 -14 -19.5 -28t-21 -23 t-8.5 -14q0 -9 13.5 -23t52.5 -27.5t94 -13.5q162 0 233 139q68 136 68 347q0 43 -4 83q0 3 -4 2q-1 0 -2 -2q-119 -157 -289 -157q-83 0 -169.5 33t-141.5 88q-51 50 -77 109t-26 147zM379 874q0 -109 7.5 -162t27.5 -91q36 -80 129 -80q73 0 141.5 52.5t101.5 115.5 q15 35 15 69q0 208 -58 326q-26 51 -76 75.5t-110 24.5q-94 0 -139 -88q-39 -76 -39 -242z" />
<glyph unicode=":" horiz-adv-x="518" d="M98 143q0 71 46.5 120.5t115.5 49.5q65 0 110.5 -48.5t45.5 -114.5q0 -71 -42 -120.5t-110 -49.5q-67 0 -116.5 48t-49.5 115zM102 694q0 72 46 124t114 52q67 0 112.5 -45t45.5 -110q0 -71 -44 -124.5t-114 -53.5q-66 0 -113 45t-47 112z" />
<glyph unicode=";" horiz-adv-x="530" d="M86.5 -280.5q-3.5 15.5 1.5 20.5q122 64 180 127.5t58 144.5q0 7 -5 9t-10 -1q-54 -24 -80 -24q-60 0 -95.5 40.5t-35.5 104.5q0 70 44 120t110 50q80 0 127 -60t47 -163q0 -148 -69 -241.5t-242 -172.5q-7 -2 -17 14t-13.5 31.5zM104 698q0 65 50 116.5t114 51.5 q71 0 113.5 -43.5t42.5 -113.5q0 -69 -47.5 -119.5t-118.5 -50.5q-63 0 -108.5 46.5t-45.5 112.5z" />
<glyph unicode="&#x3c;" horiz-adv-x="1024" d="M109.5 661.5q-0.5 28.5 7.5 34.5q170 93 426.5 237t294.5 165q14 7 28.5 -25t5.5 -39q-9 -5 -40 -22t-88 -47.5t-115 -63.5q-155 -89 -418 -233q-8 -5 0 -9q22 -12 674 -368q4 -2 -2.5 -19t-20.5 -30t-28 -6q-368 203 -713 391q-11 6 -11.5 34.5z" />
<glyph unicode="=" horiz-adv-x="1060" d="M117 850q0 9 3.5 23t8.5 14q80 0 209.5 -1t210.5 -1q233 0 383 2q8 0 8 -29q0 -15 -4 -32t-10 -17h-801q-8 0 -8 41zM119 463q0 55 10 55q33 0 114.5 -1t90.5 -1q145 0 302 1t294 1q8 0 8 -37q-7 -41 -8 -41q-23 0 -92.5 1t-112.5 1q-115 0 -292 -1t-308 -1q-6 0 -6 23z " />
<glyph unicode="&#x3e;" horiz-adv-x="1024" d="M141 293q108 58 348.5 190.5t321.5 175.5q8 4 0 9q-263 144 -418 233q-55 31 -114 63.5t-88 49t-39 22.5q-5 6 -1 21.5t16 29.5t21 9q11 -6 278.5 -156t440.5 -244q6 -9 6 -34q0 -30 -10 -35q-345 -188 -713 -391q-29 -14 -47 28q-10 26 -2 29z" />
<glyph unicode="?" horiz-adv-x="1101" d="M125 981q0 80 72 152q55 55 141.5 91t196.5 36q117 0 219.5 -35.5t160.5 -94.5q47 -47 69 -91.5t22 -108.5q0 -141 -115 -256q-55 -55 -133.5 -86t-163.5 -31q-69 0 -152 27h-2q-4 -94 -4 -191q0 -4 -18.5 -5.5t-37 -0.5t-18.5 4q5 128 5 152q0 58 -11 121q0 3 21 12 t24 6q46 -33 86 -48.5t91 -15.5q70 0 102 66q39 73 39 238q0 124 -29 186q-23 43 -67 64.5t-123 21.5q-78 0 -154 -37q-25 -13 -40.5 -26t-17.5 -22.5t3 -16.5q3 -3 31 -14t45 -29q30 -27 30 -80q0 -56 -38 -95.5t-93 -39.5q-62 0 -101.5 40t-39.5 107zM240 131 q0 63 42.5 105.5t112.5 42.5q63 0 112.5 -41t49.5 -103q0 -66 -46.5 -108.5t-121.5 -42.5q-70 0 -109.5 41t-39.5 106z" />
<glyph unicode="@" horiz-adv-x="1574" d="M80 389q0 159 78 309t201.5 256.5t281 171t313.5 64.5q126 0 232 -39t172 -107q149 -146 149 -360q0 -117 -44.5 -219t-113.5 -168t-149.5 -103.5t-155.5 -37.5q-89 0 -136 47t-42 114q-14 -18 -57 -61t-98.5 -72.5t-108.5 -29.5q-80 0 -139.5 67.5t-59.5 159.5 q0 143 142 285q80 80 169.5 126t164.5 46q86 0 122 -84q11 23 39 80q3 1 84 -7.5t95 -11.5q3 -3 5 -14t-1 -19q-38 -84 -140 -350q-36 -92 -36 -131q0 -61 67 -61q49 0 106 31t108.5 85.5t85.5 141t34 184.5q0 197 -129 326q-62 62 -159 94.5t-208 32.5q-134 0 -278.5 -65.5 t-259.5 -180.5q-116 -116 -181 -250.5t-65 -273.5q0 -149 65.5 -269.5t188 -191t278.5 -70.5q123 0 243.5 51.5t266.5 157.5q5 3 21 -19t10 -26q-158 -112 -286 -165.5t-259 -53.5q-172 0 -313.5 81t-222 221t-80.5 308zM594 311q0 -34 16 -52.5t45 -18.5q60 0 136 79 q56 56 94 134q36 70 57 132.5t21 86.5q0 28 -22.5 54t-53.5 26q-63 0 -116.5 -57t-111.5 -171q-65 -127 -65 -213z" />
<glyph unicode="A" horiz-adv-x="1452" d="M-4 46q0 16 4 17q68 5 100.5 15t57.5 35q43 40 102 172q264 588 414 983q20 12 106 12q65 0 68 -12q97 -280 375 -1030q44 -119 73 -148q15 -15 43.5 -20.5t114.5 -8.5q6 0 6 -29q0 -38 -6 -38q-42 1 -131.5 3.5t-144.5 2.5q-274 0 -334 -2q-4 0 -6 16t-1 32.5t5 16.5 q114 6 131 23q8 8 8 24q0 18 -10 48q-22 68 -70 202q-220 7 -342 7q-115 0 -166 -2q-12 0 -18 -15q-12 -24 -51 -125q-21 -65 -21 -94q0 -36 28 -48t124 -20q4 0 4.5 -16.5t-1.5 -32.5t-5 -16q-82 4 -195.5 4t-257.5 -4q-2 0 -3 16q-1 11 -1 21v11zM416 444q250 -12 458 -12 q-23 68 -208 594h-7q-7 -17 -243 -582z" />
<glyph unicode="B" horiz-adv-x="1331" d="M30 32q0 34 5 34q109 3 140.5 5.5t37.5 8.5q16 16 16 115q2 102 2 493q-1 56 -3.5 190t-2.5 220q0 55 -14 69q-7 7 -34 9t-124 2q-5 4 -4.5 33.5t6.5 29.5q125 4 563 4q204 0 326 -29t189 -96q57 -57 57 -143q0 -69 -28.5 -123.5t-79.5 -91.5t-113 -60.5t-138 -37.5v-11 q63 -9 118.5 -24t109.5 -40.5t92.5 -58.5t62 -80.5t23.5 -103.5q0 -120 -84 -207q-148 -145 -479 -145q-58 0 -186 3t-169 3q-216 0 -284 -2q-6 0 -6 29q1 2 1 5zM492 981q0 -44 1 -119.5t1 -124.5q0 -33 6 -37q4 -6 26 -7t121 -1q95 0 144.5 18.5t72.5 57.5q39 61 39 195 q0 94 -31 141q-23 41 -82 58.5t-208 17.5q-78 0 -84 -13q-6 -33 -6 -186zM494 342q0 -166 2 -210t8 -50q16 -19 141 -19q130 0 192.5 26t90.5 81q26 56 26 172q0 105 -28 166q-56 115 -305 115q-116 0 -121 -7q-6 -4 -6 -41v-233z" />
<glyph unicode="C" horiz-adv-x="1333" d="M74 584q0 128 48 246t138 208q219 219 481 219q70 0 134 -13t99.5 -28.5t63 -28.5t33.5 -13q12 0 28.5 18.5t49.5 71.5q3 4 17 4q7 0 16 -1q28 -3 28 -10q-9 -99 -12 -245q-2 -73 -2 -131.5t2 -100.5q-2 -6 -30 -6t-29 6q-80 234 -164 318q-82 82 -230 82 q-104 0 -172.5 -46t-103.5 -116q-43 -87 -61.5 -184t-18.5 -238q0 -225 66 -360q37 -74 114 -118t185 -44q172 0 284 112q101 98 138 250q3 10 39 -2q34 -11 34 -19q0 -131 -157 -288q-148 -145 -385 -145q-270 0 -459 186q-77 77 -125.5 184.5t-48.5 231.5z" />
<glyph unicode="D" horiz-adv-x="1482" d="M33 53q1 19 6 19q108 6 138 9.5t36 10.5q11 8 14 119q2 111 2 321q0 82 1 257t1 190q0 170 -14 184q-11 11 -168 11q-7 0 -7 35.5t7 35.5q65 0 177 -1t149 -1q75 0 194 2t162 2q180 0 308.5 -43t226.5 -141q70 -71 105.5 -170t35.5 -207q0 -154 -49 -270t-148 -215 t-232 -151t-286 -52q-57 0 -187.5 3t-170.5 3q-133 0 -293 -8q-5 0 -7 19q-2 14 -1 27v11zM500 608q0 -297 2 -420q3 -91 14 -102q6 -8 37 -10t145 -2q115 0 201.5 49t132.5 141q36 69 49 147.5t13 209.5q0 252 -64 380q-50 98 -127.5 133t-228.5 35q-105 0 -130.5 -1 t-29.5 -7q-7 -5 -10 -84q-4 -176 -4 -469z" />
<glyph unicode="E" horiz-adv-x="1345" d="M30 36q0 3 -1 6q0 32 6 32q170 2 180 12q16 16 16 365q0 69 -1 233t-1 270q0 199 -10 209q-12 12 -168 19q-5 3 -4 34t8 31q144 -6 596 -6q333 0 523 8q17 0 14 -20q-4 -56 -7.5 -129.5t-7.5 -159t-6 -123.5q-3 -6 -30.5 -4.5t-30.5 8.5q-64 228 -137 297 q-35 36 -79 44.5t-188 8.5q-178 0 -192 -6q-6 -6 -6 -235q0 -14 -1 -109t-1 -127q41 -2 123 -2q118 0 161 37q31 35 48 178q3 7 33 6.5t30 -8.5q-4 -125 -4 -234q0 -158 8 -286q0 -6 -29.5 -7t-31.5 5q-31 178 -62 209q-13 13 -43 17.5t-110 4.5q-82 0 -121 -4 q-2 -59 -2 -202q0 -214 1 -263t7 -55q22 -18 178 -18h166q67 0 100.5 8.5t57.5 30.5q77 80 147 364q1 5 33.5 4t32.5 -8q-2 -111 -11 -459q0 -12 -16 -12q-229 2 -582 2q-393 0 -581 -4q-5 0 -5 38z" />
<glyph unicode="F" horiz-adv-x="1241" d="M29 68q174 2 186 14t12 143q4 294 4 426q0 57 -1 165.5t-1 154.5q-3 178 -12 190q-15 12 -176 19q-6 0 -6 33.5t6 33.5q28 0 224 -1t265 -1q496 0 611 2q14 0 14 -14q-5 -328 -10 -418q0 -6 -32.5 -6t-33.5 6q-73 247 -137 311q-28 30 -69.5 40t-135.5 10q-184 0 -227 -2 q-10 -42 -10 -248q0 -154 2 -240q14 -2 90 -2q137 0 166 29q17 15 27 53t28 149q1 5 32.5 4t31.5 -8q-7 -245 -7 -252q0 -56 4 -153t5 -117q0 -5 -15.5 -7t-31 -1t-15.5 4q-20 99 -34 141.5t-31 57.5q-23 26 -154 26q-58 0 -98 -4q0 -143 4 -397q2 -113 12 -123q8 -8 43 -10 t172 -6q4 0 5 -17.5t-1 -35t-6 -17.5h-336q-266 0 -364 -2q-7 0 -7 30q0 40 7 40z" />
<glyph unicode="G" horiz-adv-x="1415" d="M74 586q0 273 205 481q197 193 460 193q81 0 152 -20.5t111.5 -41t48.5 -20.5q36 0 110 88q2 1 6 1q7 0 21 -3q22 -5 22 -9q-28 -191 -28 -428q0 -7 -30 -9t-32 3q-88 209 -174 295q-72 72 -203 72q-98 0 -171 -45t-111 -121q-37 -73 -53.5 -169t-16.5 -249 q0 -183 13 -270t45 -152q31 -63 95.5 -100t160.5 -37q83 0 147 35t88 82q10 21 13 59t3 144q0 121 -16 137q-6 7 -41 9.5t-133 4.5q-6 0 -6 34t6 34q66 -1 129 -1q271 0 473 11q7 0 8 -32v-10q0 -23 -4 -26q-133 -10 -143 -18q-15 -15 -15 -279q0 -13 7 -219q0 -7 -26 -14 t-32 -2q-89 121 -114 121q-10 0 -43.5 -22t-74.5 -49t-110 -49t-141 -22q-130 0 -240 47t-190 127q-176 179 -176 439z" />
<glyph unicode="H" horiz-adv-x="1525" d="M30 20q-1 7 -1 13q-1 11 1 21q2 18 9 18q160 0 170 10q16 16 18 147q4 316 4 471q0 113 -1 208t-1 110q-3 132 -18 147q-12 12 -162 15q-6 3 -4.5 35t8.5 32q36 -2 231 -4q98 -1 191.5 -1t183.5 1q5 0 6 -32.5t-6 -32.5q-141 -5 -147 -13q-10 -10 -10 -139q0 -232 2 -326 q14 0 151.5 -3t221.5 -3q114 0 141 6q4 148 4 291q0 166 -12 178q-13 13 -140 13q-5 0 -6.5 16t1 32.5t9.5 16.5q88 -1 196 -1h100h85q77 0 147 0.5t77 0.5q6 0 6 -28q0 -37 -6 -37q-143 0 -156 -13q-23 -18 -25 -165q-6 -178 -6 -371q0 -78 -1 -204t-1 -173q0 -153 21 -174 q10 -10 153 -12q5 0 6.5 -18t-1.5 -36t-9 -18q-123 2 -277 2t-339 -2q-5 3 -3.5 35.5t7.5 32.5q144 11 151 18q17 17 17 221q0 39 1 139t1 179h-432q-72 0 -82 -5q-4 -258 -4 -352q0 -171 18 -186q6 -8 32.5 -10.5t115.5 -3.5q4 0 5.5 -17t-1 -34t-8.5 -17q-156 4 -312 4 h-313q-5 0 -7 18z" />
<glyph unicode="I" horiz-adv-x="761" d="M57 70q15 1 33.5 1.5t30.5 1t26.5 1t23.5 1t19 1t16.5 1.5t12.5 2t9 2t5 3q11 11 13 154q2 152 2 327q0 132 -4 406q-3 178 -17 192q-13 10 -161 15q-2 0 -3 17t0 34.5t5 17.5q504 0 612 -2q3 0 4 -17.5t-0.5 -34.5t-5.5 -17q-82 0 -107.5 -2t-31.5 -9q-19 -19 -23 -219 q-2 -100 -2 -387q0 -200 2 -313q2 -146 16 -160q10 -10 168 -12q7 0 7 -35.5t-5 -38.5q-123 2 -329 2q-168 0 -316 -4q-7 0 -7 31q0 41 7 41z" />
<glyph unicode="J" horiz-adv-x="1130" d="M55 252q0 80 48 134t124 54q58 0 99 -37.5t41 -95.5q0 -63 -39 -102q-18 -19 -52 -38.5t-40 -25.5q-18 -17 10 -45q44 -47 168 -47q70 0 125.5 34t81.5 87q34 64 34 201q0 147 -3.5 361.5t-4.5 338.5q0 88 -8 96q-6 6 -36 8t-157 3q-3 0 -4 17t1 34.5t6 17.5q41 0 162 -2 t196 -2h289q6 0 6 -34.5t-6 -34.5q-155 0 -170 -11q-8 -8 -8 -112q0 -107 2 -281t2 -328q0 -110 -28 -185t-87 -134q-146 -146 -381 -146q-92 0 -171 30t-128 79q-72 72 -72 166z" />
<glyph unicode="K" horiz-adv-x="1464" d="M36 18q-1 9 -0.5 18t0.5 18q2 18 5 18q160 2 168 10q11 11 14 106q6 293 6 478v56q0 102 -2 316q-2 116 -12 123q-5 6 -35 9t-129 6q-6 0 -6 34.5t6 34.5q50 0 145.5 -1t127.5 -1q56 0 176 2t153 2q6 0 6.5 -35.5t-6.5 -35.5q-90 -3 -113.5 -5t-27.5 -8q-10 -10 -10 -192 q-1 -87 -3 -219t-3 -199l6 -2q203 194 436 450q76 82 76 132q0 28 -26.5 35t-135.5 12q-6 0 -5.5 33.5t5.5 33.5q133 -2 551 -2q7 0 6.5 -34.5t-6.5 -34.5q-128 -7 -178 -31q-72 -35 -183 -146q-118 -118 -208 -213q247 -407 358 -579q44 -71 80 -107q18 -18 38.5 -21.5 t114.5 -8.5q4 0 6 -18q1 -9 1 -18.5t-1 -19.5q-2 -18 -8 -18q-100 4 -293 4h-305q-3 0 -4.5 17.5t1 35t7.5 17.5q97 2 107 12q2 5 2.5 13.5t-5.5 27.5t-18 41q-162 284 -262 446q-147 -141 -155 -149v-238q4 -137 10 -143q5 -5 125 -10q5 0 5 -36t-5 -36q-109 2 -352 2h-238 q-5 0 -7 18z" />
<glyph unicode="L" horiz-adv-x="1214" d="M34 16v13q0 13 1 25q2 18 6 18q34 1 84 2q82 2 88 8q10 10 10 141q8 508 8 735q0 121 -2.5 160t-9.5 45q-6 8 -37.5 11t-130.5 4q-3 0 -3.5 18t1 35.5t4.5 17.5q270 -6 320 -6h321q3 0 3.5 -18t-1 -36t-4.5 -18q-170 0 -180 -10q-9 -9 -12 -260q-4 -145 -4 -600 q0 -201 8 -209q14 -14 162 -14q116 0 164.5 7.5t72.5 31.5q79 79 168 391q3 7 32.5 6.5t29.5 -8.5q-4 -307 -17 -494q0 -16 -22 -16q-158 4 -549 4q-379 0 -506 -2q-4 0 -5 18z" />
<glyph unicode="M" horiz-adv-x="1808" d="M21 52q2 18 6 18q134 9 159 34q47 47 54 207q3 84 5 231.5t3 317.5t2 209q0 72 -8 80q-22 18 -187 33q-5 0 -5.5 16t2 31.5t5.5 15.5q52 -2 482 -2h6h5.5h4.5t4.5 -0.5t3.5 -1t3.5 -1.5t3 -2.5t3 -3.5t2.5 -5q56 -127 172.5 -424t176.5 -463h10q205 553 305 897 q16 8 104 8q55 0 215.5 -3t182.5 -5q4 0 5 -15.5t-1 -31.5t-6 -16q-138 -5 -152 -15q-5 -6 -7 -50q-1 -26 -1 -94v-108q0 -333 8 -645q1 -101 5 -135.5t14 -44.5q7 -7 33.5 -10t115.5 -8q2 0 3 -18v-14v-20q-2 -18 -7 -18t-52.5 1t-120.5 2t-140 1q-29 0 -143 -2t-146 -2 q-4 0 -7.5 17.5t-3 35t6.5 17.5q88 6 117.5 10t37.5 12q17 17 17 172q0 658 -6 875h-13q-58 -171 -194 -540.5t-215 -602.5q-3 -12 -55 -12q-30 0 -39.5 3t-12.5 11q-34 118 -181 492t-257 626h-12q-1 -170 -1 -328.5t0.5 -296.5t0.5 -178q0 -180 28 -211q19 -19 154 -32 q5 -1 6.5 -18t-0.5 -33.5t-6 -16.5q-48 2 -254 4q-123 1 -181 0h-48q-7 -1 -9 16q-1 9 -2 19q0 7 1 15z" />
<glyph unicode="N" horiz-adv-x="1447" d="M14 1216q1 34 9 33q148 -4 188 -4q83 0 295 8q15 -5 80 -98q88 -129 272.5 -393.5t280.5 -405.5h8q0 63 1 198.5t1 209.5q0 340 -45 385q-21 21 -168 35q-7 2 -5.5 33.5t9.5 31.5q236 -8 295 -8q87 0 182 6q5 1 8 -15q2 -12 2 -24v-8q-1 -16 -4 -16q-126 -18 -147 -39 q-20 -20 -28.5 -106.5t-8.5 -295.5q0 -80 -1 -208t-1 -203q0 -83 3 -190.5t3 -153.5q0 -17 -119 -17q-44 0 -53 9q-107 175 -329.5 494t-419.5 587h-9q0 -144 6 -417.5t7 -311.5q3 -207 28 -232q19 -16 178 -37q7 -1 6.5 -35t-8.5 -34q-100 6 -264 6q-118 0 -235 -6 q-4 0 -6 17t-1 34.5t5 17.5q136 12 161 37q43 43 43 258q0 86 -5 344.5t-5 399.5q0 21 -12 33q-37 37 -191 45q-6 2 -6 28v8z" />
<glyph unicode="O" horiz-adv-x="1513" d="M74 621q0 117 49.5 227t138.5 199q106 108 236.5 163.5t302.5 55.5q278 0 475 -197q79 -78 121.5 -186.5t42.5 -231.5q0 -132 -55.5 -255.5t-149.5 -217.5t-222.5 -148.5t-279.5 -54.5q-139 0 -270 58.5t-223 150.5q-80 80 -123 184t-43 253zM391 573q0 -243 53 -352 q41 -82 120 -124t175 -42q108 0 189 46t125 135q71 142 71 399q0 158 -15 254t-48 160q-72 147 -295 147q-103 0 -184 -51t-123 -131q-68 -136 -68 -441z" />
<glyph unicode="P" horiz-adv-x="1286" d="M30 50q0 18 5 18q166 9 177 13q3 1 5 3q7 7 9 41t3 126v23v715q0 162 -10 172t-168 10q-6 0 -6 36t6 36q46 0 263.5 1t349.5 1q187 0 307.5 -34t191.5 -105q68 -68 68 -172q0 -131 -101 -232q-84 -84 -215.5 -125.5t-279.5 -41.5q-37 0 -66 1.5t-44.5 3t-18.5 1.5 q-10 0 -10 -13v-303q0 -86 2 -108.5t8 -28.5t37 -7.5t186 -4.5q4 0 5.5 -18.5t-0.5 -37t-7 -18.5q-23 0 -151.5 -1t-202.5 -1q-173 0 -336 -6q-3 0 -5 18q-2 15 -2 30v8zM498 690q0 -70 6 -76q11 -8 102 -8q111 0 190 32t109 91q33 70 33 184q0 101 -29 158q-27 57 -79.5 81 t-163.5 24q-151 0 -160 -9q-8 -8 -8 -123v-354z" />
<glyph unicode="Q" horiz-adv-x="1519" d="M76 590q0 258 176 434q113 111 250.5 175.5t285.5 64.5q297 0 494 -197q73 -73 114.5 -174.5t41.5 -220.5q0 -154 -48.5 -261.5t-136.5 -195.5q-97 -97 -204 -149q20 -45 28.5 -63t27 -51.5t32.5 -47t35 -25.5t45 -12q95 0 174 168q1 4 15.5 0t27.5 -11q12 -6 12 -11 q0 -10 -30 -79q-15 -34 -41 -76.5t-54.5 -70t-71.5 -47t-92 -19.5q-56 0 -102 16.5t-76.5 41t-57.5 64t-42.5 74.5t-32.5 83q-50 -4 -76 -4q-159 0 -298.5 49.5t-233.5 142.5q-162 162 -162 402zM387 639q0 -97 10 -173.5t24 -117t28 -67t24 -33.5l10 -8q53 57 111 87.5 t137 30.5q55 0 100 -17t78.5 -49.5t57.5 -67t47 -81.5q33 33 55 82q59 115 59 422q0 289 -57 400q-36 73 -104 109t-193 36q-112 0 -194.5 -53.5t-124.5 -134.5q-68 -139 -68 -365zM520 164q0 -12 18 -29t49.5 -34t82 -28.5t106.5 -11.5q35 0 49 2q-10 32 -13.5 42.5 t-13.5 37.5t-15.5 37t-15.5 30t-19 28t-21 18.5t-25.5 14t-29.5 3.5q-60 0 -106 -43.5t-46 -66.5z" />
<glyph unicode="R" horiz-adv-x="1445" d="M30 1192q-1 7 -1 14q0 12 2 22q3 18 10 17q89 0 194 1t140 1h348q332 0 465 -133q61 -61 61 -162q0 -93 -62 -167.5t-153 -115.5t-198 -55v-8q152 -40 227 -102t106 -189q23 -99 39.5 -145t32.5 -62t43 -16q30 0 57 34.5t66 111.5q2 5 18 -1q17 -6 31 -15q13 -8 12 -12 q0 -226 -264 -226q-136 0 -209 73q-38 39 -66 106t-57 189q-32 134 -74.5 177.5t-133.5 43.5h-150q-14 0 -14 -10q0 -96 -1 -254.5t-1 -165.5q0 -51 8 -57q7 -7 186 -16q7 0 6.5 -37t-6.5 -37q-38 2 -246 4q-69 1 -138 1q-137 0 -271 -3q-4 0 -5.5 18.5t0.5 37t7 18.5 q165 5 176 16q10 10 10 92q1 169 3.5 318.5t2.5 173.5q0 96 -1 240.5t-1 148.5q0 88 -14 102q-5 5 -15.5 7t-47.5 3t-115 1q-5 0 -7 18zM500 723q0 -58 2 -76q10 -4 131 -4q117 0 187 21t100 81q32 60 32 185q0 96 -28 151q-25 49 -80 71t-178 22q-153 0 -160 -7 q-4 -6 -4 -67q0 -9 -0.5 -71.5t-1 -149.5t-0.5 -156z" />
<glyph unicode="S" horiz-adv-x="1241" d="M121 444q0 7 27 10t30 -3q60 -121 95.5 -179.5t78.5 -99.5q58 -58 138.5 -89.5t168.5 -31.5q143 0 211 68q58 55 58 141q0 89 -67.5 137.5t-250.5 94.5q-162 39 -250 77.5t-139 89.5q-40 40 -58 88t-18 123q0 160 133 275t336 115q74 0 138 -13t96.5 -28t57 -28t30.5 -13 q24 0 72 90q2 3 13 3q7 1 19 -1q28 -4 27 -10q-12 -172 -12 -302q0 -54 2 -100q0 -5 -29.5 -6.5t-32.5 4.5q-43 97 -76 150.5t-71 91.5q-44 46 -101.5 68t-142.5 22q-137 0 -209 -72q-57 -57 -57 -141q0 -32 8 -57t29 -45.5t44.5 -35.5t69 -32t87 -29t112.5 -31 q151 -38 233 -74.5t132 -86.5q77 -77 77 -213q0 -115 -63 -206t-168.5 -139.5t-232.5 -48.5q-93 0 -180 25.5t-142.5 50.5t-69.5 25q-39 0 -81 -86q-3 -6 -30.5 -4t-27.5 8q2 58 2 116q0 172 -16 332z" />
<glyph unicode="T" horiz-adv-x="1390" d="M84 760q7 104 18 461q2 9 9 17.5t18 8.5q56 -2 526 -8q294 0 611 10q5 1 9 1q19 0 19 -13q4 -142 4 -277q0 -97 -2 -190q0 -7 -28 -7.5t-31 5.5q-59 169 -93.5 254t-62.5 113q-22 22 -59 30.5t-111 8.5q-58 0 -63 -5q-6 -6 -10 -229q-7 -451 -7 -743q0 -95 15 -107 q8 -8 46 -13t163 -14q3 0 3.5 -16.5t-1.5 -33.5t-6 -17q-166 6 -346.5 6t-376.5 -6q-5 0 -6 35t6 35q134 6 169.5 9t41.5 9q17 17 22 166q4 140 8 756q0 155 -8 163q-7 7 -88 7q-62 0 -94 -11.5t-57 -36.5q-37 -37 -91.5 -152.5t-87.5 -219.5q-3 -6 -31 -4.5t-28 8.5z" />
<glyph unicode="U" horiz-adv-x="1462" d="M30 1199q-1 7 -1 14q0 9 1 19q2 16 7 17q92 -2 290.5 -2.5t329.5 -3.5q7 0 7 -32.5t-7 -32.5q-146 -2 -157 -13q-25 -25 -25 -446q0 -62 1 -148.5t1 -140.5q0 -109 19 -167t57 -95q86 -86 262 -86q146 0 244 89t98 257q4 290 4 393q0 291 -41 332q-12 12 -44 17.5 t-130 9.5q-6 0 -6.5 33.5t6.5 33.5q146 -6 280 -6q109 0 210 4q4 -1 6 -17q1 -8 1 -16q-1 -8 -1 -17q-2 -17 -4 -17q-133 -17 -150 -37q-19 -19 -26.5 -73.5t-10.5 -203.5q-6 -203 -6 -434q0 -210 -135.5 -329t-353.5 -119q-142 0 -258 36t-181 101q-57 58 -83.5 127.5 t-26.5 187.5q0 123 6 627q0 94 -12 106q-14 10 -166 15q-3 0 -5 17z" />
<glyph unicode="V" horiz-adv-x="1435" d="M-6 1199q0 3 -1 6q1 13 3 27q2 16 6 17q142 -6 623 -10q5 0 5 -34t-5 -34q-83 -3 -109.5 -6.5t-32.5 -11.5q-4 -4 -4 -17q0 -37 37 -143q61 -169 160.5 -434t124.5 -332h6q171 423 260 650q70 185 70 235q0 37 -33 51t-139 21q-5 0 -6 16t1.5 32.5t8.5 16.5 q134 -5 268 -5q101 0 201 3q2 1 4 -17l2 -26v-9q0 -17 -4 -17q-69 -7 -97 -17t-51 -33q-28 -28 -59.5 -85.5t-87.5 -186.5q-173 -409 -354 -883q-6 -12 -70 -12q-100 0 -109 25q-70 204 -397 1030q-44 110 -65 131q-14 14 -41.5 21t-110.5 14q-4 0 -4 17z" />
<glyph unicode="W" horiz-adv-x="2086" d="M2 1216q2 34 8 33q218 -4 399 -4q129 0 240 2q3 0 4.5 -17.5t1 -34.5t-3.5 -17q-92 -4 -118 -8t-35 -15q-10 -10 -10 -34.5t10 -63.5q42 -156 132 -457t95 -317h10q253 729 330 970q4 4 43 4q91 0 96 -10q205 -630 303 -971h13q17 50 100.5 282.5t118.5 342.5 q47 137 47 197q0 40 -31.5 55.5t-136.5 24.5q-4 0 -4 17t3 33.5t7 16.5q43 0 138 -2t143 -2q106 0 182 4q5 -1 7 -33q0 -8 1 -13q0 -20 -4 -21q-71 -10 -100 -21.5t-54 -36.5q-49 -49 -116 -237q-46 -123 -154 -420t-174 -475q-7 -13 -98 -13q-56 0 -60 11q-76 278 -288 938 h-9q-29 -91 -329 -942q-4 -13 -103 -13q-50 0 -53 13q-73 233 -183 571.5t-153 472.5q-29 99 -51 121q-14 14 -44 20.5t-116 12.5q-4 2 -4 22v14z" />
<glyph unicode="X" horiz-adv-x="1468" d="M34 33q0 29 7 30q103 10 145 33q71 35 203 207q36 45 79 103.5t89.5 122t58.5 79.5v4q-33 51 -132.5 206t-139.5 218q-59 89 -78 107q-10 9 -20 14q-28 14 -154 21q-4 0 -4 33.5t4 33.5q178 -3 216 -3h17q49 0 187 2q166 2 201 3q5 0 5.5 -33.5t-5.5 -33.5 q-78 -5 -96.5 -7t-24.5 -8q-7 -7 -7 -20q0 -24 25 -68q54 -99 193 -317h6q10 13 55 73.5t86 116.5t70 101q37 47 37 82q0 22 -24.5 32.5t-110.5 20.5q-4 0 -4 17t3 33.5t7 16.5q167 -10 297 -10h186q6 0 5.5 -33.5t-5.5 -33.5q-85 -6 -113 -11t-53 -18q-79 -40 -172 -158 q-48 -59 -124.5 -157t-96.5 -123v-2q39 -61 110 -170.5t128 -198.5q151 -237 180 -252q27 -12 147 -20q3 0 5 -17q1 -7 1 -15q0 -10 -1 -19q-2 -17 -7 -17q-127 4 -338 4q-31 0 -136 -2t-157 -2q-4 0 -6 17t-1 34t5 17q64 3 96 8.5t39 11.5t7 18q0 34 -72 152 q-66 111 -184 295h-9q-76 -100 -215 -301q-55 -77 -55 -127q0 -24 30.5 -35.5t102.5 -21.5q7 -2 5.5 -35t-7.5 -33q-104 3 -206 3q-137 0 -271 -5q-9 0 -9 37z" />
<glyph unicode="Y" horiz-adv-x="1359" d="M-14 1192v7q0 15 2 29q2 17 6 17q95 -1 187 -1q216 0 419 5q4 0 5.5 -17.5t0.5 -34.5t-4 -17q-78 -4 -101.5 -7.5t-29.5 -11.5q-15 -12 10 -55q138 -252 285 -479h4q25 38 65 99.5t62.5 95.5t51 80t50.5 85q52 88 52 137q0 29 -26 41.5t-112 16.5q-4 0 -4 17t2.5 33.5 t6.5 16.5q35 -1 123.5 -3t123.5 -3q96 0 207 2q6 0 6 -33q1 -4 1 -6q0 -28 -5 -30q-96 -6 -127 -21q-65 -32 -180 -207q-79 -118 -231 -356q-17 -27 -22 -46.5t-7 -56.5q-4 -98 -4 -264q2 -123 16 -137q11 -11 195 -20q4 0 3.5 -36t-3.5 -36q-184 4 -350 4q-62 0 -175.5 -1 t-166.5 -1q-3 0 -4.5 18t-1 36t2.5 18q120 3 155.5 6.5t45.5 11.5q14 14 17 100q1 56 2 122.5t1.5 103t0.5 59.5q0 32 -4 46.5t-19 39.5q-202 326 -285 455q-69 108 -90 129q-16 16 -43.5 22t-109.5 9q-3 0 -4 18z" />
<glyph unicode="Z" horiz-adv-x="1394" d="M92 31q-2 12 -2 20q0 12 4 15q454 566 860 1097l-2 6q-25 2 -97.5 1.5t-192.5 -1.5q-137 0 -171 -6t-61 -33q-53 -53 -180 -329q-3 -6 -27 -4t-24 8q0 272 12 432q3 12 25 12q73 0 227.5 -2t206.5 -2q64 0 207.5 -0.5t246 -0.5t152.5 1q6 1 8 -27q1 -11 0 -18 q0 -11 -2 -14q-96 -124 -246.5 -315t-340 -431t-279.5 -354l2 -6q51 -2 135 -2q126 0 324 4q67 1 95.5 10.5t57.5 38.5q77 77 166 367q2 5 15.5 6.5t26.5 -0.5t13 -6q3 -61 3 -189v-45q0 -162 -7 -248q0 -15 -10 -20q-203 6 -539 6q-414 0 -596 -2q-6 0 -10 31z" />
<glyph unicode="[" horiz-adv-x="751" d="M201 -217q0 143 1 474t1 472q0 115 -1 334t-1 268q0 17 12 17h203q31 0 140 1t130 1q3 0 4 -16.5t0.5 -33t-2.5 -16.5q-252 0 -254 -2q-8 -12 -8 -84q0 -130 -3 -355t-3 -360q0 -297 8 -637q0 -8 10 -8q226 0 256 2q6 0 5.5 -32.5t-5.5 -32.5q-31 0 -223 -2t-258 -2 q-12 0 -12 12z" />
<glyph unicode="\" horiz-adv-x="901" d="M47 1292q-1 3 17 13t37.5 18t21.5 6q58 -111 121 -229t143 -266.5t135 -251.5q231 -438 416 -777q1 -4 -17 -14t-37.5 -17.5t-21.5 -4.5q-69 131 -211.5 395t-212.5 397q-191 363 -391 731z" />
<glyph unicode="]" horiz-adv-x="749" d="M55 -208.5q0 16.5 1 32.5t3 16q35 0 123.5 -1t124.5 -1q12 0 12 10q11 502 11 697q0 432 -4 688q0 38 -7 45q-6 6 -129 6h-129q-5 0 -5 33t5 33q52 0 246.5 1t227.5 1q10 0 10 -13q0 -38 1 -155t1 -187q0 -182 1 -472t1 -494q0 -21 -1 -111t-1 -139q0 -8 -8 -8 q-74 0 -264.5 1t-217.5 1q-2 0 -2 16.5z" />
<glyph unicode="^" horiz-adv-x="845" d="M121 770q190 341 268 492q4 7 32.5 8t29.5 -4q73 -135 161.5 -292t110.5 -196q3 -7 -13 -17t-33 -16t-18 -4q-5 7 -20 34t-36.5 65.5t-37.5 66.5q-11 21 -139 248q-3 6 -6 0q-29 -55 -104.5 -190.5t-127.5 -231.5q-1 -1 -8.5 2t-17.5 8t-20 10.5t-16 10t-5 6.5z" />
<glyph unicode="_" horiz-adv-x="1310" d="M-4 -152h1319v-73h-1319v73z" />
<glyph unicode="`" horiz-adv-x="1032" d="M301 1235q0 38 27 64t67 26q34 0 58.5 -16.5t60.5 -57.5q15 -17 37.5 -43.5t40.5 -47t37 -40.5q60 -63 102 -102q3 -7 -11 -27t-22 -20q-90 40 -295 145q-102 54 -102 119z" />
<glyph unicode="a" horiz-adv-x="1075" d="M86 197q0 96 64 157q51 53 160.5 88t330.5 54q2 25 2 96q0 69 -8 105t-29 57q-45 45 -145 45q-37 0 -68.5 -9t-46 -18.5t-14.5 -15.5q0 -5 18 -16t35.5 -33.5t17.5 -55.5q0 -50 -34.5 -81t-89.5 -31q-58 0 -95 32.5t-37 85.5q0 66 50 113q102 98 299 98q209 0 305 -96 q40 -40 56.5 -95.5t16.5 -141.5q0 -44 -4 -184t-4 -210q0 -39 11 -54t36 -15q33 0 56.5 34.5t42.5 110.5q5 5 31 -1t26 -13q-20 -103 -74.5 -162t-146.5 -59q-165 0 -215 149q-61 -73 -127 -112t-150 -39q-103 0 -186.5 61.5t-83.5 155.5zM319 215q0 -137 109 -137 q49 0 109.5 41.5t83.5 85.5q18 41 18 96q2 49 2 133q-106 -12 -167.5 -26.5t-97 -41.5t-46.5 -60.5t-11 -90.5z" />
<glyph unicode="b" horiz-adv-x="1120" d="M-6 1296q2 16 6 17q247 5 373 10q16 0 16 -23q0 -268 -8 -636l6 -2q118 215 279 215q141 0 260 -119q116 -113 116 -299q0 -198 -159 -357q-122 -122 -271 -122q-46 0 -91.5 12.5t-78 30t-58 35t-40.5 30t-18 12.5q-20 0 -125 -129q-5 -6 -17 -6q-8 -1 -16 1 q-26 6 -25 18q11 194 11 585q0 116 -11 578q-2 84 -10 92t-131 8q-6 1 -8 17q-1 9 -1 18q0 7 1 14zM383 422q0 -153 3 -202.5t13 -69.5q16 -31 71 -62t105 -31q104 0 154 101q47 89 47 264q0 186 -41 270q-21 39 -47 58.5t-72 19.5q-61 0 -112.5 -48t-87.5 -118 q-33 -67 -33 -182z" />
<glyph unicode="c" horiz-adv-x="991" d="M68 412q0 178 131 309q67 67 160.5 108t201.5 41q161 0 261 -70t100 -169q0 -64 -41 -103t-97 -39q-54 0 -90.5 33t-36.5 76q0 44 29 76q13 13 37 25.5t27 15.5q9 9 -6 27t-60.5 34.5t-108.5 16.5q-135 0 -194 -117q-45 -91 -45 -252q0 -165 37 -240q61 -118 205 -118 q181 0 284 217q6 11 38 -5q28 -14 29 -25q0 -2 -1 -3q-60 -130 -161 -202.5t-232 -72.5q-202 0 -338 136q-129 129 -129 301z" />
<glyph unicode="d" horiz-adv-x="1136" d="M72 408q0 92 36.5 178.5t102.5 152.5q135 135 268 135q109 0 236 -120h6q4 121 4 240q0 80 -2 159q0 70 -16 86q-5 4 -22 5t-61 2.5t-71 2.5q-3 0 -4.5 16.5t0 33t6.5 16.5q131 0 397 8q17 0 17 -25q-15 -475 -15 -647q0 -202 4 -432q5 -129 15 -139q7 -5 131 -10 q6 0 10 -18q2 -10 1 -19q0 -8 -1 -17q-3 -18 -14 -18q-193 0 -357 -4q-6 0 -9 5.5t-5.5 23.5t-4 48.5t-3.5 84.5h-8q-60 -90 -126.5 -139.5t-152.5 -49.5q-127 0 -229 105q-133 133 -133 336zM336 432q0 -210 33 -272q42 -82 133 -82q58 0 110.5 42t83.5 105q18 35 23.5 82 t5.5 178q0 163 -12 187q-15 30 -76.5 65t-114.5 35q-96 0 -143 -96q-43 -84 -43 -244z" />
<glyph unicode="e" horiz-adv-x="1030" d="M72 418q0 85 34.5 165t96.5 142q155 152 352 152q180 0 301 -121q50 -50 81 -134t32 -192q0 -16 -13 -16q-464 0 -628 -6q3 -144 45 -224q64 -125 235 -125q189 0 283 201q10 7 38.5 -6.5t26.5 -22.5q-54 -130 -159.5 -195t-225.5 -65q-114 0 -212 39.5t-169 110.5 q-118 118 -118 297zM328 481l401 4q-8 166 -54.5 241t-148.5 75q-51 0 -90 -26t-59 -66q-38 -79 -49 -228z" />
<glyph unicode="f" horiz-adv-x="696" d="M31 825q3 19 14 19q51 -2 148 -2v19q0 123 24 207q26 89 92 155q114 114 291 114q106 0 188 -54.5t82 -141.5q0 -53 -30.5 -86t-83.5 -33q-54 0 -86.5 28t-32.5 74q0 43 29 72q7 7 19.5 15t14.5 10q4 4 -6 14.5t-37.5 20.5t-64.5 10q-95 0 -133 -74q-33 -65 -33 -219 q0 -37 -1 -83.5t-1 -51.5q39 1 80 1t88.5 -0.5t73.5 -0.5q6 0 8.5 -19.5t-0.5 -39t-10 -19.5q-133 3 -194 3q-31 0 -44 -1q2 -145 2 -594q0 -78 8 -84q9 -12 178 -14q7 -2 6.5 -36t-12.5 -34q-273 0 -563 -4q-12 0 -12.5 36t12.5 36q135 2 145 12q6 6 7.5 25t1.5 88 q0 471 -6 573q-51 2 -152 2q-6 0 -9 19q-2 10 -2 20q0 9 1 18z" />
<glyph unicode="g" horiz-adv-x="1030" d="M20 -215q0 58 52 109.5t166 105.5q-107 43 -107 121q0 51 49 100q46 47 129 96q-95 36 -153 104q-56 67 -56 156q0 93 76 166q56 58 150.5 89.5t191.5 31.5h33q4 6 27 44t44 67t46 55q76 76 166 76q64 0 100.5 -35.5t36.5 -81.5q0 -42 -26.5 -67t-67.5 -25q-31 0 -60 25 q-9 9 -21 34.5t-20 32.5q-13 13 -28 13q-21 0 -48 -27q-41 -41 -82 -121q150 -27 238 -115q62 -62 62 -157q0 -94 -87 -181q-54 -54 -150 -87q-88 -29 -182 -29h-18q-41 0 -96 10q-35 -22 -58 -41.5t-30.5 -30.5t-7.5 -18q0 -17 22.5 -26.5t87.5 -20.5q27 -4 133.5 -18.5 t174.5 -24.5q187 -28 254 -92q51 -51 51 -136q0 -110 -78 -188q-72 -71 -194 -111.5t-261 -40.5q-199 0 -329 68.5t-130 169.5zM178 -199q0 -84 89.5 -132t242.5 -48q91 0 163 22.5t111 61.5q43 43 43 105q0 44 -29.5 69.5t-99.5 38.5q-65 11 -340 53q-28 3 -47 9 q-70 -43 -101.5 -85t-31.5 -94zM330 565q0 -96 22 -139q39 -76 150 -76q89 0 136.5 62t47.5 159q0 99 -22 144q-43 80 -158 80q-85 0 -130.5 -61.5t-45.5 -168.5z" />
<glyph unicode="h" horiz-adv-x="1165" d="M25 34q0 32 6 32q122 5 131 10q3 1 4 2q12 12 12 110q0 74 -2.5 486.5t-3.5 455.5q-3 96 -14 107q-4 6 -22.5 7.5t-100.5 4.5q-7 0 -8 31t8 31q35 1 368 10q13 0 17.5 -5.5t3.5 -21.5q-8 -161 -12 -653h10q45 62 77 100t71.5 72.5t81.5 50t91 15.5q114 0 187 -76 q40 -38 57 -97.5t17 -156.5q0 -75 -1.5 -178.5t-1.5 -143.5q0 -125 23 -151q6 -6 26.5 -8t98.5 -5q3 -1 5 -17q1 -6 1 -12q1 -10 -1 -20q-2 -16 -9 -16q-126 3 -235 3q-140 0 -253 -5q-4 0 -7 16t-2.5 31.5t5.5 15.5q96 8 101 13q6 6 8 90q0 30 2 154.5t2 197.5 q0 135 -18 170q-28 61 -99 61q-62 0 -120.5 -58t-86.5 -112q-19 -36 -24.5 -65t-5.5 -82q0 -43 -2 -141t-2 -125q0 -67 14 -84q15 -15 102 -17q5 0 7.5 -16t1 -32t-6.5 -15q-74 2 -495 2q-6 2 -6 34z" />
<glyph unicode="i" horiz-adv-x="622" d="M42 794v16v18q1 16 5 16h367q26 0 26 -21q0 -24 -1 -216t-1 -269q0 -235 25 -260q7 -7 27.5 -8.5t101.5 -3.5q6 0 8 -18q2 -12 1 -24v-10q-1 -18 -7 -18q-23 0 -278 2t-269 2q-2 0 -3 16.5t0 33t5 16.5q139 3 148 12q11 14 14 78q2 59 2 186q0 98 -10 348q-3 62 -13 76 q-10 7 -145 12q-2 0 -3 16zM162 1186q0 55 39 94q47 47 125 47q59 0 103 -39.5t44 -95.5q0 -62 -50.5 -109t-113.5 -47q-61 0 -104 45.5t-43 104.5z" />
<glyph unicode="j" horiz-adv-x="602" d="M-195 -268q0 50 34 87.5t87 37.5q50 0 80.5 -28.5t30.5 -70.5q0 -36 -27 -63q-9 -9 -26 -19t-21 -14q-2 -6 -1 -16t26 -19.5t67 -9.5q102 0 144 86q26 51 26 188q0 77 -6 668q0 110 -4.5 148t-15.5 49q-9 9 -33 12t-113 4q-8 0 -8.5 34t8.5 34q287 0 381 4q17 -3 17 -25 q0 -401 2 -659q0 -25 1 -107.5t1 -115.5q0 -86 -27 -150t-84 -119q-51 -53 -125.5 -85t-155.5 -32q-111 0 -184.5 52.5t-73.5 128.5zM174 1171q0 58 50 107t122 49q64 0 106 -43.5t42 -101.5q0 -60 -53.5 -102t-125.5 -42q-60 0 -100.5 36.5t-40.5 96.5z" />
<glyph unicode="k" horiz-adv-x="1118" d="M26 14q-1 8 -1 16t1 16q2 16 9 17q114 7 125 15q12 12 12 63q4 201 4 518q0 185 -4 529q0 43 -8 51q-6 6 -28 8.5t-101 3.5q-5 0 -6.5 16t1.5 32t9 16q46 2 137.5 2t229.5 -2q12 0 12 -19q-3 -551 -12 -940h6q153 153 266 277q63 69 63 104q0 24 -20.5 30.5t-104.5 12.5 q-6 0 -7 16.5t2.5 33t9.5 16.5q118 -4 223 -4q47 0 116 1t117 1q5 0 7 -16t0.5 -32.5t-7.5 -17.5q-91 -7 -159 -39q-41 -21 -104.5 -72.5t-117.5 -109.5q127 -227 211 -364q45 -72 68 -95q20 -20 41.5 -25t89.5 -7q7 0 7 -37q0 -29 -7 -29h-64h-179q-52 0 -92 1 q-108 0 -138 -3q-3 0 -4.5 16t0 32.5t6.5 16.5q65 2 74 11q10 10 -2 32q-22 39 -83 147.5t-81 145.5q-74 -69 -137 -137q0 -110 2 -149q0 -33 8 -41q12 -9 94 -13q3 0 4.5 -15.5t0 -30.5t-6.5 -15h-475q-5 0 -7 16z" />
<glyph unicode="l" horiz-adv-x="620" d="M38 1286q2 32 13 31q39 0 110 -0.5t130.5 -0.5t114.5 1q24 0 24 -35q0 -106 -1 -301t-1 -309q0 -232 -4 -510q0 -67 16 -80q8 -9 30 -12.5t105 -6.5q2 -1 3 -17v-16v-17q-1 -17 -5 -17q-182 6 -524 6q-5 0 -5 34t5 34q85 2 104 3t25 7q10 8 10 41q7 322 7 414 q0 372 -5 636q0 62 -6 68q-10 10 -139 12q-7 3 -7 25v10z" />
<glyph unicode="m" horiz-adv-x="1710" d="M25 14q-1 8 -1 16t1 16q2 16 6 15q96 5 119.5 7t29.5 8q8 11 8 65q0 56 1 253t1 235q0 129 -12 139q-11 11 -131 16q-6 2 -3.5 34t13.5 32q270 -6 357 -6q12 0 12 -13q-3 -83 -8 -219h10q68 125 145.5 192.5t174.5 67.5q100 0 159.5 -61.5t73.5 -167.5h4 q67 104 140 165.5t169 61.5q118 0 195 -77q67 -67 67 -222q0 -31 -3 -209.5t-3 -240.5q0 -35 6 -43q10 -10 125 -15q3 -1 5 -17q1 -8 0.5 -16t-0.5 -16q-2 -16 -7 -16q-160 4 -462 4q-5 0 -5.5 32t5.5 32q83 3 90 10q8 11 8 61q0 53 2 214.5t2 234.5q0 159 -107 159 q-62 0 -120 -55.5t-84 -105.5q-21 -46 -21 -131q0 -19 -0.5 -88t-0.5 -130t1 -98q0 -59 8 -67q8 -6 92 -11q6 0 7 -15.5t-1.5 -31.5t-7.5 -16q-26 2 -189 4q-116 2 -193 2h-54q-6 0 -6 32t6 32q58 2 72 3t18 7q11 11 11 53v403q0 132 -17 170q-22 43 -71 43q-61 0 -121 -60 t-95 -128q-16 -31 -20 -61t-4 -93v-241q0 -80 8 -88q6 -6 22.5 -8t77.5 -5q4 0 5 -15.5t-1.5 -31.5t-7.5 -16q-63 3 -186.5 3t-306.5 -3q-6 0 -8 16z" />
<glyph unicode="n" horiz-adv-x="1165" d="M42 792q-1 8 -1 14q0 10 1 20q2 18 7 18q36 0 183 1t184 1q16 0 16 -23q-5 -82 -10 -202h10q31 55 58.5 94t67.5 79.5t89.5 61.5t106.5 21q129 0 195.5 -76.5t66.5 -222.5q0 -42 -1 -141.5t-1 -166.5q0 -178 16 -194q12 -12 119 -15q5 0 7 -16q1 -7 0 -14q0 -9 -1 -18 q-2 -16 -8 -15q-110 3 -226.5 3t-238.5 -3q-6 1 -8 17t-0.5 32t4.5 16q82 7 90 15q10 10 10 86v432q0 69 -26.5 103t-83.5 34q-69 0 -125.5 -54t-91.5 -124q-29 -62 -29 -139q0 -44 4 -248q3 -83 10 -90t26.5 -9.5t88.5 -5.5q4 0 5 -16.5t-1.5 -33t-7.5 -15.5 q-414 0 -494 -4q-5 1 -7.5 18t-1 34t6.5 17q119 3 127 11q15 15 15 192v326q0 151 -17 168q-9 9 -103 13q-17 1 -26 1q-3 0 -5 18z" />
<glyph unicode="o" d="M70 414q0 94 33.5 168.5t103.5 144.5t167 110t204 40q201 0 333 -132q136 -136 136 -329q0 -163 -144 -303q-66 -68 -156.5 -105t-189.5 -37q-103 0 -202 45t-171 117q-114 114 -114 281zM336 414q0 -197 56.5 -282t166.5 -85q64 0 103 23t67 77q49 96 49 338 q0 166 -30 222q-25 49 -65.5 73.5t-109.5 24.5q-131 0 -194 -125q-43 -85 -43 -266z" />
<glyph unicode="p" horiz-adv-x="1140" d="M2 -430q-1 6 -1 13q0 12 1 23q3 19 10 19q23 1 51.5 2t44 1.5t31.5 2t27 4.5q16 5 16 168q0 556 -8 764q-5 180 -18 193q-7 7 -94 11q-28 2 -46 3q-3 0 -5 17t0.5 34t8.5 17q209 0 365 8q18 0 21 -14q4 -40 4 -91q0 -35 -2 -75h8q28 54 61.5 96t88 75t114.5 33 q144 0 250 -106q135 -138 135 -319q0 -197 -141 -338q-71 -71 -138 -104.5t-143 -33.5q-130 0 -227 113l-6 -2q6 -123 6 -274q0 -166 14 -172q14 -3 158 -9q8 0 9 -34.5t-9 -34.5q-22 0 -130.5 -3t-146.5 -3q-221 0 -303 -3q-5 0 -6 19zM406 453q0 -147 4.5 -203.5 t17.5 -85.5q22 -43 76 -74t106 -31q44 0 77.5 18t60 59t40 113.5t13.5 174.5q0 180 -39 256q-45 84 -139 84q-53 0 -99.5 -37t-74.5 -94q-24 -47 -33.5 -85.5t-9.5 -94.5z" />
<glyph unicode="q" d="M72 367q0 212 153 362q69 69 137 107t152 38q61 0 114.5 -22.5t83 -49t53 -49t30.5 -22.5q10 0 34 24.5t99 114.5q10 4 27.5 0t17.5 -10q-19 -405 -19 -885q0 -133 2.5 -204t6.5 -94t12 -31q14 -14 137 -25q8 -1 8 -26v-11q-2 -35 -10 -35q-177 9 -371 9q-89 0 -182 -2 q-5 0 -7.5 18t-1 35.5t6.5 17.5q99 5 123.5 7t30.5 8q14 14 14 118q0 322 2 373l-8 4q-41 -69 -113 -117.5t-158 -48.5q-149 0 -262 113q-112 116 -112 283zM336 412q0 -190 35 -258q16 -34 52 -57t83 -23q63 0 119.5 43t85.5 100q13 27 16.5 67.5t3.5 159.5q0 204 -18 244 q-20 39 -72.5 68.5t-112.5 29.5q-97 0 -147 -98q-26 -52 -35.5 -113.5t-9.5 -162.5z" />
<glyph unicode="r" horiz-adv-x="942" d="M30 33q0 3 -1 5q0 30 6 30q136 6 143 10q12 12 15 104v404q-3 156 -23 176q-8 8 -127 10q-7 0 -8 17.5t2 35t8 17.5q67 0 198 3t152 3q30 0 27 -27q0 -41 -4 -213l10 -2q60 128 124 194t159 66q91 0 145.5 -50.5t54.5 -129.5q0 -72 -43 -119t-102 -47q-54 0 -89.5 29 t-35.5 82q0 32 14.5 60.5t28.5 46.5t14 22q0 14 -32 14q-95 0 -185 -176q-57 -117 -57 -219v-133q0 -46 3 -84t6.5 -57.5t6.5 -22.5q6 -6 154 -12q7 0 9.5 -18t0.5 -36t-8 -18h-561q-5 0 -5 35z" />
<glyph unicode="s" horiz-adv-x="956" d="M98 279q0 7 35 11.5t39 -1.5q44 -108 88 -152q83 -80 229 -80q106 0 152 43q33 33 33 86q0 50 -45.5 79t-175.5 61q-116 30 -175.5 54t-91.5 56q-61 61 -61 148q0 119 97 200.5t233 81.5q56 0 111 -15t88.5 -30.5t37.5 -15.5q8 0 14 9.5t20 42.5q8 19 13 30q2 4 28 4 q3 -1 7 -1q33 0 35 -5q-9 -104 -9 -219q0 -31 1 -64q-1 -9 -37 -9.5t-39 5.5q-43 82 -78 117q-78 78 -192 78q-79 0 -123 -41q-31 -31 -31 -76q0 -52 48.5 -81t185.5 -63q123 -31 178 -56t94 -64q53 -53 53 -144q0 -106 -74 -180q-50 -50 -126 -76t-162 -26 q-66 0 -127.5 13.5t-97.5 26.5t-40 13q-18 0 -43 -66q-2 -5 -22 -5q-7 0 -15 1q-34 2 -34 8q-5 126 -21 302z" />
<glyph unicode="t" horiz-adv-x="765" d="M31 785q-1 10 -1 19.5t1 18.5q2 19 6 19q92 6 130 17t69 40q33 33 65.5 100.5t52.5 147.5q2 7 24 7h10q32 -2 36 -11q-1 -33 -5 -157t-5 -142q80 2 262 2q7 1 9.5 -20t-1 -42.5t-10.5 -21.5q-59 1 -108 1q-97 0 -150 -3q-8 -114 -8 -428q0 -165 16 -201q24 -47 86 -47 q92 0 147 195q2 3 9 3t17.5 -2.5t20.5 -6t16 -7.5q5 -4 5 -7q0 -275 -268 -275q-142 0 -219 77q-62 65 -62 179q0 176 8 524q-12 2 -145 2q-6 0 -8 19z" />
<glyph unicode="u" horiz-adv-x="1144" d="M8 813q0 33 10 33q42 -1 101 -1q99 0 248 3q19 0 24.5 -6t5.5 -27q0 -24 -2 -256.5t-2 -308.5q0 -67 34 -105.5t91 -38.5q52 0 103 48.5t88 121.5q28 55 28 123q2 106 2 254q0 89 -14 103q-8 8 -36.5 11t-115.5 3q-7 0 -8 36t8 36q122 4 379 4q29 0 29 -19 q-12 -528 -12 -690q0 -45 10 -55q8 -8 137 -10q8 0 8 -37q0 -2 1 -4q0 -33 -9 -33q-67 0 -192 -4t-160 -4q-9 0 -14.5 7t-9.5 30t-5 65q0 21 -0.5 49.5t0.5 63.5h-10q-137 -234 -309 -234q-54 0 -106.5 19t-86.5 53q-36 35 -50.5 81t-14.5 124q0 60 3 220t3 179 q0 101 -14 115q-7 7 -104 11q-18 1 -28 1t-10 39z" />
<glyph unicode="v" horiz-adv-x="1073" d="M4 792q-1 7 -1 13q-1 11 1 21q2 18 8 18q76 2 187 2h57q50 0 95 -1q90 0 163 1q7 0 9.5 -17t0.5 -34t-8 -17q-101 -5 -108 -12q-2 -2 -2 -9q0 -32 53 -167q147 -387 155 -410h4q149 374 164 414q35 106 35 135q0 25 -23.5 35t-95.5 18q-5 0 -6.5 16t0.5 32t8 16 q356 -4 371 -4q5 0 7 -17q1 -10 1 -19q-1 -7 -1 -15q-2 -17 -5 -17q-59 -5 -82.5 -11.5t-42.5 -25.5q-36 -39 -84 -159q-210 -500 -246 -586q-5 -14 -21 -20.5t-60 -6.5q-45 0 -58 5.5t-20 21.5q-176 451 -258 633q-48 105 -70 127q-10 10 -32.5 14.5t-88.5 7.5q-4 0 -6 18z " />
<glyph unicode="w" horiz-adv-x="1626" d="M14 829q2 17 6 17q66 -3 172 -3q136 0 338 5q5 0 7.5 -17t1.5 -34t-7 -17q-90 -7 -102 -13q-4 -2 -8 -5q-6 -7 -6 -24q0 -40 35 -136q22 -66 73 -208t68 -191h6q146 403 231 641q5 11 17 14.5t51 3.5q79 0 84 -22q16 -61 52 -178t80.5 -261t62.5 -204h8q21 57 68.5 178 t54.5 139q51 136 51 199q0 38 -22 49.5t-107 17.5q-6 0 -7 16.5t1.5 33t7.5 16.5q75 -2 395 -2q4 0 4 -33t-4 -35q-59 -4 -84 -12.5t-43 -28.5q-38 -38 -86 -155q-12 -30 -100.5 -245.5t-141.5 -354.5q-6 -9 -102 -9q-38 0 -41 13q-154 459 -201 618h-6q-35 -98 -229 -616 q-8 -15 -103 -15q-37 0 -40 13q-210 547 -254 671q-27 79 -41 93q-13 13 -37.5 18t-93.5 10q-7 0 -9 18q-1 10 -1 20q0 7 1 15z" />
<glyph unicode="x" horiz-adv-x="1110" d="M15 33v9q0 24 5 26q96 9 127 24q12 6 30.5 21.5t31 28.5t34.5 37.5t27 29.5q153 170 176 197v2q-115 153 -227 284q-44 60 -72 72q-16 8 -94 8q-6 0 -8 17.5t-0.5 35t6.5 17.5q77 0 236.5 3t242.5 3q5 0 7.5 -16.5t2 -33t-4.5 -16.5q-74 -4 -81 -10q-3 -2 -5 -6 q-8 -13 10 -41q59 -87 162 -209h6q39 49 98 131q47 61 47 101q0 20 -17 26t-89 12q-9 0 -9 31t9 31q63 -2 401 -2q8 0 9 -32t-9 -32q-86 -9 -128 -28.5t-93 -71.5q-22 -23 -66 -72q-50 -58 -112 -137q117 -155 215 -276q86 -106 112 -119q11 -5 95 -17q6 -1 6 -21v-12 q-2 -32 -11 -32q-156 8 -219 8q-55 0 -148.5 -3t-135.5 -3q-3 0 -5 16.5t-1 33.5t6 18q63 6 82.5 13.5t19.5 24.5t-20 46q-118 163 -164 217h-6q-74 -86 -129 -156q-50 -62 -50 -96q0 -24 21.5 -36t93.5 -20q7 -1 5.5 -31t-9.5 -30q-32 0 -174 2q-86 1 -150 0h-77 q-9 0 -10 33z" />
<glyph unicode="y" horiz-adv-x="1099" d="M0 809q0 35 8 35h244q233 0 272 2q4 0 6.5 -16.5t1.5 -33t-6 -16.5q-87 -8 -100 -20q-5 -5 -5 -17q0 -28 32 -96q24 -52 94.5 -208t97.5 -214h6q103 253 137 350q37 101 37 148q0 31 -21 41t-99 16q-7 2 -5.5 33t7.5 31q131 -2 230 -2t165 2q8 0 8 -33t-8 -35 q-61 -3 -86.5 -11.5t-46.5 -29.5q-47 -47 -107 -192q-228 -552 -284 -686q-72 -160 -142 -230q-76 -76 -180 -76q-88 0 -149.5 50.5t-61.5 119.5q0 54 36 89.5t89 35.5q47 0 75.5 -30.5t28.5 -71.5q0 -44 -32 -72l-15 -14q-6 -8 -7 -16.5t12 -15.5t38 -7q60 0 109 49 q83 83 151 285q-163 373 -333 702q-33 65 -58 90q-15 13 -37.5 19t-93.5 10q-8 0 -8 35z" />
<glyph unicode="z" horiz-adv-x="1030" d="M74 22q-2 9 -2 16q0 10 4 13q6 7 270 334q203 251 301 379v6q-50 4 -266 4q-70 0 -98 -34.5t-117 -225.5q-3 -6 -22 -5t-19 7q1 76 8.5 184t11.5 134q0 12 13 12q74 -4 342 -4q419 0 424 -2q4 -7 4 -32q0 -4 1 -7q0 -19 -3 -27q-14 -18 -64 -79t-127.5 -154.5 t-124.5 -151.5q-197 -248 -241 -307l2 -6q98 -4 207 -4q92 0 129.5 6.5t58.5 27.5q47 47 121 252q3 7 13 8.5t19 -1t9 -7.5q-4 -250 -10 -352q0 -10 -17 -10q-90 4 -483 4q-238 0 -334 -2q-6 2 -10 24z" />
<glyph unicode="{" horiz-adv-x="765" d="M53.5 535q-1.5 13 0.5 26.5t7 13.5q154 10 222 41q23 11 33 27.5t10 50.5q0 54 -44 168t-44 178q0 86 75 164q53 52 149.5 85.5t254.5 68.5q5 1 10.5 -13t7.5 -29.5t0 -17.5q-139 -43 -186 -67q-90 -47 -90 -133q0 -64 40 -178t40 -172q0 -98 -103 -150q-62 -32 -198 -49 q-2 0 -2 -3t2 -3q124 -18 198 -56q90 -46 90 -127q0 -42 -19.5 -90t-43 -85t-43 -85t-19.5 -90q0 -72 72 -110q58 -29 258 -88q3 -3 2.5 -17t-4 -29t-6.5 -14q-133 27 -203 44t-148.5 49t-119.5 73q-35 35 -50.5 69t-15.5 85q0 42 20 90t43.5 84t43.5 81t20 83q0 47 -37 63 q-60 30 -217 49q-4 0 -5.5 13z" />
<glyph unicode="|" horiz-adv-x="462" d="M184 -211q9 682 9 791v729q0 2 20.5 3.5t41.5 1.5t21 -3q-4 -536 -4 -744q0 -147 -2 -386.5t-2 -389.5q0 -4 -21 -6t-42 -1t-21 5z" />
<glyph unicode="}" horiz-adv-x="765" d="M33.5 -203.5q-0.5 13.5 1.5 15.5q178 47 244.5 90t66.5 110q0 58 -56.5 173.5t-56.5 170.5q0 53 27.5 87.5t79.5 60.5q85 43 192 55q3 0 3 2t-3 2q-132 21 -206 58q-86 44 -86 137q0 58 44 175t44 183q0 72 -60 103q-97 43 -233 79q-3 3 -1.5 17t6 29t7.5 14 q265 -47 365 -96q78 -38 107.5 -80.5t29.5 -118.5q0 -57 -50 -178t-50 -180q0 -48 45 -70q66 -33 213 -43q6 0 6.5 -31t-6.5 -31q-131 -3 -213 -41q-48 -25 -48 -71q0 -39 18.5 -85t41 -82.5t41 -86t18.5 -94.5q0 -136 -162 -215q-18 -9 -38 -17.5t-47.5 -17t-46 -14 t-55 -14t-52.5 -12.5t-61 -13.5t-58 -12.5q-4 -1 -7.5 14t-4 28.5z" />
<glyph unicode="~" horiz-adv-x="1007" d="M104 530q44 252 218 252q49 0 105 -25t97.5 -55.5t89.5 -55.5t82 -25q58 0 93.5 40t66.5 136q2 2 7 1.5t12.5 -2.5t14 -4.5t10.5 -6t3 -5.5q-11 -46 -19.5 -75.5t-25 -66t-36.5 -57t-52.5 -35t-73.5 -14.5q-48 0 -105 25.5t-101 55.5t-95.5 55.5t-89.5 25.5 q-53 0 -86 -40.5t-61 -141.5q0 -6 -21 -6q-20 0 -28 6.5t-5 17.5z" />
<glyph unicode="&#xa1;" horiz-adv-x="626" d="M154 1102q0 66 48 115t115 49q66 0 115 -43.5t49 -104.5q0 -67 -45 -115.5t-119 -48.5q-68 0 -115.5 41.5t-47.5 106.5zM158 117q0 47 11 94t27.5 98.5t34 115.5t33 172t21.5 241q1 11 32 10.5t31 -12.5q1 -141 13.5 -250t30 -170.5t34.5 -108t29 -90.5t12 -90 q0 -76 -48 -115t-112 -39q-61 0 -105 37.5t-44 106.5z" />
<glyph unicode="&#xa2;" horiz-adv-x="1062" d="M96 621q0 171 127 301q67 67 159 109t187 48q8 100 15 195q0 5 18 6t36.5 -2t18.5 -8q-1 -11 -6.5 -81.5t-7.5 -111.5q71 -8 140.5 -37t117.5 -75q62 -62 62 -136q0 -53 -38.5 -90t-93.5 -37q-48 0 -79 31t-31 80q0 56 35 86q9 9 20.5 18t14.5 13q5 5 -7 20.5t-51.5 32.5 t-95.5 21q-7 -101 -25 -350.5t-28 -379.5q120 9 202 88q44 46 101 148q1 3 17 -4t31.5 -16.5t14.5 -12.5q-47 -101 -114 -170q-111 -111 -261 -117q-5 -89 -16 -221q0 -2 -18.5 -2.5t-37 0.5t-18.5 4q2 26 9 102.5t10 119.5q-176 18 -295 137q-113 113 -113 291zM344 565 q0 -121 39 -194q38 -75 127 -92q10 135 29 383t26 342q-55 -9 -98.5 -40.5t-67.5 -76.5q-55 -113 -55 -322z" />
<glyph unicode="&#xa3;" horiz-adv-x="1249" d="M37 158q0 72 51.5 123t136.5 51q83 0 205 -39q-3 47 -21.5 95t-37.5 78.5t-54 80.5q-63 -2 -194 -2q-3 0 -4.5 12t-2 28.5t-1.5 20.5q0 8 8 8h147q-88 135 -88 252q0 131 117 248q69 69 168.5 109.5t216.5 40.5q95 0 189 -34t159.5 -100t65.5 -145q0 -77 -46.5 -126.5 t-113.5 -49.5q-63 0 -102 35.5t-39 89.5q0 53 37 90q24 24 61.5 42t40.5 21q5 5 -3.5 17t-30.5 27.5t-52 29.5t-75 23.5t-93 9.5q-80 0 -143 -36t-93 -95q-24 -53 -24 -113q0 -58 26 -111.5t74.5 -120.5t67.5 -102q232 0 334 2q6 0 6 -65q0 -6 -6 -6q-182 0 -303 2 q16 -53 16 -103q0 -106 -59 -200q164 -53 270 -53q52 0 82 7t46.5 20.5t29.5 39.5q32 64 61 217q1 4 31 1.5t30 -7.5q-32 -261 -84 -365q-31 -62 -75 -89t-113 -27q-106 0 -188 39t-174 110q-3 -4 -19 -20q-127 -127 -248 -127q-84 0 -137 49t-53 117zM109 162q0 -51 35 -81 t96 -30q57 0 105.5 42t70.5 106q-103 75 -185 75q-55 0 -88.5 -31t-33.5 -81z" />
<glyph unicode="&#xa5;" horiz-adv-x="1294" d="M15 1189q0 18 2.5 36t7.5 18q299 -3 573 4q5 0 6.5 -17.5t0 -34.5t-4.5 -17q-114 -6 -125 -17q-13 -13 8 -57q138 -280 242 -463q3 -7 8 0q138 230 209 363q33 62 33 112q0 35 -31.5 47.5t-122.5 18.5q-3 0 -3 16t2 32.5t5 16.5q132 -4 234 -4q111 0 217 2q3 0 4 -16.5 t0.5 -33.5t-2.5 -17q-97 -11 -123 -23q-36 -19 -69 -63t-87 -136q-214 -361 -219 -370q-8 -13 -8 -49q199 0 289 2q6 0 6 -39q0 -31 -6 -31q-176 0 -293 2q0 -30 -1 -73.5t-1 -63.5q203 0 295 2q6 0 6 -39q0 -31 -6 -31q-178 0 -295 2q2 -31 2 -86q0 -80 16 -100 q15 -12 183 -19q3 0 3 -34.5t-3 -34.5q-135 6 -342 6q-62 0 -165.5 -1t-156.5 -1q-3 0 -3 35t3 35q168 0 184 16q17 17 17 80v104q-66 0 -144.5 -1t-134.5 -1q-8 0 -8 45q0 25 8 25q27 0 133 -1t146 -1q1 31 1 57t-0.5 48.5t-0.5 31.5q-66 0 -144.5 -1t-134.5 -1q-8 0 -8 41 q0 29 8 29q27 0 132.5 -1t146.5 -1q0 14 -6 26q-56 103 -262 469q-52 91 -76 115q-12 12 -39 16.5t-103 7.5q-3 0 -3 18z" />
<glyph unicode="&#xa7;" horiz-adv-x="1087" d="M113 639q0 74 52 126t136 83q-80 59 -80 147q0 84 70 154q113 113 319 113q137 0 229.5 -59.5t92.5 -143.5q0 -56 -31 -87.5t-80 -31.5q-50 0 -83 28.5t-33 71.5q0 40 30 70q12 14 29 24l18 11q5 5 -11.5 18t-63 26t-109.5 13q-83 0 -147 -36t-64 -103q0 -42 45 -71.5 t182 -90.5q27 -12 41 -18q188 -84 258 -142.5t70 -148.5q0 -119 -168 -201q45 -31 65.5 -63.5t20.5 -81.5q0 -83 -72 -152q-115 -112 -315 -112q-150 0 -259.5 63.5t-109.5 159.5q0 52 32.5 86.5t84.5 34.5q49 0 83 -30.5t34 -72.5q0 -47 -31 -78q-10 -10 -27 -19t-18 -11 q-3 -3 4 -11t24.5 -18.5t42.5 -20.5t65 -17t85 -7q90 0 153.5 37t63.5 104q0 22 -13 40t-56.5 42t-74.5 38t-117 50q-35 15 -54 23q-182 77 -247.5 129.5t-65.5 134.5zM264 702q0 -43 45 -73q31 -21 186 -87q23 -10 42 -18q166 -66 215 -92q73 41 73 109q0 47 -53.5 82 t-189.5 94q-152 60 -215 94q-103 -42 -103 -109z" />
<glyph unicode="&#xa8;" horiz-adv-x="1032" d="M211 1133q0 56 37.5 96.5t95.5 40.5q56 0 89.5 -41t33.5 -99q0 -56 -36 -97.5t-93 -41.5q-55 0 -91 41.5t-36 100.5zM567 1137q0 54 35.5 95.5t91.5 41.5q59 0 93 -39t34 -94q0 -61 -34.5 -104.5t-92.5 -43.5q-56 0 -91.5 41.5t-35.5 102.5z" />
<glyph unicode="&#xa9;" horiz-adv-x="1544" d="M86 608q0 152 50.5 271t160.5 229q91 91 224 145t261 54q281 0 490 -209q186 -186 186 -459q0 -295 -207 -502q-99 -99 -205.5 -145.5t-246.5 -46.5q-316 0 -506 190q-207 207 -207 473zM154 612q0 -255 184 -436q79 -81 201 -126.5t258 -45.5q124 0 223 43.5t186 130.5 q185 188 185 465q0 248 -166 414q-188 188 -445 188q-110 0 -232.5 -45.5t-203.5 -126.5q-190 -193 -190 -461zM410 608q0 167 108 275q127 127 281 127q48 0 92 -14.5t68.5 -29t25.5 -14.5q2 0 4.5 1.5t6 6.5t7 9.5t10 14t11.5 17.5q2 3 27.5 0.5t25.5 -8.5q-4 -148 0 -268 q0 -4 -14.5 -6t-29.5 -0.5t-17 6.5q-17 51 -41.5 101.5t-46.5 70.5q-40 43 -117 43q-108 0 -152 -92q-41 -81 -41 -238q0 -126 37 -196q48 -97 158 -97q54 0 87.5 15t62.5 45q57 57 69 149q3 5 35.5 -0.5t32.5 -11.5q-9 -100 -88 -182q-91 -88 -230 -88q-160 0 -262 102 q-110 110 -110 262z" />
<glyph unicode="&#xaa;" horiz-adv-x="827" d="M102 455q0 45 15 45q46 0 157.5 -1t176.5 -1q50 0 139.5 1t150.5 1q4 0 7.5 -15.5t3.5 -23.5q0 -37 -15 -37h-624q-11 0 -11 31zM109 791q0 67 45 112q40 40 115.5 62.5t222.5 35.5q2 23 2 68q0 64 -19 96q-21 35 -96 35q-28 0 -50.5 -6.5t-32 -13t-9.5 -11.5 q0 -3 8.5 -10t17.5 -20.5t9 -32.5q0 -35 -24 -56.5t-62 -21.5q-39 0 -64 22t-25 58q0 48 35 78q71 71 209 71t201 -63q60 -60 57 -176q-6 -216 -6 -270q0 -15 8.5 -24t22.5 -9q40 0 61 88q3 2 13.5 1t22 -6t11.5 -10q-11 -66 -50 -107.5t-101 -41.5q-103 0 -142 94 q-89 -96 -194 -96q-70 0 -128 44t-58 110zM266 805q0 -41 19.5 -64.5t52.5 -23.5q43 0 89.5 30.5t53.5 55.5q9 50 11 147q-126 -16 -164 -37q-62 -30 -62 -108z" />
<glyph unicode="&#xab;" horiz-adv-x="1009" d="M83.5 449q-0.5 18 10.5 28q93 80 209.5 191.5t192.5 191.5q6 4 32.5 -11t24.5 -20q-17 -28 -53.5 -86.5t-49 -80t-36.5 -62t-42 -75t-38 -76.5v-5q5 -44 48.5 -169t102.5 -250q3 -7 -20 -22.5t-29 -12.5q-148 196 -188 246q-85 106 -154 184q-10 11 -10.5 29zM522 403 q-36 43 0 82q33 33 66 67.5t55 58t58 64.5t49.5 56.5t57 66.5t54.5 64q2 3 17 -3t27.5 -15t8.5 -13q-50 -95 -176 -368v-17q61 -205 148 -428q4 -7 -19.5 -20.5t-27.5 -9.5q-42 54 -104 137.5t-111.5 148.5t-102.5 129z" />
<glyph unicode="&#xad;" horiz-adv-x="696" d="M100 430v123q0 10 11 10q111 -1 475 4q8 0 8 -8q1 -6 1 -33.5t-0.5 -59.5t-0.5 -34q0 -8 -10 -8q-160 4 -281 4q-40 0 -98 -2t-88 -2q-17 0 -17 6z" />
<glyph unicode="&#xae;" horiz-adv-x="1015" d="M100 856q0 174 115 289q53 53 127.5 85t157.5 32q107 0 201.5 -51t154 -145.5t59.5 -209.5q0 -78 -33 -152t-83 -124q-59 -59 -139.5 -91t-167.5 -32q-154 0 -273 120t-119 279zM152 850q0 -134 105 -238t239 -104q160 0 266 106q98 98 98 242q0 153 -105.5 255.5 t-254.5 102.5q-146 0 -244 -98q-104 -104 -104 -266zM291.5 676.5q-2.5 25.5 5.5 25.5q44 0 47 3q6 6 6 184q0 147 -2 149q-6 6 -49 9q-2 0 -2 12.5t1.5 25.5t4.5 13q49 -2 107 -2h104q186 0 186 -111q0 -89 -122 -113q-3 0 -3 -3t3 -3q43 -8 63 -28q15 -14 22 -46.5 t12.5 -56.5t16.5 -24q19 0 35 32q2 2 11.5 -4t17.5 -13t6 -9q-22 -41 -44 -58.5t-54 -17.5q-45 0 -71 31.5t-40 111.5q-8 60 -43 60h-51q0 -137 2 -139q3 -5 47 -5q3 0 3.5 -26.5t-3.5 -26.5q-70 4 -211 4q-3 0 -5.5 25.5zM459 899h47q42 0 59 18.5t17 63.5q0 33 -18 47 t-56 14h-45q-4 -4 -4 -12v-131z" />
<glyph unicode="&#xaf;" horiz-adv-x="1032" d="M231 1156.5q0 17.5 2 21.5q5 10 25 10q46 0 128 -1t128 -1q48 0 136 1t134 1q15 0 15 -12q0 -17 -1 -62t-1 -59q0 -7 -5.5 -12t-11.5 -5h-534q-13 0 -13 15q0 21 -1 53.5t-1 50z" />
<glyph unicode="&#xb0;" horiz-adv-x="829" d="M131 973q0 115 88 202t197 87q115 0 195.5 -78.5t80.5 -200.5q0 -124 -86 -205.5t-205 -81.5q-111 0 -190.5 79t-79.5 198zM205 973q0 -92 58 -151.5t138 -59.5q89 0 154.5 62t65.5 155q0 95 -62 156t-149 61q-77 0 -141 -67.5t-64 -155.5z" />
<glyph unicode="&#xb1;" horiz-adv-x="1060" d="M113 154q0 10 10 10h815q8 0 8 -14q0 -64 -8 -64h-813q-12 0 -12 68zM115 803q0 6 8 6h358q6 0 6 6v356q0 7 27 7q55 0 55 -4v-363q106 -2 369 -2q8 0 8 -16q0 -3 -2 -21.5t-3.5 -29.5t-4.5 -11q-45 0 -164.5 1t-198.5 1q-4 0 -4 -4v-362q0 -7 -67 -7q-15 0 -15 9v362 q0 2 -2 2q-256 0 -360 -2q-4 0 -5.5 14.5t-2.5 34t-2 23.5z" />
<glyph unicode="&#xb2;" horiz-adv-x="792" d="M86 856q65 78 147 162q27 27 82.5 81t83.5 83q47 46 67.5 89t20.5 111q0 58 -18 93q-28 57 -107 57q-66 0 -116 -47q-36 -42 -23 -55q2 -3 11 -5t23.5 -5t25.5 -9q39 -17 39 -76q0 -40 -28 -66t-67 -26q-43 0 -70.5 31t-27.5 78q0 84 66 153q78 78 202 78q150 0 230 -80 q53 -56 53 -121q0 -76 -57 -133q-32 -32 -98 -75t-140.5 -97.5t-134.5 -120.5q-1 -2 -0.5 -4t2.5 -2q7 0 67 -1t93 -1q169 0 174 8q6 6 17 29.5t25.5 59t22.5 53.5q1 2 13.5 -1t24.5 -8.5t11 -9.5q-50 -121 -75 -254q0 -8 -9 -8q-24 0 -131.5 1t-165.5 1q-188 0 -223 -2 q-2 0 -4.5 9.5t-3.5 19.5z" />
<glyph unicode="&#xb3;" horiz-adv-x="792" d="M104 1004q0 40 25 68t66 28q36 0 58.5 -22t22.5 -52q0 -40 -22 -65q-6 -6 -18.5 -15t-16.5 -14q-8 -8 8 -24.5t54.5 -31t83.5 -14.5q49 0 74.5 14.5t39.5 45.5q17 35 17 106q0 61 -17 96q-29 62 -143 62q-10 0 -31.5 -1t-30.5 -1q-4 0 -4 27.5t4 27.5h66q94 0 125 61 q16 36 16 101q0 50 -16 82q-23 51 -111 51q-38 0 -68.5 -12.5t-42.5 -25t-7 -17.5q2 -3 19.5 -13t27.5 -20q22 -22 22 -55q0 -36 -24 -58t-60 -22q-40 0 -65 26.5t-25 63.5q0 56 47 106q78 78 217 78q78 0 137.5 -20.5t90.5 -53.5q47 -44 47 -102q0 -65 -41 -106 q-65 -65 -168 -86v-3q124 -15 182 -73q45 -45 45 -107q0 -78 -65 -143q-38 -36 -98.5 -59t-133.5 -23q-147 0 -237 90q-50 50 -50 105z" />
<glyph unicode="&#xb4;" horiz-adv-x="1032" d="M330 1014q16 15 44 40t44 40q76 81 141 166q55 65 113 65q41 0 68.5 -26t27.5 -64q0 -70 -96 -115q-99 -59 -314 -151q-1 -1 -8.5 10t-14 22.5t-5.5 12.5z" />
<glyph unicode="&#xb5;" horiz-adv-x="1187" d="M152 -299q0 46 14 208.5t14 344.5q0 355 -4 477q0 104 1 107q1 6 5 6q36 0 121 2t96 2q19 0 19 -27q0 -26 -1 -237.5t-1 -292.5q0 -89 18 -129q41 -78 109 -78q47 0 94 40t80 105q24 46 24 97q0 62 1 275.5t1 236.5q0 8 7 8q205 0 217 -2q20 -2 20 -19q0 -26 -5 -276 t-5 -367q0 -63 10.5 -86.5t34.5 -23.5q65 0 102 149q6 4 32 -4t26 -14q-18 -102 -75 -161.5t-151 -59.5q-96 0 -145.5 45t-67.5 137q-50 -86 -121.5 -138.5t-154.5 -52.5q-148 0 -219 115q-2 1 -6 0.5t-4 -2.5q0 -22 -0.5 -55t-0.5 -50.5t0.5 -43t1.5 -39t3.5 -32t6.5 -29 t9.5 -24t13.5 -21.5t19 -16.5t24 -15.5q12 -6 35.5 -15.5t38 -17t30.5 -19t24 -28t8 -38.5q0 -51 -41 -81t-103 -30q-68 0 -111.5 43t-43.5 127z" />
<glyph unicode="&#xb6;" horiz-adv-x="1157" d="M78 883q0 140 102 239q61 62 157.5 92.5t252.5 30.5q60 0 129 -2t121 -2q42 0 141.5 2t142.5 2q6 0 7 -17.5t-2 -34.5t-7 -17q-56 0 -115.5 -3t-62.5 -6q-4 -4 -4 -24q-1 -154 -6.5 -384t-7.5 -370q-2 -120 -2 -193t-2 -198q0 -4 -19 -6t-38 -1t-19 5q14 939 18 1151 q0 14 -6 20q-4 2 -133 2q-10 0 -10 -8q0 -76 -2 -234.5t-2 -271.5q0 -183 -5.5 -363t-5.5 -296q0 -6 -36.5 -6t-36.5 6q0 80 2 235t2 261q0 10 -13 10q-328 31 -446 149q-94 94 -94 232z" />
<glyph unicode="&#xb7;" horiz-adv-x="557" d="M111 668q0 71 50 118.5t120 47.5q72 0 117.5 -45.5t45.5 -114.5q0 -77 -49.5 -132t-120.5 -55q-65 0 -114 54t-49 127z" />
<glyph unicode="&#xb8;" horiz-adv-x="1032" d="M268 -324q-3 2 5 17t19 28.5t15 10.5q94 -66 162 -66q37 0 66 25q26 29 26 82q0 57 -53 57q-28 0 -74 -16q-9 -1 -25.5 13t-13.5 19l103 170l63 -18l-59 -104q30 6 76 6q60 0 100.5 -33t40.5 -92q0 -60 -45 -105q-35 -34 -86.5 -53.5t-104.5 -19.5q-106 0 -215 79z" />
<glyph unicode="&#xb9;" horiz-adv-x="792" d="M118.5 831.5q-0.5 14.5 0.5 28.5t4 14q30 0 95 1.5t87 1.5q6 0 6 4q2 68 2 354v231q0 4 -4 4q-61 -20 -176 -30q-1 0 -3.5 12t-4 24.5t-0.5 12.5q126 14 199 45q48 14 131 55q4 3 22.5 -3t18.5 -9q-2 -56 -2.5 -157t-1.5 -136q-3 -256 0 -391q0 -16 6 -16q24 0 79 -1.5 t95 -1.5q3 0 3 -28.5t-3 -28.5q-41 0 -117 2t-149 2q-109 0 -285 -4q-2 0 -2.5 14.5z" />
<glyph unicode="&#xba;" horiz-adv-x="849" d="M90 936q0 67 23.5 118.5t74.5 102.5q103 103 250 103q139 0 232 -93q92 -92 92 -225q0 -116 -96 -209q-44 -46 -108 -74t-132 -28q-70 0 -137.5 29.5t-116.5 78.5q-82 82 -82 197zM96 453q0 45 10 47q45 0 153 -2t147 -2q47 0 169 2t175 2q10 0 10 -33q-3 -47 -12 -47 q-28 0 -86 1t-93 1q-90 0 -243.5 -1t-221.5 -1q-8 0 -8 33zM268 938q0 -244 158 -244q89 0 121 66q35 68 35 233q0 92 -23 142q-32 63 -127 63q-92 0 -133 -84q-31 -68 -31 -176z" />
<glyph unicode="&#xbb;" horiz-adv-x="1011" d="M94 834q-1 2 4.5 5.5t14 7.5t18 8t16.5 5.5t9 -0.5q285 -322 333 -377q18 -21 18 -36t-18 -39q-24 -28 -46 -55.5t-46.5 -59.5t-40.5 -54t-44 -62t-40.5 -57.5t-46 -66t-45.5 -65.5q-2 -3 -17 2.5t-28 13.5t-10 12q40 110 143 416q4 18 0 27q-39 110 -73 183t-101 192z M446 834q-3 2 10 9q37 21 48 19q115 -105 420 -391q7 -9 5 -20t-11 -19q-87 -100 -193 -239q-26 -33 -77 -104t-75 -101q-1 -1 -7.5 0t-15 4t-16 6.5t-12.5 7.5t-4 6q115 279 160 420q3 6 -6 25q-97 201 -226 377z" />
<glyph unicode="&#xbc;" horiz-adv-x="1667" d="M118.5 524q-0.5 14 0.5 28.5t4 14.5q30 0 95 1t87 1q6 0 6 4q2 68 2 355v231q0 4 -4 4q-61 -20 -176 -30q-1 0 -3.5 12.5t-4 24.5t-0.5 12q126 14 199 45q48 14 131 55q4 3 22.5 -3t18.5 -9q-2 -56 -2.5 -157t-1.5 -136q-3 -256 0 -391q0 -17 6 -17q24 0 79 -1t95 -1 q3 0 3 -28.5t-3 -28.5q-41 0 -117 2t-149 2q-109 0 -285 -4q-2 0 -2.5 14zM326 -35q73 94 257.5 328t266.5 342q325 422 522 686q2 2 18 -6.5t31 -19t13 -13.5q-62 -80 -174 -222.5t-198 -252.5t-153 -197q-393 -510 -524 -684q-3 -3 -18.5 5t-29 19t-11.5 15zM956 240 q155 194 202 282.5t69 229.5q0 10 14 10q94 0 207 -23q3 -1 3.5 -4t-1.5 -4q-40 -46 -118.5 -134.5t-152.5 -173.5t-149 -173q-3 -6 2 -6q190 5 234 6q4 0 4 6q0 20 1 71t1 76q0 9 6 9q92 43 152 59q10 0 10 -10q-4 -140 -4 -207q0 -6 6 -6h69q11 0 37 1t43 1q4 0 4.5 -14 t-0.5 -28.5t-2 -14.5q-35 0 -83.5 1t-69.5 1q-2 0 -2 -5q0 -20 -1 -50t-1 -42q0 -35 6 -39q3 -6 123 -6q4 0 3.5 -26.5t-3.5 -26.5q-33 0 -103.5 1t-122.5 1q-74 0 -200 -4q-1 0 -1.5 13t0.5 26.5t3 13.5q32 2 65.5 3t45.5 1.5t14 1.5q4 8 4 45v88q0 5 -4 5q-173 -3 -301 -9 q-3 0 -7.5 25.5t-1.5 28.5z" />
<glyph unicode="&#xbd;" horiz-adv-x="1720" d="M118.5 524q-0.5 14 0.5 28.5t4 14.5q30 0 95 1t87 1q6 0 6 4q2 68 2 355v231q0 4 -4 4q-61 -20 -176 -30q-1 0 -3.5 12.5t-4 24.5t-0.5 12q126 14 199 45q48 14 131 55q4 3 22.5 -3t18.5 -9q-2 -56 -2.5 -157t-1.5 -136q-3 -256 0 -391q0 -17 6 -17q24 0 79 -1t95 -1 q3 0 3 -28.5t-3 -28.5q-41 0 -117 2t-149 2q-109 0 -285 -4q-2 0 -2.5 14zM317 -35q77 99 260.5 331t264.5 339q325 422 522 686q2 2 18 -6.5t30.5 -19t12.5 -13.5q-465 -595 -524 -672q-393 -510 -524 -684q-3 -3 -18.5 5t-29.5 19t-12 15zM1014 37q65 78 147 162 q29 29 83.5 81.5t82.5 81.5q47 46 67.5 89t20.5 112q0 57 -18 92q-28 58 -107 58q-66 0 -116 -47q-37 -42 -23 -56q2 -3 11 -4.5t23 -4.5t25 -9q39 -17 39 -76q0 -40 -27.5 -66t-66.5 -26q-43 0 -70.5 30.5t-27.5 77.5q0 86 65 154q78 78 203 78q149 0 229 -80 q54 -57 54 -121q0 -75 -58 -133q-32 -32 -97.5 -75t-140 -97.5t-134.5 -120.5q-1 -1 -0.5 -3.5t2.5 -2.5q7 0 66.5 -1t92.5 -1q169 0 174 8q6 6 17 29.5t26 59.5t23 53q1 2 13.5 -1t24.5 -8.5t11 -9.5q-52 -126 -76 -254q0 -8 -8 -8q-24 0 -131.5 1t-165.5 1q-188 0 -223 -2 q-2 0 -4.5 10t-3.5 20z" />
<glyph unicode="&#xbe;" horiz-adv-x="1667" d="M104 696q0 40 25 68.5t66 28.5q36 0 58.5 -22t22.5 -52q0 -41 -22 -66q-6 -6 -18.5 -14.5t-16.5 -13.5q-8 -8 8 -24.5t54.5 -31t83.5 -14.5q49 0 74.5 14t39.5 45q17 35 17 107q0 61 -17 96q-29 62 -143 62q-10 0 -31.5 -1t-30.5 -1q-4 0 -4 27.5t4 27.5h66q94 0 125 61 q16 36 16 101q0 50 -16 82q-23 51 -111 51q-38 0 -68.5 -12.5t-42.5 -25.5t-7 -18q2 -3 19.5 -12.5t27.5 -19.5q22 -22 22 -56q0 -36 -24 -57.5t-60 -21.5q-40 0 -65 26.5t-25 63.5q0 56 47 106q78 78 217 78q78 0 137.5 -20.5t90.5 -53.5q47 -44 47 -102q0 -66 -41 -107 q-65 -65 -168 -86v-2q124 -15 182 -73q45 -45 45 -107q0 -78 -65 -143q-38 -36 -98.5 -59t-133.5 -23q-147 0 -237 90q-50 50 -50 104zM305 -35q73 94 257.5 328t266.5 342q354 459 523 686q2 2 18 -6.5t30.5 -19t12.5 -13.5q-465 -595 -524 -672q-393 -510 -524 -684 q-3 -3 -18.5 5t-29.5 19t-12 15zM956 240q155 194 202 282.5t69 229.5q0 10 14 10q94 0 207 -23q3 -1 3.5 -4t-1.5 -4q-40 -46 -118.5 -134.5t-152.5 -173.5t-149 -173q-3 -6 2 -6q190 5 234 6q4 0 4 6q0 20 1 71t1 76q0 9 6 9q92 43 152 59q10 0 10 -10q-4 -140 -4 -207 q0 -6 6 -6h69q11 0 37 1t43 1q4 0 4.5 -14t-0.5 -28.5t-2 -14.5q-35 0 -83.5 1t-69.5 1q-2 0 -2 -5q0 -20 -1 -50t-1 -42q0 -35 6 -39q3 -6 123 -6q4 0 3.5 -26.5t-3.5 -26.5q-33 0 -103.5 1t-122.5 1q-74 0 -200 -4q-1 0 -1.5 13t0.5 26.5t3 13.5q32 2 65.5 3t45.5 1.5 t14 1.5q4 8 4 45v88q0 5 -4 5q-173 -3 -301 -9q-3 0 -7.5 25.5t-1.5 28.5z" />
<glyph unicode="&#xbf;" horiz-adv-x="1101" d="M96 313q0 139 115 254q56 56 134.5 87.5t162.5 31.5q77 0 151 -24l3 2q4 90 4 186q0 3 18 4.5t36.5 1t18.5 -3.5q-4 -106 -4 -150q0 -62 10 -120q0 -3 -21 -12.5t-24 -6.5q-83 60 -176 60q-72 0 -104 -66q-37 -76 -37 -235q0 -133 29 -185q21 -45 65.5 -67.5t124.5 -22.5 q78 0 154 37q25 13 40 26.5t17 23.5t-4 18q-4 4 -30.5 14t-43.5 27q-33 30 -33 79q0 57 39 96.5t95 39.5q61 0 100 -40.5t39 -109.5q0 -79 -70 -149q-57 -54 -143 -90.5t-195 -36.5q-116 0 -219.5 36.5t-163.5 96.5q-45 45 -66.5 89t-21.5 109zM545 1106q0 67 46 109t120 42 q71 0 111 -41t40 -106q0 -63 -42 -104t-113 -41q-63 0 -112.5 39.5t-49.5 101.5z" />
<glyph unicode="&#xc0;" horiz-adv-x="1452" d="M-3.5 46q0.5 16 3.5 17q68 5 100.5 15t57.5 35q43 40 102 172q264 588 414 983q20 12 106 12q65 0 68 -12q97 -280 375 -1030q44 -119 73 -148q15 -15 43.5 -20.5t114.5 -8.5q6 0 5.5 -33.5t-5.5 -33.5q-42 1 -131.5 3.5t-144.5 2.5q-274 0 -334 -2q-4 0 -6 16t-1 32.5 t5 16.5q114 6 131 23q16 16 -2 72q-22 68 -70 202q-220 7 -342 7q-115 0 -166 -2q-12 0 -18 -15q-12 -24 -51 -125q-21 -65 -21 -94q0 -36 28 -48t124 -20q4 0 4.5 -16.5t-1.5 -32.5t-5 -16q-165 9 -453 0q-2 0 -3 16t-0.5 32zM416 444q250 -12 458 -12q-23 68 -208 594h-7 q-7 -17 -243 -582zM444 1581q0 38 27.5 65t69.5 27q61 0 121 -63q75 -81 145 -146q45 -37 90 -69q2 -5 -3.5 -17t-13.5 -21.5t-12 -8.5q-224 81 -323 127q-101 41 -101 106z" />
<glyph unicode="&#xc1;" horiz-adv-x="1452" d="M-3.5 46q0.5 16 3.5 17q68 5 100.5 15t57.5 35q43 40 102 172q264 588 414 983q20 12 106 12q65 0 68 -12q97 -280 375 -1030q44 -119 73 -148q15 -15 43.5 -20.5t114.5 -8.5q6 0 5.5 -33.5t-5.5 -33.5q-42 1 -131.5 3.5t-144.5 2.5q-274 0 -334 -2q-4 0 -6 16t-1 32.5 t5 16.5q114 6 131 23q16 16 -2 72q-22 68 -70 202q-220 7 -342 7q-115 0 -166 -2q-12 0 -18 -15q-12 -24 -51 -125q-21 -65 -21 -94q0 -36 28 -48t124 -20q4 0 4.5 -16.5t-1.5 -32.5t-5 -16q-165 9 -453 0q-2 0 -3 16t-0.5 32zM416 444q250 -12 458 -12q-23 68 -208 594h-7 q-7 -17 -243 -582zM625 1386q11 9 41 32t49 40q85 76 143 144q57 63 123 63q42 0 69 -27t27 -63q0 -69 -102 -109q-76 -37 -322 -125q-1 -1 -8.5 10t-14 22.5t-5.5 12.5z" />
<glyph unicode="&#xc2;" horiz-adv-x="1452" d="M-3.5 46q0.5 16 3.5 17q68 5 100.5 15t57.5 35q43 40 102 172q264 588 414 983q20 12 106 12q65 0 68 -12q97 -280 375 -1030q44 -119 73 -148q15 -15 43.5 -20.5t114.5 -8.5q6 0 5.5 -33.5t-5.5 -33.5q-42 1 -131.5 3.5t-144.5 2.5q-274 0 -334 -2q-4 0 -6 16t-1 32.5 t5 16.5q114 6 131 23q16 16 -2 72q-22 68 -70 202q-220 7 -342 7q-115 0 -166 -2q-12 0 -18 -15q-12 -24 -51 -125q-21 -65 -21 -94q0 -36 28 -48t124 -20q4 0 4.5 -16.5t-1.5 -32.5t-5 -16q-165 9 -453 0q-2 0 -3 16t-0.5 32zM416 444q250 -12 458 -12q-23 68 -208 594h-7 q-7 -17 -243 -582zM483 1386q56 57 107 118t78 98l28 38q10 6 68 7t76 -11q2 -2 28.5 -39.5t72.5 -95.5t93 -108q3 -5 -18.5 -26.5t-30.5 -20.5q-130 87 -229 141q-91 -56 -228 -148q-5 -2 -17.5 8.5t-22 23t-5.5 15.5z" />
<glyph unicode="&#xc3;" horiz-adv-x="1452" d="M-3.5 46q0.5 16 3.5 17q68 5 100.5 15t57.5 35q43 40 102 172q264 588 414 983q20 12 106 12q65 0 68 -12q97 -280 375 -1030q44 -119 73 -148q15 -15 43.5 -20.5t114.5 -8.5q6 0 5.5 -33.5t-5.5 -33.5q-42 1 -131.5 3.5t-144.5 2.5q-274 0 -334 -2q-4 0 -6 16t-1 32.5 t5 16.5q114 6 131 23q16 16 -2 72q-22 68 -70 202q-220 7 -342 7q-115 0 -166 -2q-12 0 -18 -15q-12 -24 -51 -125q-21 -65 -21 -94q0 -36 28 -48t124 -20q4 0 4.5 -16.5t-1.5 -32.5t-5 -16q-165 9 -453 0q-2 0 -3 16t-0.5 32zM416 444q250 -12 458 -12q-23 68 -208 594h-7 q-7 -17 -243 -582zM453 1370q-12 86 40 161t148 75q51 0 148 -35t145 -35q29 0 47 19.5t39 70.5q4 4 56 -12l9 -4q-10 -53 -20.5 -87.5t-30 -71t-51 -55t-74.5 -18.5q-62 0 -167.5 39t-153.5 39q-29 0 -45.5 -20t-22.5 -72q-2 -1 -17 -0.5t-32.5 2.5t-17.5 4z" />
<glyph unicode="&#xc4;" horiz-adv-x="1452" d="M-3.5 46q0.5 16 3.5 17q68 5 100.5 15t57.5 35q43 40 102 172q264 588 414 983q20 12 106 12q65 0 68 -12q97 -280 375 -1030q44 -119 73 -148q15 -15 43.5 -20.5t114.5 -8.5q6 0 5.5 -33.5t-5.5 -33.5q-42 1 -131.5 3.5t-144.5 2.5q-274 0 -334 -2q-4 0 -6 16t-1 32.5 t5 16.5q114 6 131 23q16 16 -2 72q-22 68 -70 202q-220 7 -342 7q-115 0 -166 -2q-12 0 -18 -15q-12 -24 -51 -125q-21 -65 -21 -94q0 -36 28 -48t124 -20q4 0 4.5 -16.5t-1.5 -32.5t-5 -16q-165 9 -453 0q-2 0 -3 16t-0.5 32zM416 444q250 -12 458 -12q-23 68 -208 594h-7 q-7 -17 -243 -582zM446 1491q0 53 39 92t97 39q57 0 93 -38t36 -95q0 -54 -39.5 -94.5t-96.5 -40.5q-56 0 -92.5 39.5t-36.5 97.5zM809 1493q0 52 37.5 93.5t93.5 41.5q60 0 95.5 -38t35.5 -91q0 -60 -35 -100.5t-94 -40.5q-57 0 -95 39t-38 96z" />
<glyph unicode="&#xc5;" horiz-adv-x="1454" d="M-2.5 30q-0.5 32 2.5 33q68 5 101.5 15t58.5 35q42 42 100 172q255 570 399 940q-45 21 -73.5 61t-28.5 90q0 78 56.5 132.5t142.5 54.5q88 0 143 -53t55 -136q0 -104 -94 -149q33 -95 79.5 -221.5t134 -362.5t149.5 -403q42 -112 73 -148q15 -15 44 -20.5t114 -8.5 q6 0 6 -33.5t-6 -33.5q-43 1 -131 3.5t-143 2.5q-276 0 -336 -2q-3 0 -4.5 16t-1 32.5t3.5 16.5q113 6 133 23q14 14 -2 72q-27 82 -72 202q-213 7 -340 7q-117 0 -166 -2q-14 0 -20 -15q-23 -50 -49 -125q-21 -56 -21 -94q0 -36 27.5 -48t124.5 -20q3 0 3.5 -16.5 t-1.5 -32.5t-6 -16q-164 9 -451 0q-4 0 -4.5 32zM416 444q250 -12 461 -12q-5 14 -87.5 246.5t-121.5 347.5h-9q-121 -297 -243 -582zM625 1376q0 -45 37.5 -78.5t93.5 -33.5q61 0 98 31t37 79q0 54 -37.5 89.5t-97.5 35.5t-95.5 -34.5t-35.5 -88.5z" />
<glyph unicode="&#xc6;" horiz-adv-x="2023" d="M-11.5 36q0.5 36 5.5 38q117 11 168 59q42 42 121 164q307 482 534 858q4 8 -4 8q-90 8 -178 8q-4 0 -5 18t1 36t6 18q48 1 235 -0.5t234 -1.5q426 0 749 8q5 0 10 -4t5 -10q-19 -344 -21 -412q0 -4 -14 -6t-28 -0.5t-15 6.5q-84 252 -137 305q-26 26 -50.5 34.5 t-72.5 8.5q-59 0 -158.5 -1t-154.5 -1q-31 0 -31 -12q-2 -85 -4 -221.5t-4 -230.5q0 -13 10 -13h168q47 2 71.5 11.5t43.5 37.5q25 42 45 170q3 6 33 5.5t30 -7.5q-6 -123 -6 -245q0 -165 6 -279q0 -6 -28.5 -7t-30.5 5q-29 165 -56 205q-18 26 -65 26q-114 2 -209 0 q-12 0 -12 -30q0 -287 4 -488q0 -9 21 -14.5t48 -5.5q96 -4 342 -4q64 0 103 39q69 72 139 364q1 6 33.5 4t32.5 -8q0 -286 -7 -463q0 -10 -22 -10q-622 4 -752 4q-68 0 -196.5 -2t-192.5 -2q-7 0 -7 38t7 38q31 -2 99.5 2t72.5 8q10 13 10 125v219q-39 1 -213.5 4t-214.5 4 q-24 0 -28 -6q-55 -89 -86 -141q-62 -105 -62 -150q0 -37 29 -51q22 -11 125 -16q7 0 6.5 -37t-6.5 -37q-22 0 -113.5 2t-132.5 2t-115.5 -1t-109.5 -1q-6 0 -5.5 36zM506 508q196 -6 397 -6q12 0 12 6v166q0 34 1.5 238t-1.5 239q0 5 -5.5 5t-8.5 -5q-29 -46 -395 -643z " />
<glyph unicode="&#xc7;" horiz-adv-x="1333" d="M74 584q0 128 48 246t138 208q219 219 481 219q70 0 134 -13t99.5 -28.5t63 -28.5t33.5 -13q12 0 28.5 18.5t49.5 71.5q5 6 33 3t28 -10q-9 -99 -12 -245.5t0 -231.5q-2 -6 -30 -6t-29 6q-80 234 -164 318q-82 82 -230 82q-104 0 -172.5 -46t-103.5 -116 q-43 -87 -61.5 -184t-18.5 -238q0 -225 66 -360q37 -74 114 -118t185 -44q172 0 284 112q101 98 138 250q3 9 39 -2.5t34 -19.5q-46 -176 -157 -287q-148 -145 -379 -145l-49 -88q30 6 75 6q60 0 101 -33t41 -92q0 -60 -45 -105q-35 -34 -86.5 -53.5t-104.5 -19.5 q-106 0 -215 79q-3 2 5 17t19 28.5t15 10.5q94 -66 162 -66q36 0 65 25q27 30 27 82q0 57 -53 57q-28 0 -74 -16q-9 -1 -25.5 13t-13.5 19l84 138q-227 21 -393 184q-77 77 -125.5 184.5t-48.5 231.5z" />
<glyph unicode="&#xc8;" horiz-adv-x="1345" d="M29.5 36q-0.5 38 5.5 38q170 2 180 12q16 16 16 365q0 69 -1 233t-1 270q0 199 -10 209q-12 12 -168 19q-5 3 -4 34t8 31q144 -6 596 -6q333 0 523 8q17 0 14 -20q-4 -56 -7.5 -129.5t-7.5 -159t-6 -123.5q-3 -6 -30.5 -4.5t-30.5 8.5q-64 228 -137 297q-35 36 -79 44.5 t-188 8.5q-178 0 -192 -6q-6 -6 -6 -235q0 -14 -1 -109t-1 -127q41 -2 123 -2q118 0 161 37q31 35 48 178q3 7 33 6.5t30 -8.5q-9 -305 4 -520q0 -6 -29.5 -7t-31.5 5q-31 178 -62 209q-13 13 -43 17.5t-110 4.5q-82 0 -121 -4q-2 -59 -2 -202q0 -214 1 -263t7 -55 q22 -18 178 -18h166q67 0 100.5 8.5t57.5 30.5q77 80 147 364q1 5 33.5 4t32.5 -8q-2 -111 -11 -459q0 -12 -16 -12q-229 2 -582 2q-393 0 -581 -4q-5 0 -5.5 38zM342 1563q0 38 27 65t69 27q60 0 121 -64q62 -67 146 -145q55 -45 90 -70q2 -5 -3.5 -17t-13.5 -21.5 t-12 -8.5q-229 82 -324 127q-100 41 -100 107z" />
<glyph unicode="&#xc9;" horiz-adv-x="1345" d="M29.5 36q-0.5 38 5.5 38q170 2 180 12q16 16 16 365q0 69 -1 233t-1 270q0 199 -10 209q-12 12 -168 19q-5 3 -4 34t8 31q144 -6 596 -6q333 0 523 8q17 0 14 -20q-4 -56 -7.5 -129.5t-7.5 -159t-6 -123.5q-3 -6 -30.5 -4.5t-30.5 8.5q-64 228 -137 297q-35 36 -79 44.5 t-188 8.5q-178 0 -192 -6q-6 -6 -6 -235q0 -14 -1 -109t-1 -127q41 -2 123 -2q118 0 161 37q31 35 48 178q3 7 33 6.5t30 -8.5q-9 -305 4 -520q0 -6 -29.5 -7t-31.5 5q-31 178 -62 209q-13 13 -43 17.5t-110 4.5q-82 0 -121 -4q-2 -59 -2 -202q0 -214 1 -263t7 -55 q22 -18 178 -18h166q67 0 100.5 8.5t57.5 30.5q77 80 147 364q1 5 33.5 4t32.5 -8q-2 -111 -11 -459q0 -12 -16 -12q-229 2 -582 2q-393 0 -581 -4q-5 0 -5.5 38zM522 1368q11 9 41 32t49 40q93 83 144 143q58 64 123 64q41 0 68.5 -27.5t27.5 -63.5q0 -67 -103 -108 q-80 -38 -321 -125q-1 -1 -8.5 10t-14.5 22.5t-6 12.5z" />
<glyph unicode="&#xca;" horiz-adv-x="1345" d="M29.5 36q-0.5 38 5.5 38q170 2 180 12q16 16 16 365q0 69 -1 233t-1 270q0 199 -10 209q-12 12 -168 19q-5 3 -4 34t8 31q144 -6 596 -6q333 0 523 8q17 0 14 -20q-4 -56 -7.5 -129.5t-7.5 -159t-6 -123.5q-3 -6 -30.5 -4.5t-30.5 8.5q-64 228 -137 297q-35 36 -79 44.5 t-188 8.5q-178 0 -192 -6q-6 -6 -6 -235q0 -14 -1 -109t-1 -127q41 -2 123 -2q118 0 161 37q31 35 48 178q3 7 33 6.5t30 -8.5q-9 -305 4 -520q0 -6 -29.5 -7t-31.5 5q-31 178 -62 209q-13 13 -43 17.5t-110 4.5q-82 0 -121 -4q-2 -59 -2 -202q0 -214 1 -263t7 -55 q22 -18 178 -18h166q67 0 100.5 8.5t57.5 30.5q77 80 147 364q1 5 33.5 4t32.5 -8q-2 -111 -11 -459q0 -12 -16 -12q-229 2 -582 2q-393 0 -581 -4q-5 0 -5.5 38zM383 1376q56 57 107 118t78 98l28 38q10 6 67.5 7t75.5 -11q2 -2 29 -39.5t73 -96t93 -108.5 q3 -5 -18.5 -26.5t-30.5 -20.5q-134 90 -230 142q-79 -49 -227 -148q-5 -2 -17.5 8.5t-22 23t-5.5 15.5z" />
<glyph unicode="&#xcb;" horiz-adv-x="1345" d="M29.5 36q-0.5 38 5.5 38q170 2 180 12q16 16 16 365q0 69 -1 233t-1 270q0 199 -10 209q-12 12 -168 19q-5 3 -4 34t8 31q144 -6 596 -6q333 0 523 8q17 0 14 -20q-4 -56 -7.5 -129.5t-7.5 -159t-6 -123.5q-3 -6 -30.5 -4.5t-30.5 8.5q-64 228 -137 297q-35 36 -79 44.5 t-188 8.5q-178 0 -192 -6q-6 -6 -6 -235q0 -14 -1 -109t-1 -127q41 -2 123 -2q118 0 161 37q31 35 48 178q3 7 33 6.5t30 -8.5q-9 -305 4 -520q0 -6 -29.5 -7t-31.5 5q-31 178 -62 209q-13 13 -43 17.5t-110 4.5q-82 0 -121 -4q-2 -59 -2 -202q0 -214 1 -263t7 -55 q22 -18 178 -18h166q67 0 100.5 8.5t57.5 30.5q77 80 147 364q1 5 33.5 4t32.5 -8q-2 -111 -11 -459q0 -12 -16 -12q-229 2 -582 2q-393 0 -581 -4q-5 0 -5.5 38zM344 1479q0 53 38.5 92t96.5 39q57 0 93 -38t36 -95q0 -54 -39 -95t-96 -41q-56 0 -92.5 40t-36.5 98z M707 1481q0 52 37.5 93.5t93.5 41.5q60 0 95.5 -38t35.5 -91q0 -60 -35 -100.5t-94 -40.5q-57 0 -95 39t-38 96z" />
<glyph unicode="&#xcc;" horiz-adv-x="761" d="M50.5 34q0.5 36 6.5 36q15 1 33.5 1.5t30.5 1t26.5 1t23.5 1t19 1t16.5 1.5t12.5 2t9 2t5 3q11 11 13 154q2 152 2 327q0 132 -4 406q-3 178 -17 192q-13 10 -161 15q-2 0 -3 17t0 34.5t5 17.5q504 0 612 -2q3 0 4 -17.5t-0.5 -34.5t-5.5 -17q-82 0 -107.5 -2t-31.5 -9 q-19 -19 -23 -219q-2 -100 -2 -387q0 -200 2 -313q2 -146 16 -160q10 -10 168 -12q7 0 7 -35.5t-5 -38.5q-123 2 -329 2q-168 0 -316 -4q-7 0 -6.5 36zM63 1563q0 38 27.5 65t69.5 27q60 0 121 -64q68 -74 145 -145q55 -45 90 -70q2 -5 -3.5 -17t-13.5 -21.5t-12 -8.5 q-224 81 -323 127q-101 41 -101 107z" />
<glyph unicode="&#xcd;" horiz-adv-x="761" d="M50.5 34q0.5 36 6.5 36q15 1 33.5 1.5t30.5 1t26.5 1t23.5 1t19 1t16.5 1.5t12.5 2t9 2t5 3q11 11 13 154q2 152 2 327q0 132 -4 406q-3 178 -17 192q-13 10 -161 15q-2 0 -3 17t0 34.5t5 17.5q504 0 612 -2q3 0 4 -17.5t-0.5 -34.5t-5.5 -17q-82 0 -107.5 -2t-31.5 -9 q-19 -19 -23 -219q-2 -100 -2 -387q0 -200 2 -313q2 -146 16 -160q10 -10 168 -12q7 0 7 -35.5t-5 -38.5q-123 2 -329 2q-168 0 -316 -4q-7 0 -6.5 36zM244 1368q11 9 41 32t49 40q88 79 143 143q58 64 123 64q42 0 69 -27.5t27 -63.5q0 -68 -102 -108q-76 -37 -322 -125 q-1 -1 -8.5 10t-14 22.5t-5.5 12.5z" />
<glyph unicode="&#xce;" horiz-adv-x="761" d="M50.5 34q0.5 36 6.5 36q15 1 33.5 1.5t30.5 1t26.5 1t23.5 1t19 1t16.5 1.5t12.5 2t9 2t5 3q11 11 13 154q2 152 2 327q0 132 -4 406q-3 178 -17 192q-13 10 -161 15q-2 0 -3 17t0 34.5t5 17.5q504 0 612 -2q3 0 4 -17.5t-0.5 -34.5t-5.5 -17q-82 0 -107.5 -2t-31.5 -9 q-19 -19 -23 -219q-2 -100 -2 -387q0 -200 2 -313q2 -146 16 -160q10 -10 168 -12q7 0 7 -35.5t-5 -38.5q-123 2 -329 2q-168 0 -316 -4q-7 0 -6.5 36zM104 1376q56 57 107 118t79 98l27 38q10 6 68 7t76 -11q2 -2 28.5 -39.5t72.5 -96t93 -108.5q3 -5 -18.5 -26.5 t-30.5 -20.5q-138 92 -229 142q-79 -49 -227 -148q-5 -2 -18 8.5t-22.5 23t-5.5 15.5z" />
<glyph unicode="&#xcf;" horiz-adv-x="761" d="M50.5 34q0.5 36 6.5 36q15 1 33.5 1.5t30.5 1t26.5 1t23.5 1t19 1t16.5 1.5t12.5 2t9 2t5 3q11 11 13 154q2 152 2 327q0 132 -4 406q-3 178 -17 192q-13 10 -161 15q-2 0 -3 17t0 34.5t5 17.5q504 0 612 -2q3 0 4 -17.5t-0.5 -34.5t-5.5 -17q-82 0 -107.5 -2t-31.5 -9 q-19 -19 -23 -219q-2 -100 -2 -387q0 -200 2 -313q2 -146 16 -160q10 -10 168 -12q7 0 7 -35.5t-5 -38.5q-123 2 -329 2q-168 0 -316 -4q-7 0 -6.5 36zM66 1479q0 53 38.5 92t96.5 39q57 0 93 -38t36 -95q0 -54 -39 -95t-96 -41q-56 0 -92.5 40t-36.5 98zM428 1481 q0 52 37.5 93.5t93.5 41.5q60 0 95.5 -38t35.5 -91q0 -60 -35 -100.5t-94 -40.5q-57 0 -95 39t-38 96z" />
<glyph unicode="&#xd0;" horiz-adv-x="1503" d="M53 53q1 19 6 19q108 6 138 9.5t36 10.5q12 9 15 119q2 111 2 321v86q-61 -2 -174 -2q-6 0 -8.5 17.5t-1 35t5.5 17.5q23 0 84 1t94 1q2 125 2 291q0 170 -14 184q-11 11 -168 11q-8 0 -8 35.5t8 35.5q65 0 176.5 -1t148.5 -1q75 0 194.5 2t162.5 2q180 0 308 -43 t226 -141q70 -71 105.5 -170t35.5 -207q0 -154 -49 -270.5t-147 -214.5q-99 -99 -232 -151t-286 -52q-57 0 -188 3t-171 3q-133 0 -293 -8q-4 0 -6.5 19t-1.5 38zM520 608q0 -297 2 -420q3 -90 15 -102q6 -8 37 -10t145 -2q115 0 201.5 49t132.5 141q36 68 48.5 146.5 t12.5 210.5q0 254 -63 380q-50 98 -128 133t-229 35q-105 0 -130 -1t-29 -7q-8 -6 -11 -84q-4 -144 -4 -387h277q6 0 8 -17t0 -34.5t-6 -17.5q-25 0 -120 -1.5t-159 -1.5v-10z" />
<glyph unicode="&#xd1;" horiz-adv-x="1447" d="M14 1215.5q1 33.5 9 33.5q148 -4 188 -4q83 0 295 8q15 -5 80 -98q88 -129 272.5 -393.5t280.5 -405.5h8q0 63 1 198.5t1 209.5q0 340 -45 385q-21 21 -168 35q-7 2 -5.5 33.5t9.5 31.5q236 -8 295 -8q87 0 182 6q5 0 8 -15.5t2 -31.5t-4 -16q-126 -18 -147 -39 q-20 -20 -28.5 -106.5t-8.5 -295.5q0 -80 -1 -208t-1 -203q0 -83 3 -190.5t3 -153.5q0 -17 -119 -17q-44 0 -53 9q-107 175 -329.5 494t-419.5 587h-9q0 -144 6 -417.5t7 -311.5q3 -207 28 -232q19 -16 178 -37q7 -1 6.5 -35t-8.5 -34q-100 6 -264 6q-118 0 -235 -6 q-4 0 -6 17t-1 34.5t5 17.5q136 12 161 37q43 43 43 258q0 86 -5 344.5t-5 399.5q0 21 -12 33q-37 37 -191 45q-7 2 -6 35.5zM430 1348q-12 86 40 160.5t148 74.5q52 0 148 -35t145 -35q29 0 47 20t39 71q3 3 56 -13l10 -4q-8 -41 -15.5 -69.5t-21.5 -61.5t-31.5 -53 t-45 -33.5t-62.5 -13.5q-62 0 -168 39t-154 39q-29 0 -45 -20.5t-22 -72.5q0 -1 -17 0t-34 3t-17 4z" />
<glyph unicode="&#xd2;" horiz-adv-x="1513" d="M74 621q0 117 49.5 227t138.5 199q106 108 236.5 163.5t302.5 55.5q278 0 475 -197q79 -78 121.5 -186.5t42.5 -231.5q0 -132 -55.5 -255.5t-149.5 -217.5t-222.5 -148.5t-279.5 -54.5q-139 0 -270 58.5t-223 150.5q-80 80 -123 184t-43 253zM391 573q0 -243 53 -352 q41 -82 120 -124t175 -42q108 0 189 46t125 135q71 142 71 399q0 158 -15 254t-48 160q-72 147 -295 147q-103 0 -184 -51t-123 -131q-68 -136 -68 -441zM459 1581q0 38 27 65t69 27q61 0 121 -63q75 -81 145 -146q45 -37 90 -69q2 -5 -3.5 -17t-13 -21.5t-11.5 -8.5 q-229 82 -324 127q-100 41 -100 106z" />
<glyph unicode="&#xd3;" horiz-adv-x="1513" d="M74 621q0 117 49.5 227t138.5 199q106 108 236.5 163.5t302.5 55.5q278 0 475 -197q79 -78 121.5 -186.5t42.5 -231.5q0 -132 -55.5 -255.5t-149.5 -217.5t-222.5 -148.5t-279.5 -54.5q-139 0 -270 58.5t-223 150.5q-80 80 -123 184t-43 253zM391 573q0 -243 53 -352 q41 -82 120 -124t175 -42q108 0 189 46t125 135q71 142 71 399q0 158 -15 254t-48 160q-72 147 -295 147q-103 0 -184 -51t-123 -131q-68 -136 -68 -441zM641 1386q11 9 41 32t49 40q85 76 143 144q57 63 123 63q42 0 69.5 -27t27.5 -63q0 -68 -103 -109q-80 -38 -321 -125 q-1 -1 -8.5 10t-14.5 22.5t-6 12.5z" />
<glyph unicode="&#xd4;" horiz-adv-x="1513" d="M74 621q0 117 49.5 227t138.5 199q106 108 236.5 163.5t302.5 55.5q278 0 475 -197q79 -78 121.5 -186.5t42.5 -231.5q0 -132 -55.5 -255.5t-149.5 -217.5t-222.5 -148.5t-279.5 -54.5q-139 0 -270 58.5t-223 150.5q-80 80 -123 184t-43 253zM391 573q0 -243 53 -352 q41 -82 120 -124t175 -42q108 0 189 46t125 135q71 142 71 399q0 158 -15 254t-48 160q-72 147 -295 147q-103 0 -184 -51t-123 -131q-68 -136 -68 -441zM500 1395q56 57 107 118t79 99l27 37q10 6 67.5 7t75.5 -11q2 -2 29 -39.5t73 -96t93 -108.5q3 -5 -19 -26.5 t-31 -20.5q-130 87 -229 141q-97 -60 -227 -147q-5 -2 -17.5 8.5t-22 23t-5.5 15.5z" />
<glyph unicode="&#xd5;" horiz-adv-x="1513" d="M74 621q0 117 49.5 227t138.5 199q106 108 236.5 163.5t302.5 55.5q278 0 475 -197q79 -78 121.5 -186.5t42.5 -231.5q0 -132 -55.5 -255.5t-149.5 -217.5t-222.5 -148.5t-279.5 -54.5q-139 0 -270 58.5t-223 150.5q-80 80 -123 184t-43 253zM391 573q0 -243 53 -352 q41 -82 120 -124t175 -42q108 0 189 46t125 135q71 142 71 399q0 158 -15 254t-48 160q-72 147 -295 147q-103 0 -184 -51t-123 -131q-68 -136 -68 -441zM469 1370q-12 86 40 161t148 75q51 0 148 -35t145 -35q29 0 47 19.5t39 70.5q3 3 56 -12l10 -4q-10 -53 -20.5 -87.5 t-30 -71t-51 -55t-74.5 -18.5q-62 0 -168 39t-154 39q-29 0 -45 -20t-22 -72q-3 -1 -18 -0.5t-32.5 2.5t-17.5 4z" />
<glyph unicode="&#xd6;" horiz-adv-x="1513" d="M74 621q0 117 49.5 227t138.5 199q106 108 236.5 163.5t302.5 55.5q278 0 475 -197q79 -78 121.5 -186.5t42.5 -231.5q0 -132 -55.5 -255.5t-149.5 -217.5t-222.5 -148.5t-279.5 -54.5q-139 0 -270 58.5t-223 150.5q-80 80 -123 184t-43 253zM391 573q0 -243 53 -352 q41 -82 120 -124t175 -42q108 0 189 46t125 135q71 142 71 399q0 158 -15 254t-48 160q-72 147 -295 147q-103 0 -184 -51t-123 -131q-68 -136 -68 -441zM461 1497q0 53 38.5 92t96.5 39q57 0 93 -38t36 -95q0 -54 -39 -94.5t-96 -40.5q-56 0 -92.5 39.5t-36.5 97.5z M823 1499q0 52 37.5 93.5t93.5 41.5q60 0 95.5 -38t35.5 -91q0 -60 -35 -100.5t-94 -40.5q-57 0 -95 39t-38 96z" />
<glyph unicode="&#xd7;" horiz-adv-x="1060" d="M152 979q-3 5 11 20t29.5 27.5t16.5 11.5q37 -35 158.5 -159.5t158.5 -161.5q34 31 92.5 89.5t133 134t96.5 97.5q6 2 20.5 -11t25 -28t7.5 -18q-20 -20 -139 -136.5t-176 -174.5q-4 -4 0 -8q85 -86 317 -318q3 -7 -25 -35t-36 -20q-44 44 -169.5 171t-146.5 148 q-2 2 -4 0q-78 -82 -313 -317q-2 -2 -9.5 1t-15.5 9.5t-15.5 14.5t-11.5 15.5t-1 12.5q150 143 313 313q5 5 0 9q-46 45 -165.5 163.5t-151.5 149.5z" />
<glyph unicode="&#xd8;" horiz-adv-x="1513" d="M74 621q0 117 49.5 227t138.5 199q106 108 236.5 163.5t302.5 55.5q220 0 391 -123q61 71 121 145q2 3 18.5 -6.5t31 -22t11.5 -16.5q-82 -98 -125 -147q4 -4 12.5 -11.5t12.5 -11.5q80 -80 123 -189.5t43 -232.5q0 -132 -55.5 -255.5t-149.5 -217.5t-222.5 -148.5 t-279.5 -54.5q-212 0 -403 134q-63 -71 -137 -158q-5 -5 -34.5 16.5t-25.5 28.5q84 99 139 158q-12 10 -32 30q-80 80 -123 184t-43 253zM391 573q0 -201 33 -301q496 612 637 779q-76 145 -295 145q-103 0 -184 -51t-123 -131q-68 -136 -68 -441zM457 199 q44 -71 118.5 -107.5t163.5 -36.5q109 0 189.5 45.5t124.5 135.5q71 142 71 399q0 230 -32 336q-88 -105 -323 -392.5t-312 -379.5z" />
<glyph unicode="&#xd9;" horiz-adv-x="1462" d="M29.5 1199q-1.5 17 0.5 33.5t7 16.5q92 -2 290.5 -2.5t329.5 -3.5q7 0 7 -32.5t-7 -32.5q-146 -2 -157 -13q-25 -25 -25 -446q0 -62 1 -148.5t1 -140.5q0 -109 19 -167t57 -95q86 -86 262 -86q146 0 244 89t98 257q4 290 4 393q0 291 -41 332q-12 12 -44 17.5t-130 9.5 q-6 0 -6.5 33.5t6.5 33.5q266 -11 490 -2q5 0 6.5 -16.5t0 -33.5t-4.5 -17q-133 -17 -150 -37q-19 -19 -26.5 -73.5t-10.5 -203.5q-6 -203 -6 -434q0 -210 -135.5 -329t-353.5 -119q-142 0 -258 36t-181 101q-57 58 -83.5 127.5t-26.5 187.5q0 123 6 627q0 94 -12 106 q-14 10 -166 15q-4 0 -5.5 17zM453 1559q0 38 27 65t69 27q60 0 121 -64q68 -74 145 -145q55 -45 90 -70q2 -5 -3.5 -17t-13 -21.5t-11.5 -8.5q-229 82 -324 127q-100 41 -100 107z" />
<glyph unicode="&#xda;" horiz-adv-x="1462" d="M29.5 1199q-1.5 17 0.5 33.5t7 16.5q92 -2 290.5 -2.5t329.5 -3.5q7 0 7 -32.5t-7 -32.5q-146 -2 -157 -13q-25 -25 -25 -446q0 -62 1 -148.5t1 -140.5q0 -109 19 -167t57 -95q86 -86 262 -86q146 0 244 89t98 257q4 290 4 393q0 291 -41 332q-12 12 -44 17.5t-130 9.5 q-6 0 -6.5 33.5t6.5 33.5q266 -11 490 -2q5 0 6.5 -16.5t0 -33.5t-4.5 -17q-133 -17 -150 -37q-19 -19 -26.5 -73.5t-10.5 -203.5q-6 -203 -6 -434q0 -210 -135.5 -329t-353.5 -119q-142 0 -258 36t-181 101q-57 58 -83.5 127.5t-26.5 187.5q0 123 6 627q0 94 -12 106 q-14 10 -166 15q-4 0 -5.5 17zM633 1364q11 9 41 32t49 40q88 79 143 143q57 63 123 63q42 0 69 -27t27 -63q0 -68 -102 -108q-80 -38 -321 -125q-1 -1 -8.5 10t-14.5 22.5t-6 12.5z" />
<glyph unicode="&#xdb;" horiz-adv-x="1462" d="M29.5 1199q-1.5 17 0.5 33.5t7 16.5q92 -2 290.5 -2.5t329.5 -3.5q7 0 7 -32.5t-7 -32.5q-146 -2 -157 -13q-25 -25 -25 -446q0 -62 1 -148.5t1 -140.5q0 -109 19 -167t57 -95q86 -86 262 -86q146 0 244 89t98 257q4 290 4 393q0 291 -41 332q-12 12 -44 17.5t-130 9.5 q-6 0 -6.5 33.5t6.5 33.5q266 -11 490 -2q5 0 6.5 -16.5t0 -33.5t-4.5 -17q-133 -17 -150 -37q-19 -19 -26.5 -73.5t-10.5 -203.5q-6 -203 -6 -434q0 -210 -135.5 -329t-353.5 -119q-142 0 -258 36t-181 101q-57 58 -83.5 127.5t-26.5 187.5q0 123 6 627q0 94 -12 106 q-14 10 -166 15q-4 0 -5.5 17zM494 1372q56 57 107 118t79 98l27 38q10 6 67.5 7t75.5 -11q2 -2 28.5 -39.5t72.5 -96t93 -108.5q3 -5 -18.5 -26.5t-30.5 -20.5q-138 92 -229 142q-79 -49 -227 -148q-5 -2 -17.5 8.5t-22 23t-5.5 15.5z" />
<glyph unicode="&#xdc;" horiz-adv-x="1462" d="M29.5 1199q-1.5 17 0.5 33.5t7 16.5q92 -2 290.5 -2.5t329.5 -3.5q7 0 7 -32.5t-7 -32.5q-146 -2 -157 -13q-25 -25 -25 -446q0 -62 1 -148.5t1 -140.5q0 -109 19 -167t57 -95q86 -86 262 -86q146 0 244 89t98 257q4 290 4 393q0 291 -41 332q-12 12 -44 17.5t-130 9.5 q-6 0 -6.5 33.5t6.5 33.5q266 -11 490 -2q5 0 6.5 -16.5t0 -33.5t-4.5 -17q-133 -17 -150 -37q-19 -19 -26.5 -73.5t-10.5 -203.5q-6 -203 -6 -434q0 -210 -135.5 -329t-353.5 -119q-142 0 -258 36t-181 101q-57 58 -83.5 127.5t-26.5 187.5q0 123 6 627q0 94 -12 106 q-14 10 -166 15q-4 0 -5.5 17zM455 1475q0 53 38.5 92t96.5 39q57 0 93 -38t36 -95q0 -54 -39 -95t-96 -41q-56 0 -92.5 40t-36.5 98zM817 1477q0 52 37.5 93.5t93.5 41.5q60 0 95.5 -38t35.5 -91q0 -60 -35.5 -101t-93.5 -41q-57 0 -95 39.5t-38 96.5z" />
<glyph unicode="&#xdd;" horiz-adv-x="1359" d="M-13.5 1192q-0.5 18 1.5 35.5t6 17.5q316 -3 606 4q4 0 5.5 -17.5t0.5 -34.5t-4 -17q-78 -4 -101.5 -7.5t-29.5 -11.5q-15 -12 10 -55q138 -252 285 -479h4q25 38 65 99.5t62.5 95.5t51 80t50.5 85q52 88 52 137q0 29 -26 41.5t-112 16.5q-4 0 -4 17t2.5 33.5t6.5 16.5 q35 -1 123.5 -3t123.5 -3q96 0 207 2q6 0 6.5 -33.5t-4.5 -35.5q-96 -6 -127 -21q-65 -32 -180 -207q-79 -118 -231 -356q-17 -27 -22 -46.5t-7 -56.5q-4 -98 -4 -264q2 -123 16 -137q11 -11 195 -20q4 0 3.5 -36t-3.5 -36q-184 4 -350 4q-62 0 -175.5 -1t-166.5 -1 q-3 0 -4.5 18t-1 36t2.5 18q120 3 155.5 6.5t45.5 11.5q14 14 17 100q1 56 2 122.5t1.5 103t0.5 59.5q0 32 -4 46.5t-19 39.5q-202 326 -285 455q-69 108 -90 129q-16 16 -43.5 22t-109.5 9q-3 0 -3.5 18zM575 1364q12 10 42 33t49 39q88 79 143 143q57 63 123 63 q42 0 69 -27t27 -63q0 -68 -102 -108q-76 -37 -322 -125q-1 -1 -8.5 10t-14.5 22.5t-6 12.5z" />
<glyph unicode="&#xde;" horiz-adv-x="1298" d="M30.5 14q-1.5 18 1 36t7.5 18q168 4 180 16t12 440q0 324 -2 529q0 96 -14 110q-8 8 -164 13q-6 0 -6 35.5t6 35.5q47 0 156.5 -1t167.5 -1q52 0 160 -1t155 -1q3 0 4 -18t-0.5 -36t-5.5 -18q-164 0 -172 -8q-11 -9 -14 -146v-24h153q359 0 502 -143q76 -79 76 -178 q0 -122 -96 -221q-164 -164 -502 -164q-32 0 -57.5 1.5t-47 3.5t-32.5 3q-2 -12 -2 -84q0 -115 10 -125q8 -8 209 -12q6 0 5.5 -36t-5.5 -36q-38 0 -158.5 -1t-187.5 -1q-236 0 -332 -4q-5 0 -6.5 18zM500 375q0 -15 133 -15q100 0 171.5 32t98.5 87q35 66 35 185 q0 85 -31 149q-28 58 -84 83.5t-166 25.5h-116q-41 0 -41 -19q-5 -159 0 -528z" />
<glyph unicode="&#xdf;" horiz-adv-x="1196" d="M30 786.5q-1 18.5 1 37t6 18.5h149q9 0 9 28q0 127 28 206t90 141q118 118 301 118q81 0 178 -33.5t148 -84.5q61 -61 61 -130q0 -82 -71 -153q-46 -46 -121 -84t-154 -53v-4q256 -90 362.5 -184.5t106.5 -235.5q0 -78 -29 -148.5t-79 -120.5q-113 -116 -254 -116 q-111 0 -180 69q-29 29 -43.5 56.5t-14.5 68.5q0 44 31.5 79.5t81.5 35.5q43 0 70.5 -26.5t27.5 -65.5q0 -36 -19.5 -60t-39 -35.5t-19.5 -17.5q0 -11 29.5 -26t63.5 -15q75 0 104 60q27 50 27 215q0 122 -20 185t-73 116q-67 67 -223 129q-6 3 -5.5 37t5.5 36q75 26 127 78 q47 47 47 170q0 112 -39 148q-37 37 -102 37q-96 0 -139 -82q-21 -39 -27 -95.5t-6 -158.5q0 -214 4 -918q0 -10 -12 -10q-82 2 -182 2q-23 0 -92.5 -1t-106.5 -1q-4 0 -5 16t1 32.5t6 16.5q122 5 135 5q25 3 25 49q0 457 -2 641q0 10 -11 10h-151q-4 0 -5 18.5z" />
<glyph unicode="&#xe0;" horiz-adv-x="1079" d="M86 197q0 96 64 157q51 53 160.5 88t330.5 54q2 25 2 96q0 69 -8 105t-29 57q-45 45 -145 45q-37 0 -68.5 -9t-46 -18.5t-14.5 -15.5q0 -5 18 -16t35.5 -33.5t17.5 -55.5q0 -50 -34.5 -81t-89.5 -31q-58 0 -95 32.5t-37 85.5q0 66 50 113q102 98 299 98q209 0 305 -96 q40 -40 56.5 -95.5t16.5 -141.5q0 -44 -4 -184t-4 -210q0 -39 11 -54t36 -15q33 0 56.5 34.5t42.5 110.5q5 5 31 -1t26 -13q-20 -103 -74.5 -162t-146.5 -59q-165 0 -215 149q-61 -73 -127 -112t-150 -39q-103 0 -186.5 61.5t-83.5 155.5zM219 1243q0 38 27 64t67 26 q34 0 59 -16.5t60 -56.5q9 -11 49.5 -58.5t65.5 -73.5q60 -63 102 -102q3 -7 -11 -27t-22 -20q-83 37 -294 145q-103 54 -103 119zM319 215q0 -137 109 -137q49 0 109.5 41.5t83.5 85.5q18 41 18 96q2 49 2 133q-106 -12 -167.5 -26.5t-97 -41.5t-46.5 -60.5t-11 -90.5z" />
<glyph unicode="&#xe1;" horiz-adv-x="1079" d="M86 197q0 96 64 157q51 53 160.5 88t330.5 54q2 25 2 96q0 69 -8 105t-29 57q-45 45 -145 45q-37 0 -68.5 -9t-46 -18.5t-14.5 -15.5q0 -5 18 -16t35.5 -33.5t17.5 -55.5q0 -50 -34.5 -81t-89.5 -31q-58 0 -95 32.5t-37 85.5q0 66 50 113q102 98 299 98q209 0 305 -96 q40 -40 56.5 -95.5t16.5 -141.5q0 -44 -4 -184t-4 -210q0 -39 11 -54t36 -15q33 0 56.5 34.5t42.5 110.5q5 5 31 -1t26 -13q-20 -103 -74.5 -162t-146.5 -59q-165 0 -215 149q-61 -73 -127 -112t-150 -39q-103 0 -186.5 61.5t-83.5 155.5zM319 215q0 -137 109 -137 q49 0 109.5 41.5t83.5 85.5q18 41 18 96q2 49 2 133q-106 -12 -167.5 -26.5t-97 -41.5t-46.5 -60.5t-11 -90.5zM406 1022q16 14 44.5 40t43.5 40q76 81 141 166q55 65 113 65q41 0 68.5 -26t27.5 -64q0 -70 -96 -115q-99 -59 -314 -151q-1 -1 -8.5 10t-14 22.5t-5.5 12.5z " />
<glyph unicode="&#xe2;" horiz-adv-x="1079" d="M86 197q0 96 64 157q51 53 160.5 88t330.5 54q2 25 2 96q0 69 -8 105t-29 57q-45 45 -145 45q-37 0 -68.5 -9t-46 -18.5t-14.5 -15.5q0 -5 18 -16t35.5 -33.5t17.5 -55.5q0 -50 -34.5 -81t-89.5 -31q-58 0 -95 32.5t-37 85.5q0 66 50 113q102 98 299 98q209 0 305 -96 q40 -40 56.5 -95.5t16.5 -141.5q0 -44 -4 -184t-4 -210q0 -39 11 -54t36 -15q33 0 56.5 34.5t42.5 110.5q5 5 31 -1t26 -13q-20 -103 -74.5 -162t-146.5 -59q-165 0 -215 149q-61 -73 -127 -112t-150 -39q-103 0 -186.5 61.5t-83.5 155.5zM250 1028q33 39 66 81.5t57 76.5 t42.5 61.5t29.5 45t12 18.5q10 5 65 6.5t74 -10.5q1 -1 27.5 -42.5t72.5 -109t90 -123.5q3 -5 -17.5 -25.5t-29.5 -19.5q-120 96 -223 160q-43 -30 -225 -166q-5 -3 -25 19t-16 28zM319 215q0 -137 109 -137q49 0 109.5 41.5t83.5 85.5q18 41 18 96q2 49 2 133 q-106 -12 -167.5 -26.5t-97 -41.5t-46.5 -60.5t-11 -90.5z" />
<glyph unicode="&#xe3;" horiz-adv-x="1079" d="M86 197q0 96 64 157q51 53 160.5 88t330.5 54q2 25 2 96q0 69 -8 105t-29 57q-45 45 -145 45q-37 0 -68.5 -9t-46 -18.5t-14.5 -15.5q0 -5 18 -16t35.5 -33.5t17.5 -55.5q0 -50 -34.5 -81t-89.5 -31q-58 0 -95 32.5t-37 85.5q0 66 50 113q102 98 299 98q209 0 305 -96 q40 -40 56.5 -95.5t16.5 -141.5q0 -44 -4 -184t-4 -210q0 -39 11 -54t36 -15q33 0 56.5 34.5t42.5 110.5q5 5 31 -1t26 -13q-20 -103 -74.5 -162t-146.5 -59q-165 0 -215 149q-61 -73 -127 -112t-150 -39q-103 0 -186.5 61.5t-83.5 155.5zM223 1010q-11 94 38.5 173 t144.5 79q53 0 141.5 -39t140.5 -39q27 0 47.5 24t40.5 80q1 1 17 -3t31 -9.5t14 -7.5q-6 -29 -9.5 -46t-11.5 -46.5t-16 -47.5t-21.5 -40.5t-29 -35t-37 -21.5t-47.5 -9q-64 0 -161.5 43t-152.5 43q-28 0 -44 -23t-23 -84q0 -1 -15.5 0.5t-31 4t-15.5 4.5zM319 215 q0 -137 109 -137q49 0 109.5 41.5t83.5 85.5q18 41 18 96q2 49 2 133q-106 -12 -167.5 -26.5t-97 -41.5t-46.5 -60.5t-11 -90.5z" />
<glyph unicode="&#xe4;" horiz-adv-x="1079" d="M86 197q0 96 64 157q51 53 160.5 88t330.5 54q2 25 2 96q0 69 -8 105t-29 57q-45 45 -145 45q-37 0 -68.5 -9t-46 -18.5t-14.5 -15.5q0 -5 18 -16t35.5 -33.5t17.5 -55.5q0 -50 -34.5 -81t-89.5 -31q-58 0 -95 32.5t-37 85.5q0 66 50 113q102 98 299 98q209 0 305 -96 q40 -40 56.5 -95.5t16.5 -141.5q0 -44 -4 -184t-4 -210q0 -39 11 -54t36 -15q33 0 56.5 34.5t42.5 110.5q5 5 31 -1t26 -13q-20 -103 -74.5 -162t-146.5 -59q-165 0 -215 149q-61 -73 -127 -112t-150 -39q-103 0 -186.5 61.5t-83.5 155.5zM213 1141q0 56 37.5 96.5 t95.5 40.5q56 0 89.5 -40.5t33.5 -98.5q0 -56 -36 -98t-93 -42q-55 0 -91 41.5t-36 100.5zM319 215q0 -137 109 -137q49 0 109.5 41.5t83.5 85.5q18 41 18 96q2 49 2 133q-106 -12 -167.5 -26.5t-97 -41.5t-46.5 -60.5t-11 -90.5zM569 1145q0 54 35.5 95.5t91.5 41.5 q59 0 93 -39t34 -94q0 -61 -34.5 -104.5t-92.5 -43.5q-56 0 -91.5 41.5t-35.5 102.5z" />
<glyph unicode="&#xe5;" horiz-adv-x="1079" d="M86 197q0 96 64 157q51 53 160.5 88t330.5 54q2 25 2 96q0 69 -8 105t-29 57q-45 45 -145 45q-37 0 -68.5 -9t-46 -18.5t-14.5 -15.5q0 -5 18 -16t35.5 -33.5t17.5 -55.5q0 -50 -34.5 -81t-89.5 -31q-58 0 -95 32.5t-37 85.5q0 66 50 113q102 98 299 98q209 0 305 -96 q40 -40 56.5 -95.5t16.5 -141.5q0 -44 -4 -184t-4 -210q0 -39 11 -54t36 -15q33 0 56.5 34.5t42.5 110.5q5 5 31 -1t26 -13q-20 -103 -74.5 -162t-146.5 -59q-165 0 -215 149q-61 -73 -127 -112t-150 -39q-103 0 -186.5 61.5t-83.5 155.5zM319 215q0 -137 109 -137 q49 0 109.5 41.5t83.5 85.5q18 41 18 96q2 49 2 133q-106 -12 -167.5 -26.5t-97 -41.5t-46.5 -60.5t-11 -90.5zM324 1161q0 79 55.5 136t138.5 57q86 0 141.5 -55t55.5 -140q0 -82 -55 -130t-144 -48q-80 0 -136 52t-56 128zM389 1161q0 -50 37.5 -84.5t91.5 -34.5 q60 0 95.5 32t35.5 85q0 55 -36 93t-95 38q-57 0 -93 -37t-36 -92z" />
<glyph unicode="&#xe6;" horiz-adv-x="1576" d="M86 197q0 92 64 159q57 57 175.5 91t315.5 53q2 33 2 116q0 78 -16 113q-37 70 -160 70q-46 0 -79.5 -9t-45.5 -18t-12 -14q0 -4 18 -14t36.5 -32.5t18.5 -56.5q0 -50 -36.5 -81t-92.5 -31q-55 0 -92 32.5t-37 79.5q0 64 50 117q96 96 305 96q100 0 178 -27.5t121 -78.5 q5 -7 12 0q118 115 293 115q176 0 293 -117q114 -114 114 -332q0 -14 -14 -14q-533 -3 -623 -6q3 -139 44 -222q65 -127 233 -127q126 0 207 84q41 38 80 115q6 10 35.5 -3.5t27.5 -23.5q-35 -78 -92 -139q-119 -119 -293 -119q-140 0 -247 52.5t-171 142.5q-4 8 -12 0 q-144 -188 -332 -188q-59 0 -115 22.5t-92 56.5q-61 65 -61 138zM322 217q0 -61 16 -92q12 -25 31 -36t53 -11q59 0 128.5 47t111.5 108q2 2 2 11q-25 80 -25 186q0 6 -8 6q-117 -16 -179 -33t-90 -45q-40 -43 -40 -141zM874 489q0 -8 7 -8q147 0 385 4q8 0 8 15 q-3 144 -39 215q-42 86 -156 86q-56 0 -96 -28t-63 -71q-37 -79 -46 -213z" />
<glyph unicode="&#xe7;" horiz-adv-x="991" d="M68 412q0 178 131 309q67 67 160.5 108t201.5 41q161 0 261 -70t100 -169q0 -64 -41 -103t-97 -39q-54 0 -90.5 33t-36.5 76q0 44 29 76q13 13 37 25.5t27 15.5q9 9 -6 27t-60.5 34.5t-108.5 16.5q-135 0 -194 -117q-45 -91 -45 -252q0 -165 37 -240q61 -118 205 -118 q181 0 284 217q6 12 38.5 -4.5t27.5 -28.5q-58 -126 -155.5 -198.5t-223.5 -76.5l-47 -81q30 6 76 6q60 0 100.5 -33t40.5 -92q0 -60 -45 -105q-35 -34 -86.5 -53.5t-104.5 -19.5q-106 0 -215 79q-3 2 5 17t19 28.5t15 10.5q94 -66 162 -66q37 0 66 25q26 29 26 82 q0 57 -53 57q-28 0 -74 -16q-9 -1 -25.5 13t-13.5 19l80 134q-165 18 -278 131q-129 129 -129 301z" />
<glyph unicode="&#xe8;" horiz-adv-x="1030" d="M72 418q0 85 34.5 165t96.5 142q155 152 352 152q180 0 301 -121q50 -50 81 -134t32 -192q0 -16 -13 -16q-464 0 -628 -6q3 -144 45 -224q64 -125 235 -125q189 0 283 201q10 7 38.5 -6.5t26.5 -22.5q-54 -130 -159.5 -195t-225.5 -65q-114 0 -212 39.5t-169 110.5 q-118 118 -118 297zM246 1243q0 38 27 64t67 26q34 0 59 -16.5t60 -56.5q13 -15 51 -60.5t63 -71.5q53 -56 103 -102q3 -7 -11 -27t-22 -20q-90 40 -295 145q-102 54 -102 119zM328 481l401 4q-8 166 -54.5 241t-148.5 75q-51 0 -90 -26t-59 -66q-38 -79 -49 -228z" />
<glyph unicode="&#xe9;" horiz-adv-x="1030" d="M72 418q0 85 34.5 165t96.5 142q155 152 352 152q180 0 301 -121q50 -50 81 -134t32 -192q0 -16 -13 -16q-464 0 -628 -6q3 -144 45 -224q64 -125 235 -125q189 0 283 201q10 7 38.5 -6.5t26.5 -22.5q-54 -130 -159.5 -195t-225.5 -65q-114 0 -212 39.5t-169 110.5 q-118 118 -118 297zM328 481l401 4q-8 166 -54.5 241t-148.5 75q-51 0 -90 -26t-59 -66q-38 -79 -49 -228zM434 1022q15 14 43.5 40t44.5 40q81 87 142 166q55 65 112 65q41 0 68.5 -26t27.5 -64q0 -70 -96 -115q-102 -60 -313 -151q-1 -1 -8.5 10t-14.5 22.5t-6 12.5z" />
<glyph unicode="&#xea;" horiz-adv-x="1030" d="M72 418q0 85 34.5 165t96.5 142q155 152 352 152q180 0 301 -121q50 -50 81 -134t32 -192q0 -16 -13 -16q-464 0 -628 -6q3 -144 45 -224q64 -125 235 -125q189 0 283 201q10 7 38.5 -6.5t26.5 -22.5q-54 -130 -159.5 -195t-225.5 -65q-114 0 -212 39.5t-169 110.5 q-118 118 -118 297zM276 1028q33 39 66 81.5t57 76.5t42.5 61.5t29.5 45t12 18.5q10 5 65.5 6.5t74.5 -10.5q1 -1 27.5 -42.5t72.5 -109t90 -123.5q3 -5 -17.5 -25.5t-29.5 -19.5q-120 96 -223 160q-55 -38 -226 -166q-5 -3 -25 19t-16 28zM328 481l401 4q-8 166 -54.5 241 t-148.5 75q-51 0 -90 -26t-59 -66q-38 -79 -49 -228z" />
<glyph unicode="&#xeb;" horiz-adv-x="1030" d="M72 418q0 85 34.5 165t96.5 142q155 152 352 152q180 0 301 -121q50 -50 81 -134t32 -192q0 -16 -13 -16q-464 0 -628 -6q3 -144 45 -224q64 -125 235 -125q189 0 283 201q10 7 38.5 -6.5t26.5 -22.5q-54 -130 -159.5 -195t-225.5 -65q-114 0 -212 39.5t-169 110.5 q-118 118 -118 297zM240 1141q0 56 37.5 96.5t95.5 40.5q56 0 89.5 -40.5t33.5 -98.5q0 -56 -36 -98t-93 -42q-55 0 -91 41.5t-36 100.5zM328 481l401 4q-8 166 -54.5 241t-148.5 75q-51 0 -90 -26t-59 -66q-38 -79 -49 -228zM596 1145q0 54 35.5 95.5t91.5 41.5 q59 0 93 -39t34 -94q0 -61 -34.5 -104.5t-92.5 -43.5q-56 0 -91.5 41.5t-35.5 102.5z" />
<glyph unicode="&#xec;" horiz-adv-x="622" d="M-8 1235q0 38 27 64t67 26q34 0 58.5 -16.5t60.5 -57.5q10 -11 49.5 -58t64.5 -73q53 -56 103 -102q3 -7 -11 -27t-22 -20q-90 40 -295 145q-102 54 -102 119zM42 794.5q-1 16.5 0 33t5 16.5h367q26 0 26 -21q0 -24 -1 -216t-1 -269q0 -235 25 -260q7 -7 27.5 -8.5 t101.5 -3.5q5 0 7.5 -17.5t1.5 -35t-7 -17.5q-23 0 -278 2t-269 2q-2 0 -3 16.5t0 33t5 16.5q139 3 148 12q11 14 14 78q2 59 2 186q0 98 -10 348q-3 62 -13 76q-10 7 -145 12q-2 0 -3 16.5z" />
<glyph unicode="&#xed;" horiz-adv-x="622" d="M42 794.5q-1 16.5 0 33t5 16.5h367q26 0 26 -21q0 -24 -1 -216t-1 -269q0 -235 25 -260q7 -7 27.5 -8.5t101.5 -3.5q5 0 7.5 -17.5t1.5 -35t-7 -17.5q-23 0 -278 2t-269 2q-2 0 -3 16.5t0 33t5 16.5q139 3 148 12q11 14 14 78q2 59 2 186q0 98 -10 348q-3 62 -13 76 q-10 7 -145 12q-2 0 -3 16.5zM180 1014q15 15 43.5 40t44.5 40q81 87 142 166q55 65 112 65q41 0 68.5 -26t27.5 -64q0 -70 -96 -115q-102 -60 -313 -151q-1 -1 -8.5 10t-14.5 22.5t-6 12.5z" />
<glyph unicode="&#xee;" horiz-adv-x="622" d="M23 1020q33 39 66 81.5t56.5 76.5t42 61.5t29.5 45t12 18.5q10 5 65.5 6t74.5 -11q1 -1 27.5 -42.5t72.5 -108.5t90 -123q3 -5 -17.5 -25.5t-29.5 -19.5q-120 96 -223 160q-55 -38 -226 -166q-5 -3 -24.5 19t-15.5 28zM42 794.5q-1 16.5 0 33t5 16.5h367q26 0 26 -21 q0 -24 -1 -216t-1 -269q0 -235 25 -260q7 -7 27.5 -8.5t101.5 -3.5q5 0 7.5 -17.5t1.5 -35t-7 -17.5q-23 0 -278 2t-269 2q-2 0 -3 16.5t0 33t5 16.5q139 3 148 12q11 14 14 78q2 59 2 186q0 98 -10 348q-3 62 -13 76q-10 7 -145 12q-2 0 -3 16.5z" />
<glyph unicode="&#xef;" horiz-adv-x="622" d="M-16 1133q0 56 37.5 96.5t95.5 40.5q56 0 89.5 -41t33.5 -99q0 -56 -36 -97.5t-93 -41.5q-55 0 -91 41.5t-36 100.5zM42 794.5q-1 16.5 0 33t5 16.5h367q26 0 26 -21q0 -24 -1 -216t-1 -269q0 -235 25 -260q7 -7 27.5 -8.5t101.5 -3.5q5 0 7.5 -17.5t1.5 -35t-7 -17.5 q-23 0 -278 2t-269 2q-2 0 -3 16.5t0 33t5 16.5q139 3 148 12q11 14 14 78q2 59 2 186q0 98 -10 348q-3 62 -13 76q-10 7 -145 12q-2 0 -3 16.5zM340 1137q0 54 35.5 95.5t91.5 41.5q59 0 93 -39t34 -94q0 -61 -34.5 -104.5t-92.5 -43.5q-56 0 -91.5 41.5t-35.5 102.5z" />
<glyph unicode="&#xf0;" horiz-adv-x="1110" d="M72 403q0 96 33 171.5t102 142.5q64 64 154.5 100.5t179.5 36.5q106 0 192 -72l2 2q-13 87 -53 170q-40 78 -111 140q-13 -8 -105.5 -62.5t-137.5 -79.5q-5 -1 -15 14t-17.5 31t-4.5 19q108 64 219 125q-70 52 -195 106q-3 3 3 20.5t16 33.5t16 14q136 -51 254 -119 q96 52 211 123q2 1 7 -5t10.5 -15.5t10.5 -19.5t7 -17t0 -9q-97 -55 -176 -100q86 -58 139 -111q116 -116 166.5 -236t50.5 -271q0 -156 -36.5 -255.5t-112.5 -175.5q-128 -131 -336 -131q-104 0 -199.5 43t-163.5 111q-110 110 -110 276zM338 414q0 -198 54 -282.5 t163 -84.5q58 0 95.5 23.5t62.5 74.5q49 96 49 344q0 132 -25 183q-24 48 -73 80t-105 32q-59 0 -104 -31.5t-72 -86.5q-45 -85 -45 -252z" />
<glyph unicode="&#xf1;" horiz-adv-x="1165" d="M41.5 791.5q-1.5 17.5 0.5 35t7 17.5q36 0 183 1t184 1q16 0 16 -23q-5 -82 -10 -202h10q31 55 58.5 94t67.5 79.5t89.5 61.5t106.5 21q129 0 195.5 -76.5t66.5 -222.5q0 -42 -1 -141.5t-1 -166.5q0 -178 16 -194q12 -12 119 -15q5 0 6.5 -16t-0.5 -32t-8 -15 q-220 6 -465 0q-6 1 -8 17t-0.5 32t4.5 16q82 7 90 15q10 10 10 86v432q0 69 -26.5 103t-83.5 34q-69 0 -125.5 -54t-91.5 -124q-29 -62 -29 -139q0 -44 4 -248q3 -83 10 -90t26.5 -9.5t88.5 -5.5q4 0 5 -16.5t-1.5 -33t-7.5 -15.5q-414 0 -494 -4q-5 1 -7.5 18t-1 34 t6.5 17q119 3 127 11q15 15 15 192v326q0 151 -17 168q-9 9 -103 13q-17 1 -26 1q-4 0 -5.5 17.5zM297 1010q-12 94 37.5 173t144.5 79q53 0 142 -39t141 -39q27 0 47.5 24t40.5 80q1 1 16.5 -3t30.5 -9.5t14 -7.5q-6 -29 -9.5 -46t-11.5 -46.5t-16 -47.5t-21.5 -40.5 t-29 -35t-37 -21.5t-47.5 -9q-64 0 -161 43t-152 43q-28 0 -44.5 -23t-23.5 -84q0 -1 -15 0.5t-30.5 4t-15.5 4.5z" />
<glyph unicode="&#xf2;" d="M70 414q0 94 33.5 168.5t103.5 144.5t167 110t204 40q201 0 333 -132q136 -136 136 -329q0 -163 -144 -303q-66 -68 -156.5 -105t-189.5 -37q-103 0 -202 45t-171 117q-114 114 -114 281zM276 1243q0 38 27.5 64t67.5 26q34 0 58 -16t60 -57q9 -11 49.5 -58.5t65.5 -73.5 q53 -56 103 -102q3 -7 -11 -27t-22 -20q-90 40 -295 145q-103 54 -103 119zM336 414q0 -197 56.5 -282t166.5 -85q64 0 103 23t67 77q49 96 49 338q0 166 -30 222q-25 49 -65.5 73.5t-109.5 24.5q-131 0 -194 -125q-43 -85 -43 -266z" />
<glyph unicode="&#xf3;" d="M70 414q0 94 33.5 168.5t103.5 144.5t167 110t204 40q201 0 333 -132q136 -136 136 -329q0 -163 -144 -303q-66 -68 -156.5 -105t-189.5 -37q-103 0 -202 45t-171 117q-114 114 -114 281zM336 414q0 -197 56.5 -282t166.5 -85q64 0 103 23t67 77q49 96 49 338 q0 166 -30 222q-25 49 -65.5 73.5t-109.5 24.5q-131 0 -194 -125q-43 -85 -43 -266zM465 1022q15 14 43.5 40t44.5 40q76 81 141 166q55 65 113 65q41 0 68.5 -26t27.5 -64q0 -70 -96 -115q-102 -60 -313 -151q-1 -1 -8.5 10t-14.5 22.5t-6 12.5z" />
<glyph unicode="&#xf4;" d="M70 414q0 94 33.5 168.5t103.5 144.5t167 110t204 40q201 0 333 -132q136 -136 136 -329q0 -163 -144 -303q-66 -68 -156.5 -105t-189.5 -37q-103 0 -202 45t-171 117q-114 114 -114 281zM307 1028q33 39 66 81.5t57 76.5t42.5 61.5t29.5 45t12 18.5q10 5 65 6.5 t74 -10.5q1 -1 27.5 -42.5t73 -109t90.5 -123.5q3 -5 -17.5 -25.5t-29.5 -19.5q-117 93 -224 160q-43 -30 -225 -166q-5 -3 -25 19t-16 28zM336 414q0 -197 56.5 -282t166.5 -85q64 0 103 23t67 77q49 96 49 338q0 166 -30 222q-25 49 -65.5 73.5t-109.5 24.5 q-131 0 -194 -125q-43 -85 -43 -266z" />
<glyph unicode="&#xf5;" d="M70 414q0 94 33.5 168.5t103.5 144.5t167 110t204 40q201 0 333 -132q136 -136 136 -329q0 -163 -144 -303q-66 -68 -156.5 -105t-189.5 -37q-103 0 -202 45t-171 117q-114 114 -114 281zM279 1010q-12 94 37.5 173t144.5 79q53 0 141.5 -39t140.5 -39q27 0 47.5 24 t40.5 80q1 1 17 -3t31 -9.5t14 -7.5q-6 -29 -9.5 -46t-11.5 -46.5t-16 -47.5t-21.5 -40.5t-29 -35t-37 -21.5t-47.5 -9q-64 0 -161 43t-152 43q-28 0 -44.5 -23t-23.5 -84q0 -1 -15 0.5t-30.5 4t-15.5 4.5zM336 414q0 -197 56.5 -282t166.5 -85q64 0 103 23t67 77 q49 96 49 338q0 166 -30 222q-25 49 -65.5 73.5t-109.5 24.5q-131 0 -194 -125q-43 -85 -43 -266z" />
<glyph unicode="&#xf6;" d="M70 414q0 94 33.5 168.5t103.5 144.5t167 110t204 40q201 0 333 -132q136 -136 136 -329q0 -163 -144 -303q-66 -68 -156.5 -105t-189.5 -37q-103 0 -202 45t-171 117q-114 114 -114 281zM268 1141q0 56 37.5 96.5t95.5 40.5q56 0 89.5 -40.5t33.5 -98.5q0 -56 -36 -98 t-93 -42q-55 0 -91 41.5t-36 100.5zM336 414q0 -197 56.5 -282t166.5 -85q64 0 103 23t67 77q49 96 49 338q0 166 -30 222q-25 49 -65.5 73.5t-109.5 24.5q-131 0 -194 -125q-43 -85 -43 -266zM625 1145q0 54 35.5 95.5t91.5 41.5q59 0 93 -39t34 -94q0 -61 -34.5 -104.5 t-92.5 -43.5q-56 0 -91.5 41.5t-35.5 102.5z" />
<glyph unicode="&#xf7;" horiz-adv-x="1060" d="M113 692q0 10 10 10h815q8 0 8 -16q0 -61 -8 -61h-813q-12 0 -12 67zM395 977q0 54 36.5 92.5t90.5 38.5q56 0 92.5 -36.5t36.5 -88.5q0 -55 -38.5 -97t-92.5 -42q-55 0 -90 38.5t-35 94.5zM397 352q0 56 36.5 94.5t90.5 38.5q53 0 90 -36t37 -87q0 -58 -37 -99.5 t-92 -41.5q-52 0 -88.5 38.5t-36.5 92.5z" />
<glyph unicode="&#xf8;" d="M70 414q0 93 32.5 167t100.5 142q72 72 170 113t205 41q160 0 286 -91q16 20 47.5 57t42.5 50q2 2 18 -7t30.5 -20t11.5 -14q-74 -89 -96 -113q129 -135 129 -323q0 -163 -144 -303q-66 -68 -156.5 -105t-189.5 -37q-148 0 -289 92q-35 -42 -98 -112q-3 -3 -18 5 t-27.5 19t-9.5 15q19 21 52 59t48 55q-5 5 -15.5 14.5t-15.5 14.5q-114 114 -114 281zM336 414q0 -121 20 -191q52 63 197 238t197 239l-2 7q-25 49 -65.5 73.5t-109.5 24.5q-131 0 -194 -125q-43 -85 -43 -266zM383 147q54 -100 176 -100q64 0 103 23t67 77q49 96 49 338 q0 79 -6 131q-31 -37 -180.5 -218t-208.5 -251z" />
<glyph unicode="&#xf9;" horiz-adv-x="1144" d="M8.5 810q-0.5 36 9.5 36q111 -3 349 2q19 0 24.5 -6t5.5 -27q0 -24 -2 -256.5t-2 -308.5q0 -67 34 -105.5t91 -38.5q52 0 103 48.5t88 121.5q28 55 28 123q2 106 2 254q0 89 -14 103q-8 8 -36.5 11t-115.5 3q-7 0 -8 36t8 36q122 4 379 4q29 0 29 -19q-12 -528 -12 -690 q0 -45 10 -55q8 -8 137 -10q8 0 8.5 -37t-8.5 -37q-67 0 -192 -4t-160 -4q-9 0 -14.5 7t-9.5 30t-5 65t0 113h-10q-137 -234 -309 -234q-54 0 -106.5 19t-86.5 53q-36 35 -50.5 81t-14.5 124q0 60 3 220t3 179q0 101 -14 115q-7 7 -104 11q-18 1 -28 1q-9 0 -9.5 36z M248 1235q0 38 27 64t67 26q34 0 58.5 -16.5t60.5 -57.5q10 -11 49.5 -58t64.5 -73q53 -56 103 -102q3 -7 -11 -27t-22 -20q-90 40 -295 145q-102 54 -102 119z" />
<glyph unicode="&#xfa;" horiz-adv-x="1144" d="M8.5 810q-0.5 36 9.5 36q111 -3 349 2q19 0 24.5 -6t5.5 -27q0 -24 -2 -256.5t-2 -308.5q0 -67 34 -105.5t91 -38.5q52 0 103 48.5t88 121.5q28 55 28 123q2 106 2 254q0 89 -14 103q-8 8 -36.5 11t-115.5 3q-7 0 -8 36t8 36q122 4 379 4q29 0 29 -19q-12 -528 -12 -690 q0 -45 10 -55q8 -8 137 -10q8 0 8.5 -37t-8.5 -37q-67 0 -192 -4t-160 -4q-9 0 -14.5 7t-9.5 30t-5 65t0 113h-10q-137 -234 -309 -234q-54 0 -106.5 19t-86.5 53q-36 35 -50.5 81t-14.5 124q0 60 3 220t3 179q0 101 -14 115q-7 7 -104 11q-18 1 -28 1q-9 0 -9.5 36z M436 1014q16 15 44.5 40t43.5 40q81 87 142 166q55 65 112 65q41 0 68.5 -26t27.5 -64q0 -70 -96 -115q-102 -60 -313 -151q-1 -1 -8.5 10t-14.5 22.5t-6 12.5z" />
<glyph unicode="&#xfb;" horiz-adv-x="1144" d="M8.5 810q-0.5 36 9.5 36q111 -3 349 2q19 0 24.5 -6t5.5 -27q0 -24 -2 -256.5t-2 -308.5q0 -67 34 -105.5t91 -38.5q52 0 103 48.5t88 121.5q28 55 28 123q2 106 2 254q0 89 -14 103q-8 8 -36.5 11t-115.5 3q-7 0 -8 36t8 36q122 4 379 4q29 0 29 -19q-12 -528 -12 -690 q0 -45 10 -55q8 -8 137 -10q8 0 8.5 -37t-8.5 -37q-67 0 -192 -4t-160 -4q-9 0 -14.5 7t-9.5 30t-5 65t0 113h-10q-137 -234 -309 -234q-54 0 -106.5 19t-86.5 53q-36 35 -50.5 81t-14.5 124q0 60 3 220t3 179q0 101 -14 115q-7 7 -104 11q-18 1 -28 1q-9 0 -9.5 36z M281 1020q33 39 66 81.5t56.5 76.5t42 61.5t29.5 45t12 18.5q10 5 65.5 6t74.5 -11q1 -1 27.5 -42.5t72.5 -108.5t90 -123q3 -5 -17.5 -25.5t-29.5 -19.5q-120 96 -223 160q-43 -30 -225 -166q-5 -3 -25 19t-16 28z" />
<glyph unicode="&#xfc;" horiz-adv-x="1144" d="M8.5 810q-0.5 36 9.5 36q111 -3 349 2q19 0 24.5 -6t5.5 -27q0 -24 -2 -256.5t-2 -308.5q0 -67 34 -105.5t91 -38.5q52 0 103 48.5t88 121.5q28 55 28 123q2 106 2 254q0 89 -14 103q-8 8 -36.5 11t-115.5 3q-7 0 -8 36t8 36q122 4 379 4q29 0 29 -19q-12 -528 -12 -690 q0 -45 10 -55q8 -8 137 -10q8 0 8.5 -37t-8.5 -37q-67 0 -192 -4t-160 -4q-9 0 -14.5 7t-9.5 30t-5 65t0 113h-10q-137 -234 -309 -234q-54 0 -106.5 19t-86.5 53q-36 35 -50.5 81t-14.5 124q0 60 3 220t3 179q0 101 -14 115q-7 7 -104 11q-18 1 -28 1q-9 0 -9.5 36z M242 1133q0 56 37.5 96.5t95.5 40.5q56 0 89.5 -41t33.5 -99q0 -56 -36 -97.5t-93 -41.5q-55 0 -91 41.5t-36 100.5zM598 1137q0 54 35.5 95.5t91.5 41.5q59 0 93 -39t34 -94q0 -61 -34.5 -104.5t-92.5 -43.5q-56 0 -91.5 41.5t-35.5 102.5z" />
<glyph unicode="&#xfd;" horiz-adv-x="1099" d="M0 809q0 35 8 35h244q233 0 272 2q4 0 6.5 -16.5t1.5 -33t-6 -16.5q-87 -8 -100 -20q-18 -18 27 -113q24 -52 94.5 -208t97.5 -214h6q103 253 137 350q37 101 37 148q0 31 -21 41t-99 16q-7 2 -5.5 33t7.5 31q262 -4 395 0q8 0 8 -33t-8 -35q-61 -3 -86.5 -11.5 t-46.5 -29.5q-47 -47 -107 -192q-228 -552 -284 -686q-72 -160 -142 -230q-76 -76 -180 -76q-88 0 -149.5 50.5t-61.5 119.5q0 54 36 89.5t89 35.5q47 0 75.5 -30.5t28.5 -71.5q0 -44 -32 -72l-15 -14q-6 -8 -7 -16.5t12 -15.5t38 -7q60 0 109 49q83 83 151 285 q-163 373 -333 702q-33 65 -58 90q-15 13 -37.5 19t-93.5 10q-8 0 -8 35zM483 1014q16 15 44.5 40t43.5 40q81 87 142 166q55 65 112 65q41 0 69 -26t28 -64q0 -69 -97 -115q-102 -60 -313 -151q-1 -1 -8.5 10t-14.5 22.5t-6 12.5z" />
<glyph unicode="&#xfe;" horiz-adv-x="1120" d="M-20.5 -428q-1.5 18 1.5 35.5t9 17.5q147 5 155 13q7 7 11 63.5t4 93.5q0 66 -2 362.5t-2 385.5q0 209 -5.5 448.5t-11.5 243.5q-10 12 -137 12q-5 0 -7 16.5t-0.5 33t5.5 16.5q307 6 379 10q12 0 12 -31q0 -23 -5 -316.5t-5 -313.5q50 91 125 153t156 62q148 0 260 -115 q120 -117 120 -307q0 -200 -155 -355q-123 -123 -258 -123q-124 0 -236 91l-4 -2q1 -74 2 -134.5t1.5 -91t0.5 -51.5q0 -138 13 -151q9 -9 159 -9q5 0 7.5 -17.5t1 -34.5t-6.5 -17q-21 0 -106.5 -3t-122.5 -3h-352q-5 0 -6.5 18zM383 436q0 -155 6.5 -212t26.5 -83 q17 -28 71.5 -54t96.5 -26q96 0 145 91q47 94 47 274q0 182 -43 266q-38 78 -115 78q-62 0 -115 -46.5t-87 -115.5q-33 -68 -33 -172z" />
<glyph unicode="&#xff;" horiz-adv-x="1099" d="M0 809q0 35 8 35h244q233 0 272 2q4 0 6.5 -16.5t1.5 -33t-6 -16.5q-87 -8 -100 -20q-18 -18 27 -113q24 -52 94.5 -208t97.5 -214h6q103 253 137 350q37 101 37 148q0 31 -21 41t-99 16q-7 2 -5.5 33t7.5 31q262 -4 395 0q8 0 8 -33t-8 -35q-61 -3 -86.5 -11.5 t-46.5 -29.5q-47 -47 -107 -192q-228 -552 -284 -686q-72 -160 -142 -230q-76 -76 -180 -76q-88 0 -149.5 50.5t-61.5 119.5q0 54 36 89.5t89 35.5q47 0 75.5 -30.5t28.5 -71.5q0 -44 -32 -72l-15 -14q-6 -8 -7 -16.5t12 -15.5t38 -7q60 0 109 49q83 83 151 285 q-163 373 -333 702q-33 65 -58 90q-15 13 -37.5 19t-93.5 10q-8 0 -8 35zM289 1133q0 56 37.5 96.5t95.5 40.5q56 0 89.5 -41t33.5 -99q0 -56 -36 -97.5t-93 -41.5q-55 0 -91 41.5t-36 100.5zM645 1137q0 54 35.5 95.5t91.5 41.5q59 0 93 -39t34 -94q0 -61 -34.5 -104.5 t-92.5 -43.5q-56 0 -91.5 41.5t-35.5 102.5z" />
<glyph unicode="&#x152;" horiz-adv-x="2041" d="M76 571q0 271 196 467q205 209 547 209q78 0 232 -1t231 -1q418 0 592 2q10 0 10 -14q-13 -150 -20 -412q0 -2 -14 -3.5t-29 -1t-17 4.5q-13 32 -33.5 86.5t-32 84t-32.5 68t-41 58.5t-51.5 34.5t-69.5 14.5q-66 0 -172.5 2t-146.5 2q-13 0 -13 -18q-4 -246 -4 -448 q0 -15 11 -15q53 0 141 6q122 4 145 54q12 23 33 163q0 6 29.5 5.5t29.5 -5.5q-4 -144 -4 -245q-3 -144 6 -277q0 -4 -14.5 -6.5t-29.5 -2.5t-15 3q-25 145 -39 174q-18 33 -38 44t-68 11h-170q-15 0 -15 -10q0 -71 -1 -171.5t-1 -143.5q0 -192 11 -203q11 -14 172 -14 q151 0 194 2q50 2 75.5 9.5t45.5 27.5q71 71 149 364q1 6 33.5 4.5t32.5 -8.5q-10 -235 -10 -463q0 -8 -10 -8q-106 0 -322.5 1t-339.5 1q-67 0 -214.5 -2t-240.5 -2q-188 0 -319 49.5t-232 147.5q-157 154 -157 376zM389 614q0 -132 12.5 -216t44.5 -146 q43 -89 126.5 -131.5t234.5 -42.5q113 0 123 10t10 571q0 13 0.5 92t0 134t-1 124.5t-3 109.5t-6.5 44q-11 11 -113 11q-140 0 -229 -54t-142 -159q-31 -62 -44 -141t-13 -206z" />
<glyph unicode="&#x153;" horiz-adv-x="1726" d="M70 412q0 95 33.5 170t105.5 147q68 68 163.5 106.5t202.5 38.5q98 0 182.5 -40t147.5 -109q7 -10 15 -2q140 151 329 151q179 0 299 -120q113 -113 113 -328q0 -12 -10 -12q-246 0 -383 -2q-80 0 -228 -4q-16 0 -16 -7q3 -135 45 -217q61 -123 231 -123q97 0 166.5 45.5 t120.5 151.5q8 5 23 1t29 -13t12 -15q-35 -83 -90 -141q-117 -117 -297 -117q-217 0 -365 148q-7 7 -14 0q-56 -64 -145.5 -106t-188.5 -42q-103 0 -199.5 43.5t-163.5 110.5q-118 121 -118 285zM336 416q0 -185 41 -260q26 -53 66.5 -79t107.5 -26t107.5 22t66.5 74 q47 90 47 336q0 157 -35 226q-46 94 -174 94q-126 0 -184 -113q-43 -90 -43 -274zM1024 489q0 -8 8 -8q30 0 99.5 2t103.5 2h178q8 3 8 17q0 144 -30 203q-48 94 -168 94q-53 0 -92 -28t-60 -71q-41 -81 -47 -211z" />
<glyph unicode="&#x178;" horiz-adv-x="1359" d="M-13.5 1192q-0.5 18 1.5 35.5t6 17.5q316 -3 606 4q4 0 5.5 -17.5t0.5 -34.5t-4 -17q-78 -4 -101.5 -7.5t-29.5 -11.5q-15 -12 10 -55q138 -252 285 -479h4q25 38 65 99.5t62.5 95.5t51 80t50.5 85q52 88 52 137q0 29 -26 41.5t-112 16.5q-4 0 -4 17t2.5 33.5t6.5 16.5 q35 -1 123.5 -3t123.5 -3q96 0 207 2q6 0 6.5 -33.5t-4.5 -35.5q-96 -6 -127 -21q-65 -32 -180 -207q-79 -118 -231 -356q-17 -27 -22 -46.5t-7 -56.5q-4 -98 -4 -264q2 -123 16 -137q11 -11 195 -20q4 0 3.5 -36t-3.5 -36q-184 4 -350 4q-62 0 -175.5 -1t-166.5 -1 q-3 0 -4.5 18t-1 36t2.5 18q120 3 155.5 6.5t45.5 11.5q14 14 17 100q1 56 2 122.5t1.5 103t0.5 59.5q0 32 -4 46.5t-19 39.5q-202 326 -285 455q-69 108 -90 129q-16 16 -43.5 22t-109.5 9q-3 0 -3.5 18zM395 1475q0 53 38.5 92t96.5 39q57 0 93 -38t36 -95q0 -54 -39 -95 t-96 -41q-56 0 -92.5 40t-36.5 98zM758 1477q0 52 37.5 93.5t93.5 41.5q60 0 95.5 -38t35.5 -91q0 -60 -35.5 -101t-93.5 -41q-57 0 -95 39.5t-38 96.5z" />
<glyph unicode="&#x2c6;" horiz-adv-x="1032" d="M250 1020q33 39 66 81.5t57 76.5t42.5 61.5t29.5 45t12 18.5q10 5 65 6t74 -11q1 -1 27.5 -42.5t72.5 -108.5t90 -123q3 -5 -17.5 -25.5t-29.5 -19.5q-120 96 -223 160q-43 -30 -225 -166q-5 -3 -25 19t-16 28z" />
<glyph unicode="&#x2dc;" horiz-adv-x="1032" d="M219 1001q-12 94 37.5 173t144.5 79q53 0 142 -38.5t141 -38.5q27 0 47.5 24t40.5 80q1 1 17 -3t31 -9.5t14 -7.5q-6 -29 -9.5 -46t-11.5 -46.5t-16 -47.5t-21.5 -40.5t-29 -35t-37 -21.5t-47.5 -9q-64 0 -161.5 43t-152.5 43q-28 0 -44 -23t-23 -84q0 -1 -15.5 0 t-31 3.5t-15.5 4.5z" />
<glyph unicode="&#x2000;" horiz-adv-x="836" />
<glyph unicode="&#x2001;" horiz-adv-x="1673" />
<glyph unicode="&#x2002;" horiz-adv-x="836" />
<glyph unicode="&#x2003;" horiz-adv-x="1673" />
<glyph unicode="&#x2004;" horiz-adv-x="557" />
<glyph unicode="&#x2005;" horiz-adv-x="418" />
<glyph unicode="&#x2006;" horiz-adv-x="278" />
<glyph unicode="&#x2007;" horiz-adv-x="278" />
<glyph unicode="&#x2008;" horiz-adv-x="209" />
<glyph unicode="&#x2009;" horiz-adv-x="334" />
<glyph unicode="&#x200a;" horiz-adv-x="92" />
<glyph unicode="&#x2010;" horiz-adv-x="696" d="M100 430v123q0 10 11 10q111 -1 475 4q8 0 8 -8q1 -6 1 -33.5t-0.5 -59.5t-0.5 -34q0 -8 -10 -8q-160 4 -281 4q-40 0 -98 -2t-88 -2q-17 0 -17 6z" />
<glyph unicode="&#x2011;" horiz-adv-x="696" d="M100 430v123q0 10 11 10q111 -1 475 4q8 0 8 -8q1 -6 1 -33.5t-0.5 -59.5t-0.5 -34q0 -8 -10 -8q-160 4 -281 4q-40 0 -98 -2t-88 -2q-17 0 -17 6z" />
<glyph unicode="&#x2012;" horiz-adv-x="696" d="M100 430v123q0 10 11 10q111 -1 475 4q8 0 8 -8q1 -6 1 -33.5t-0.5 -59.5t-0.5 -34q0 -8 -10 -8q-160 4 -281 4q-40 0 -98 -2t-88 -2q-17 0 -17 6z" />
<glyph unicode="&#x2013;" horiz-adv-x="1044" d="M115 539q0 12 8 12q74 4 479 4q70 0 163.5 -1t154.5 -1q10 0 10 -10v-94q0 -9 -10 -9q-61 0 -377 -3t-402 -3q-16 0 -22 6q-4 4 -4 99z" />
<glyph unicode="&#x2014;" horiz-adv-x="1966" d="M115 545q0 8 10 8q201 -2 858 -2q56 0 434.5 1t429.5 1q6 0 6 -6q0 -99 -4 -103t-20 -4q-89 0 -727.5 -1t-763.5 -1h-215q-6 0 -6 4q0 2 -1 47t-1 56z" />
<glyph unicode="&#x2018;" horiz-adv-x="516" d="M76 891q0 139 86 246.5t223 154.5q8 3 19 -12.5t14.5 -31.5t-0.5 -21q-100 -43 -162 -105q-76 -76 -76 -168q0 -20 13 -20q5 0 29 13.5t54 13.5q60 0 93.5 -39.5t33.5 -98.5q0 -67 -44 -117.5t-107 -50.5q-81 0 -128.5 70.5t-47.5 165.5z" />
<glyph unicode="&#x2019;" horiz-adv-x="516" d="M80 721q96 49 153 106q89 89 89 168q0 13 -13 13q-4 0 -30.5 -11.5t-53.5 -11.5q-59 0 -93 44t-34 108q0 63 43.5 107t106.5 44q85 0 133.5 -67t48.5 -164q0 -149 -119 -271q-39 -39 -81 -66t-111 -63q-15 -6 -32.5 25t-6.5 39z" />
<glyph unicode="&#x201a;" horiz-adv-x="516" d="M80 -260q95 48 149 100q93 96 93 174q0 11 -11 11q-6 0 -32 -11.5t-52 -11.5q-59 0 -94 44.5t-35 107.5q0 64 43.5 108.5t106.5 44.5q86 0 134 -66t48 -165q0 -150 -119 -269q-68 -70 -192 -131q-15 -6 -32.5 25t-6.5 39z" />
<glyph unicode="&#x201c;" horiz-adv-x="960" d="M70 893q0 155 100 258q74 71 221 139q10 4 26 -25.5t7 -35.5q-112 -57 -172 -117q-76 -76 -76 -160q0 -20 14 -20q4 0 35 14.5t64 14.5q51 0 84 -39t33 -97q0 -69 -44.5 -119.5t-111.5 -50.5q-85 0 -132.5 69.5t-47.5 168.5zM516 915q0 127 82.5 225.5t218.5 153.5 q11 4 22 -12.5t14 -33t-1 -21.5q-97 -39 -163 -106t-66 -158q0 -25 14 -25q6 0 34 14.5t56 14.5q55 0 89 -42.5t34 -107.5t-42.5 -112.5t-111.5 -47.5q-82 0 -131 78t-49 180z" />
<glyph unicode="&#x201d;" horiz-adv-x="960" d="M86 721q108 60 156 106q36 36 56.5 80.5t20.5 81.5q0 17 -12 17q-3 0 -28 -9.5t-50 -9.5q-57 0 -93 41.5t-36 106.5q0 64 43 108.5t109 44.5q84 0 132 -67t48 -166q0 -151 -121 -275q-70 -68 -188 -125q-11 -6 -28 27t-9 39zM522 721q105 59 156 110q39 39 63.5 84.5 t24.5 81.5q0 15 -12 15q-5 0 -31 -9.5t-53 -9.5q-60 0 -94.5 39t-34.5 101q0 64 43 107.5t108 43.5q82 0 132 -60.5t50 -154.5q0 -86 -27.5 -150t-84.5 -122q-71 -71 -203 -140q-6 -2 -17.5 12.5t-18.5 31t-1 20.5z" />
<glyph unicode="&#x201e;" horiz-adv-x="960" d="M86 -262q103 57 154 106q37 39 58 83.5t21 80.5q0 17 -12 17q-2 0 -26 -9.5t-52 -9.5q-57 0 -93 41.5t-36 106.5q0 63 43 107t109 44q84 0 132 -66.5t48 -164.5q0 -151 -121 -275q-65 -65 -188 -125q-11 -6 -28 26.5t-9 37.5zM522 -260q103 58 152 104q40 42 66 88.5 t26 83.5q0 15 -12 15q-5 0 -31 -9.5t-53 -9.5q-60 0 -94.5 39t-34.5 101q0 64 43 107.5t108 43.5q82 0 132 -60.5t50 -154.5q0 -89 -29 -153.5t-89 -124.5q-65 -65 -197 -134q-6 -2 -17.5 12.5t-18.5 31t-1 20.5z" />
<glyph unicode="&#x2022;" horiz-adv-x="768" d="M141 670q0 105 68.5 174t167.5 69q67 0 108 -16.5t74 -50.5q68 -68 68 -182q0 -104 -66.5 -183.5t-173.5 -79.5q-103 0 -178 78q-68 68 -68 191z" />
<glyph unicode="&#x2026;" horiz-adv-x="1550" d="M113 141q0 74 45 119t112 45q70 0 115 -42t45 -113q0 -73 -44.5 -121.5t-113.5 -48.5q-65 0 -112 48t-47 113zM618 150q0 64 49 111.5t113 47.5q67 0 110.5 -44.5t43.5 -110.5q0 -71 -45 -120.5t-113 -49.5q-65 0 -111.5 48.5t-46.5 117.5zM1124 147q0 68 45.5 115 t112.5 47t111.5 -50.5t44.5 -115.5q0 -69 -46 -116t-112 -47q-71 0 -113.5 47t-42.5 120z" />
<glyph unicode="&#x202f;" horiz-adv-x="334" />
<glyph unicode="&#x2039;" horiz-adv-x="645" d="M83.5 447.5q-0.5 16.5 10.5 27.5q193 166 404 385q6 6 44 -17q14 -9 13 -12q-13 -21 -45.5 -74t-42 -68.5t-32.5 -54.5t-35 -60.5t-29.5 -55t-34.5 -69.5v-5q3 -40 47.5 -167t103.5 -257q3 -6 -20.5 -20t-30.5 -10q-132 176 -188 246q-85 106 -154 184q-10 11 -10.5 27.5 z" />
<glyph unicode="&#x203a;" horiz-adv-x="620" d="M100 829q-3 3 10 11q36 20 50 18q309 -349 336 -379q19 -19 18.5 -34t-20.5 -37q-28 -33 -57.5 -69t-50.5 -63t-53 -70.5t-48 -65.5t-55 -76.5t-54 -75.5q-3 -3 -18.5 2t-29 13t-11.5 13q62 160 147 410q5 19 0 29q-36 106 -68 178t-96 196z" />
<glyph unicode="&#x205f;" horiz-adv-x="418" />
<glyph unicode="&#x20ac;" horiz-adv-x="1210" d="M63 711q0 11 4 28t9 17h135q42 216 182 356q79 79 164.5 115.5t196.5 36.5q87 0 171 -33.5t142 -89.5q72 -72 72 -146q0 -59 -42.5 -99t-103.5 -40q-56 0 -96.5 33.5t-40.5 87.5q0 48 35 88q20 19 47 33t29 16q8 8 -12 28t-70.5 39t-112.5 19q-134 0 -201 -133 q-54 -107 -63 -313q221 0 385 2q14 -4 14 -29q0 -12 -4 -27.5t-8 -15.5h-389v-45q0 -74 2 -107q190 3 389 3q13 0 8 -46q-3 -26 -8 -26q-33 0 -126.5 1t-149.5 1h-111q9 -172 57 -268q60 -127 191 -127q106 0 186 80q70 73 121 165q2 5 18.5 -2.5t31.5 -18t13 -13.5 q-63 -117 -135 -189q-113 -110 -270 -110q-103 0 -183.5 34.5t-154.5 108.5q-128 128 -172 338h-141q-6 0 -6 24q0 45 8 48q64 0 129 -3q-4 58 -4 86q0 46 2 66h-131q-7 0 -7 27z" />
<glyph unicode="&#x2122;" horiz-adv-x="1495" d="M94 1028q3 33 10 213q0 10 11 10q6 0 93.5 -2t123.5 -2q96 0 256 4q10 0 10 -6q7 -108 2 -213q0 -3 -22 -3.5t-23 1.5q-20 78 -45 129q-12 21 -31 28t-61 5q-4 -4 -4 -109q-4 -222 -4 -256q0 -37 6 -43q3 -2 15 -3t32 -3t35 -4q4 -2 3.5 -28.5t-5.5 -26.5q-122 7 -297 0 q-3 0 -3.5 27.5t3.5 27.5q12 1 35 3t35 3.5t14 3.5q10 8 10 72q0 48 1 122t1 136v72q-6 6 -10 6q-46 -2 -63 -5.5t-25 -17.5q-25 -35 -56 -143q-1 -2 -24 -1.5t-23 3.5zM663 749.5q0 28.5 3 28.5q55 0 65 10q18 15 21 70q3 62 4 179.5t-2 144.5q-20 7 -80 12q-2 0 -2 14 t1 27.5t3 13.5q21 -2 225 -2q11 0 17 -12q18 -39 139 -358q77 205 129 368q6 6 76 6q18 0 81.5 -2t67.5 -2q1 0 1 -28.5t-1 -28.5q-61 0 -65 -4q-3 -2 -3 -71t1.5 -161t1.5 -102q3 -64 8 -68q3 -3 65 -10q2 0 2.5 -14t-0.5 -27.5t-4 -13.5q-2 0 -23.5 0.5t-52.5 1t-57 0.5 q-4 0 -61 -1t-60 -1q-2 0 -3 13.5t-1 27.5t2 14q58 9 60 12q8 5 8 64q0 251 -2 317q0 3 -2.5 3t-3.5 -3q-15 -45 -71 -201.5t-85 -248.5q0 -3 -35.5 -3t-36.5 3q-12 51 -92 256q-38 112 -82 205q-4 4 -4 0q-2 -160 -2 -320q0 -57 10 -70q6 -6 66 -16q6 0 6 -26.5t-6 -26.5 q-66 2 -223 2q-3 0 -3 28.5z" />
<glyph unicode="&#x25fc;" horiz-adv-x="849" d="M0 0v850h850v-850h-850z" />
</font>
</defs>
</svg>
