<?xml version="1.0" encoding="utf-8"?>
<!-- Generator: Adobe Illustrator 18.0.0, SVG Export Plug-In . SVG Version: 6.00 Build 0)  -->
<!DOCTYPE svg PUBLIC "-//W3C//DTD SVG 1.1//EN" "http://www.w3.org/Graphics/SVG/1.1/DTD/svg11.dtd">
<svg version="1.1" id="Livello_1" xmlns="http://www.w3.org/2000/svg" xmlns:xlink="http://www.w3.org/1999/xlink" x="0px" y="0px"
	 viewBox="0 0 40 40" enable-background="new 0 0 40 40" xml:space="preserve">
<g>
	<g>
		<path fill="#FFFFFF" d="M20,30.886c-0.552,0-1-0.448-1-1V10.938c0-0.552,0.448-1,1-1s1,0.448,1,1v18.948
			C21,30.438,20.552,30.886,20,30.886z"/>
	</g>
	<g>
		<path fill="#FFFFFF" d="M20,30.886c-0.256,0-0.512-0.098-0.707-0.293c-0.391-0.391-0.391-1.023,0-1.414l4-4
			c0.391-0.391,1.023-0.391,1.414,0s0.391,1.023,0,1.414l-4,4C20.512,30.788,20.256,30.886,20,30.886z"/>
	</g>
	<g>
		<path fill="#FFFFFF" d="M20,30.886c-0.256,0-0.512-0.098-0.707-0.293l-4-4c-0.391-0.391-0.391-1.023,0-1.414s1.023-0.391,1.414,0
			l4,4c0.391,0.391,0.391,1.023,0,1.414C20.512,30.788,20.256,30.886,20,30.886z"/>
	</g>
</g>
</svg>
